<svg width="185" height="186" viewBox="0 0 185 186" fill="none" xmlns="http://www.w3.org/2000/svg">
<g clip-path="url(#clip0_3119_3653)">
<path d="M18.4948 125.328C18.4948 125.328 11.2469 125.839 12.3804 141.644C13.514 157.45 38.9657 185.734 102.465 182.701C165.965 179.668 178.097 146.468 178.271 138.957C178.445 131.447 168.717 127.338 168.717 127.338L18.4948 125.328Z" fill="#FAA82F"/>
<path d="M101.42 160.647C94.0054 160.85 74.2739 161.953 53.7505 154.333C46.9514 151.808 39.8118 148.687 33.2653 145.511C30.3461 144.095 19.0236 138.868 20.695 146.543C22.0134 152.596 28.1667 154.535 32.5398 156.244C35.817 157.526 39.0753 158.701 42.3749 159.944C46.8497 161.631 69.7612 165.622 76.7496 165.807C79.1348 165.871 81.5012 165.919 83.8862 165.962C89.0471 166.056 93.654 164.37 98.6251 162.993C100.45 162.487 102.255 162.095 103.726 160.639C102.997 160.596 102.169 160.547 101.42 160.647Z" fill="#FFC042"/>
<path opacity="0.15" d="M168.717 127.338L18.4948 125.328C18.4948 125.328 24.4268 141.969 64.9749 153.422C68.8405 154.514 73.159 155.85 77.0981 156.351C81.4593 156.905 85.9294 155.236 90.3999 155.755C98.4298 156.685 106.088 154.467 113.988 153.322C120.101 152.435 126.006 151.128 132.039 149.713C137.164 148.511 143.199 146.23 148.51 147.132C152.869 147.872 158.612 152.856 156.751 158.856C154.747 165.317 146.667 166.965 141.695 168.054C134.513 169.627 127.638 171.52 120.334 172.317C97.3957 174.821 73.6707 174.038 50.8576 169.742C41.3579 167.952 30.694 165.147 22.9761 157.91C19.5908 154.736 16.3287 150.668 13.4724 146.73C19.0016 162.806 45.3292 185.431 102.465 182.701C165.965 179.668 178.097 146.468 178.271 138.958C178.444 131.447 168.717 127.338 168.717 127.338Z" fill="#F91E00"/>
<path d="M18.4948 125.328C18.4948 125.328 5.92044 113.225 16.7486 99.7571L97.0304 112.825L163.652 106.665C163.652 106.665 175.658 109.13 168.717 127.338C168.717 127.338 86.741 177.589 18.4948 125.328Z" fill="#782800"/>
<path d="M167.478 116.308C167.928 116.296 168.281 115.857 168.267 115.327C168.252 114.797 167.876 114.377 167.425 114.39C166.975 114.402 166.622 114.842 166.637 115.371C166.651 115.901 167.028 116.321 167.478 116.308Z" fill="#632100"/>
<path d="M162.618 120.23C163.314 120.211 163.859 119.532 163.837 118.713C163.814 117.895 163.232 117.247 162.537 117.266C161.842 117.285 161.297 117.964 161.319 118.782C161.342 119.601 161.923 120.249 162.618 120.23Z" fill="#632100"/>
<path d="M157.743 120.51C157.76 121.113 157.358 121.612 156.847 121.626C156.336 121.64 155.907 121.163 155.891 120.561C155.874 119.959 156.276 119.459 156.787 119.445C157.298 119.431 157.727 119.908 157.743 120.51Z" fill="#632100"/>
<path d="M153.524 126.012C153.54 126.574 153.165 127.04 152.688 127.053C152.211 127.066 151.812 126.621 151.797 126.059C151.781 125.498 152.155 125.032 152.633 125.019C153.109 125.006 153.509 125.45 153.524 126.012Z" fill="#632100"/>
<path d="M146.359 121.391C147.126 121.37 147.727 120.622 147.702 119.719C147.678 118.817 147.036 118.102 146.27 118.123C145.503 118.144 144.902 118.893 144.927 119.795C144.951 120.698 145.593 121.412 146.359 121.391Z" fill="#632100"/>
<path d="M143.584 124.728C143.598 125.229 143.264 125.645 142.838 125.657C142.413 125.668 142.056 125.271 142.043 124.77C142.029 124.27 142.363 123.854 142.788 123.842C143.214 123.83 143.57 124.227 143.584 124.728Z" fill="#632100"/>
<path d="M139.375 126.451C139.834 126.439 140.194 125.991 140.179 125.45C140.164 124.91 139.78 124.482 139.321 124.495C138.862 124.508 138.502 124.956 138.517 125.496C138.532 126.036 138.916 126.464 139.375 126.451Z" fill="#632100"/>
<path d="M136.56 129.278C136.575 129.821 136.214 130.271 135.753 130.284C135.292 130.297 134.906 129.867 134.891 129.324C134.876 128.782 135.238 128.331 135.699 128.319C136.16 128.306 136.545 128.736 136.56 129.278Z" fill="#632100"/>
<path d="M131.897 131.855C132.705 131.833 133.339 131.044 133.313 130.092C133.287 129.141 132.611 128.387 131.803 128.409C130.994 128.431 130.36 129.221 130.386 130.172C130.412 131.124 131.089 131.877 131.897 131.855Z" fill="#632100"/>
<path d="M126.986 127.35C127.524 127.335 127.947 126.81 127.929 126.176C127.912 125.542 127.461 125.04 126.923 125.055C126.384 125.069 125.962 125.595 125.979 126.229C125.997 126.863 126.447 127.365 126.986 127.35Z" fill="#632100"/>
<path d="M121.18 121.628C121.902 121.608 122.468 120.903 122.445 120.053C122.422 119.202 121.817 118.529 121.095 118.549C120.373 118.569 119.807 119.274 119.83 120.124C119.853 120.975 120.458 121.648 121.18 121.628Z" fill="#632100"/>
<path d="M120.643 135.005C120.66 135.605 120.26 136.102 119.751 136.116C119.242 136.13 118.816 135.655 118.799 135.056C118.783 134.456 119.182 133.959 119.692 133.945C120.201 133.931 120.627 134.405 120.643 135.005Z" fill="#632100"/>
<path d="M114.354 124.922C114.374 125.635 113.898 126.226 113.293 126.243C112.687 126.26 112.179 125.695 112.16 124.982C112.14 124.268 112.616 123.677 113.222 123.66C113.827 123.644 114.335 124.208 114.354 124.922Z" fill="#632100"/>
<path d="M111.171 129.07C111.195 129.962 110.601 130.702 109.843 130.723C109.084 130.744 108.45 130.037 108.426 129.145C108.401 128.253 108.996 127.513 109.754 127.492C110.512 127.471 111.146 128.177 111.171 129.07Z" fill="#632100"/>
<path d="M106.863 135.773C106.884 136.548 106.368 137.19 105.71 137.209C105.052 137.227 104.502 136.613 104.48 135.839C104.459 135.064 104.975 134.422 105.633 134.404C106.291 134.386 106.841 134.999 106.863 135.773Z" fill="#632100"/>
<path d="M102.157 134.08C102.175 134.725 101.745 135.26 101.198 135.275C100.65 135.29 100.192 134.779 100.175 134.135C100.157 133.49 100.586 132.955 101.134 132.94C101.681 132.925 102.139 133.436 102.157 134.08Z" fill="#632100"/>
<path d="M96.9723 136.794C96.9894 137.417 96.5743 137.933 96.0456 137.947C95.5168 137.962 95.074 137.469 95.057 136.846C95.0399 136.223 95.455 135.707 95.9837 135.692C96.5124 135.678 96.9552 136.171 96.9723 136.794Z" fill="#632100"/>
<path d="M91.2669 138.569C91.862 138.553 92.3288 137.971 92.3096 137.271C92.2904 136.57 91.7924 136.015 91.1973 136.032C90.6021 136.048 90.1353 136.629 90.1545 137.33C90.1738 138.031 90.6718 138.585 91.2669 138.569Z" fill="#632100"/>
<path d="M88.2499 134.272C88.2736 135.135 87.6992 135.85 86.9668 135.87C86.2344 135.89 85.6217 135.207 85.598 134.345C85.5743 133.483 86.1487 132.768 86.8811 132.748C87.6132 132.728 88.2262 133.41 88.2499 134.272Z" fill="#632100"/>
<path d="M83.0935 125.956C83.5663 125.943 83.9372 125.481 83.922 124.924C83.9067 124.368 83.511 123.927 83.0382 123.94C82.5653 123.953 82.1944 124.415 82.2097 124.971C82.225 125.528 82.6207 125.969 83.0935 125.956Z" fill="#632100"/>
<path d="M81.0949 132.901C81.1219 133.884 80.4664 134.701 79.6311 134.723C78.7957 134.746 78.0965 133.968 78.0695 132.984C78.0425 132.001 78.698 131.185 79.5333 131.162C80.3687 131.139 81.0679 131.918 81.0949 132.901Z" fill="#632100"/>
<path d="M75.2224 135.119C75.2373 135.659 74.8772 136.107 74.4181 136.12C73.959 136.132 73.5749 135.704 73.5601 135.164C73.5452 134.624 73.9053 134.176 74.3644 134.163C74.8235 134.15 75.2076 134.578 75.2224 135.119Z" fill="#632100"/>
<path d="M72.6876 124.893C72.714 125.853 72.0743 126.65 71.259 126.672C70.4438 126.694 69.7613 125.934 69.735 124.974C69.7086 124.015 70.3484 123.218 71.1636 123.196C71.9792 123.173 72.6613 123.933 72.6876 124.893Z" fill="#632100"/>
<path d="M67.4595 121C67.4788 121.704 67.0094 122.288 66.4114 122.305C65.813 122.321 65.3127 121.763 65.2933 121.059C65.274 120.355 65.7434 119.771 66.3414 119.754C66.9394 119.738 67.4402 120.296 67.4595 121Z" fill="#632100"/>
<path d="M62.7239 125.338C63.4815 125.317 64.0758 124.577 64.0513 123.685C64.0268 122.793 63.3928 122.087 62.6353 122.108C61.8777 122.129 61.2834 122.869 61.3079 123.76C61.3324 124.652 61.9664 125.358 62.7239 125.338Z" fill="#632100"/>
<path d="M60.8476 120.544C60.8672 121.259 60.3911 121.851 59.7844 121.868C59.1774 121.885 58.6699 121.319 58.6502 120.605C58.6306 119.89 59.1067 119.297 59.7134 119.281C60.3201 119.264 60.828 119.83 60.8476 120.544Z" fill="#632100"/>
<path d="M58.4843 119.536C58.5102 120.479 57.8819 121.261 57.0808 121.283C56.2798 121.305 55.6095 120.559 55.5836 119.616C55.5577 118.673 56.186 117.89 56.9871 117.868C57.7881 117.846 58.4584 118.593 58.4843 119.536Z" fill="#632100"/>
<path d="M54.296 121.165C54.3217 122.099 53.6994 122.874 52.906 122.896C52.1126 122.918 51.4487 122.178 51.4231 121.244C51.3974 120.31 52.0197 119.535 52.8131 119.513C53.6066 119.492 54.2704 120.231 54.296 121.165Z" fill="#632100"/>
<path d="M49.4359 121.519C49.4538 122.173 49.018 122.716 48.4622 122.731C47.9065 122.746 47.4415 122.228 47.4236 121.574C47.4056 120.92 47.8415 120.377 48.3972 120.362C48.953 120.346 49.4179 120.864 49.4359 121.519Z" fill="#632100"/>
<path d="M44.0426 122.954C44.4936 122.942 44.8474 122.501 44.8329 121.97C44.8183 121.439 44.4409 121.019 43.9898 121.031C43.5388 121.044 43.185 121.484 43.1996 122.015C43.2142 122.546 43.5916 122.967 44.0426 122.954Z" fill="#632100"/>
<path d="M39.6571 121.032C39.6787 121.82 39.1533 122.474 38.4836 122.493C37.8139 122.511 37.2534 121.887 37.2318 121.098C37.2101 120.31 37.7355 119.656 38.4052 119.637C39.075 119.619 39.6354 120.243 39.6571 121.032Z" fill="#632100"/>
<path d="M38.2344 114.247C38.9579 114.227 39.5255 113.521 39.5021 112.669C39.4787 111.817 38.8732 111.143 38.1497 111.162C37.4262 111.182 36.8587 111.889 36.882 112.741C36.9054 113.592 37.5109 114.267 38.2344 114.247Z" fill="#632100"/>
<path d="M30.0184 120.521C30.7501 120.501 31.3241 119.786 31.3005 118.925C31.2769 118.063 30.6645 117.381 29.9328 117.401C29.201 117.421 28.627 118.136 28.6507 118.997C28.6743 119.859 29.2867 120.541 30.0184 120.521Z" fill="#632100"/>
<path d="M28.6958 110.323C28.7119 110.909 28.3213 111.396 27.8235 111.409C27.3256 111.423 26.9089 110.959 26.8928 110.373C26.8767 109.786 27.2673 109.3 27.7652 109.286C28.2631 109.273 28.6798 109.737 28.6958 110.323Z" fill="#632100"/>
<path d="M24.6479 111.655C24.6635 112.222 24.2859 112.692 23.8043 112.705C23.3227 112.718 22.92 112.27 22.9044 111.703C22.8889 111.136 23.2667 110.666 23.748 110.652C24.2296 110.639 24.6323 111.088 24.6479 111.655Z" fill="#632100"/>
<path d="M19.3718 109.44C20.2205 109.417 20.8862 108.588 20.8588 107.589C20.8314 106.59 20.1212 105.799 19.2725 105.822C18.4239 105.845 17.7581 106.674 17.7856 107.673C17.813 108.673 18.5232 109.464 19.3718 109.44Z" fill="#632100"/>
<path d="M17.5614 103.475C17.5805 104.171 17.1165 104.749 16.5251 104.765C15.9336 104.781 15.4386 104.23 15.4195 103.534C15.4004 102.837 15.8644 102.26 16.4558 102.244C17.0473 102.227 17.5423 102.779 17.5614 103.475Z" fill="#632100"/>
<path d="M166.705 124.177C167.346 124.159 167.848 123.534 167.827 122.78C167.806 122.026 167.271 121.429 166.63 121.447C165.99 121.464 165.488 122.09 165.508 122.844C165.529 123.597 166.065 124.194 166.705 124.177Z" fill="#632100"/>
<path d="M160.404 119.148C161.125 119.128 161.691 118.423 161.668 117.574C161.645 116.724 161.041 116.052 160.319 116.072C159.598 116.091 159.032 116.796 159.055 117.646C159.078 118.495 159.682 119.168 160.404 119.148Z" fill="#632100"/>
<path d="M159.485 123.013C159.51 123.9 158.918 124.636 158.165 124.656C157.411 124.677 156.781 123.975 156.756 123.087C156.732 122.2 157.323 121.464 158.077 121.444C158.83 121.423 159.461 122.125 159.485 123.013Z" fill="#632100"/>
<path d="M152.392 125.521C153.021 125.503 153.514 124.889 153.494 124.149C153.474 123.408 152.947 122.822 152.318 122.839C151.689 122.856 151.196 123.471 151.216 124.211C151.236 124.952 151.763 125.538 152.392 125.521Z" fill="#632100"/>
<path d="M152.772 132.127C152.789 132.762 152.365 133.29 151.825 133.305C151.285 133.319 150.833 132.816 150.815 132.18C150.798 131.544 151.222 131.017 151.762 131.002C152.302 130.987 152.754 131.491 152.772 132.127Z" fill="#632100"/>
<path d="M147.735 132.275C147.75 132.798 147.402 133.231 146.958 133.243C146.515 133.255 146.144 132.842 146.129 132.32C146.115 131.797 146.463 131.364 146.906 131.352C147.35 131.34 147.721 131.753 147.735 132.275Z" fill="#632100"/>
<path d="M140.108 122.883C140.828 122.863 141.393 122.16 141.369 121.312C141.346 120.464 140.744 119.793 140.023 119.813C139.303 119.832 138.739 120.536 138.762 121.383C138.785 122.231 139.388 122.902 140.108 122.883Z" fill="#632100"/>
<path d="M136.613 135.643C137.209 135.627 137.677 135.044 137.658 134.342C137.639 133.64 137.14 133.085 136.543 133.101C135.947 133.117 135.479 133.7 135.499 134.402C135.518 135.104 136.017 135.659 136.613 135.643Z" fill="#632100"/>
<path d="M133.071 137.474C133.091 138.186 132.616 138.777 132.011 138.794C131.406 138.811 130.9 138.246 130.88 137.534C130.861 136.822 131.336 136.231 131.94 136.214C132.545 136.198 133.052 136.762 133.071 137.474Z" fill="#632100"/>
<path d="M127.028 136.359C127.044 136.964 126.642 137.465 126.128 137.479C125.615 137.493 125.185 137.015 125.169 136.41C125.152 135.806 125.555 135.304 126.068 135.29C126.582 135.276 127.011 135.755 127.028 136.359Z" fill="#632100"/>
<path d="M122.223 124.842C122.244 125.599 121.739 126.228 121.095 126.245C120.452 126.263 119.913 125.663 119.892 124.906C119.872 124.148 120.376 123.519 121.02 123.502C121.664 123.484 122.202 124.084 122.223 124.842Z" fill="#632100"/>
<path d="M116.59 126.485C116.605 127.037 116.238 127.494 115.769 127.507C115.3 127.52 114.908 127.083 114.893 126.531C114.878 125.98 115.245 125.522 115.714 125.509C116.183 125.496 116.575 125.933 116.59 126.485Z" fill="#632100"/>
<path d="M115.033 139.356C115.054 140.116 114.548 140.747 113.902 140.764C113.257 140.782 112.717 140.18 112.696 139.42C112.675 138.66 113.181 138.03 113.827 138.012C114.472 137.994 115.012 138.596 115.033 139.356Z" fill="#632100"/>
<path d="M110.053 127.022C110.073 127.757 109.583 128.366 108.959 128.384C108.335 128.401 107.812 127.819 107.792 127.084C107.772 126.349 108.262 125.739 108.886 125.722C109.51 125.704 110.033 126.286 110.053 127.022Z" fill="#632100"/>
<path d="M105.592 135.007C106.2 134.991 106.677 134.397 106.657 133.681C106.638 132.966 106.129 132.399 105.521 132.416C104.913 132.432 104.436 133.026 104.456 133.742C104.475 134.457 104.984 135.024 105.592 135.007Z" fill="#632100"/>
<path d="M100.861 134.331C100.876 134.872 100.515 135.322 100.055 135.335C99.5948 135.347 99.2096 134.918 99.1947 134.376C99.1798 133.835 99.5409 133.385 100.001 133.373C100.461 133.36 100.846 133.789 100.861 134.331Z" fill="#632100"/>
<path d="M95.6618 129.159C96.5103 129.135 97.1758 128.307 97.1484 127.308C97.121 126.309 96.411 125.518 95.5625 125.541C94.7141 125.565 94.0485 126.393 94.0759 127.392C94.1033 128.391 94.8133 129.182 95.6618 129.159Z" fill="#632100"/>
<path d="M90.605 142.383C91.1238 142.369 91.5307 141.863 91.514 141.252C91.4972 140.641 91.0631 140.157 90.5443 140.172C90.0256 140.186 89.6186 140.693 89.6354 141.303C89.6521 141.914 90.0863 142.398 90.605 142.383Z" fill="#632100"/>
<path d="M88.809 128.074C88.8303 128.849 88.314 129.492 87.6553 129.51C86.997 129.528 86.4459 128.915 86.4246 128.139C86.4033 127.364 86.9196 126.721 87.5783 126.703C88.2369 126.685 88.7878 127.299 88.809 128.074Z" fill="#632100"/>
<path d="M85.896 130.71C85.9221 131.66 85.2894 132.448 84.4825 132.47C83.6759 132.492 83.0006 131.74 82.9745 130.79C82.9485 129.841 83.5811 129.053 84.3881 129.031C85.195 129.008 85.8699 129.761 85.896 130.71Z" fill="#632100"/>
<path d="M82.2885 133.753C82.3074 134.44 81.85 135.009 81.2669 135.025C80.6842 135.041 80.1963 134.497 80.1775 133.811C80.1586 133.125 80.6159 132.556 81.1987 132.54C81.7818 132.524 82.2697 133.067 82.2885 133.753Z" fill="#632100"/>
<path d="M79.4039 127.359C79.4313 128.356 78.7671 129.183 77.92 129.206C77.0732 129.229 76.3647 128.44 76.3373 127.443C76.3099 126.446 76.9741 125.618 77.8209 125.595C78.668 125.572 79.3766 126.362 79.4039 127.359Z" fill="#632100"/>
<path d="M75.1915 129.987C75.2179 130.947 74.5778 131.744 73.7622 131.766C72.9466 131.789 72.2638 131.028 72.2374 130.068C72.2111 129.107 72.8511 128.311 73.6667 128.288C74.4823 128.266 75.1651 129.026 75.1915 129.987Z" fill="#632100"/>
<path d="M68.9927 135.901C69.0165 136.77 68.4375 137.491 67.6992 137.511C66.9612 137.532 66.3431 136.844 66.3193 135.975C66.2954 135.106 66.8744 134.385 67.6128 134.364C68.3511 134.345 68.9688 135.033 68.9927 135.901Z" fill="#632100"/>
<path d="M64.7807 126.876C64.804 127.727 64.2367 128.434 63.5133 128.454C62.7902 128.473 62.1847 127.799 62.1613 126.948C62.1379 126.096 62.7052 125.39 63.4287 125.37C64.1521 125.35 64.7573 126.024 64.7807 126.876Z" fill="#632100"/>
<path d="M61.0795 130.285C61.0991 130.998 60.624 131.59 60.0184 131.606C59.4128 131.623 58.9059 131.058 58.8864 130.345C58.8668 129.632 59.3419 129.041 59.9475 129.024C60.5532 129.008 61.06 129.572 61.0795 130.285Z" fill="#632100"/>
<path d="M58.1143 130.361C58.1368 131.181 57.591 131.86 56.8949 131.879C56.1988 131.899 55.6165 131.25 55.594 130.43C55.5715 129.611 56.1174 128.931 56.8134 128.912C57.5092 128.893 58.0918 129.542 58.1143 130.361Z" fill="#632100"/>
<path d="M52.4148 133.764C52.4335 134.446 51.9792 135.011 51.3999 135.027C50.8206 135.043 50.3359 134.503 50.3172 133.821C50.2985 133.139 50.7528 132.574 51.3321 132.558C51.9114 132.542 52.3961 133.082 52.4148 133.764Z" fill="#632100"/>
<path d="M48.4608 132.936C48.9411 132.923 49.3178 132.454 49.3023 131.888C49.2868 131.323 48.8849 130.875 48.4046 130.888C47.9243 130.901 47.5475 131.371 47.563 131.936C47.5786 132.501 47.9805 132.949 48.4608 132.936Z" fill="#632100"/>
<path d="M46.7649 121.364C46.7819 121.984 46.3688 122.498 45.8422 122.512C45.3156 122.527 44.8749 122.036 44.8579 121.416C44.8409 120.796 45.2539 120.282 45.7806 120.267C46.3072 120.253 46.7479 120.744 46.7649 121.364Z" fill="#632100"/>
<path d="M43.5885 119.367C43.6098 120.145 43.0918 120.79 42.4311 120.808C41.7707 120.826 41.2177 120.211 41.1964 119.433C41.1751 118.656 41.6931 118.01 42.3538 117.992C43.0142 117.974 43.5671 118.59 43.5885 119.367Z" fill="#632100"/>
<path d="M39.9268 118.064C39.9544 119.069 39.2846 119.903 38.4308 119.927C37.5771 119.95 36.8625 119.154 36.8349 118.149C36.8073 117.144 37.4772 116.31 38.3309 116.286C39.185 116.263 39.8993 117.059 39.9268 118.064Z" fill="#632100"/>
<path d="M31.0036 127.637C31.02 128.236 30.6207 128.734 30.1118 128.748C29.6028 128.762 29.1768 128.287 29.1604 127.688C29.1439 127.089 29.5432 126.591 30.0522 126.577C30.5612 126.564 30.9871 127.038 31.0036 127.637Z" fill="#632100"/>
<path d="M28.8802 122.192C28.8974 122.82 28.4787 123.342 27.9448 123.357C27.4108 123.372 26.9638 122.874 26.9465 122.245C26.9292 121.616 27.348 121.095 27.8823 121.08C28.4158 121.066 28.8629 121.563 28.8802 122.192Z" fill="#632100"/>
<path d="M25.2918 124.999C25.3186 125.972 24.6701 126.779 23.8434 126.802C23.0168 126.825 22.3247 126.054 22.298 125.081C22.2712 124.108 22.9197 123.3 23.7467 123.278C24.5734 123.255 25.2651 124.026 25.2918 124.999Z" fill="#632100"/>
<path d="M21.918 124.227C21.9434 125.15 21.3285 125.915 20.5447 125.937C19.761 125.958 19.1047 125.227 19.0794 124.305C19.054 123.382 19.6689 122.616 20.453 122.595C21.2367 122.573 21.8927 123.304 21.918 124.227Z" fill="#632100"/>
<path d="M20.9088 116.006C20.9259 116.63 20.5105 117.147 19.9808 117.161C19.451 117.176 19.0079 116.682 18.9907 116.059C18.9736 115.435 19.389 114.918 19.9188 114.903C20.4482 114.889 20.8917 115.382 20.9088 116.006Z" fill="#632100"/>
<path d="M14.1286 118.399C14.2827 119.014 14.474 119.628 14.6857 120.24C14.8782 120.369 15.099 120.444 15.3353 120.438C16.029 120.418 16.5728 119.741 16.5504 118.925C16.5279 118.108 15.9478 117.462 15.2542 117.481C14.7393 117.495 14.3083 117.872 14.1286 118.399Z" fill="#632100"/>
<path d="M163.731 128.331C164.58 128.308 165.245 127.479 165.218 126.48C165.19 125.481 164.48 124.69 163.632 124.714C162.784 124.737 162.118 125.566 162.145 126.564C162.173 127.563 162.883 128.354 163.731 128.331Z" fill="#632100"/>
<path d="M163.402 135.306C163.42 135.935 163 136.457 162.466 136.471C161.932 136.486 161.485 135.988 161.468 135.359C161.45 134.73 161.869 134.208 162.404 134.193C162.938 134.178 163.385 134.677 163.402 135.306Z" fill="#632100"/>
<path d="M158.778 125.462C158.806 126.481 158.128 127.325 157.263 127.349C156.399 127.373 155.675 126.567 155.647 125.548C155.619 124.53 156.297 123.686 157.162 123.662C158.027 123.638 158.751 124.444 158.778 125.462Z" fill="#632100"/>
<path d="M155.154 128.577C155.172 129.252 154.723 129.811 154.15 129.827C153.578 129.842 153.098 129.309 153.08 128.634C153.061 127.96 153.511 127.401 154.083 127.385C154.656 127.369 155.135 127.903 155.154 128.577Z" fill="#632100"/>
<path d="M150.267 127.376C150.981 127.357 151.541 126.659 151.518 125.819C151.494 124.978 150.897 124.313 150.183 124.332C149.469 124.352 148.909 125.049 148.932 125.89C148.955 126.73 149.553 127.396 150.267 127.376Z" fill="#632100"/>
<path d="M148.42 139.056C148.435 139.6 148.072 140.051 147.61 140.064C147.148 140.077 146.761 139.646 146.746 139.101C146.731 138.557 147.093 138.106 147.556 138.093C148.018 138.08 148.405 138.511 148.42 139.056Z" fill="#632100"/>
<path d="M146.034 141.107C146.054 141.825 145.576 142.421 144.966 142.437C144.356 142.454 143.846 141.885 143.826 141.168C143.806 140.45 144.285 139.854 144.894 139.837C145.504 139.821 146.015 140.389 146.034 141.107Z" fill="#632100"/>
<path d="M138.726 128.314C138.74 128.841 138.389 129.278 137.942 129.29C137.494 129.303 137.12 128.885 137.105 128.358C137.091 127.831 137.442 127.394 137.889 127.382C138.337 127.37 138.712 127.787 138.726 128.314Z" fill="#632100"/>
<path d="M137.839 137.628C137.864 138.55 137.25 139.316 136.466 139.337C135.682 139.359 135.026 138.628 135.001 137.706C134.975 136.783 135.59 136.017 136.374 135.996C137.158 135.974 137.814 136.705 137.839 137.628Z" fill="#632100"/>
<path d="M135.817 142.381C135.845 143.398 135.167 144.241 134.304 144.265C133.44 144.289 132.717 143.483 132.69 142.467C132.662 141.45 133.339 140.607 134.203 140.583C135.066 140.559 135.789 141.365 135.817 142.381Z" fill="#632100"/>
<path d="M129.763 146.829C129.789 147.763 129.167 148.537 128.374 148.559C127.58 148.581 126.917 147.842 126.891 146.908C126.866 145.974 127.488 145.199 128.281 145.178C129.074 145.155 129.738 145.895 129.763 146.829Z" fill="#632100"/>
<path d="M125.17 139.003C125.192 139.809 124.655 140.478 123.97 140.497C123.285 140.516 122.711 139.877 122.689 139.071C122.667 138.264 123.205 137.595 123.89 137.577C124.575 137.558 125.148 138.197 125.17 139.003Z" fill="#632100"/>
<path d="M120.503 143.165C120.529 144.107 119.901 144.889 119.101 144.911C118.3 144.933 117.631 144.187 117.605 143.245C117.579 142.302 118.207 141.521 119.007 141.499C119.807 141.477 120.477 142.223 120.503 143.165Z" fill="#632100"/>
<path d="M115.294 134.571C115.316 135.378 114.779 136.047 114.093 136.066C113.408 136.085 112.835 135.446 112.813 134.639C112.791 133.833 113.328 133.163 114.013 133.145C114.699 133.126 115.272 133.765 115.294 134.571Z" fill="#632100"/>
<path d="M110.8 142.286C110.822 143.061 110.305 143.705 109.646 143.723C108.987 143.741 108.436 143.127 108.415 142.351C108.393 141.576 108.91 140.932 109.569 140.914C110.228 140.896 110.779 141.511 110.8 142.286Z" fill="#632100"/>
<path d="M107.194 138.522C107.212 139.172 106.779 139.711 106.226 139.727C105.674 139.742 105.212 139.227 105.194 138.576C105.176 137.926 105.609 137.387 106.162 137.371C106.714 137.356 107.176 137.871 107.194 138.522Z" fill="#632100"/>
<path d="M102.657 139.839C103.275 139.822 103.76 139.218 103.74 138.489C103.72 137.761 103.203 137.185 102.584 137.202C101.966 137.219 101.481 137.823 101.501 138.551C101.521 139.279 102.038 139.856 102.657 139.839Z" fill="#632100"/>
<path d="M98.7269 149.141C98.7416 149.676 98.3852 150.12 97.9306 150.132C97.476 150.145 97.0958 149.721 97.0811 149.186C97.0664 148.651 97.4228 148.207 97.8774 148.194C98.3316 148.182 98.7122 148.605 98.7269 149.141Z" fill="#632100"/>
<path d="M92.7568 141.79C92.7743 142.427 92.3498 142.955 91.8086 142.97C91.2675 142.985 90.8146 142.481 90.7972 141.843C90.7797 141.206 91.2041 140.678 91.7453 140.663C92.2865 140.648 92.7393 141.153 92.7568 141.79Z" fill="#632100"/>
<path d="M88.7584 135.932C88.7849 136.896 88.1421 137.697 87.3227 137.719C86.5033 137.741 85.8177 136.978 85.7912 136.013C85.7647 135.048 86.4074 134.248 87.2268 134.226C88.0462 134.203 88.7319 134.967 88.7584 135.932Z" fill="#632100"/>
<path d="M84.4067 139.727C84.4337 140.71 83.7785 141.526 82.9435 141.549C82.1085 141.572 81.4096 140.793 81.3826 139.81C81.3557 138.827 82.0108 138.012 82.8458 137.989C83.6808 137.966 84.3797 138.744 84.4067 139.727Z" fill="#632100"/>
<path d="M77.486 143.259C77.9116 143.247 78.2454 142.832 78.2317 142.33C78.2179 141.829 77.8618 141.433 77.4362 141.444C77.0107 141.456 76.6768 141.872 76.6906 142.373C76.7043 142.874 77.0605 143.271 77.486 143.259Z" fill="#632100"/>
<path d="M72.3073 140.257C72.8431 140.242 73.2634 139.719 73.2461 139.088C73.2288 138.457 72.7804 137.958 72.2446 137.973C71.7088 137.987 71.2885 138.51 71.3059 139.141C71.3232 139.772 71.7715 140.272 72.3073 140.257Z" fill="#632100"/>
<path d="M66.7282 141.792C67.2428 141.778 67.6464 141.275 67.6298 140.669C67.6131 140.063 67.1825 139.584 66.668 139.598C66.1534 139.612 65.7498 140.115 65.7664 140.72C65.7831 141.326 66.2137 141.806 66.7282 141.792Z" fill="#632100"/>
<path d="M61.3904 146.866C61.9308 146.851 62.3547 146.323 62.3372 145.687C62.3198 145.051 61.8676 144.547 61.3272 144.562C60.7868 144.577 60.3629 145.104 60.3803 145.741C60.3978 146.377 60.85 146.881 61.3904 146.866Z" fill="#632100"/>
<path d="M57.3838 139.751C58.1416 139.73 58.736 138.99 58.7115 138.098C58.687 137.206 58.0529 136.499 57.2951 136.52C56.5374 136.541 55.943 137.281 55.9674 138.173C55.9919 139.065 56.6261 139.772 57.3838 139.751Z" fill="#632100"/>
<path d="M54.6489 129.497C54.6663 130.131 54.2438 130.657 53.7054 130.672C53.167 130.687 52.7163 130.185 52.6989 129.551C52.6815 128.917 53.104 128.391 53.6424 128.376C54.1808 128.362 54.6315 128.864 54.6489 129.497Z" fill="#632100"/>
<path d="M47.5119 139.788C47.5283 140.385 47.1306 140.88 46.6238 140.894C46.1169 140.908 45.6927 140.435 45.6763 139.839C45.6599 139.242 46.0575 138.747 46.5644 138.733C47.0713 138.719 47.4955 139.192 47.5119 139.788Z" fill="#632100"/>
<path d="M42.4923 133.119C43.3327 133.096 43.992 132.275 43.9649 131.286C43.9377 130.296 43.2344 129.513 42.394 129.536C41.5535 129.559 40.8943 130.38 40.9214 131.369C40.9486 132.359 41.6519 133.142 42.4923 133.119Z" fill="#632100"/>
<path d="M41.5297 125.589C41.5456 126.168 41.1593 126.649 40.6674 126.662C40.175 126.676 39.7633 126.217 39.7474 125.638C39.7315 125.058 40.1178 124.578 40.6098 124.564C41.1018 124.551 41.5138 125.009 41.5297 125.589Z" fill="#632100"/>
<path d="M33.9179 138.324C34.6986 138.302 35.3111 137.54 35.2858 136.621C35.2606 135.702 34.6072 134.974 33.8265 134.995C33.0458 135.017 32.4334 135.779 32.4586 136.698C32.4838 137.618 33.1372 138.345 33.9179 138.324Z" fill="#632100"/>
<path d="M34.0042 127.447C34.0275 128.297 33.4609 129.002 32.7388 129.022C32.0168 129.042 31.4123 128.368 31.389 127.518C31.3657 126.668 31.9323 125.963 32.6543 125.943C33.3764 125.923 33.9808 126.596 34.0042 127.447Z" fill="#632100"/>
<path d="M30.4397 122.91C30.4582 123.583 30.0089 124.143 29.4365 124.158C28.8641 124.174 28.3849 123.64 28.3664 122.966C28.3479 122.293 28.7971 121.733 29.3695 121.718C29.9419 121.702 30.4212 122.235 30.4397 122.91Z" fill="#632100"/>
<path d="M24.449 127.716C24.4665 128.356 24.0397 128.888 23.4954 128.903C22.9511 128.918 22.4958 128.411 22.4782 127.77C22.4606 127.129 22.8874 126.598 23.4317 126.583C23.9761 126.568 24.4314 127.075 24.449 127.716Z" fill="#632100"/>
<path d="M20.7933 123.963C20.8141 124.721 20.3089 125.35 19.6648 125.368C19.0207 125.386 18.4817 124.785 18.4609 124.027C18.4401 123.269 18.9453 122.64 19.5894 122.622C20.2335 122.604 20.7725 123.205 20.7933 123.963Z" fill="#632100"/>
<path d="M17.3683 114.351C18.2083 114.328 18.8673 113.507 18.8401 112.518C18.813 111.529 18.11 110.746 17.27 110.769C16.4299 110.792 15.7709 111.613 15.7981 112.602C15.8252 113.591 16.5282 114.374 17.3683 114.351Z" fill="#632100"/>
<path d="M146.938 135.782C146.956 136.426 146.527 136.961 145.979 136.976C145.432 136.991 144.974 136.48 144.956 135.836C144.938 135.192 145.368 134.657 145.915 134.642C146.463 134.627 146.921 135.137 146.938 135.782Z" fill="#632100"/>
<path d="M142.396 131.77C142.413 132.414 141.984 132.95 141.436 132.965C140.888 132.98 140.429 132.469 140.412 131.824C140.394 131.179 140.824 130.644 141.372 130.629C141.919 130.614 142.378 131.124 142.396 131.77Z" fill="#632100"/>
<path d="M137.823 139.697C137.838 140.254 137.467 140.716 136.993 140.729C136.52 140.742 136.124 140.301 136.108 139.744C136.093 139.186 136.465 138.724 136.938 138.711C137.411 138.698 137.807 139.139 137.823 139.697Z" fill="#632100"/>
<path d="M133.054 139.396C133.081 140.382 132.424 141.2 131.587 141.223C130.749 141.246 130.049 140.466 130.022 139.48C129.994 138.494 130.651 137.676 131.489 137.653C132.326 137.63 133.027 138.41 133.054 139.396Z" fill="#632100"/>
<path d="M126.623 138.449C126.637 138.952 126.301 139.369 125.874 139.381C125.447 139.393 125.089 138.995 125.076 138.492C125.062 137.988 125.397 137.571 125.824 137.559C126.251 137.547 126.609 137.946 126.623 138.449Z" fill="#632100"/>
<path d="M122.728 140.657C122.754 141.587 122.134 142.359 121.344 142.38C120.554 142.402 119.893 141.666 119.868 140.736C119.842 139.806 120.462 139.034 121.252 139.013C122.042 138.991 122.703 139.727 122.728 140.657Z" fill="#632100"/>
<path d="M107.86 142.122C108.293 142.11 108.632 141.687 108.618 141.178C108.604 140.669 108.242 140.266 107.81 140.278C107.377 140.29 107.038 140.712 107.052 141.221C107.066 141.73 107.428 142.134 107.86 142.122Z" fill="#632100"/>
<path d="M106.003 141.65C106.025 142.444 105.496 143.102 104.822 143.121C104.148 143.139 103.584 142.511 103.562 141.717C103.54 140.923 104.069 140.265 104.743 140.247C105.417 140.228 105.981 140.856 106.003 141.65Z" fill="#632100"/>
<path d="M99.892 149.94C100.46 149.925 100.906 149.37 100.888 148.701C100.869 148.031 100.394 147.502 99.8255 147.517C99.2571 147.533 98.8113 148.088 98.8297 148.757C98.8481 149.426 99.3237 149.956 99.892 149.94Z" fill="#632100"/>
<path d="M96.3006 142.655C96.3225 143.452 95.7914 144.113 95.1144 144.132C94.4374 144.15 93.8709 143.519 93.849 142.722C93.8271 141.925 94.3582 141.264 95.0352 141.245C95.7122 141.227 96.2788 141.858 96.3006 142.655Z" fill="#632100"/>
<path d="M89.6334 142.773C90.0878 142.761 90.4444 142.317 90.4297 141.782C90.415 141.247 90.0347 140.823 89.5802 140.836C89.1257 140.848 88.7692 141.292 88.7839 141.827C88.7986 142.362 89.1789 142.786 89.6334 142.773Z" fill="#632100"/>
<path d="M87.9515 145.277C87.973 146.061 87.451 146.711 86.7851 146.729C86.1195 146.747 85.5623 146.127 85.5407 145.343C85.5192 144.56 86.0412 143.909 86.7072 143.891C87.3731 143.873 87.93 144.493 87.9515 145.277Z" fill="#632100"/>
<path d="M82.7226 151.183C82.737 151.709 82.3866 152.145 81.94 152.158C81.4934 152.17 81.1197 151.754 81.1052 151.228C81.0908 150.702 81.4412 150.266 81.8878 150.254C82.3344 150.241 82.7081 150.658 82.7226 151.183Z" fill="#632100"/>
<path d="M79.6756 139.326C79.6949 140.03 79.2258 140.613 78.6282 140.63C78.0305 140.646 77.5301 140.089 77.5108 139.385C77.4915 138.682 77.9605 138.098 78.5582 138.081C79.1559 138.065 79.6563 138.622 79.6756 139.326Z" fill="#632100"/>
<path d="M76.335 146.459C76.3625 147.459 75.6966 148.288 74.8477 148.311C73.9989 148.334 73.2885 147.543 73.2611 146.544C73.2337 145.544 73.8995 144.715 74.7484 144.692C75.5973 144.669 76.3076 145.459 76.335 146.459Z" fill="#632100"/>
<path d="M71.2025 144.485C72.0091 144.463 72.6418 143.675 72.6157 142.726C72.5896 141.776 71.9147 141.024 71.1081 141.047C70.3016 141.069 69.6689 141.856 69.6949 142.806C69.721 143.756 70.396 144.507 71.2025 144.485Z" fill="#632100"/>
<path d="M66.6359 154.448C67.2094 154.432 67.6593 153.872 67.6407 153.197C67.6222 152.522 67.1423 151.987 66.5688 152.003C65.9953 152.019 65.5454 152.579 65.564 153.254C65.5825 153.929 66.0624 154.464 66.6359 154.448Z" fill="#632100"/>
<path d="M63.5803 152.574C63.6011 153.331 63.0969 153.959 62.4538 153.976C61.8107 153.994 61.2728 153.395 61.252 152.638C61.2313 151.881 61.7355 151.253 62.3786 151.235C63.0213 151.218 63.5596 151.817 63.5803 152.574Z" fill="#632100"/>
<path d="M58.5312 141.749C59.2758 141.729 59.8598 141.002 59.8358 140.125C59.8117 139.249 59.1886 138.554 58.4441 138.575C57.6995 138.595 57.1155 139.323 57.1395 140.199C57.1636 141.076 57.7867 141.77 58.5312 141.749Z" fill="#632100"/>
<path d="M55.6585 136.342C55.6747 136.93 55.283 137.417 54.7841 137.431C54.2852 137.445 53.8675 136.979 53.8513 136.392C53.8352 135.805 54.2268 135.317 54.7257 135.303C55.2246 135.29 55.6424 135.755 55.6585 136.342Z" fill="#632100"/>
<path d="M51.7328 139.957C51.7501 140.586 51.331 141.108 50.7968 141.122C50.2625 141.137 49.8151 140.639 49.7978 140.01C49.7805 139.38 50.1996 138.858 50.7342 138.844C51.2685 138.829 51.7156 139.328 51.7328 139.957Z" fill="#632100"/>
<path d="M44.3573 145.964C44.9289 145.949 45.3773 145.39 45.3588 144.717C45.3403 144.044 44.862 143.512 44.2904 143.527C43.7189 143.543 43.2705 144.101 43.289 144.774C43.3074 145.447 43.7858 145.98 44.3573 145.964Z" fill="#632100"/>
<path d="M41.2153 134.561C41.66 134.549 42.0089 134.115 41.9945 133.591C41.9801 133.067 41.608 132.653 41.1633 132.665C40.7186 132.677 40.3697 133.112 40.3841 133.635C40.3985 134.159 40.7706 134.573 41.2153 134.561Z" fill="#632100"/>
<path d="M34.805 141.221C34.8201 141.774 34.452 142.232 33.9832 142.245C33.5141 142.258 33.1213 141.82 33.1062 141.268C33.091 140.716 33.4592 140.257 33.9283 140.244C34.3971 140.232 34.7898 140.669 34.805 141.221Z" fill="#632100"/>
<path d="M29.2136 140.592C29.2349 141.369 28.7172 142.014 28.0575 142.032C27.3978 142.05 26.8456 141.435 26.8243 140.658C26.803 139.881 27.3206 139.237 27.9803 139.219C28.6403 139.201 29.1922 139.816 29.2136 140.592Z" fill="#632100"/>
<path d="M27.2036 132.495C27.2252 133.283 26.7001 133.937 26.0311 133.955C25.3617 133.973 24.802 133.349 24.7803 132.562C24.7587 131.774 25.2838 131.12 25.9528 131.102C26.6218 131.084 27.1819 131.707 27.2036 132.495Z" fill="#632100"/>
<path d="M26.4355 125.686C27.2637 125.663 27.9133 124.854 27.8866 123.879C27.8598 122.904 27.1667 122.132 26.3386 122.155C25.5104 122.178 24.8607 122.987 24.8875 123.962C24.9142 124.937 25.6073 125.709 26.4355 125.686Z" fill="#632100"/>
<path d="M23.9691 120.868C23.9891 121.596 23.5039 122.2 22.8854 122.217C22.267 122.234 21.7494 121.657 21.7295 120.929C21.7095 120.201 22.1946 119.597 22.8131 119.58C23.4315 119.563 23.9491 120.139 23.9691 120.868Z" fill="#632100"/>
<path d="M167.257 118.059C167.283 119.027 166.639 119.83 165.817 119.852C164.995 119.875 164.307 119.109 164.281 118.141C164.254 117.173 164.899 116.371 165.721 116.348C166.542 116.326 167.23 117.092 167.257 118.059Z" fill="#632100"/>
<path d="M160.022 109.762C160.545 109.748 160.956 109.237 160.939 108.621C160.922 108.005 160.484 107.517 159.961 107.531C159.437 107.545 159.027 108.057 159.044 108.673C159.061 109.289 159.499 109.777 160.022 109.762Z" fill="#632100"/>
<path d="M159.838 116.383C159.855 117.011 159.437 117.531 158.904 117.546C158.371 117.561 157.925 117.064 157.908 116.436C157.89 115.808 158.308 115.288 158.842 115.273C159.375 115.259 159.821 115.755 159.838 116.383Z" fill="#632100"/>
<path d="M155.887 112.202C155.908 112.95 155.409 113.57 154.775 113.588C154.14 113.605 153.608 113.013 153.588 112.265C153.567 111.518 154.066 110.898 154.7 110.88C155.335 110.863 155.867 111.455 155.887 112.202Z" fill="#632100"/>
<path d="M153.61 114.5C153.638 115.515 152.961 116.357 152.099 116.38C151.237 116.404 150.516 115.6 150.488 114.586C150.46 113.571 151.136 112.729 151.998 112.705C152.86 112.681 153.582 113.485 153.61 114.5Z" fill="#632100"/>
<path d="M152.226 126.706C152.242 127.273 151.864 127.743 151.382 127.757C150.901 127.77 150.498 127.321 150.483 126.754C150.467 126.188 150.845 125.717 151.326 125.704C151.807 125.691 152.211 126.139 152.226 126.706Z" fill="#632100"/>
<path d="M146.404 120.571C146.425 121.36 145.9 122.014 145.23 122.032C144.561 122.051 144 121.427 143.978 120.638C143.957 119.85 144.482 119.195 145.152 119.177C145.822 119.159 146.382 119.783 146.404 120.571Z" fill="#632100"/>
<path d="M142.991 123.894C143.012 124.671 142.494 125.317 141.834 125.335C141.173 125.353 140.62 124.737 140.599 123.959C140.577 123.182 141.096 122.537 141.756 122.518C142.417 122.5 142.97 123.116 142.991 123.894Z" fill="#632100"/>
<path d="M137.079 124.835C137.831 124.815 138.421 124.08 138.396 123.195C138.372 122.309 137.743 121.608 136.991 121.629C136.239 121.65 135.649 122.384 135.673 123.27C135.697 124.155 136.327 124.856 137.079 124.835Z" fill="#632100"/>
<path d="M136.135 135.06C136.986 135.037 137.653 134.206 137.625 133.205C137.598 132.204 136.886 131.411 136.036 131.435C135.185 131.458 134.518 132.289 134.546 133.29C134.573 134.291 135.285 135.084 136.135 135.06Z" fill="#632100"/>
<path d="M131.351 124.719C131.377 125.652 130.755 126.426 129.963 126.448C129.171 126.47 128.508 125.731 128.482 124.798C128.456 123.865 129.078 123.091 129.87 123.07C130.663 123.048 131.326 123.787 131.351 124.719Z" fill="#632100"/>
<path d="M126.561 125.304C127.238 125.286 127.769 124.624 127.747 123.827C127.725 123.03 127.158 122.399 126.481 122.418C125.804 122.436 125.273 123.098 125.295 123.895C125.317 124.692 125.884 125.323 126.561 125.304Z" fill="#632100"/>
<path d="M123.351 126.082C123.374 126.942 122.801 127.657 122.07 127.677C121.339 127.697 120.728 127.015 120.704 126.155C120.681 125.294 121.254 124.581 121.985 124.561C122.715 124.541 123.327 125.221 123.351 126.082Z" fill="#632100"/>
<path d="M119.301 136.115C119.327 137.075 118.687 137.871 117.872 137.894C117.057 137.916 116.374 137.156 116.348 136.196C116.322 135.236 116.961 134.44 117.777 134.417C118.592 134.395 119.274 135.155 119.301 136.115Z" fill="#632100"/>
<path d="M112.055 134.915C112.776 134.895 113.342 134.191 113.319 133.342C113.295 132.493 112.692 131.821 111.971 131.841C111.25 131.86 110.684 132.564 110.708 133.413C110.731 134.262 111.334 134.934 112.055 134.915Z" fill="#632100"/>
<path d="M108.49 125.906C108.512 126.707 107.979 127.37 107.299 127.389C106.62 127.408 106.051 126.774 106.029 125.974C106.007 125.173 106.54 124.51 107.22 124.491C107.9 124.472 108.468 125.106 108.49 125.906Z" fill="#632100"/>
<path d="M104.671 133.447C105.197 133.432 105.61 132.919 105.593 132.3C105.576 131.681 105.136 131.19 104.61 131.205C104.084 131.219 103.671 131.733 103.688 132.352C103.705 132.971 104.145 133.461 104.671 133.447Z" fill="#632100"/>
<path d="M100.815 136.897C100.837 137.69 100.308 138.348 99.634 138.367C98.9601 138.385 98.3961 137.757 98.3743 136.964C98.3525 136.17 98.8813 135.512 99.5552 135.494C100.229 135.475 100.793 136.103 100.815 136.897Z" fill="#632100"/>
<path d="M94.9811 130.622C95.5423 130.607 95.9826 130.059 95.9645 129.398C95.9463 128.737 95.4766 128.214 94.9154 128.229C94.3542 128.245 93.9139 128.793 93.9321 129.454C93.9502 130.114 94.4199 130.638 94.9811 130.622Z" fill="#632100"/>
<path d="M91.5691 138.185C91.5887 138.898 91.1136 139.49 90.508 139.507C89.9024 139.523 89.3955 138.959 89.376 138.246C89.3564 137.533 89.8315 136.941 90.4371 136.924C91.0431 136.908 91.5496 137.472 91.5691 138.185Z" fill="#632100"/>
<path d="M87.5363 132.415C87.5528 133.017 87.1518 133.517 86.6405 133.531C86.1294 133.545 85.7016 133.068 85.6851 132.466C85.6686 131.864 86.0696 131.365 86.5806 131.351C87.092 131.337 87.5198 131.813 87.5363 132.415Z" fill="#632100"/>
<path d="M83.1819 138.234C83.2027 138.992 82.6978 139.621 82.0537 139.638C81.4099 139.656 80.8709 139.056 80.8501 138.298C80.8293 137.54 81.3342 136.911 81.9783 136.893C82.6224 136.875 83.1611 137.475 83.1819 138.234Z" fill="#632100"/>
<path d="M78.5513 125.529C78.5731 126.32 78.0457 126.977 77.3735 126.995C76.7014 127.014 76.1387 126.387 76.117 125.595C76.0953 124.804 76.6227 124.148 77.2948 124.129C77.967 124.111 78.5296 124.737 78.5513 125.529Z" fill="#632100"/>
<path d="M73.6223 124.965C73.6444 125.77 73.1083 126.437 72.4247 126.456C71.7411 126.475 71.1692 125.838 71.1471 125.033C71.125 124.228 71.6611 123.561 72.3447 123.542C73.0283 123.523 73.6002 124.16 73.6223 124.965Z" fill="#632100"/>
<path d="M66.9332 137.715C66.947 138.216 66.6127 138.632 66.1869 138.644C65.7611 138.656 65.4045 138.259 65.3907 137.757C65.3769 137.256 65.7112 136.84 66.137 136.828C66.5628 136.816 66.9194 137.214 66.9332 137.715Z" fill="#632100"/>
<path d="M62.308 125.646C62.3244 126.244 61.9257 126.741 61.4178 126.755C60.9095 126.768 60.4846 126.295 60.4682 125.697C60.4518 125.099 60.8504 124.602 61.3584 124.589C61.8666 124.575 62.2916 125.048 62.308 125.646Z" fill="#632100"/>
<path d="M57.7972 131.82C58.4888 131.801 59.0313 131.126 59.0089 130.312C58.9866 129.498 58.4078 128.853 57.7163 128.872C57.0247 128.891 56.4822 129.566 56.5046 130.381C56.5269 131.195 57.1057 131.839 57.7972 131.82Z" fill="#632100"/>
<path d="M55.5845 124.374C55.5999 124.935 55.2254 125.402 54.7483 125.415C54.2709 125.428 53.8717 124.983 53.8563 124.421C53.8408 123.859 54.2154 123.393 54.6925 123.38C55.1696 123.367 55.5691 123.812 55.5845 124.374Z" fill="#632100"/>
<path d="M49.7027 128.094C50.5419 128.071 51.2003 127.252 51.1732 126.263C51.1461 125.275 50.4437 124.493 49.6044 124.516C48.7652 124.539 48.1068 125.359 48.1339 126.347C48.161 127.335 48.8634 128.117 49.7027 128.094Z" fill="#632100"/>
<path d="M44.7419 134.432C44.7693 135.433 44.1028 136.262 43.2529 136.286C42.4033 136.309 41.6919 135.517 41.6645 134.516C41.637 133.516 42.3035 132.686 43.1534 132.663C44.0033 132.64 44.7144 133.432 44.7419 134.432Z" fill="#632100"/>
<path d="M41.7819 129.887C41.8046 130.716 41.2524 131.404 40.5484 131.423C39.8444 131.442 39.2553 130.786 39.2325 129.957C39.2098 129.128 39.762 128.441 40.466 128.422C41.17 128.402 41.7591 129.059 41.7819 129.887Z" fill="#632100"/>
<path d="M39.5737 120.824C40.1623 120.808 40.6241 120.233 40.605 119.54C40.586 118.847 40.0934 118.299 39.5049 118.315C38.9163 118.331 38.4545 118.906 38.4735 119.599C38.4926 120.292 38.9851 120.84 39.5737 120.824Z" fill="#632100"/>
<path d="M35.8216 119.911C35.8449 120.761 35.2783 121.467 34.5556 121.487C33.8332 121.507 33.2284 120.834 33.205 119.983C33.1817 119.132 33.7486 118.426 34.471 118.406C35.1938 118.387 35.7982 119.06 35.8216 119.911Z" fill="#632100"/>
<path d="M30.1363 119.31C30.1559 120.024 29.6802 120.616 29.0742 120.633C28.4682 120.649 27.9603 120.084 27.9407 119.371C27.9211 118.657 28.3969 118.065 29.0032 118.048C29.6096 118.032 30.1167 118.597 30.1363 119.31Z" fill="#632100"/>
<path d="M23.0485 127.577C23.0719 128.429 22.5046 129.135 21.7812 129.155C21.0577 129.175 20.4526 128.501 20.4292 127.649C20.4058 126.797 20.9731 126.091 21.6965 126.071C22.4196 126.051 23.0252 126.725 23.0485 127.577Z" fill="#632100"/>
<path d="M18.8384 118.505C18.8602 119.299 18.3315 119.957 17.6572 119.976C16.983 119.994 16.4189 119.366 16.3971 118.572C16.3754 117.779 16.9041 117.12 17.5783 117.102C18.2526 117.083 18.8166 117.712 18.8384 118.505Z" fill="#632100"/>
<path d="M167.6 122.671C167.621 123.423 167.12 124.046 166.481 124.064C165.843 124.081 165.308 123.486 165.288 122.734C165.267 121.983 165.768 121.359 166.407 121.341C167.045 121.324 167.579 121.919 167.6 122.671Z" fill="#632100"/>
<path d="M163.415 127.277C163.443 128.295 162.765 129.138 161.901 129.162C161.037 129.186 160.315 128.38 160.287 127.363C160.259 126.346 160.937 125.502 161.8 125.479C162.664 125.455 163.387 126.261 163.415 127.277Z" fill="#632100"/>
<path d="M157.932 116.991C157.954 117.784 157.425 118.443 156.751 118.462C156.076 118.48 155.512 117.851 155.49 117.058C155.468 116.264 155.998 115.605 156.672 115.587C157.346 115.568 157.91 116.197 157.932 116.991Z" fill="#632100"/>
<path d="M155.398 132.849C155.418 133.598 154.92 134.219 154.284 134.236C153.648 134.253 153.116 133.661 153.096 132.912C153.075 132.164 153.574 131.543 154.209 131.526C154.845 131.508 155.377 132.101 155.398 132.849Z" fill="#632100"/>
<path d="M146.439 124.204C147.049 124.188 147.527 123.592 147.507 122.874C147.488 122.156 146.977 121.588 146.367 121.604C145.757 121.621 145.279 122.217 145.299 122.935C145.319 123.653 145.829 124.221 146.439 124.204Z" fill="#632100"/>
<path d="M143.383 130.315C143.397 130.826 143.057 131.249 142.623 131.261C142.189 131.273 141.826 130.869 141.812 130.358C141.798 129.847 142.139 129.424 142.572 129.412C143.006 129.4 143.369 129.804 143.383 130.315Z" fill="#632100"/>
<path d="M140.017 124.985C140.043 125.94 139.407 126.732 138.595 126.755C137.784 126.777 137.106 126.021 137.079 125.066C137.053 124.111 137.689 123.319 138.501 123.296C139.312 123.274 139.99 124.03 140.017 124.985Z" fill="#632100"/>
<path d="M135.067 134.374C135.723 134.356 136.237 133.715 136.216 132.944C136.195 132.172 135.646 131.561 134.991 131.579C134.335 131.597 133.821 132.237 133.842 133.009C133.864 133.781 134.412 134.392 135.067 134.374Z" fill="#632100"/>
<path d="M130.201 131.081C130.86 131.063 131.377 130.419 131.356 129.642C131.335 128.866 130.783 128.251 130.123 128.27C129.464 128.288 128.947 128.932 128.968 129.708C128.989 130.484 129.541 131.099 130.201 131.081Z" fill="#632100"/>
<path d="M125.947 130.228C125.969 131.032 125.434 131.699 124.751 131.717C124.069 131.736 123.498 131.1 123.476 130.296C123.453 129.493 123.989 128.826 124.671 128.807C125.354 128.788 125.925 129.425 125.947 130.228Z" fill="#632100"/>
<path d="M123.24 138.717C123.262 139.524 122.724 140.194 122.038 140.213C121.353 140.232 120.779 139.593 120.756 138.785C120.734 137.978 121.272 137.308 121.958 137.289C122.644 137.271 123.218 137.91 123.24 138.717Z" fill="#632100"/>
<path d="M116.92 126.764C117.649 126.744 118.221 126.032 118.198 125.174C118.174 124.316 117.564 123.636 116.835 123.656C116.106 123.676 115.534 124.388 115.558 125.246C115.581 126.105 116.191 126.784 116.92 126.764Z" fill="#632100"/>
<path d="M114.373 130.858C114.399 131.777 113.786 132.54 113.005 132.562C112.224 132.583 111.57 131.855 111.545 130.936C111.52 130.016 112.133 129.254 112.913 129.232C113.695 129.211 114.348 129.939 114.373 130.858Z" fill="#632100"/>
<path d="M110.327 127.545C110.353 128.475 109.733 129.246 108.944 129.268C108.154 129.29 107.493 128.554 107.468 127.624C107.442 126.694 108.062 125.923 108.851 125.901C109.641 125.88 110.302 126.616 110.327 127.545Z" fill="#632100"/>
<path d="M105.632 138.166C106.283 138.148 106.794 137.512 106.773 136.745C106.752 135.978 106.207 135.371 105.555 135.389C104.904 135.407 104.393 136.043 104.414 136.81C104.435 137.577 104.98 138.184 105.632 138.166Z" fill="#632100"/>
<path d="M102.436 126.168C102.459 127.005 101.902 127.698 101.192 127.718C100.481 127.737 99.8865 127.075 99.8635 126.239C99.8405 125.402 100.398 124.708 101.108 124.689C101.819 124.669 102.413 125.331 102.436 126.168Z" fill="#632100"/>
<path d="M98.3144 140.834C98.3399 141.761 97.7226 142.53 96.9355 142.551C96.1483 142.573 95.4898 141.839 95.4644 140.913C95.4389 139.986 96.0565 139.217 96.8434 139.196C97.6302 139.174 98.289 139.908 98.3144 140.834Z" fill="#632100"/>
<path d="M93.2712 140.026C93.2891 140.679 92.8539 141.221 92.2992 141.236C91.7445 141.252 91.2802 140.734 91.2623 140.081C91.2444 139.428 91.6796 138.886 92.2343 138.871C92.789 138.856 93.2533 139.373 93.2712 140.026Z" fill="#632100"/>
<path d="M87.8256 131.619C87.84 132.145 87.4897 132.582 87.0427 132.594C86.5958 132.606 86.222 132.19 86.2075 131.664C86.1931 131.138 86.5435 130.701 86.9904 130.689C87.4374 130.677 87.8111 131.093 87.8256 131.619Z" fill="#632100"/>
<path d="M84.5828 138.764C84.6058 139.602 84.0475 140.297 83.3359 140.317C82.6242 140.336 82.0287 139.673 82.0057 138.835C81.9827 137.997 82.5409 137.302 83.2526 137.283C83.9643 137.263 84.5598 137.926 84.5828 138.764Z" fill="#632100"/>
<path d="M79.3372 139.742C79.3536 140.341 78.9543 140.838 78.4453 140.852C77.9363 140.866 77.51 140.392 77.4936 139.792C77.4771 139.193 77.8764 138.695 78.3857 138.681C78.8944 138.668 79.3207 139.142 79.3372 139.742Z" fill="#632100"/>
<path d="M75.5076 138.194C76.2558 138.173 76.8427 137.443 76.8185 136.562C76.7944 135.681 76.1682 134.984 75.42 135.004C74.6718 135.025 74.0849 135.755 74.1091 136.636C74.1333 137.517 74.7594 138.214 75.5076 138.194Z" fill="#632100"/>
<path d="M73.0406 123.061C73.0612 123.813 72.56 124.438 71.9208 124.455C71.2819 124.473 70.7468 123.877 70.7261 123.125C70.7055 122.373 71.2067 121.748 71.846 121.731C72.4852 121.713 73.0199 122.309 73.0406 123.061Z" fill="#632100"/>
<path d="M65.4324 139.654C66.2052 139.632 66.8115 138.878 66.7866 137.968C66.7616 137.058 66.1148 136.337 65.3419 136.358C64.5691 136.38 63.9628 137.134 63.9877 138.044C64.0127 138.954 64.6595 139.675 65.4324 139.654Z" fill="#632100"/>
<path d="M65.8066 121.709C65.8328 122.663 65.1971 123.454 64.3867 123.477C63.5763 123.499 62.8982 122.744 62.872 121.789C62.8458 120.835 63.4815 120.044 64.2919 120.022C65.1023 119.999 65.7805 120.755 65.8066 121.709Z" fill="#632100"/>
<path d="M60.9083 132.762C60.9283 133.492 60.4422 134.097 59.8223 134.114C59.2025 134.131 58.6839 133.554 58.6638 132.824C58.6438 132.094 59.13 131.489 59.7498 131.472C60.3697 131.455 60.8883 132.033 60.9083 132.762Z" fill="#632100"/>
<path d="M57.9009 122.916C58.7 122.894 59.3268 122.113 59.301 121.172C59.2752 120.232 58.6065 119.487 57.8074 119.509C57.0083 119.531 56.3814 120.311 56.4072 121.252C56.4331 122.193 57.1018 122.937 57.9009 122.916Z" fill="#632100"/>
<path d="M53.5342 131.294C54.2018 131.276 54.7256 130.624 54.704 129.838C54.6824 129.052 54.1237 128.43 53.4561 128.448C52.7885 128.466 52.2647 129.118 52.2863 129.904C52.3079 130.69 52.8666 131.313 53.5342 131.294Z" fill="#632100"/>
<path d="M48.6709 135.487C49.4373 135.466 50.0384 134.718 50.0137 133.815C49.9889 132.913 49.3476 132.199 48.5812 132.22C47.8148 132.241 47.2136 132.989 47.2384 133.892C47.2632 134.794 47.9045 135.508 48.6709 135.487Z" fill="#632100"/>
<path d="M48.1659 120.587C48.7535 120.571 49.2145 119.997 49.1955 119.305C49.1765 118.613 48.6847 118.065 48.0971 118.081C47.5095 118.098 47.0485 118.671 47.0675 119.363C47.0865 120.055 47.5782 120.603 48.1659 120.587Z" fill="#632100"/>
<path d="M43.834 130.447C43.8497 131.022 43.4668 131.499 42.9787 131.512C42.4905 131.525 42.082 131.07 42.0662 130.496C42.0505 129.921 42.4333 129.444 42.9215 129.431C43.4097 129.417 43.8182 129.872 43.834 130.447Z" fill="#632100"/>
<path d="M41.1241 127.069C41.1382 127.581 40.7965 128.007 40.361 128.019C39.9255 128.031 39.5614 127.625 39.5473 127.112C39.5332 126.599 39.8749 126.174 40.3101 126.162C40.7452 126.15 41.11 126.556 41.1241 127.069Z" fill="#632100"/>
<path d="M37.4849 123.702C37.504 124.396 37.0419 124.971 36.4533 124.987C35.8643 125.003 35.3718 124.454 35.3527 123.761C35.3337 123.068 35.7957 122.493 36.3844 122.476C36.973 122.46 37.4659 123.009 37.4849 123.702Z" fill="#632100"/>
<path d="M34.6023 118.062C34.6251 118.892 34.0722 119.58 33.3672 119.599C32.6621 119.619 32.0723 118.961 32.0495 118.132C32.0267 117.302 32.5796 116.613 33.2847 116.594C33.9897 116.575 34.5796 117.232 34.6023 118.062Z" fill="#632100"/>
<path d="M27.2352 120.462C27.7706 120.447 28.1907 119.924 28.1734 119.294C28.1561 118.664 27.708 118.165 27.1726 118.179C26.6372 118.194 26.2172 118.717 26.2345 119.347C26.2518 119.978 26.6998 120.477 27.2352 120.462Z" fill="#632100"/>
<path d="M24.4787 113.604C24.4966 114.255 24.0628 114.795 23.5098 114.81C22.9568 114.825 22.494 114.31 22.4761 113.659C22.4583 113.008 22.8921 112.467 23.4451 112.452C23.998 112.437 24.4609 112.953 24.4787 113.604Z" fill="#632100"/>
<path d="M20.6085 115.866C21.3385 115.846 21.9112 115.133 21.8876 114.274C21.864 113.414 21.2531 112.734 20.5231 112.754C19.7931 112.774 19.2204 113.487 19.244 114.346C19.2676 115.206 19.8785 115.886 20.6085 115.866Z" fill="#632100"/>
<path d="M15.856 115.519C15.8729 116.136 15.4622 116.647 14.9383 116.661C14.4145 116.676 13.9763 116.187 13.9594 115.571C13.9425 114.955 14.3535 114.443 14.877 114.429C15.4009 114.414 15.8391 114.902 15.856 115.519Z" fill="#632100"/>
<path opacity="0.15" d="M26.5104 115.24C30.5122 122.013 34.6892 128.11 40.9478 132.193C46.9975 136.141 54.0928 138.089 60.9726 137.594C68.411 137.058 74.9069 132.657 81.5526 129.175C84.899 127.422 88.3401 125.858 91.9618 125.078C95.8955 124.231 99.7644 124.614 103.709 125.31C108.094 126.083 112.432 127.344 116.85 127.833C120.762 128.266 124.701 127.864 128.583 127.31C141.514 125.466 153.623 119.829 164.212 111.024C165.209 110.195 166.187 109.336 167.156 108.463C165.387 107.021 163.652 106.664 163.652 106.664L97.0303 112.824L16.7489 99.7563C15.7102 101.048 14.8889 102.327 14.249 103.584C19.4017 105.704 23.2331 109.694 26.5104 115.24Z" fill="#4A170E"/>
<path d="M21.8569 94.8027C21.8569 94.8027 16.0749 96.36 20.592 100.774C25.109 105.188 32.5303 112.304 43.8864 127.597C55.2432 142.889 59.7695 138.367 75.0383 128.878C90.3071 119.39 101.136 118.214 114.159 122.563C127.182 126.912 161.854 117.62 167.496 107.682C173.137 97.7427 173.117 99.5186 172.124 88.0018C171.132 76.485 27.7893 73.4071 21.8569 94.8027Z" fill="#D69F13"/>
<path d="M18.0135 93.7853C18.0135 93.7853 12.2315 95.3425 16.7485 99.7567C21.2656 104.171 29.4271 108.328 40.7832 123.621C52.1397 138.914 55.9258 137.349 71.1945 127.861C86.4633 118.373 97.2918 117.197 110.315 121.546C123.338 125.894 158.01 116.603 163.652 106.664C169.293 96.7253 169.273 98.5008 168.281 86.9844C167.288 75.4676 23.9463 72.3897 18.0135 93.7853Z" fill="#FDDC30"/>
<path d="M126.403 117.893C128.893 117.281 131.35 116.035 133.561 114.6C135.391 113.414 137.396 112.094 138.935 110.437C139.748 109.562 140.048 108.649 140.634 107.604C142.619 104.064 147.907 101.964 151.399 103.172C152.703 103.624 153.763 103.96 155.136 104.012C156.362 104.058 157.912 104.157 159.025 104.86C160.929 106.062 157.511 107.875 156.667 108.084C154.313 108.668 152.752 110.245 150.704 111.592C149.625 112.301 148.549 113.012 147.459 113.699C145.686 114.815 143.956 115.263 141.985 115.7C137.196 116.762 132.444 119.019 127.532 119.158C127.026 119.172 123.68 119.157 123.926 118.17C124.105 117.451 125.861 117.937 126.403 117.893Z" fill="#FFFFFD"/>
<path d="M54.2094 132.45C51.7891 131.903 50.021 127.464 48.5225 125.484C47.1812 123.712 46.6101 122.967 46.2145 120.578C48.897 118.602 53.3679 121.108 56.2806 121.465C59.9869 121.921 62.8523 121.846 66.3221 120.328C67.9951 119.596 69.4665 118.808 71.066 117.951C73.1696 116.823 75.5075 116.631 77.6436 115.552C79.1642 114.785 82.7386 111.752 82.611 115.957C82.5099 119.285 76.581 121.266 74.4879 122.066C70.7954 123.478 67.916 125.267 64.6625 127.678C60.5966 130.692 57.8065 132.351 54.2094 132.45Z" fill="#FFFFFD"/>
<path opacity="0.15" d="M16.7486 99.7568C20.196 103.126 25.7689 106.351 33.2621 114.486C38.643 116.399 44.2698 117.562 49.4048 118.619C56.3768 120.053 63.3145 119.884 69.9712 116.931C75.0158 114.694 79.2038 109.508 84.8898 109.312C87.0562 109.237 88.723 110.262 90.4139 111.774C92.2189 113.388 94.0476 114.675 96.2272 115.449C101.435 117.298 107.041 116.984 112.356 116.193C117.71 115.395 122.975 113.856 128.206 112.353C131.057 111.534 133.919 110.567 136.435 108.755C138.532 107.245 139.735 105.223 141.174 102.958C142.492 100.882 144.009 98.7779 146.285 98.2705C148.436 97.791 150.554 98.8122 152.491 99.8428C155.518 101.453 157.96 102.809 161.379 102.64C163.098 102.555 164.792 102.19 166.476 101.763C169.24 96.8929 169.068 96.1057 168.281 86.984C167.289 75.4672 23.9463 72.3893 18.0135 93.7849C18.0135 93.7853 12.2315 95.3426 16.7486 99.7568Z" fill="#4A170E"/>
<path d="M19.0239 85.0057C19.0239 85.0057 7.15462 93.3101 21.266 104.171C35.377 115.032 72.0895 123.947 77.4861 104.353C82.8823 84.76 19.0239 85.0057 19.0239 85.0057Z" fill="#FF2B00"/>
<path d="M19.0239 85.0057C19.0239 85.0057 10.7705 89.9802 24.8819 100.842C38.9929 111.703 71.8733 118.898 77.2695 99.305C82.6657 79.711 19.0239 85.0057 19.0239 85.0057Z" fill="#ED5A28"/>
<path opacity="0.15" d="M19.024 85.0058C19.024 85.0058 14.1454 87.9482 18.3074 94.2463C18.7934 94.188 19.2823 94.2032 19.7726 94.3432C21.2645 94.7697 22.6506 96.0878 23.6393 97.4204C24.3742 98.4114 25.062 100.469 26.092 101.056C27.5637 101.896 29.0439 99.5573 30.2969 99.0093C34.7475 97.062 35.4013 102.588 38.088 104.997C40.8003 107.428 44.0101 102.088 46.119 100.663C47.6128 99.6538 49.1916 100.542 49.8227 102.314C50.2683 103.565 50.2521 104.905 50.1096 106.221C52.8345 110.059 56.0004 112.274 59.6611 108.532C62.3724 105.76 64.4972 102.855 68.4233 103.019C69.6702 103.071 71.0721 104.234 70.9921 105.88C70.948 106.788 70.7659 107.633 70.4801 108.425C73.6986 106.459 76.1142 103.497 77.2688 99.3039C82.6657 79.7111 19.024 85.0058 19.024 85.0058Z" fill="#4A0E3A"/>
<path d="M82.057 97.8306C81.743 86.3907 94.8107 76.7511 111.245 76.3001C127.679 75.849 141.255 84.7572 141.569 96.1971C141.883 107.637 128.725 113.988 112.291 114.439C95.8575 114.89 82.371 109.271 82.057 97.8306Z" fill="#B362A9"/>
<path d="M84.4851 95.4033C84.2068 85.2666 96.7454 76.6985 112.491 76.2663C128.237 75.8341 141.226 83.7015 141.505 93.8382C141.783 103.975 129.164 109.629 113.419 110.061C97.673 110.493 84.7633 105.54 84.4851 95.4033Z" fill="#EDBFE6"/>
<path d="M86.3379 93.2737C86.0911 84.2837 98.228 76.6573 113.446 76.2396C128.664 75.8219 141.201 82.7711 141.448 91.7611C141.694 100.751 129.487 105.793 114.269 106.211C99.0506 106.629 86.5846 102.264 86.3379 93.2737Z" fill="#E499DB"/>
<path d="M13.6117 71.1861C12.0007 71.612 9.52393 73.0892 8.25419 74.2262C4.06557 77.976 1.26206 82.7703 2.52576 89.2451C2.74848 90.3865 3.1414 91.753 3.86225 92.6244C8.36272 98.0633 15.8152 90.1703 20.8673 91.1269C21.7 91.2845 23.2751 92.4308 23.6414 93.3572C24.3444 95.1332 22.7775 97.4166 25.0659 98.5523C27.8609 99.9403 29.541 94.1738 32.4851 95.1449C34.362 95.7645 34.9596 98.3615 35.7915 99.9961C36.7496 101.878 39.7956 102.47 41.4706 102.075C44.4078 101.383 45.1046 96.1089 49.1043 97.136C52.7775 98.079 50.6043 103.542 51.4249 105.874C52.0082 107.532 53.7361 108.56 55.1041 108.957C55.6256 109.109 56.1534 109.325 56.6886 109.295C58.9908 109.166 61.1141 106.127 62.7 104.56C64.2836 102.996 66.2224 101.879 67.8524 100.364C69.2045 99.1063 71.6914 97.6693 73.5154 98.5749C77.7998 100.702 69.1274 105.494 73.8533 107.562C77.0898 108.979 78.5376 104.955 80.2255 102.782C82.0034 100.493 85.1233 98.949 87.7832 98.927C90.1245 98.9081 92.9881 100.167 94.6696 102.144C95.1834 102.749 95.1484 103.622 95.5199 104.295C96.7589 106.538 99.0877 108.612 101.429 108.71C102.783 108.766 104.913 108.918 106.115 108.119C109.086 106.147 110.044 101.801 113.8 100.917C117.22 100.111 117.81 104.981 120.811 105.408C123.441 105.781 122.787 99.6464 126.601 100.271C128.931 100.653 131.778 105.557 134.312 104.459C135.086 104.124 134.869 102.305 134.941 101.585C135.163 99.3925 135.465 97.2345 137.223 96.0302C138.436 95.1992 140.221 95.2115 141.587 94.9429C145.011 94.2697 148.055 94.4857 151.428 95.7452C153.279 96.4365 154.943 97.6261 156.868 98.1774C160.304 99.1604 165.916 99.9453 169.354 98.9687C171.807 98.2719 174.475 95.3551 176.485 93.5556C179.374 90.969 181.859 87.2084 182.171 82.7343C182.304 80.828 180.889 79.5997 179.749 78.5247C177.752 76.6421 175.716 74.8671 173.496 73.4001C172.096 72.4747 171.251 70.892 169.636 70.3391C168.031 69.7883 166.486 69.6242 164.825 69.6555C155.465 69.8304 147.005 75.2331 138.597 79.4097C128.551 84.4004 118.572 89.1856 107.565 90.4148C100.189 91.2381 92.8187 90.5097 85.4797 89.435C70.0842 87.1813 55.229 82.2565 40.0711 78.6018C33.4137 76.9969 27.0106 74.6209 20.4897 72.4694C18.3004 71.7469 16.0028 70.5543 13.6117 71.1861Z" fill="#47C200"/>
<path d="M13.5501 68.942C11.9391 69.3679 9.46231 70.845 8.19257 71.9821C4.00396 75.7318 1.20044 80.5262 2.46414 87.0009C2.68687 88.1423 3.07978 89.5089 3.80064 90.3803C8.3011 95.8191 15.7535 87.9262 20.8057 88.8827C21.6384 89.0399 23.2135 90.1866 23.5798 91.113C24.2828 92.8891 22.7158 95.1724 25.0043 96.3081C27.7993 97.6961 29.4794 91.9296 32.4234 92.9008C34.3003 93.5204 34.898 96.1174 35.7299 97.7519C36.6879 99.6341 39.734 100.226 41.409 99.831C44.3462 99.1389 45.043 93.8648 49.0427 94.8919C52.7159 95.8349 50.5427 101.298 51.3633 103.629C51.9466 105.287 53.6745 106.316 55.0425 106.713C55.564 106.864 56.0918 107.081 56.627 107.051C58.9292 106.921 61.0524 103.883 62.6384 102.316C64.222 100.752 66.1608 99.6346 67.7908 98.1194C69.1429 96.8621 71.6298 95.4251 73.4538 96.3307C77.7382 98.4583 69.0658 103.25 73.7917 105.318C77.0282 106.735 78.476 102.711 80.1639 100.538C81.9418 98.2486 85.0617 96.7048 87.7216 96.6828C90.0629 96.6639 92.9265 97.9226 94.608 99.9C95.1218 100.505 95.0868 101.378 95.4582 102.05C96.6973 104.293 99.0261 106.368 101.367 106.466C102.721 106.522 104.851 106.674 106.054 105.875C109.025 103.902 109.983 99.5568 113.738 98.6724C117.158 97.8666 117.749 102.737 120.75 103.163C123.379 103.537 122.726 97.4019 126.539 98.0267C128.87 98.4085 131.717 103.313 134.251 102.215C135.024 101.88 134.807 100.061 134.88 99.3408C135.101 97.1483 135.403 94.9903 137.161 93.786C138.374 92.955 140.159 92.9673 141.525 92.6987C144.949 92.0255 147.993 92.2416 151.366 93.501C153.218 94.1923 154.881 95.3819 156.806 95.9333C160.242 96.9162 165.855 97.7011 169.293 96.7246C171.745 96.0278 174.413 93.1109 176.423 91.3114C179.313 88.7248 181.797 84.9643 182.109 80.4902C182.242 78.5838 180.827 77.3555 179.687 76.2806C177.691 74.398 175.655 72.6226 173.435 71.1559C172.034 70.2306 171.189 68.6478 169.575 68.0949C167.97 67.5446 166.424 67.3801 164.763 67.4114C155.403 67.5862 146.944 72.9889 138.535 77.1656C128.489 82.1563 118.51 86.9414 107.503 88.1706C100.128 88.994 92.7571 88.2655 85.4181 87.1909C70.0226 84.9372 55.1674 80.0119 40.0095 76.3576C33.3521 74.7528 26.9489 72.3767 20.4281 70.2252C18.2388 69.5027 15.9412 68.3101 13.5501 68.942Z" fill="#3DA600"/>
<path opacity="0.15" d="M173.11 71.5203C170.992 68.9283 168.991 67.3328 164.764 67.4117C155.404 67.5866 146.944 72.9893 138.535 77.1659C128.49 82.1566 118.511 86.9418 107.504 88.171C100.128 88.9943 92.7575 88.2659 85.4184 87.1912C70.0229 84.9371 55.1678 80.0123 40.0098 76.358C33.3525 74.7531 26.9493 72.3771 20.4285 70.2256C18.2388 69.5031 15.9415 68.3101 13.5484 68.9428C10.1729 69.8372 9.39302 71.4021 7.75989 74.3448C6.50209 76.6115 3.80994 78.1746 3.96199 81.2757C4.2491 87.1377 6.77757 77.6918 8.64229 80.5713C9.99033 82.6529 6.52062 86.0662 7.4333 88.0647C8.45628 90.3047 12.0446 85.3631 13.7849 85.023C13.7085 85.5019 13.945 86.1563 13.884 86.6266C15.78 87.0208 16.3668 88.262 18.1513 86.8659C20.0905 85.3484 20.823 82.3732 23.3415 85.7143C25.4361 88.4931 23.5519 93.5961 28.2733 92.7085C29.3911 90.4938 29.4479 86.9175 32.3471 87.2894C33.0834 87.3839 33.5366 87.814 34.1551 88.3297C35.7796 89.6833 36.8968 91.4782 38.2384 93.0097C40.2039 95.2532 40.8026 94.4632 43.41 93.5034C45.4953 92.7354 47.6466 91.9689 49.8582 92.4805C52.006 92.9776 54.7916 94.6928 55.878 97.0298C56.0666 97.4357 56.1953 97.8674 56.2699 98.3103C56.6035 98.2726 56.946 98.2321 57.2732 98.0913C57.9 97.8222 58.4999 97.4682 59.1372 97.2302C60.4878 96.7261 61.7163 96.6908 63.1162 96.9071C63.3752 96.9473 63.6083 97.0495 63.8188 97.1911C65.0367 96.3237 66.3017 95.5599 67.6668 95.0918C70.4502 94.1369 73.4157 94.7515 75.5512 97.1895C76.2525 97.99 76.7834 98.9649 77.0749 100.038C77.1364 99.9913 77.1973 99.948 77.2594 99.8989C78.418 98.9817 79.4851 97.916 80.7221 97.1382C82.805 95.8286 84.9678 95.6097 86.8614 96.7485C87.0877 96.7206 87.3125 96.6993 87.5342 96.6916C89.6857 94.9711 92.2735 94.8127 94.9312 96.4143C95.8556 96.9714 97.2635 98.5175 98.6146 99.4626C99.5944 99.3181 100.618 99.4325 101.661 99.6553C102.614 99.0642 103.65 99.4942 104.341 100.356C104.558 100.424 104.776 100.496 104.994 100.573C105.477 100.252 105.965 99.9381 106.413 99.5788C107.904 98.383 109.292 96.9406 110.841 95.8514C112.776 94.4904 115.424 94.2442 117.516 95.309C118.317 95.7161 119.08 96.6177 119.862 97.4184C120.411 95.5316 121.73 94.1442 123.986 93.9455C126.614 93.7142 129.309 94.8179 131.788 96.0137C131.119 95.6912 134.42 91.4172 134.789 91.1278C137.023 89.3757 138.424 90.6105 140.67 90.3227C143.905 89.9085 147.165 84.3709 150.552 89.2893C151.869 91.2028 150.621 91.197 152.916 91.8692C154.267 92.2653 155.777 90.7791 157.105 91.4109C157.398 88.8507 155.089 87.0281 157.602 85.5059C159.487 84.3646 160.66 85.8367 161.501 87.6637C162.551 89.9474 162.075 93.2185 164.363 94.4526C165.993 95.3312 170.515 94.0078 171.807 92.7485C176.492 88.1825 162.307 85.7376 167.182 82.0037C170.144 79.7351 170.359 84.9063 172.325 85.0642C173.635 85.1695 175.801 82.3856 176.911 81.6975C175.814 79.9285 172.266 80.6689 172.45 78.1104C172.7 74.6349 175.095 78.2236 175.771 78.3164C178.734 78.7237 176.691 76.117 175.973 75.2109C174.887 73.8409 173.988 72.5952 173.11 71.5203Z" fill="#4A0E3A"/>
<path d="M7.98422 72.0698C7.98422 72.0698 6.15201 5.3186 76.9533 3.37523C175.584 0.667974 173.367 71.0271 173.367 71.0271C173.367 71.0271 146.046 95.9836 87.7405 93.43C29.4349 90.8767 7.98422 72.0698 7.98422 72.0698Z" fill="#F8A92D"/>
<path d="M132.655 77.0995C132.467 77.2586 132.27 77.4073 132.061 77.5432C126.851 80.9414 121.066 80.1576 115.436 80.2268C108.995 80.3056 105.32 87.5369 99.0624 87.994C95.1501 88.2798 92.6214 84.3784 88.8725 83.7975C85.3395 83.2499 80.7626 83.654 77.291 84.3591C70.2323 85.7931 62.6701 83.2925 57.0511 77.9566C53.5543 74.6362 49.9133 73.8535 45.7712 76.5456C43.435 78.0638 41.2602 79.1885 38.3785 77.4061C35.7708 75.7934 35.2326 72.0497 32.4684 70.422C29.7618 68.8284 26.6365 68.9252 23.8003 68.1706C20.3375 67.2492 19.4455 65.7641 18.1414 62.1259C17.2489 59.6362 16.6915 56.9752 15.6552 54.5543C15.3614 53.868 11.6987 48.9981 11.7204 48.9305C7.70282 61.6523 7.9846 72.0697 7.9846 72.0697C7.9846 72.0697 29.4356 90.8767 87.7409 93.4299C146.047 95.9836 173.367 71.0271 173.367 71.0271C173.367 71.0271 173.591 63.8824 170.707 54.2349C170.795 54.5288 163.273 58.851 162.241 59.3798C159.136 60.9705 156.53 62.4324 153.994 65.1992C152.714 66.5953 151.936 68.6247 150.4 69.7466C148.47 71.1565 146.013 71.4999 143.821 71.5996C141.461 71.7069 138.66 71.3694 136.563 72.8937C135.053 73.9904 134.129 75.854 132.655 77.0995Z" fill="#FFC042"/>
<path d="M102.568 15.0596C102.568 15.0596 105.447 14.5381 107.98 16.1627C110.512 17.7869 109.245 21.5193 106.611 20.247C103.976 18.9746 102.568 15.0596 102.568 15.0596Z" fill="#FDE466"/>
<path opacity="0.15" d="M106.61 20.2479C107.983 20.9107 108.983 20.2142 109.269 19.1662C107.529 20.3953 104.413 17.1118 103.822 14.9833C103.064 14.973 102.567 15.0606 102.567 15.0606C102.567 15.0606 103.976 18.9755 106.61 20.2479Z" fill="#4A170E"/>
<path d="M146.578 32.6158C146.578 32.6158 149.476 32.2558 151.942 34.019C154.407 35.7822 152.991 39.4379 150.409 38.0204C147.827 36.6028 146.578 32.6158 146.578 32.6158Z" fill="#FDE466"/>
<path opacity="0.15" d="M150.409 38.0209C151.754 38.7592 152.781 38.1195 153.109 37.0891C151.322 38.2196 148.34 34.7671 147.835 32.6092C147.078 32.5565 146.578 32.6163 146.578 32.6163C146.578 32.6163 147.827 36.6034 150.409 38.0209Z" fill="#4A170E"/>
<path d="M42.091 22.8641C42.091 22.8641 43.288 19.7459 45.8171 18.1677C48.3462 16.5895 50.3017 19.92 47.9666 21.7953C45.6315 23.6707 42.091 22.8641 42.091 22.8641Z" fill="#FDE466"/>
<path opacity="0.15" d="M47.9659 21.7954C49.1825 20.8182 49.2329 19.4473 48.6457 18.5804C48.5703 20.9754 44.5478 22.1991 42.7176 21.5892C42.2982 22.327 42.09 22.8638 42.09 22.8638C42.09 22.8638 45.6308 23.6708 47.9659 21.7954Z" fill="#4A170E"/>
<path d="M96.5742 9.81401C96.5742 9.81401 95.9441 13.1828 93.7333 15.3552C91.5228 17.5272 89.0157 14.7148 90.9833 12.2964C92.9512 9.87794 96.5742 9.81401 96.5742 9.81401Z" fill="#FDE466"/>
<path opacity="0.15" d="M96.4283 9.81981C95.8933 10.7926 95.4107 11.8072 94.7283 12.6775C93.4549 14.3012 91.8156 14.8202 90.2836 13.9164C90.1244 15.7222 92.018 17.0406 93.7342 15.3541C95.9446 13.1817 96.5751 9.81292 96.5751 9.81292C96.5751 9.81292 96.5211 9.8144 96.4283 9.81981Z" fill="#4A170E"/>
<path d="M64.3763 32.6008C64.3763 32.6008 63.7462 35.9695 61.5354 38.1419C59.325 40.3139 56.8178 37.5015 58.7854 35.0831C60.7533 32.6647 64.3763 32.6008 64.3763 32.6008Z" fill="#FDE466"/>
<path opacity="0.15" d="M64.2305 32.6078C63.6955 33.5806 63.213 34.5952 62.5306 35.4655C61.2572 37.0892 59.6178 37.6082 58.0858 36.7044C57.9266 38.5102 59.8203 39.8286 61.5364 38.1425C63.7472 35.9701 64.3774 32.6013 64.3774 32.6013C64.3774 32.6013 64.3233 32.602 64.2305 32.6078Z" fill="#4A170E"/>
<path d="M82.9848 24.562C82.9848 24.562 82.2192 28.6541 79.5337 31.2931C76.8485 33.9317 73.803 30.5152 76.1932 27.5773C78.5837 24.6399 82.9848 24.562 82.9848 24.562Z" fill="#FDE466"/>
<path opacity="0.15" d="M82.8069 24.5706C82.1573 25.7523 81.5708 26.9853 80.742 28.0421C79.1952 30.0142 77.2036 30.6448 75.3427 29.5468C75.1491 31.7402 77.4496 33.3421 79.5345 31.2936C82.22 28.6547 82.9856 24.5625 82.9856 24.5625C82.9856 24.5625 82.9194 24.5639 82.8069 24.5706Z" fill="#4A170E"/>
<path d="M129.623 28.0689C129.623 28.0689 131.384 31.7382 134.619 33.386C137.854 35.0338 139.914 30.7624 136.886 28.7317C133.858 26.7011 129.623 28.0689 129.623 28.0689Z" fill="#FDE466"/>
<path opacity="0.15" d="M129.796 28.0184C130.715 28.9374 131.586 29.9263 132.646 30.6671C134.623 32.0494 136.689 32.0008 138.196 30.3388C138.933 32.3768 137.131 34.6654 134.62 33.3859C131.384 31.7382 129.623 28.0689 129.623 28.0689C129.623 28.0689 129.686 28.0488 129.796 28.0184Z" fill="#4A170E"/>
<path d="M124.017 38.5762C124.017 38.5762 124.674 41.7374 126.792 43.7636C128.911 45.7898 131.213 43.1303 129.318 40.871C127.422 38.6121 124.017 38.5762 124.017 38.5762Z" fill="#FDE466"/>
<path opacity="0.15" d="M124.157 38.5823C124.678 39.4927 125.151 40.4431 125.809 41.2562C127.036 42.7733 128.587 43.25 130.009 42.3904C130.193 44.086 128.439 45.3376 126.794 43.7646C124.676 41.7383 124.019 38.5771 124.019 38.5771C124.019 38.5771 124.07 38.5778 124.157 38.5823Z" fill="#4A170E"/>
<path d="M113.638 32.2034C113.638 32.2034 115.555 35.7639 115.253 39.8813C114.951 43.998 110.763 44.0872 110.679 40.0016C110.595 35.916 113.638 32.2034 113.638 32.2034Z" fill="#FDE466"/>
<path opacity="0.15" d="M113.518 32.3577C113.77 33.742 114.098 35.1103 114.15 36.5544C114.247 39.2492 113.227 41.3547 111.263 42.1164C112.443 43.8447 115.018 43.078 115.253 39.8817C115.555 35.7647 113.638 32.2038 113.638 32.2038C113.638 32.2038 113.593 32.2593 113.518 32.3577Z" fill="#4A170E"/>
<path d="M78.6987 10.4981C78.6987 10.4981 78.3526 13.7672 76.4163 16.0619C74.4804 18.3566 71.8895 15.942 73.5767 13.4382C75.2638 10.9348 78.6987 10.4981 78.6987 10.4981Z" fill="#FDE466"/>
<path opacity="0.15" d="M78.5594 10.5201C78.1245 11.5007 77.7422 12.5159 77.1597 13.414C76.0726 15.0902 74.5547 15.7536 73.0324 15.0528C73.0166 16.7865 74.9131 17.844 76.4158 16.0625C78.3521 13.7674 78.6982 10.4987 78.6982 10.4987C78.6982 10.4987 78.6471 10.5054 78.5594 10.5201Z" fill="#4A170E"/>
<path d="M63.0427 16.6687C63.0427 16.6687 63.4362 19.9379 62.0822 22.7547C60.7285 25.5714 57.6974 24.0331 58.7647 21.0908C59.8327 18.1488 63.0427 16.6687 63.0427 16.6687Z" fill="#FDE466"/>
<path opacity="0.15" d="M62.9146 16.7322C62.7137 17.8146 62.5716 18.9146 62.2099 19.963C61.5355 21.9194 60.222 23.029 58.6005 22.82C58.9705 24.5024 61.0318 24.9414 62.0827 22.7547C63.4367 19.9379 63.0432 16.6687 63.0432 16.6687C63.0432 16.6687 62.9953 16.6908 62.9146 16.7322Z" fill="#4A170E"/>
<path d="M122.023 15.76C122.023 15.76 122.417 19.0292 121.063 21.846C119.709 24.6627 116.678 23.1244 117.745 20.1821C118.813 17.2405 122.023 15.76 122.023 15.76Z" fill="#FDE466"/>
<path opacity="0.15" d="M121.895 15.8239C121.694 16.9063 121.552 18.0063 121.19 19.0547C120.516 21.0111 119.202 22.1207 117.581 21.9117C117.951 23.5941 120.012 24.0331 121.063 21.8464C122.417 19.0296 122.024 15.76 122.024 15.76C122.024 15.76 121.976 15.7825 121.895 15.8239Z" fill="#4A170E"/>
<path d="M98.6026 31.0367C98.6026 31.0367 98.9961 34.306 97.6421 37.1227C96.2884 39.9394 93.2574 38.4012 94.3246 35.4588C95.3926 32.5169 98.6026 31.0367 98.6026 31.0367Z" fill="#FDE466"/>
<path opacity="0.15" d="M98.4745 31.1003C98.2736 32.1827 98.1315 33.2826 97.7702 34.3311C97.0957 36.2874 95.7822 37.3971 94.1607 37.1881C94.5308 38.8704 96.592 39.3094 97.6429 37.1227C98.9969 34.306 98.6034 31.0367 98.6034 31.0367C98.6034 31.0367 98.5552 31.0589 98.4745 31.1003Z" fill="#4A170E"/>
<path opacity="0.15" d="M40.2517 61.4835C40.8161 61.1402 41.3762 60.8032 41.9318 60.4916C45.7327 58.3584 49.5792 56.328 53.454 54.3855C59.6368 51.286 65.9368 48.1963 72.4154 46.0305C77.1802 44.4375 82.0464 43.2927 86.8384 41.8186C94.1868 39.5578 101.843 36.473 106.654 29.7539C106.925 27.9519 106.804 26.0856 106.136 24.2367C105.48 22.4234 103.893 21.7453 102.741 20.5918C97.358 15.2025 88.1127 9.53259 80.8987 8.41491C77.1543 7.83514 73.4222 7.9037 69.6788 8.0885C66.5288 8.24355 63.1659 8.58854 60.135 9.6731C51.6248 12.7185 43.9398 17.3811 36.6171 23.2657C29.3723 29.087 22.1977 35.7701 19.7283 46.2075C18.7165 50.4861 18.2845 54.6442 21.144 58.2189C25.8728 64.1311 33.934 62.3113 40.2517 61.4835Z" fill="#FFD99E"/>
<path opacity="0.15" d="M135.214 13.5484C135.844 19.5127 134.429 25.403 131.977 30.5816C127.428 40.1894 120.125 48.851 112.57 55.2115C104.441 62.0564 95.0929 66.707 85.6954 70.6006C69.5084 77.3074 52.5638 81.9547 35.5902 85.1561C48.0186 88.9963 65.0993 92.4391 87.7402 93.4305C146.046 95.9841 173.367 71.0276 173.367 71.0276C173.367 71.0276 174.579 32.4812 135.214 13.5484Z" fill="#F91E00"/>
<path opacity="0.3" d="M73.0141 139.908C72.3592 139.646 71.7854 139.33 71.5492 138.899C68.4841 133.304 83.9319 131.728 86.0415 132.123C89.2644 132.726 92.5868 133.611 95.7743 134.443C103.21 136.382 112.058 135.158 119.07 131.408C120.971 130.391 125.446 128.035 127.135 130.934C128.733 133.678 124.511 135.938 122.924 136.945C115.217 141.834 104.423 144.428 95.7553 144.641C91.2951 144.75 86.5696 144.564 82.1879 143.543C79.7741 142.98 77.6964 142.019 75.4772 140.813C74.9267 140.513 73.8965 140.261 73.0141 139.908Z" fill="#FFA273"/>
<path opacity="0.3" d="M138.937 135.353C138.824 135.342 138.712 135.33 138.599 135.317C137.427 135.181 135.319 135.619 134.314 135.27C131.722 134.371 132.392 130.618 134.6 129.589C139.771 127.179 145.552 125.777 150.824 123.388C153.843 122.02 157.335 120.378 159.902 117.997C160.965 117.011 161.416 115.324 162.358 114.421C163.991 112.857 165.862 113.294 166.243 115.791C167.394 123.327 156.982 129.824 152.378 132.235C148.248 134.397 143.478 135.786 138.937 135.353Z" fill="#FFA273"/>
<path opacity="0.3" d="M32.3537 128.496C33.6941 130.072 35.0808 131.59 36.5241 132.901C33.029 132.307 30.0217 129.602 27.1782 127.318C24.4741 125.146 21.4131 124.02 19.2031 121.069C17.7335 119.107 12.4195 109.052 16.096 107.806C19.203 106.753 21.4192 112.961 22.7422 115.27C24.4626 118.271 26.6507 121.512 28.7812 124.136C29.9382 125.561 31.1265 127.052 32.3537 128.496Z" fill="#FFA273"/>
</g>
<defs>
<clipPath id="clip0_3119_3653">
<rect width="180" height="180" fill="white" transform="translate(0 5.48743) rotate(-1.57228)"/>
</clipPath>
</defs>
</svg>
