<svg width="510" height="508" viewBox="0 0 510 508" fill="none" xmlns="http://www.w3.org/2000/svg">
<g filter="url(#filter0_d_3119_4312)">
<rect x="65" y="153" width="340" height="230" rx="20" fill="white"/>
<rect x="67" y="155" width="336" height="226" rx="18" stroke="url(#paint0_linear_3119_4312)" stroke-width="4"/>
</g>
<path d="M125.65 240.36C125.17 239.48 124.51 238.81 123.67 238.35C122.83 237.89 121.85 237.66 120.73 237.66C119.49 237.66 118.39 237.94 117.43 238.5C116.47 239.06 115.72 239.86 115.18 240.9C114.64 241.94 114.37 243.14 114.37 244.5C114.37 245.9 114.64 247.12 115.18 248.16C115.74 249.2 116.51 250 117.49 250.56C118.47 251.12 119.61 251.4 120.91 251.4C122.51 251.4 123.82 250.98 124.84 250.14C125.86 249.28 126.53 248.09 126.85 246.57H119.65V243.36H130.99V247.02C130.71 248.48 130.11 249.83 129.19 251.07C128.27 252.31 127.08 253.31 125.62 254.07C124.18 254.81 122.56 255.18 120.76 255.18C118.74 255.18 116.91 254.73 115.27 253.83C113.65 252.91 112.37 251.64 111.43 250.02C110.51 248.4 110.05 246.56 110.05 244.5C110.05 242.44 110.51 240.6 111.43 238.98C112.37 237.34 113.65 236.07 115.27 235.17C116.91 234.25 118.73 233.79 120.73 233.79C123.09 233.79 125.14 234.37 126.88 235.53C128.62 236.67 129.82 238.28 130.48 240.36H125.65ZM149.547 246.33C149.547 246.93 149.507 247.47 149.427 247.95H137.277C137.377 249.15 137.797 250.09 138.537 250.77C139.277 251.45 140.187 251.79 141.267 251.79C142.827 251.79 143.937 251.12 144.597 249.78H149.127C148.647 251.38 147.727 252.7 146.367 253.74C145.007 254.76 143.337 255.27 141.357 255.27C139.757 255.27 138.317 254.92 137.037 254.22C135.777 253.5 134.787 252.49 134.067 251.19C133.367 249.89 133.017 248.39 133.017 246.69C133.017 244.97 133.367 243.46 134.067 242.16C134.767 240.86 135.747 239.86 137.007 239.16C138.267 238.46 139.717 238.11 141.357 238.11C142.937 238.11 144.347 238.45 145.587 239.13C146.847 239.81 147.817 240.78 148.497 242.04C149.197 243.28 149.547 244.71 149.547 246.33ZM145.197 245.13C145.177 244.05 144.787 243.19 144.027 242.55C143.267 241.89 142.337 241.56 141.237 241.56C140.197 241.56 139.317 241.88 138.597 242.52C137.897 243.14 137.467 244.01 137.307 245.13H145.197ZM157.503 241.83V249.87C157.503 250.43 157.633 250.84 157.893 251.1C158.173 251.34 158.633 251.46 159.273 251.46H161.223V255H158.583C155.043 255 153.273 253.28 153.273 249.84V241.83H151.293V238.38H153.273V234.27H157.503V238.38H161.223V241.83H157.503ZM170.312 246.63C170.312 244.95 170.642 243.46 171.302 242.16C171.982 240.86 172.902 239.86 174.062 239.16C175.222 238.46 176.512 238.11 177.932 238.11C179.012 238.11 180.042 238.35 181.022 238.83C182.002 239.29 182.782 239.91 183.362 240.69V232.8H187.622V255H183.362V252.54C182.842 253.36 182.112 254.02 181.172 254.52C180.232 255.02 179.142 255.27 177.902 255.27C176.502 255.27 175.222 254.91 174.062 254.19C172.902 253.47 171.982 252.46 171.302 251.16C170.642 249.84 170.312 248.33 170.312 246.63ZM183.392 246.69C183.392 245.67 183.192 244.8 182.792 244.08C182.392 243.34 181.852 242.78 181.172 242.4C180.492 242 179.762 241.8 178.982 241.8C178.202 241.8 177.482 241.99 176.822 242.37C176.162 242.75 175.622 243.31 175.202 244.05C174.802 244.77 174.602 245.63 174.602 246.63C174.602 247.63 174.802 248.51 175.202 249.27C175.622 250.01 176.162 250.58 176.822 250.98C177.502 251.38 178.222 251.58 178.982 251.58C179.762 251.58 180.492 251.39 181.172 251.01C181.852 250.61 182.392 250.05 182.792 249.33C183.192 248.59 183.392 247.71 183.392 246.69ZM207.174 246.33C207.174 246.93 207.134 247.47 207.054 247.95H194.904C195.004 249.15 195.424 250.09 196.164 250.77C196.904 251.45 197.814 251.79 198.894 251.79C200.454 251.79 201.564 251.12 202.224 249.78H206.754C206.274 251.38 205.354 252.7 203.994 253.74C202.634 254.76 200.964 255.27 198.984 255.27C197.384 255.27 195.944 254.92 194.664 254.22C193.404 253.5 192.414 252.49 191.694 251.19C190.994 249.89 190.644 248.39 190.644 246.69C190.644 244.97 190.994 243.46 191.694 242.16C192.394 240.86 193.374 239.86 194.634 239.16C195.894 238.46 197.344 238.11 198.984 238.11C200.564 238.11 201.974 238.45 203.214 239.13C204.474 239.81 205.444 240.78 206.124 242.04C206.824 243.28 207.174 244.71 207.174 246.33ZM202.824 245.13C202.804 244.05 202.414 243.19 201.654 242.55C200.894 241.89 199.964 241.56 198.864 241.56C197.824 241.56 196.944 241.88 196.224 242.52C195.524 243.14 195.094 244.01 194.934 245.13H202.824ZM214.44 232.8V255H210.24V232.8H214.44ZM220.72 236.4C219.98 236.4 219.36 236.17 218.86 235.71C218.38 235.23 218.14 234.64 218.14 233.94C218.14 233.24 218.38 232.66 218.86 232.2C219.36 231.72 219.98 231.48 220.72 231.48C221.46 231.48 222.07 231.72 222.55 232.2C223.05 232.66 223.3 233.24 223.3 233.94C223.3 234.64 223.05 235.23 222.55 235.71C222.07 236.17 221.46 236.4 220.72 236.4ZM222.79 238.38V255H218.59V238.38H222.79ZM233.869 251.13L238.069 238.38H242.539L236.389 255H231.289L225.169 238.38H229.669L233.869 251.13ZM260.348 246.33C260.348 246.93 260.308 247.47 260.228 247.95H248.078C248.178 249.15 248.598 250.09 249.338 250.77C250.078 251.45 250.988 251.79 252.068 251.79C253.628 251.79 254.738 251.12 255.398 249.78H259.928C259.448 251.38 258.528 252.7 257.168 253.74C255.808 254.76 254.138 255.27 252.158 255.27C250.558 255.27 249.118 254.92 247.838 254.22C246.578 253.5 245.588 252.49 244.868 251.19C244.168 249.89 243.818 248.39 243.818 246.69C243.818 244.97 244.168 243.46 244.868 242.16C245.568 240.86 246.548 239.86 247.808 239.16C249.068 238.46 250.518 238.11 252.158 238.11C253.738 238.11 255.148 238.45 256.388 239.13C257.648 239.81 258.618 240.78 259.298 242.04C259.998 243.28 260.348 244.71 260.348 246.33ZM255.998 245.13C255.978 244.05 255.588 243.19 254.828 242.55C254.068 241.89 253.138 241.56 252.038 241.56C250.998 241.56 250.118 241.88 249.398 242.52C248.698 243.14 248.268 244.01 248.108 245.13H255.998ZM267.614 240.96C268.154 240.08 268.854 239.39 269.714 238.89C270.594 238.39 271.594 238.14 272.714 238.14V242.55H271.604C270.284 242.55 269.284 242.86 268.604 243.48C267.944 244.1 267.614 245.18 267.614 246.72V255H263.414V238.38H267.614V240.96ZM291.443 238.38L281.153 262.86H276.683L280.283 254.58L273.623 238.38H278.333L282.623 249.99L286.973 238.38H291.443ZM109.99 286.63C109.99 284.95 110.32 283.46 110.98 282.16C111.66 280.86 112.57 279.86 113.71 279.16C114.87 278.46 116.16 278.11 117.58 278.11C118.82 278.11 119.9 278.36 120.82 278.86C121.76 279.36 122.51 279.99 123.07 280.75V278.38H127.3V295H123.07V292.57C122.53 293.35 121.78 294 120.82 294.52C119.88 295.02 118.79 295.27 117.55 295.27C116.15 295.27 114.87 294.91 113.71 294.19C112.57 293.47 111.66 292.46 110.98 291.16C110.32 289.84 109.99 288.33 109.99 286.63ZM123.07 286.69C123.07 285.67 122.87 284.8 122.47 284.08C122.07 283.34 121.53 282.78 120.85 282.4C120.17 282 119.44 281.8 118.66 281.8C117.88 281.8 117.16 281.99 116.5 282.37C115.84 282.75 115.3 283.31 114.88 284.05C114.48 284.77 114.28 285.63 114.28 286.63C114.28 287.63 114.48 288.51 114.88 289.27C115.3 290.01 115.84 290.58 116.5 290.98C117.18 291.38 117.9 291.58 118.66 291.58C119.44 291.58 120.17 291.39 120.85 291.01C121.53 290.61 122.07 290.05 122.47 289.33C122.87 288.59 123.07 287.71 123.07 286.69ZM136.292 281.83V289.87C136.292 290.43 136.422 290.84 136.682 291.1C136.962 291.34 137.422 291.46 138.062 291.46H140.012V295H137.372C133.832 295 132.062 293.28 132.062 289.84V281.83H130.082V278.38H132.062V274.27H136.292V278.38H140.012V281.83H136.292ZM166.081 278.38L155.791 302.86H151.321L154.921 294.58L148.261 278.38H152.971L157.261 289.99L161.611 278.38H166.081ZM175.725 295.27C174.125 295.27 172.685 294.92 171.405 294.22C170.125 293.5 169.115 292.49 168.375 291.19C167.655 289.89 167.295 288.39 167.295 286.69C167.295 284.99 167.665 283.49 168.405 282.19C169.165 280.89 170.195 279.89 171.495 279.19C172.795 278.47 174.245 278.11 175.845 278.11C177.445 278.11 178.895 278.47 180.195 279.19C181.495 279.89 182.515 280.89 183.255 282.19C184.015 283.49 184.395 284.99 184.395 286.69C184.395 288.39 184.005 289.89 183.225 291.19C182.465 292.49 181.425 293.5 180.105 294.22C178.805 294.92 177.345 295.27 175.725 295.27ZM175.725 291.61C176.485 291.61 177.195 291.43 177.855 291.07C178.535 290.69 179.075 290.13 179.475 289.39C179.875 288.65 180.075 287.75 180.075 286.69C180.075 285.11 179.655 283.9 178.815 283.06C177.995 282.2 176.985 281.77 175.785 281.77C174.585 281.77 173.575 282.2 172.755 283.06C171.955 283.9 171.555 285.11 171.555 286.69C171.555 288.27 171.945 289.49 172.725 290.35C173.525 291.19 174.525 291.61 175.725 291.61ZM203.166 278.38V295H198.936V292.9C198.396 293.62 197.686 294.19 196.806 294.61C195.946 295.01 195.006 295.21 193.986 295.21C192.686 295.21 191.536 294.94 190.536 294.4C189.536 293.84 188.746 293.03 188.166 291.97C187.606 290.89 187.326 289.61 187.326 288.13V278.38H191.526V287.53C191.526 288.85 191.856 289.87 192.516 290.59C193.176 291.29 194.076 291.64 195.216 291.64C196.376 291.64 197.286 291.29 197.946 290.59C198.606 289.87 198.936 288.85 198.936 287.53V278.38H203.166ZM211.51 280.96C212.05 280.08 212.75 279.39 213.61 278.89C214.49 278.39 215.49 278.14 216.61 278.14V282.55H215.5C214.18 282.55 213.18 282.86 212.5 283.48C211.84 284.1 211.51 285.18 211.51 286.72V295H207.31V278.38H211.51V280.96ZM225.508 286.63C225.508 284.95 225.838 283.46 226.498 282.16C227.178 280.86 228.098 279.86 229.258 279.16C230.418 278.46 231.708 278.11 233.128 278.11C234.208 278.11 235.238 278.35 236.218 278.83C237.198 279.29 237.978 279.91 238.558 280.69V272.8H242.818V295H238.558V292.54C238.038 293.36 237.308 294.02 236.368 294.52C235.428 295.02 234.338 295.27 233.098 295.27C231.698 295.27 230.418 294.91 229.258 294.19C228.098 293.47 227.178 292.46 226.498 291.16C225.838 289.84 225.508 288.33 225.508 286.63ZM238.588 286.69C238.588 285.67 238.388 284.8 237.988 284.08C237.588 283.34 237.048 282.78 236.368 282.4C235.688 282 234.958 281.8 234.178 281.8C233.398 281.8 232.678 281.99 232.018 282.37C231.358 282.75 230.818 283.31 230.398 284.05C229.998 284.77 229.798 285.63 229.798 286.63C229.798 287.63 229.998 288.51 230.398 289.27C230.818 290.01 231.358 290.58 232.018 290.98C232.698 291.38 233.418 291.58 234.178 291.58C234.958 291.58 235.688 291.39 236.368 291.01C237.048 290.61 237.588 290.05 237.988 289.33C238.388 288.59 238.588 287.71 238.588 286.69ZM254.3 295.27C252.7 295.27 251.26 294.92 249.98 294.22C248.7 293.5 247.69 292.49 246.95 291.19C246.23 289.89 245.87 288.39 245.87 286.69C245.87 284.99 246.24 283.49 246.98 282.19C247.74 280.89 248.77 279.89 250.07 279.19C251.37 278.47 252.82 278.11 254.42 278.11C256.02 278.11 257.47 278.47 258.77 279.19C260.07 279.89 261.09 280.89 261.83 282.19C262.59 283.49 262.97 284.99 262.97 286.69C262.97 288.39 262.58 289.89 261.8 291.19C261.04 292.49 260 293.5 258.68 294.22C257.38 294.92 255.92 295.27 254.3 295.27ZM254.3 291.61C255.06 291.61 255.77 291.43 256.43 291.07C257.11 290.69 257.65 290.13 258.05 289.39C258.45 288.65 258.65 287.75 258.65 286.69C258.65 285.11 258.23 283.9 257.39 283.06C256.57 282.2 255.56 281.77 254.36 281.77C253.16 281.77 252.15 282.2 251.33 283.06C250.53 283.9 250.13 285.11 250.13 286.69C250.13 288.27 250.52 289.49 251.3 290.35C252.1 291.19 253.1 291.61 254.3 291.61ZM273.43 295.27C271.83 295.27 270.39 294.92 269.11 294.22C267.83 293.5 266.82 292.49 266.08 291.19C265.36 289.89 265 288.39 265 286.69C265 284.99 265.37 283.49 266.11 282.19C266.87 280.89 267.9 279.89 269.2 279.19C270.5 278.47 271.95 278.11 273.55 278.11C275.15 278.11 276.6 278.47 277.9 279.19C279.2 279.89 280.22 280.89 280.96 282.19C281.72 283.49 282.1 284.99 282.1 286.69C282.1 288.39 281.71 289.89 280.93 291.19C280.17 292.49 279.13 293.5 277.81 294.22C276.51 294.92 275.05 295.27 273.43 295.27ZM273.43 291.61C274.19 291.61 274.9 291.43 275.56 291.07C276.24 290.69 276.78 290.13 277.18 289.39C277.58 288.65 277.78 287.75 277.78 286.69C277.78 285.11 277.36 283.9 276.52 283.06C275.7 282.2 274.69 281.77 273.49 281.77C272.29 281.77 271.28 282.2 270.46 283.06C269.66 283.9 269.26 285.11 269.26 286.69C269.26 288.27 269.65 289.49 270.43 290.35C271.23 291.19 272.23 291.61 273.43 291.61ZM289.381 280.96C289.921 280.08 290.621 279.39 291.481 278.89C292.361 278.39 293.361 278.14 294.481 278.14V282.55H293.371C292.051 282.55 291.051 282.86 290.371 283.48C289.711 284.1 289.381 285.18 289.381 286.72V295H285.181V278.38H289.381V280.96ZM117.43 335.27C116.07 335.27 114.85 335.03 113.77 334.55C112.69 334.05 111.83 333.38 111.19 332.54C110.57 331.7 110.23 330.77 110.17 329.75H114.4C114.48 330.39 114.79 330.92 115.33 331.34C115.89 331.76 116.58 331.97 117.4 331.97C118.2 331.97 118.82 331.81 119.26 331.49C119.72 331.17 119.95 330.76 119.95 330.26C119.95 329.72 119.67 329.32 119.11 329.06C118.57 328.78 117.7 328.48 116.5 328.16C115.26 327.86 114.24 327.55 113.44 327.23C112.66 326.91 111.98 326.42 111.4 325.76C110.84 325.1 110.56 324.21 110.56 323.09C110.56 322.17 110.82 321.33 111.34 320.57C111.88 319.81 112.64 319.21 113.62 318.77C114.62 318.33 115.79 318.11 117.13 318.11C119.11 318.11 120.69 318.61 121.87 319.61C123.05 320.59 123.7 321.92 123.82 323.6H119.8C119.74 322.94 119.46 322.42 118.96 322.04C118.48 321.64 117.83 321.44 117.01 321.44C116.25 321.44 115.66 321.58 115.24 321.86C114.84 322.14 114.64 322.53 114.64 323.03C114.64 323.59 114.92 324.02 115.48 324.32C116.04 324.6 116.91 324.89 118.09 325.19C119.29 325.49 120.28 325.8 121.06 326.12C121.84 326.44 122.51 326.94 123.07 327.62C123.65 328.28 123.95 329.16 123.97 330.26C123.97 331.22 123.7 332.08 123.16 332.84C122.64 333.6 121.88 334.2 120.88 334.64C119.9 335.06 118.75 335.27 117.43 335.27ZM132.308 321.83V329.87C132.308 330.43 132.438 330.84 132.698 331.1C132.978 331.34 133.438 331.46 134.078 331.46H136.028V335H133.388C129.848 335 128.078 333.28 128.078 329.84V321.83H126.098V318.38H128.078V314.27H132.308V318.38H136.028V321.83H132.308ZM154.499 326.33C154.499 326.93 154.459 327.47 154.379 327.95H142.229C142.329 329.15 142.749 330.09 143.489 330.77C144.229 331.45 145.139 331.79 146.219 331.79C147.779 331.79 148.889 331.12 149.549 329.78H154.079C153.599 331.38 152.679 332.7 151.319 333.74C149.959 334.76 148.289 335.27 146.309 335.27C144.709 335.27 143.269 334.92 141.989 334.22C140.729 333.5 139.739 332.49 139.019 331.19C138.319 329.89 137.969 328.39 137.969 326.69C137.969 324.97 138.319 323.46 139.019 322.16C139.719 320.86 140.699 319.86 141.959 319.16C143.219 318.46 144.669 318.11 146.309 318.11C147.889 318.11 149.299 318.45 150.539 319.13C151.799 319.81 152.769 320.78 153.449 322.04C154.149 323.28 154.499 324.71 154.499 326.33ZM150.149 325.13C150.129 324.05 149.739 323.19 148.979 322.55C148.219 321.89 147.289 321.56 146.189 321.56C145.149 321.56 144.269 321.88 143.549 322.52C142.849 323.14 142.419 324.01 142.259 325.13H150.149ZM161.764 320.78C162.304 320.02 163.044 319.39 163.984 318.89C164.944 318.37 166.034 318.11 167.254 318.11C168.674 318.11 169.954 318.46 171.094 319.16C172.254 319.86 173.164 320.86 173.824 322.16C174.504 323.44 174.844 324.93 174.844 326.63C174.844 328.33 174.504 329.84 173.824 331.16C173.164 332.46 172.254 333.47 171.094 334.19C169.954 334.91 168.674 335.27 167.254 335.27C166.034 335.27 164.954 335.02 164.014 334.52C163.094 334.02 162.344 333.39 161.764 332.63V342.92H157.564V318.38H161.764V320.78ZM170.554 326.63C170.554 325.63 170.344 324.77 169.924 324.05C169.524 323.31 168.984 322.75 168.304 322.37C167.644 321.99 166.924 321.8 166.144 321.8C165.384 321.8 164.664 322 163.984 322.4C163.324 322.78 162.784 323.34 162.364 324.08C161.964 324.82 161.764 325.69 161.764 326.69C161.764 327.69 161.964 328.56 162.364 329.3C162.784 330.04 163.324 330.61 163.984 331.01C164.664 331.39 165.384 331.58 166.144 331.58C166.924 331.58 167.644 331.38 168.304 330.98C168.984 330.58 169.524 330.01 169.924 329.27C170.344 328.53 170.554 327.65 170.554 326.63Z" fill="#212244"/>
<circle cx="221" cy="125" r="76" fill="#FBEDE4"/>
<path d="M326.449 159.038C329.061 147.888 322.21 136.715 311.148 134.082C300.085 131.449 288.999 138.354 286.387 149.504C283.775 160.653 290.625 171.826 301.688 174.459C312.751 177.092 323.836 170.188 326.449 159.038Z" fill="#390028"/>
<path d="M306.418 166.456C312.844 166.456 318.054 161.206 318.054 154.728C318.054 148.251 312.844 143 306.418 143C299.991 143 294.781 148.251 294.781 154.728C294.781 161.206 299.991 166.456 306.418 166.456Z" fill="white"/>
<path d="M277.799 124.73H305.586C317.144 124.73 326.514 134.174 326.514 145.823H277.799V124.73Z" fill="#E62F39"/>
<path d="M297.547 110.531L280.591 87.2799C279.107 85.2438 278.036 82.9325 277.441 80.4793L277.36 80.1423L282.582 78.8574C282.978 78.7605 283.219 78.3589 283.123 77.9601L280.219 65.9794C279.853 64.4643 278.337 63.5375 276.834 63.9068L271.701 65.1706C267.47 66.2125 264.877 70.5136 265.91 74.7782C265.927 74.8456 265.951 74.9074 265.969 74.9734L265.958 74.9706L270.979 95.6939L275.007 89.4031V147.345L283.045 154.728L298.67 129.707C302.097 123.655 301.657 116.135 297.547 110.531Z" fill="#F94A3D"/>
<path d="M277.435 80.4484L277.362 80.1423L282.583 78.8574C282.979 78.7605 283.22 78.3589 283.124 77.9601L280.22 65.9794C279.854 64.4643 278.338 63.5375 276.835 63.9068L271.702 65.1706C267.471 66.2125 264.878 70.5136 265.912 74.7782C265.929 74.8456 265.952 74.9074 265.97 74.9734L265.959 74.9706L267.255 80.315L277.197 80.2336C277.277 80.3136 277.355 80.3726 277.435 80.4484Z" fill="#FF5E4D"/>
<path d="M220.598 161.992H270.533C278.528 161.992 285.008 155.461 285.008 147.404V145.821H213.041V154.376C213.041 158.583 216.424 161.992 220.598 161.992Z" fill="#F94A3D"/>
<path d="M237.806 145.821L155.532 138.546C154.858 138.487 154.355 137.898 154.4 137.216C154.473 136.102 154.606 134.484 154.791 133.511C157.076 121.501 167.556 112.427 180.138 112.427H232.825C235.011 112.427 236.358 114.835 235.226 116.721L232.059 121.988C228.009 128.727 229.129 137.395 234.758 142.861L237.806 145.821Z" fill="#F94A3D"/>
<path d="M237.806 112.426H180.14C167.881 112.426 157.618 121.041 154.985 132.591C154.556 134.471 154.33 136.429 154.33 138.44L197.693 141.848C197.693 141.848 191.104 139.022 191.104 123.847C191.104 112.252 207.134 112.14 207.134 112.14" fill="#E62F39"/>
<path opacity="0.25" d="M206.935 112.426H178.142C170.416 112.426 156.4 121.041 154.741 132.591C154.471 134.471 154.328 136.429 154.328 138.439L180.526 140.498C180.526 140.498 176.29 139.237 177.504 123.847C178.415 112.289 187.605 112.14 187.605 112.14" fill="#390028"/>
<path d="M153.215 115.999H186.6C188.762 115.999 190.515 114.397 190.515 112.419V73.2532C190.515 71.2774 188.762 69.6738 186.6 69.6738H153.107C147.701 69.6738 143.319 73.68 143.319 78.6201V106.951C143.32 111.949 147.751 115.999 153.215 115.999Z" fill="#F94A3D"/>
<path d="M153.215 115.999H186.6C188.762 115.999 190.515 111.401 190.515 109.424C190.515 109.424 143.403 108.297 143.559 108.934C144.546 112.977 148.495 115.999 153.215 115.999Z" fill="#FF5E4D"/>
<path d="M190.515 82.0014V73.2532C190.515 71.2774 188.762 69.6738 186.6 69.6738H153.107C147.701 69.6738 143.319 73.68 143.319 78.6201V82.1994L190.515 82.0014Z" fill="#FF5E4D"/>
<path d="M189.863 110.128H143.697C143.312 110.128 143 109.813 143 109.426C143 109.038 143.312 108.724 143.697 108.724H189.863C190.248 108.724 190.56 109.038 190.56 109.426C190.56 109.813 190.248 110.128 189.863 110.128Z" fill="#FF4628"/>
<path d="M189.863 83.2203H143.697C143.312 83.2203 143 82.9057 143 82.5181C143 82.1306 143.312 81.816 143.697 81.816H189.863C190.248 81.816 190.56 82.1306 190.56 82.5181C190.56 82.9057 190.248 83.2203 189.863 83.2203Z" fill="#FF4628"/>
<path d="M239.567 118.952C239.688 120.005 238.916 120.93 237.926 120.921L198.646 120.481C194.999 120.44 191.713 117.875 190.36 114.01L187.169 104.897C185.708 100.729 188.225 96.2106 192.148 95.9536L229.747 94.8541C233.725 94.7376 237.168 98.0852 237.685 102.573L239.567 118.952Z" fill="#E62F39"/>
<path opacity="0.22" d="M229.746 94.8541L192.147 95.9522C191.15 96.0182 190.246 96.3595 189.474 96.8987L192.035 104.21C193.388 108.075 196.675 110.64 200.321 110.681L238.666 111.109L237.683 102.57C237.168 98.0852 233.725 94.7376 229.746 94.8541Z" fill="#390028"/>
<path d="M288.378 112.94C288.211 112.359 288.021 111.821 287.809 111.394L275.01 85.592C269.963 88.0354 267.646 93.992 269.697 99.241L272.602 106.673C274.27 110.939 275.125 115.482 275.125 120.067V127.561C275.125 137.646 267.014 145.822 257.008 145.822H237.806V145.778L183.103 140.929V153.907H213.041H237.806H266.231C271.468 153.907 278.287 148.991 282.158 141.808C285.955 134.768 287.901 126.133 288.754 121.373C289.257 118.569 289.166 115.677 288.378 112.94Z" fill="#FF5E4D"/>
<path d="M284.538 70.3984C285.572 74.663 284.694 78.5428 282.578 79.0638C280.462 79.5847 277.909 76.5488 276.877 72.2842C275.843 68.0196 276.721 64.1398 278.837 63.6188C280.952 63.0979 283.506 66.1338 284.538 70.3984Z" fill="#FFD98B"/>
<path opacity="0.39" d="M282.124 67.5268C282.72 69.9856 282.213 72.2225 280.994 72.523C279.773 72.8235 278.302 71.0739 277.706 68.6151C277.109 66.1563 277.615 63.9194 278.836 63.6189C280.056 63.3184 281.529 65.0681 282.124 67.5268Z" fill="white"/>
<path d="M267.322 75.6824L252.463 79.3404C251.896 79.4809 251.323 79.1298 251.184 78.5583L250.792 76.9434C250.653 76.3719 251.001 75.7948 251.568 75.6544L266.427 71.9964C266.994 71.856 267.567 72.207 267.706 72.7785L268.098 74.3934C268.237 74.9649 267.889 75.542 267.322 75.6824Z" fill="#390028"/>
<path d="M268.907 77.7326L266.834 78.2423C265.959 78.4571 265.077 77.9179 264.864 77.0361L263.8 72.6423L267.457 71.7422L268.907 77.7326Z" fill="#390028"/>
<path d="M252.801 80.2321C251.666 80.5115 250.519 79.8108 250.242 78.665L250.019 77.7438C249.742 76.5994 250.437 75.4437 251.574 75.1643C252.71 74.8849 253.856 75.5856 254.133 76.7314L254.356 77.6526C254.634 78.7984 253.937 79.9527 252.801 80.2321Z" fill="#390028"/>
<path d="M196.315 159.031C198.927 147.882 192.077 136.709 181.014 134.076C169.951 131.443 158.866 138.348 156.254 149.497C153.641 160.647 160.492 171.82 171.554 174.453C182.617 177.086 193.703 170.181 196.315 159.031Z" fill="#390028"/>
<path d="M176.29 166.456C182.717 166.456 187.927 161.206 187.927 154.728C187.927 148.251 182.717 143 176.29 143C169.864 143 164.654 148.251 164.654 154.728C164.654 161.206 169.864 166.456 176.29 166.456Z" fill="white"/>
<path d="M208.881 159.663H182.078C178.882 159.663 176.29 157.21 176.29 154.182C176.29 151.156 178.882 148.702 182.078 148.702H208.882C212.078 148.702 214.67 151.155 214.67 154.182C214.668 157.208 212.078 159.663 208.881 159.663Z" fill="#E62F39"/>
<path d="M182.882 154.223C182.882 157.611 180.156 160.358 176.795 160.358C173.433 160.358 170.707 157.611 170.707 154.223C170.707 150.835 173.433 148.088 176.795 148.088C180.156 148.088 182.882 150.835 182.882 154.223Z" fill="#390028"/>
<path d="M306.408 160.766C309.77 160.766 312.495 158.02 312.495 154.631C312.495 151.243 309.77 148.496 306.408 148.496C303.046 148.496 300.321 151.243 300.321 154.631C300.321 158.02 303.046 160.766 306.408 160.766Z" fill="#390028"/>
<path d="M266.996 68.1094C266.944 67.0001 266.347 65.9512 265.42 65.3431L262.929 63.7086C261.842 62.9953 260.519 62.9433 259.492 63.5738L244.085 60.5183L231.006 43.2717L222.023 57.3883L234.125 71.8194L254.604 71.9429C256.966 73.0846 259.605 74.5632 260.297 74.5899C262.531 74.6755 264.438 72.9877 264.644 70.7452L264.691 70.2326L265.169 71.092C265.285 71.2998 265.47 71.4599 265.685 71.5357C266.427 71.8025 267.142 71.2535 267.105 70.4475L266.996 68.1094Z" fill="#F9A06E"/>
<path d="M241.175 55.2286L227.075 66.3345L214.681 53.3343L232.016 40.6459L241.465 52.8822C242.026 53.6096 241.897 54.6599 241.175 55.2286Z" fill="#ECB42B"/>
<path d="M234.642 12.6909C234.547 15.1258 232.595 17.0257 230.283 16.933C227.97 16.8404 226.172 14.7916 226.269 12.3567C226.365 9.9218 228.317 8.0219 230.628 8.11458C232.941 8.20726 234.738 10.256 234.642 12.6909Z" fill="#E62F39"/>
<path d="M231.839 10.7558C231.787 8.17349 229.274 6.01522 226.225 5.93658L220.025 5.7765C216.977 5.69787 214.547 7.72836 214.597 10.3121L214.845 22.811L212.771 36.3504C212.501 38.1099 213.855 39.7823 215.794 40.0842L220.592 40.8313C222.532 41.1332 224.322 39.9508 224.592 38.1913L225.653 31.2756C225.78 31.2616 225.904 31.2531 226.03 31.2349C229.52 30.7139 231.674 27.6092 230.827 24.4357L231.601 13.9799L231.839 10.7558Z" fill="#FFAC79"/>
<path d="M227.34 26.4507C227.34 26.4507 228.253 26.1685 228.797 26.9296L227.34 26.4507Z" fill="#FFAC79"/>
<path d="M228.797 27.2792C228.69 27.2792 228.583 27.2287 228.514 27.1332C228.129 26.5898 227.47 26.7779 227.44 26.7863C227.261 26.8383 227.063 26.7358 227.01 26.549C226.954 26.3637 227.057 26.1699 227.24 26.1137C227.286 26.1011 228.4 25.7711 229.082 26.7232C229.193 26.8804 229.158 27.0995 229.002 27.2132C228.939 27.2582 228.868 27.2792 228.797 27.2792Z" fill="#F94A3D"/>
<path d="M224.237 16.4597C224.499 16.5398 224.818 16.471 225.13 16.4218C225.444 16.3671 225.76 16.3193 226.036 16.287C226.313 16.2547 226.632 16.2294 226.95 16.2112C227.265 16.1873 227.594 16.1803 227.826 16.0441C228.052 15.9149 228.116 15.6144 227.794 15.29C227.49 14.9727 226.756 14.675 225.841 14.7789C224.925 14.887 224.289 15.342 224.076 15.7197C223.847 16.1087 223.986 16.3867 224.237 16.4597Z" fill="#390028"/>
<path d="M229.949 17.8204C229.961 18.4537 230.48 18.9593 231.11 18.9466C231.477 18.9396 231.779 19.2331 231.786 19.6024L231.787 19.7049C231.803 20.5081 231.169 21.1723 230.37 21.1877L229.265 21.2088" fill="#FFAC79"/>
<path d="M229.265 21.5585C229.076 21.5585 228.921 21.4054 228.917 21.2145C228.913 21.0207 229.066 20.8606 229.258 20.8564L230.363 20.8353C230.656 20.8297 230.929 20.7103 231.132 20.4983C231.336 20.2863 231.444 20.0068 231.439 19.7119L231.436 19.6122C231.435 19.5252 231.401 19.4451 231.34 19.3862C231.28 19.3272 231.22 19.2991 231.117 19.2991C230.296 19.2991 229.618 18.656 229.601 17.8289C229.597 17.6351 229.752 17.475 229.943 17.4708C229.945 17.4708 229.947 17.4708 229.95 17.4708C230.139 17.4708 230.294 17.6239 230.298 17.8149C230.306 18.2488 230.66 18.597 231.088 18.597C231.102 18.5956 231.114 18.597 231.124 18.597C231.386 18.597 231.633 18.6967 231.822 18.8807C232.017 19.0702 232.127 19.3244 232.133 19.5968L232.135 19.6965C232.145 20.1824 231.967 20.6387 231.635 20.9856C231.304 21.3338 230.855 21.529 230.379 21.5388L229.274 21.5599C229.27 21.5585 229.268 21.5585 229.265 21.5585Z" fill="#F94A3D"/>
<path d="M228.116 19.2134C227.977 18.4566 227.514 17.3472 225.998 17.19C225.749 17.1633 225.519 17.1787 225.303 17.218C224.305 17.402 223.663 18.2108 223.29 18.8919C223.014 19.396 223.323 20.0335 223.89 20.1149C225.438 20.3368 226.964 20.1444 227.706 20.0166C227.986 19.9689 228.184 19.7063 228.149 19.4227C228.141 19.3567 228.13 19.2864 228.116 19.2134Z" fill="white"/>
<path d="M229.406 19.0772C229.447 19.8945 228.757 20.5938 227.865 20.6387C226.974 20.6836 226.217 20.0588 226.177 19.2415C226.136 18.4243 226.826 17.725 227.718 17.68C228.609 17.6337 229.366 18.26 229.406 19.0772Z" fill="#390028"/>
<path d="M227.772 24.2011C227.772 24.2011 225.409 24.569 225.289 23.1002L227.772 24.2011Z" fill="#FFAC79"/>
<path d="M227.149 24.5972C226.636 24.5972 225.945 24.5143 225.467 24.1352C225.157 23.888 224.974 23.5412 224.942 23.1298C224.925 22.936 225.069 22.7675 225.261 22.7506C225.448 22.7422 225.622 22.8784 225.637 23.0722C225.656 23.2926 225.739 23.4541 225.899 23.5833C226.374 23.9639 227.376 23.9091 227.72 23.8557C227.911 23.8291 228.088 23.9582 228.117 24.1492C228.147 24.3416 228.017 24.5199 227.826 24.5494C227.764 24.5578 227.496 24.5972 227.149 24.5972Z" fill="#F94A3D"/>
<path opacity="0.41" d="M219.312 28.6047C219.312 28.6047 220.997 31.6772 225.597 31.3921L225.123 33.9716C224.886 33.9618 219.047 33.952 219.312 28.6047Z" fill="#F94A3D"/>
<path d="M212.553 22.5414L214.469 26.0828L217.218 19.7049C217.569 18.7725 215.85 20.5306 215.408 19.6375L215.025 18.8652L214.834 18.8399C212.811 18.5703 211.418 20.8325 212.553 22.5414Z" fill="#390028"/>
<path d="M213.512 22.7422C217.828 23.9976 218.678 17.871 219.676 15.7506C220.814 13.3326 223.708 12.2542 226.145 13.3171C229.782 14.9039 232.083 14.5809 234.549 14.4237L234.865 10.6014C235.279 5.59257 231.585 1.19317 226.615 0.77612L217.745 0.0318868C212.775 -0.385164 208.41 3.3374 207.996 8.34623C207.996 8.34623 208.045 13.7539 208.117 16.3236C208.272 21.8505 213.323 22.6861 213.512 22.7422Z" fill="#E62F39"/>
<path d="M234.866 10.6014C235.28 5.59257 231.587 1.19317 226.617 0.776123L217.746 0.0318904C214.776 -0.21806 212.028 1.01905 210.204 3.11835C211.92 1.8012 214.101 1.08645 216.42 1.28024L225.291 2.02447C230.26 2.44152 233.954 6.84092 233.54 11.8497L233.321 14.5037C233.731 14.477 234.139 14.4489 234.551 14.4223L234.866 10.6014Z" fill="#F94A3D"/>
<path d="M234.618 14.7817L227.237 14.529C226.043 14.4882 225.108 13.48 225.148 12.2766L236.294 12.6586L236.275 13.2231C236.244 14.1133 235.503 14.8126 234.618 14.7817Z" fill="#390028"/>
<path d="M213.54 19.0013C213.512 19.0013 213.487 19.0013 213.459 18.9999C212.169 18.955 211.156 17.8597 211.199 16.5608C211.222 15.9317 211.483 15.3476 211.94 14.9165C212.399 14.4868 212.995 14.2691 213.618 14.2818C214.909 14.3267 215.922 15.4206 215.879 16.7209C215.836 17.9945 214.795 19.0013 213.54 19.0013ZM213.539 15.3349C213.21 15.3349 212.898 15.4585 212.655 15.6874C212.402 15.9247 212.255 16.2491 212.244 16.5973C212.219 17.3177 212.781 17.9229 213.494 17.9468C214.21 17.9678 214.809 17.4061 214.834 16.6858C214.859 15.9654 214.296 15.3602 213.582 15.3363C213.568 15.3349 213.554 15.3349 213.539 15.3349Z" fill="white"/>
<path d="M234.083 45.0467C233.897 44.3095 233.656 43.5934 233.343 42.9039C231.91 39.7332 229.086 37.6816 226.161 36.7408C223.447 35.8688 220.56 35.8056 217.738 35.7508C215.677 35.7101 213.646 35.0796 211.594 35.2411C207.431 35.5697 203.068 38.3332 201.63 42.3829C201.038 44.0511 200.836 45.8303 200.683 47.5954C199.798 57.8714 195.917 76.2848 195.492 86.589C195.241 92.6931 199.555 95.8329 199.348 101.94L199.313 96.8917L233.754 98.8674L234.009 91.7677C234.298 83.7258 234.473 75.6768 234.567 67.6251C234.613 63.5964 234.639 59.5677 234.648 55.5376C234.656 52.0776 234.936 48.4239 234.083 45.0467Z" fill="#FFCF03"/>
<path opacity="0.27" d="M219.025 74.1533C216.661 72.1565 208.574 64.2718 206.642 58.0006L206.058 58.4556C206.026 58.721 205.994 58.9836 205.959 59.256C206.539 64.7254 211.283 70.2453 214.178 73.1507C215.483 74.4622 217.363 74.8441 219.025 74.1533Z" fill="#353535"/>
<path opacity="0.27" d="M231.929 63.2355L232.903 62.3354L221.136 49.9025L231.929 63.2355Z" fill="#353535"/>
<path d="M261.261 77.1639L260.152 74.0648L260.143 74.0788L259.975 73.402C259.706 72.3123 258.935 71.4192 257.901 71.0022L255.134 69.8873C253.929 69.4014 252.622 69.612 251.737 70.4321L250.402 70.4209L236.092 68.8355L231.761 63.5725L220.175 73.4708L223.939 77.6132C225.619 79.4612 228.017 80.4778 230.503 80.3922L249.158 79.7561C251.534 80.3922 254.032 81.1771 254.663 81.0746C256.87 80.7193 258.413 78.6875 258.181 76.4477L258.128 75.9352L258.483 76.3537L258.305 76.5994L259.63 78.1412C259.966 78.533 260.548 78.5878 260.951 78.2676C261.277 78.0064 261.403 77.5627 261.261 77.1639Z" fill="#FFAC79"/>
<path opacity="0.41" d="M236.09 68.778L230.55 69.6781C230.55 69.6781 235.116 67.4496 235.075 67.5717C235.035 67.6939 236.091 68.8369 236.091 68.8369" fill="#F94A3D"/>
<path d="M251.043 89.8018L249.848 89.7554L249.863 89.6782L195.171 87.6028L195.028 94.1857C194.813 104.019 202.291 112.067 213.271 111.341L243.775 110.536L242.281 141.592L253.459 140.514L261.852 101.082C261.994 94.9426 257.134 89.8706 251.043 89.8018Z" fill="#390028"/>
<path d="M265.77 151.347C265.971 147.244 262.832 143.753 258.761 143.552L253.772 143.305L254.01 138.411L242.3 137.831L241.699 150.155L253.41 150.735L265.77 151.347Z" fill="#F9C138"/>
<path d="M241.767 148.889L241.68 150.674L265.751 151.867L265.838 150.082L241.767 148.889Z" fill="#F7EEE6"/>
<path d="M254.278 143.955C254.085 143.955 253.902 143.865 253.785 143.701C253.637 143.499 253.621 143.239 253.743 143.02C254.418 141.801 255.078 141.155 255.702 141.103C255.95 141.078 256.312 141.145 256.647 141.565C256.978 141.985 256.953 142.347 256.871 142.578C256.665 143.167 255.839 143.625 254.415 143.941C254.369 143.95 254.323 143.955 254.278 143.955ZM255.787 141.8C255.776 141.8 255.766 141.801 255.759 141.801C255.496 141.824 255.014 142.208 254.433 143.215C255.617 142.932 256.133 142.571 256.214 142.342C256.225 142.308 256.261 142.206 256.101 142.003C255.959 141.822 255.847 141.8 255.787 141.8Z" fill="#EAEAEA"/>
<path d="M251.952 144.382C251.403 144.382 250.989 144.263 250.706 144.023C250.496 143.843 250.257 143.502 250.326 142.899C250.391 142.301 250.695 142.037 250.936 141.919C251.573 141.617 252.62 141.923 254.044 142.84C254.344 143.033 254.441 143.43 254.264 143.745C254.175 143.899 254.032 144.011 253.86 144.059C253.109 144.274 252.471 144.382 251.952 144.382ZM251.492 142.506C251.385 142.506 251.3 142.524 251.237 142.554C251.192 142.575 251.054 142.641 251.017 142.978C251.017 142.978 251.017 142.978 251.017 142.979C250.982 143.298 251.081 143.422 251.157 143.486C251.497 143.776 252.436 143.738 253.675 143.382C252.613 142.739 251.894 142.506 251.492 142.506ZM250.671 142.94H250.68H250.671Z" fill="#EAEAEA"/>
<path d="M252.7 146.721C252.57 146.721 252.445 146.647 252.385 146.521C252.301 146.347 252.375 146.137 252.549 146.053C253.816 145.444 253.734 143.711 253.732 143.694C253.721 143.499 253.869 143.333 254.06 143.322C254.252 143.322 254.416 143.46 254.429 143.652C254.433 143.742 254.533 145.875 252.849 146.685C252.803 146.71 252.75 146.721 252.7 146.721Z" fill="#EAEAEA"/>
<path d="M245.927 146.578C245.887 146.578 245.846 146.577 245.806 146.575C245.137 146.543 244.521 146.25 244.073 145.748C243.624 145.25 243.394 144.604 243.426 143.93C243.495 142.541 244.661 141.481 246.05 141.533C246.719 141.565 247.334 141.859 247.783 142.359C248.23 142.859 248.46 143.504 248.428 144.178C248.361 145.525 247.252 146.578 245.927 146.578ZM245.929 142.232C244.971 142.232 244.17 142.992 244.123 143.965C244.098 144.451 244.265 144.916 244.588 145.277C244.913 145.637 245.357 145.85 245.839 145.873C246.84 145.925 247.681 145.145 247.73 144.143C247.755 143.658 247.588 143.191 247.265 142.83C246.941 142.47 246.497 142.259 246.015 142.235C245.987 142.234 245.956 142.232 245.929 142.232Z" fill="#EAEAEA"/>
<path d="M245.969 59.7839L250.121 58.7616C253.944 57.8208 257.724 59.8668 258.564 63.3324C259.404 66.798 256.985 70.3689 253.162 71.3097L250.354 72.0006C248.47 72.4639 246.609 71.4557 246.195 69.7482L244.357 62.164C244.106 61.132 244.828 60.0648 245.969 59.7839Z" fill="#390028"/>
<path d="M271.262 73.6618C271.022 73.6618 270.787 73.5368 270.659 73.3107L265.956 65.1045C265.137 63.6764 263.457 62.949 261.865 63.3436L254.728 65.1003C254.362 65.1944 253.979 64.9613 253.887 64.5849C253.796 64.2086 254.025 63.8281 254.398 63.7368L261.534 61.9801C263.716 61.4423 266.034 62.4379 267.16 64.4038L271.862 72.61C272.056 72.9456 271.942 73.3753 271.607 73.5691C271.499 73.6323 271.38 73.6618 271.262 73.6618Z" fill="#390028"/>
<defs>
<filter id="filter0_d_3119_4312" x="0" y="108" width="510" height="400" filterUnits="userSpaceOnUse" color-interpolation-filters="sRGB">
<feFlood flood-opacity="0" result="BackgroundImageFix"/>
<feColorMatrix in="SourceAlpha" type="matrix" values="0 0 0 0 0 0 0 0 0 0 0 0 0 0 0 0 0 0 127 0" result="hardAlpha"/>
<feMorphology radius="5" operator="erode" in="SourceAlpha" result="effect1_dropShadow_3119_4312"/>
<feOffset dx="20" dy="40"/>
<feGaussianBlur stdDeviation="45"/>
<feComposite in2="hardAlpha" operator="out"/>
<feColorMatrix type="matrix" values="0 0 0 0 0.520833 0 0 0 0 0.0607639 0 0 0 0 0.0607639 0 0 0 0.08 0"/>
<feBlend mode="normal" in2="BackgroundImageFix" result="effect1_dropShadow_3119_4312"/>
<feBlend mode="normal" in="SourceGraphic" in2="effect1_dropShadow_3119_4312" result="shape"/>
</filter>
<linearGradient id="paint0_linear_3119_4312" x1="235" y1="153" x2="235" y2="383" gradientUnits="userSpaceOnUse">
<stop stop-color="#FFCF03" stop-opacity="0"/>
<stop offset="1" stop-color="#FFCF03"/>
</linearGradient>
</defs>
</svg>
