<svg width="229" height="46" viewBox="0 0 229 46" fill="none" xmlns="http://www.w3.org/2000/svg">
<rect width="229" height="46" rx="23" fill="#FDECEC"/>
<rect x="183.5" y="0.5" width="45" height="45" rx="22.5" fill="white" stroke="#FDECEC"/>
<path d="M35.526 16.49V29H33.474V20.432L29.658 29H28.236L24.402 20.432V29H22.35V16.49H24.564L28.956 26.3L33.33 16.49H35.526ZM42.525 29.162C41.589 29.162 40.743 28.952 39.987 28.532C39.231 28.1 38.637 27.5 38.205 26.732C37.773 25.952 37.557 25.052 37.557 24.032C37.557 23.024 37.779 22.13 38.223 21.35C38.667 20.57 39.273 19.97 40.041 19.55C40.809 19.13 41.667 18.92 42.615 18.92C43.563 18.92 44.421 19.13 45.189 19.55C45.957 19.97 46.563 20.57 47.007 21.35C47.451 22.13 47.673 23.024 47.673 24.032C47.673 25.04 47.445 25.934 46.989 26.714C46.533 27.494 45.909 28.1 45.117 28.532C44.337 28.952 43.473 29.162 42.525 29.162ZM42.525 27.38C43.053 27.38 43.545 27.254 44.001 27.002C44.469 26.75 44.847 26.372 45.135 25.868C45.423 25.364 45.567 24.752 45.567 24.032C45.567 23.312 45.429 22.706 45.153 22.214C44.877 21.71 44.511 21.332 44.055 21.08C43.599 20.828 43.107 20.702 42.579 20.702C42.051 20.702 41.559 20.828 41.103 21.08C40.659 21.332 40.305 21.71 40.041 22.214C39.777 22.706 39.645 23.312 39.645 24.032C39.645 25.1 39.915 25.928 40.455 26.516C41.007 27.092 41.697 27.38 42.525 27.38ZM51.7536 20.522C52.0536 20.018 52.4496 19.628 52.9416 19.352C53.4456 19.064 54.0396 18.92 54.7236 18.92V21.044H54.2016C53.3976 21.044 52.7856 21.248 52.3656 21.656C51.9576 22.064 51.7536 22.772 51.7536 23.78V29H49.7016V19.082H51.7536V20.522ZM65.6998 23.798C65.6998 24.17 65.6758 24.506 65.6278 24.806H58.0498C58.1098 25.598 58.4038 26.234 58.9318 26.714C59.4598 27.194 60.1078 27.434 60.8758 27.434C61.9798 27.434 62.7598 26.972 63.2158 26.048H65.4298C65.1298 26.96 64.5838 27.71 63.7918 28.298C63.0118 28.874 62.0398 29.162 60.8758 29.162C59.9278 29.162 59.0758 28.952 58.3198 28.532C57.5758 28.1 56.9878 27.5 56.5558 26.732C56.1358 25.952 55.9258 25.052 55.9258 24.032C55.9258 23.012 56.1298 22.118 56.5378 21.35C56.9578 20.57 57.5398 19.97 58.2838 19.55C59.0398 19.13 59.9038 18.92 60.8758 18.92C61.8118 18.92 62.6458 19.124 63.3778 19.532C64.1098 19.94 64.6798 20.516 65.0878 21.26C65.4958 21.992 65.6998 22.838 65.6998 23.798ZM63.5578 23.15C63.5458 22.394 63.2758 21.788 62.7478 21.332C62.2198 20.876 61.5658 20.648 60.7858 20.648C60.0778 20.648 59.4718 20.876 58.9678 21.332C58.4638 21.776 58.1638 22.382 58.0678 23.15H63.5578ZM74.7889 20.756V26.246C74.7889 26.618 74.8729 26.888 75.0409 27.056C75.2209 27.212 75.5209 27.29 75.9409 27.29H77.2009V29H75.5809C74.6569 29 73.9489 28.784 73.4569 28.352C72.9649 27.92 72.7189 27.218 72.7189 26.246V20.756H71.5489V19.082H72.7189V16.616H74.7889V19.082H77.2009V20.756H74.7889ZM84.2222 18.92C84.9782 18.92 85.6502 19.082 86.2382 19.406C86.8382 19.73 87.3062 20.21 87.6422 20.846C87.9902 21.482 88.1642 22.25 88.1642 23.15V29H86.1302V23.456C86.1302 22.568 85.9082 21.89 85.4642 21.422C85.0202 20.942 84.4142 20.702 83.6462 20.702C82.8782 20.702 82.2662 20.942 81.8102 21.422C81.3662 21.89 81.1442 22.568 81.1442 23.456V29H79.0922V15.68H81.1442V20.234C81.4922 19.814 81.9302 19.49 82.4582 19.262C82.9982 19.034 83.5862 18.92 84.2222 18.92ZM90.0976 23.996C90.0976 23 90.3016 22.118 90.7096 21.35C91.1296 20.582 91.6936 19.988 92.4016 19.568C93.1216 19.136 93.9136 18.92 94.7776 18.92C95.5576 18.92 96.2356 19.076 96.8116 19.388C97.3996 19.688 97.8676 20.066 98.2156 20.522V19.082H100.286V29H98.2156V27.524C97.8676 27.992 97.3936 28.382 96.7936 28.694C96.1936 29.006 95.5096 29.162 94.7416 29.162C93.8896 29.162 93.1096 28.946 92.4016 28.514C91.6936 28.07 91.1296 27.458 90.7096 26.678C90.3016 25.886 90.0976 24.992 90.0976 23.996ZM98.2156 24.032C98.2156 23.348 98.0716 22.754 97.7836 22.25C97.5076 21.746 97.1416 21.362 96.6856 21.098C96.2296 20.834 95.7376 20.702 95.2096 20.702C94.6816 20.702 94.1896 20.834 93.7336 21.098C93.2776 21.35 92.9056 21.728 92.6176 22.232C92.3416 22.724 92.2036 23.312 92.2036 23.996C92.2036 24.68 92.3416 25.28 92.6176 25.796C92.9056 26.312 93.2776 26.708 93.7336 26.984C94.2016 27.248 94.6936 27.38 95.2096 27.38C95.7376 27.38 96.2296 27.248 96.6856 26.984C97.1416 26.72 97.5076 26.336 97.7836 25.832C98.0716 25.316 98.2156 24.716 98.2156 24.032ZM107.985 18.92C108.765 18.92 109.461 19.082 110.073 19.406C110.697 19.73 111.183 20.21 111.531 20.846C111.879 21.482 112.053 22.25 112.053 23.15V29H110.019V23.456C110.019 22.568 109.797 21.89 109.353 21.422C108.909 20.942 108.303 20.702 107.535 20.702C106.767 20.702 106.155 20.942 105.699 21.422C105.255 21.89 105.033 22.568 105.033 23.456V29H102.981V19.082H105.033V20.216C105.369 19.808 105.795 19.49 106.311 19.262C106.839 19.034 107.397 18.92 107.985 18.92ZM126.708 16.49V18.164H121.398V21.854H125.538V23.528H121.398V29H119.346V16.49H126.708ZM127.926 23.996C127.926 23 128.13 22.118 128.538 21.35C128.958 20.582 129.522 19.988 130.23 19.568C130.95 19.136 131.742 18.92 132.606 18.92C133.386 18.92 134.064 19.076 134.64 19.388C135.228 19.688 135.696 20.066 136.044 20.522V19.082H138.114V29H136.044V27.524C135.696 27.992 135.222 28.382 134.622 28.694C134.022 29.006 133.338 29.162 132.57 29.162C131.718 29.162 130.938 28.946 130.23 28.514C129.522 28.07 128.958 27.458 128.538 26.678C128.13 25.886 127.926 24.992 127.926 23.996ZM136.044 24.032C136.044 23.348 135.9 22.754 135.612 22.25C135.336 21.746 134.97 21.362 134.514 21.098C134.058 20.834 133.566 20.702 133.038 20.702C132.51 20.702 132.018 20.834 131.562 21.098C131.106 21.35 130.734 21.728 130.446 22.232C130.17 22.724 130.032 23.312 130.032 23.996C130.032 24.68 130.17 25.28 130.446 25.796C130.734 26.312 131.106 26.708 131.562 26.984C132.03 27.248 132.522 27.38 133.038 27.38C133.566 27.38 134.058 27.248 134.514 26.984C134.97 26.72 135.336 26.336 135.612 25.832C135.9 25.316 136.044 24.716 136.044 24.032ZM144.409 29.162C143.629 29.162 142.927 29.024 142.303 28.748C141.691 28.46 141.205 28.076 140.845 27.596C140.485 27.104 140.293 26.558 140.269 25.958H142.393C142.429 26.378 142.627 26.732 142.987 27.02C143.359 27.296 143.821 27.434 144.373 27.434C144.949 27.434 145.393 27.326 145.705 27.11C146.029 26.882 146.191 26.594 146.191 26.246C146.191 25.874 146.011 25.598 145.651 25.418C145.303 25.238 144.745 25.04 143.977 24.824C143.233 24.62 142.627 24.422 142.159 24.23C141.691 24.038 141.283 23.744 140.935 23.348C140.599 22.952 140.431 22.43 140.431 21.782C140.431 21.254 140.587 20.774 140.899 20.342C141.211 19.898 141.655 19.55 142.231 19.298C142.819 19.046 143.491 18.92 144.247 18.92C145.375 18.92 146.281 19.208 146.965 19.784C147.661 20.348 148.033 21.122 148.081 22.106H146.029C145.993 21.662 145.813 21.308 145.489 21.044C145.165 20.78 144.727 20.648 144.175 20.648C143.635 20.648 143.221 20.75 142.933 20.954C142.645 21.158 142.501 21.428 142.501 21.764C142.501 22.028 142.597 22.25 142.789 22.43C142.981 22.61 143.215 22.754 143.491 22.862C143.767 22.958 144.175 23.084 144.715 23.24C145.435 23.432 146.023 23.63 146.479 23.834C146.947 24.026 147.349 24.314 147.685 24.698C148.021 25.082 148.195 25.592 148.207 26.228C148.207 26.792 148.051 27.296 147.739 27.74C147.427 28.184 146.983 28.532 146.407 28.784C145.843 29.036 145.177 29.162 144.409 29.162ZM152.818 20.756V26.246C152.818 26.618 152.902 26.888 153.07 27.056C153.25 27.212 153.55 27.29 153.97 27.29H155.23V29H153.61C152.686 29 151.978 28.784 151.486 28.352C150.994 27.92 150.748 27.218 150.748 26.246V20.756H149.578V19.082H150.748V16.616H152.818V19.082H155.23V20.756H152.818ZM166.211 23.798C166.211 24.17 166.187 24.506 166.139 24.806H158.561C158.621 25.598 158.915 26.234 159.443 26.714C159.971 27.194 160.619 27.434 161.387 27.434C162.491 27.434 163.271 26.972 163.727 26.048H165.941C165.641 26.96 165.095 27.71 164.303 28.298C163.523 28.874 162.551 29.162 161.387 29.162C160.439 29.162 159.587 28.952 158.831 28.532C158.087 28.1 157.499 27.5 157.067 26.732C156.647 25.952 156.437 25.052 156.437 24.032C156.437 23.012 156.641 22.118 157.049 21.35C157.469 20.57 158.051 19.97 158.795 19.55C159.551 19.13 160.415 18.92 161.387 18.92C162.323 18.92 163.157 19.124 163.889 19.532C164.621 19.94 165.191 20.516 165.599 21.26C166.007 21.992 166.211 22.838 166.211 23.798ZM164.069 23.15C164.057 22.394 163.787 21.788 163.259 21.332C162.731 20.876 162.077 20.648 161.297 20.648C160.589 20.648 159.983 20.876 159.479 21.332C158.975 21.776 158.675 22.382 158.579 23.15H164.069ZM170.283 20.522C170.583 20.018 170.979 19.628 171.471 19.352C171.975 19.064 172.569 18.92 173.253 18.92V21.044H172.731C171.927 21.044 171.315 21.248 170.895 21.656C170.487 22.064 170.283 22.772 170.283 23.78V29H168.231V19.082H170.283V20.522Z" fill="#F94A3D"/>
<path d="M204.392 27.5565L205.359 27.4957C205.826 27.4661 206.174 27.0654 206.14 26.6013L204.83 9.46342C204.795 8.99869 204.388 8.64561 203.922 8.67522L202.955 8.73604C202.488 8.76565 202.138 9.16658 202.173 9.63131L203.483 26.7691C203.519 27.233 203.925 27.5861 204.392 27.5565Z" fill="#F9B361"/>
<path opacity="0.19" d="M205.641 26.7326L204.317 9.39468C204.296 9.12118 204.361 8.88073 204.475 8.74491C204.663 8.86186 204.802 9.08978 204.823 9.36328L206.148 26.701C206.169 26.9739 206.066 27.2182 205.897 27.3572C205.764 27.237 205.662 27.0061 205.641 26.7326Z" fill="#FFF6F7"/>
<path d="M211.998 28.9732L212.958 29.1322C213.42 29.2084 213.853 28.8993 213.924 28.4393L216.554 11.5033C216.625 11.0441 216.309 10.6093 215.846 10.5325L214.887 10.3735C214.424 10.2973 213.991 10.6064 213.92 11.0663L211.289 28.0033C211.219 28.4615 211.536 28.8969 211.998 28.9732Z" fill="#F9B361"/>
<path opacity="0.19" d="M213.407 28.4556L216.068 11.3203C216.11 11.0504 216.229 10.8317 216.37 10.7252C216.527 10.882 216.611 11.1346 216.57 11.4037L213.909 28.539C213.867 28.8089 213.71 29.0217 213.513 29.1202C213.412 28.9728 213.365 28.7255 213.407 28.4556Z" fill="#FFF6F7"/>
<path d="M203.675 27.946L204.619 27.73C205.073 27.6257 205.353 27.174 205.243 26.7204L201.178 9.98275C201.068 9.52828 200.61 9.2448 200.154 9.34843L199.212 9.56365C198.757 9.66872 198.477 10.1211 198.588 10.5747L202.652 27.3132C202.762 27.7662 203.22 28.0497 203.675 27.946Z" fill="#F9B361"/>
<path opacity="0.19" d="M204.772 26.9309L200.66 9.99734C200.595 9.73014 200.622 9.48172 200.71 9.32875C200.915 9.41444 201.089 9.61751 201.154 9.88386L205.266 26.8174C205.331 27.0846 205.268 27.3418 205.124 27.5068C204.974 27.4099 204.837 27.1981 204.772 26.9309Z" fill="#FFF6F7"/>
<path d="M208.528 27.8461L209.498 27.8772C209.966 27.8921 210.353 27.5264 210.362 27.0611L210.696 9.89829C210.706 9.43303 210.333 9.04331 209.865 9.02839L208.895 8.99812C208.427 8.9832 208.041 9.34809 208.032 9.81335L207.697 26.9762C207.689 27.4421 208.061 27.8312 208.528 27.8461Z" fill="#F9B361"/>
<path opacity="0.19" d="M209.853 27.1454L210.191 9.78222C210.196 9.5084 210.284 9.27502 210.411 9.15038C210.587 9.28516 210.704 9.52442 210.698 9.79823L210.36 27.1623C210.354 27.4361 210.228 27.6681 210.047 27.7914C209.926 27.6586 209.847 27.4192 209.853 27.1454Z" fill="#FFF6F7"/>
<path d="M201.287 30.6733L202.231 30.4601C202.685 30.3573 202.966 29.9061 202.857 29.4523L198.843 12.7033C198.734 12.2494 198.277 11.9643 197.822 12.067L196.878 12.2802C196.424 12.383 196.143 12.8342 196.251 13.2889L200.265 30.0378C200.374 30.4917 200.831 30.7769 201.287 30.6733Z" fill="#F9B361"/>
<path opacity="0.19" d="M202.387 29.6622L198.325 12.7167C198.261 12.4487 198.288 12.2008 198.378 12.0485C198.582 12.135 198.755 12.3389 198.819 12.6055L202.881 29.551C202.945 29.8176 202.881 30.0756 202.737 30.2401C202.588 30.1414 202.451 29.9288 202.387 29.6622Z" fill="#FFF6F7"/>
<path d="M210.426 29.8196L211.396 29.8814C211.863 29.9112 212.262 29.5584 212.285 29.0943L213.168 11.9566C213.192 11.4916 212.832 11.0907 212.365 11.0614L211.396 10.9996C210.929 10.9697 210.53 11.3226 210.507 11.7867L209.623 28.9238C209.6 29.3894 209.959 29.7897 210.426 29.8196Z" fill="#F9B361"/>
<path opacity="0.19" d="M211.773 29.1611L212.666 11.8247C212.681 11.5507 212.776 11.3213 212.906 11.2004C213.079 11.3403 213.188 11.584 213.173 11.8565L212.28 29.1944C212.266 29.4674 212.132 29.6956 211.946 29.813C211.83 29.6757 211.758 29.435 211.773 29.1611Z" fill="#FFF6F7"/>
<path d="M206.773 29.6028L207.741 29.5618C208.209 29.5417 208.567 29.1483 208.54 28.6835L207.584 11.5273C207.558 11.0616 207.158 10.7015 206.691 10.7207L205.722 10.7617C205.255 10.7824 204.898 11.1757 204.923 11.6408L205.879 28.7962C205.905 29.2619 206.305 29.6229 206.773 29.6028Z" fill="#F9B361"/>
<path opacity="0.19" d="M208.039 28.8057L207.072 11.4488C207.057 11.1748 207.128 10.9356 207.243 10.8025C207.429 10.9228 207.563 11.1538 207.579 11.4269L208.546 28.7838C208.561 29.0569 208.452 29.2984 208.281 29.4348C208.15 29.3113 208.054 29.0788 208.039 28.8057Z" fill="#FFF6F7"/>
<path d="M217.289 16.3621C216.074 16.3254 214.902 16.9015 214.153 17.9065C212.457 20.1837 209.417 21.5478 206.15 21.208C203.331 20.9144 200.994 19.421 199.711 17.3676C199.089 16.3724 198.015 15.7756 196.849 15.7399L196.295 15.7232C195.628 15.7029 195.107 16.2379 195.207 16.8426L196.384 24.0276L198.111 35.683C198.18 36.1492 198.556 36.4667 198.979 36.4143L204.66 35.7133C205.262 35.6388 205.866 35.6352 206.464 35.7021L212.948 36.4226C213.382 36.4704 213.791 36.1485 213.904 35.6698L216.011 26.7239L218.344 17.6213C218.507 16.9937 217.995 16.3844 217.289 16.3621Z" fill="#F94A3D"/>
<path d="M199.626 24.124L198.449 16.939C198.408 16.6936 198.474 16.4626 198.606 16.2729C198.086 15.9491 197.483 15.76 196.85 15.7403L196.296 15.7236C195.629 15.7033 195.108 16.2383 195.207 16.843L196.384 24.028L198.112 35.6834C198.18 36.1496 198.557 36.4671 198.979 36.4147L201.466 36.1082C201.411 36.0106 201.371 35.9007 201.353 35.7794L199.626 24.124Z" fill="#FF7664"/>
</svg>
