<svg width="340" height="383" viewBox="0 0 340 383" fill="none" xmlns="http://www.w3.org/2000/svg">
<rect x="2" y="155" width="336" height="226" rx="18" stroke="url(#paint0_linear_3119_4197)" stroke-width="4"/>
<path d="M45.05 244.5C45.05 242.44 45.51 240.6 46.43 238.98C47.37 237.34 48.64 236.07 50.24 235.17C51.86 234.25 53.67 233.79 55.67 233.79C58.01 233.79 60.06 234.39 61.82 235.59C63.58 236.79 64.81 238.45 65.51 240.57H60.68C60.2 239.57 59.52 238.82 58.64 238.32C57.78 237.82 56.78 237.57 55.64 237.57C54.42 237.57 53.33 237.86 52.37 238.44C51.43 239 50.69 239.8 50.15 240.84C49.63 241.88 49.37 243.1 49.37 244.5C49.37 245.88 49.63 247.1 50.15 248.16C50.69 249.2 51.43 250.01 52.37 250.59C53.33 251.15 54.42 251.43 55.64 251.43C56.78 251.43 57.78 251.18 58.64 250.68C59.52 250.16 60.2 249.4 60.68 248.4H65.51C64.81 250.54 63.58 252.21 61.82 253.41C60.08 254.59 58.03 255.18 55.67 255.18C53.67 255.18 51.86 254.73 50.24 253.83C48.64 252.91 47.37 251.64 46.43 250.02C45.51 248.4 45.05 246.56 45.05 244.5ZM78.4573 238.14C79.7173 238.14 80.8373 238.42 81.8173 238.98C82.7973 239.52 83.5573 240.33 84.0973 241.41C84.6573 242.47 84.9373 243.75 84.9373 245.25V255H80.7373V245.82C80.7373 244.5 80.4073 243.49 79.7473 242.79C79.0873 242.07 78.1873 241.71 77.0473 241.71C75.8873 241.71 74.9673 242.07 74.2873 242.79C73.6273 243.49 73.2973 244.5 73.2973 245.82V255H69.0973V232.8H73.2973V240.45C73.8373 239.73 74.5573 239.17 75.4573 238.77C76.3573 238.35 77.3573 238.14 78.4573 238.14ZM96.3113 255.27C94.7113 255.27 93.2713 254.92 91.9913 254.22C90.7113 253.5 89.7013 252.49 88.9613 251.19C88.2413 249.89 87.8813 248.39 87.8813 246.69C87.8813 244.99 88.2513 243.49 88.9913 242.19C89.7513 240.89 90.7813 239.89 92.0813 239.19C93.3813 238.47 94.8313 238.11 96.4313 238.11C98.0313 238.11 99.4813 238.47 100.781 239.19C102.081 239.89 103.101 240.89 103.841 242.19C104.601 243.49 104.981 244.99 104.981 246.69C104.981 248.39 104.591 249.89 103.811 251.19C103.051 252.49 102.011 253.5 100.691 254.22C99.3913 254.92 97.9313 255.27 96.3113 255.27ZM96.3113 251.61C97.0713 251.61 97.7813 251.43 98.4413 251.07C99.1213 250.69 99.6613 250.13 100.061 249.39C100.461 248.65 100.661 247.75 100.661 246.69C100.661 245.11 100.241 243.9 99.4013 243.06C98.5813 242.2 97.5713 241.77 96.3713 241.77C95.1713 241.77 94.1613 242.2 93.3413 243.06C92.5413 243.9 92.1413 245.11 92.1413 246.69C92.1413 248.27 92.5313 249.49 93.3113 250.35C94.1113 251.19 95.1113 251.61 96.3113 251.61ZM115.442 255.27C113.842 255.27 112.402 254.92 111.122 254.22C109.842 253.5 108.832 252.49 108.092 251.19C107.372 249.89 107.012 248.39 107.012 246.69C107.012 244.99 107.382 243.49 108.122 242.19C108.882 240.89 109.912 239.89 111.212 239.19C112.512 238.47 113.962 238.11 115.562 238.11C117.162 238.11 118.612 238.47 119.912 239.19C121.212 239.89 122.232 240.89 122.972 242.19C123.732 243.49 124.112 244.99 124.112 246.69C124.112 248.39 123.722 249.89 122.942 251.19C122.182 252.49 121.142 253.5 119.822 254.22C118.522 254.92 117.062 255.27 115.442 255.27ZM115.442 251.61C116.202 251.61 116.912 251.43 117.572 251.07C118.252 250.69 118.792 250.13 119.192 249.39C119.592 248.65 119.792 247.75 119.792 246.69C119.792 245.11 119.372 243.9 118.532 243.06C117.712 242.2 116.702 241.77 115.502 241.77C114.302 241.77 113.292 242.2 112.472 243.06C111.672 243.9 111.272 245.11 111.272 246.69C111.272 248.27 111.662 249.49 112.442 250.35C113.242 251.19 114.242 251.61 115.442 251.61ZM133.553 255.27C132.193 255.27 130.973 255.03 129.893 254.55C128.813 254.05 127.953 253.38 127.313 252.54C126.693 251.7 126.353 250.77 126.293 249.75H130.523C130.603 250.39 130.913 250.92 131.453 251.34C132.013 251.76 132.703 251.97 133.523 251.97C134.323 251.97 134.943 251.81 135.383 251.49C135.843 251.17 136.073 250.76 136.073 250.26C136.073 249.72 135.793 249.32 135.233 249.06C134.693 248.78 133.823 248.48 132.623 248.16C131.383 247.86 130.363 247.55 129.563 247.23C128.783 246.91 128.103 246.42 127.523 245.76C126.963 245.1 126.683 244.21 126.683 243.09C126.683 242.17 126.943 241.33 127.463 240.57C128.003 239.81 128.763 239.21 129.743 238.77C130.743 238.33 131.913 238.11 133.253 238.11C135.233 238.11 136.813 238.61 137.993 239.61C139.173 240.59 139.823 241.92 139.943 243.6H135.923C135.863 242.94 135.583 242.42 135.083 242.04C134.603 241.64 133.953 241.44 133.133 241.44C132.373 241.44 131.783 241.58 131.363 241.86C130.963 242.14 130.763 242.53 130.763 243.03C130.763 243.59 131.043 244.02 131.603 244.32C132.163 244.6 133.033 244.89 134.213 245.19C135.413 245.49 136.403 245.8 137.183 246.12C137.963 246.44 138.633 246.94 139.193 247.62C139.773 248.28 140.073 249.16 140.093 250.26C140.093 251.22 139.823 252.08 139.283 252.84C138.763 253.6 138.003 254.2 137.003 254.64C136.023 255.06 134.873 255.27 133.553 255.27ZM158.991 246.33C158.991 246.93 158.951 247.47 158.871 247.95H146.721C146.821 249.15 147.241 250.09 147.981 250.77C148.721 251.45 149.631 251.79 150.711 251.79C152.271 251.79 153.381 251.12 154.041 249.78H158.571C158.091 251.38 157.171 252.7 155.811 253.74C154.451 254.76 152.781 255.27 150.801 255.27C149.201 255.27 147.761 254.92 146.481 254.22C145.221 253.5 144.231 252.49 143.511 251.19C142.811 249.89 142.461 248.39 142.461 246.69C142.461 244.97 142.811 243.46 143.511 242.16C144.211 240.86 145.191 239.86 146.451 239.16C147.711 238.46 149.161 238.11 150.801 238.11C152.381 238.11 153.791 238.45 155.031 239.13C156.291 239.81 157.261 240.78 157.941 242.04C158.641 243.28 158.991 244.71 158.991 246.33ZM154.641 245.13C154.621 244.05 154.231 243.19 153.471 242.55C152.711 241.89 151.781 241.56 150.681 241.56C149.641 241.56 148.761 241.88 148.041 242.52C147.341 243.14 146.911 244.01 146.751 245.13H154.641ZM61.97 278.38L51.68 302.86H47.21L50.81 294.58L44.15 278.38H48.86L53.15 289.99L57.5 278.38H61.97ZM71.6141 295.27C70.0141 295.27 68.5741 294.92 67.2941 294.22C66.0141 293.5 65.0041 292.49 64.2641 291.19C63.5441 289.89 63.1841 288.39 63.1841 286.69C63.1841 284.99 63.5541 283.49 64.2941 282.19C65.0541 280.89 66.0841 279.89 67.3841 279.19C68.6841 278.47 70.1341 278.11 71.7341 278.11C73.3341 278.11 74.7841 278.47 76.0841 279.19C77.3841 279.89 78.4041 280.89 79.1441 282.19C79.9041 283.49 80.2841 284.99 80.2841 286.69C80.2841 288.39 79.8941 289.89 79.1141 291.19C78.3541 292.49 77.3141 293.5 75.9941 294.22C74.6941 294.92 73.2341 295.27 71.6141 295.27ZM71.6141 291.61C72.3741 291.61 73.0841 291.43 73.7441 291.07C74.4241 290.69 74.9641 290.13 75.3641 289.39C75.7641 288.65 75.9641 287.75 75.9641 286.69C75.9641 285.11 75.5441 283.9 74.7041 283.06C73.8841 282.2 72.8741 281.77 71.6741 281.77C70.4741 281.77 69.4641 282.2 68.6441 283.06C67.8441 283.9 67.4441 285.11 67.4441 286.69C67.4441 288.27 67.8341 289.49 68.6141 290.35C69.4141 291.19 70.4141 291.61 71.6141 291.61ZM99.0549 278.38V295H94.8249V292.9C94.2849 293.62 93.5749 294.19 92.6949 294.61C91.8349 295.01 90.8949 295.21 89.8749 295.21C88.5749 295.21 87.4249 294.94 86.4249 294.4C85.4249 293.84 84.6349 293.03 84.0549 291.97C83.4949 290.89 83.2149 289.61 83.2149 288.13V278.38H87.4149V287.53C87.4149 288.85 87.7449 289.87 88.4049 290.59C89.0649 291.29 89.9649 291.64 91.1049 291.64C92.2649 291.64 93.1749 291.29 93.8349 290.59C94.4949 289.87 94.8249 288.85 94.8249 287.53V278.38H99.0549ZM107.399 280.96C107.939 280.08 108.639 279.39 109.499 278.89C110.379 278.39 111.379 278.14 112.499 278.14V282.55H111.389C110.069 282.55 109.069 282.86 108.389 283.48C107.729 284.1 107.399 285.18 107.399 286.72V295H103.199V278.38H107.399V280.96ZM130.096 281.83H127.186V295H122.926V281.83H121.036V278.38H122.926V277.54C122.926 275.5 123.506 274 124.666 273.04C125.826 272.08 127.576 271.63 129.916 271.69V275.23C128.896 275.21 128.186 275.38 127.786 275.74C127.386 276.1 127.186 276.75 127.186 277.69V278.38H130.096V281.83ZM131.738 286.63C131.738 284.95 132.068 283.46 132.728 282.16C133.408 280.86 134.318 279.86 135.458 279.16C136.618 278.46 137.908 278.11 139.328 278.11C140.568 278.11 141.648 278.36 142.568 278.86C143.508 279.36 144.258 279.99 144.818 280.75V278.38H149.048V295H144.818V292.57C144.278 293.35 143.528 294 142.568 294.52C141.628 295.02 140.538 295.27 139.298 295.27C137.898 295.27 136.618 294.91 135.458 294.19C134.318 293.47 133.408 292.46 132.728 291.16C132.068 289.84 131.738 288.33 131.738 286.63ZM144.818 286.69C144.818 285.67 144.618 284.8 144.218 284.08C143.818 283.34 143.278 282.78 142.598 282.4C141.918 282 141.188 281.8 140.408 281.8C139.628 281.8 138.908 281.99 138.248 282.37C137.588 282.75 137.048 283.31 136.628 284.05C136.228 284.77 136.028 285.63 136.028 286.63C136.028 287.63 136.228 288.51 136.628 289.27C137.048 290.01 137.588 290.58 138.248 290.98C138.928 291.38 139.648 291.58 140.408 291.58C141.188 291.58 141.918 291.39 142.598 291.01C143.278 290.61 143.818 290.05 144.218 289.33C144.618 288.59 144.818 287.71 144.818 286.69ZM160.08 291.13L164.28 278.38H168.75L162.6 295H157.5L151.38 278.38H155.88L160.08 291.13ZM178.489 295.27C176.889 295.27 175.449 294.92 174.169 294.22C172.889 293.5 171.879 292.49 171.139 291.19C170.419 289.89 170.059 288.39 170.059 286.69C170.059 284.99 170.429 283.49 171.169 282.19C171.929 280.89 172.959 279.89 174.259 279.19C175.559 278.47 177.009 278.11 178.609 278.11C180.209 278.11 181.659 278.47 182.959 279.19C184.259 279.89 185.279 280.89 186.019 282.19C186.779 283.49 187.159 284.99 187.159 286.69C187.159 288.39 186.769 289.89 185.989 291.19C185.229 292.49 184.189 293.5 182.869 294.22C181.569 294.92 180.109 295.27 178.489 295.27ZM178.489 291.61C179.249 291.61 179.959 291.43 180.619 291.07C181.299 290.69 181.839 290.13 182.239 289.39C182.639 288.65 182.839 287.75 182.839 286.69C182.839 285.11 182.419 283.9 181.579 283.06C180.759 282.2 179.749 281.77 178.549 281.77C177.349 281.77 176.339 282.2 175.519 283.06C174.719 283.9 174.319 285.11 174.319 286.69C174.319 288.27 174.709 289.49 175.489 290.35C176.289 291.19 177.289 291.61 178.489 291.61ZM194.44 280.96C194.98 280.08 195.68 279.39 196.54 278.89C197.42 278.39 198.42 278.14 199.54 278.14V282.55H198.43C197.11 282.55 196.11 282.86 195.43 283.48C194.77 284.1 194.44 285.18 194.44 286.72V295H190.24V278.38H194.44V280.96ZM204.499 276.4C203.759 276.4 203.139 276.17 202.639 275.71C202.159 275.23 201.919 274.64 201.919 273.94C201.919 273.24 202.159 272.66 202.639 272.2C203.139 271.72 203.759 271.48 204.499 271.48C205.239 271.48 205.849 271.72 206.329 272.2C206.829 272.66 207.079 273.24 207.079 273.94C207.079 274.64 206.829 275.23 206.329 275.71C205.849 276.17 205.239 276.4 204.499 276.4ZM206.569 278.38V295H202.369V278.38H206.569ZM215.608 281.83V289.87C215.608 290.43 215.738 290.84 215.998 291.1C216.278 291.34 216.738 291.46 217.378 291.46H219.328V295H216.688C213.148 295 211.378 293.28 211.378 289.84V281.83H209.398V278.38H211.378V274.27H215.608V278.38H219.328V281.83H215.608ZM237.799 286.33C237.799 286.93 237.759 287.47 237.679 287.95H225.529C225.629 289.15 226.049 290.09 226.789 290.77C227.529 291.45 228.439 291.79 229.519 291.79C231.079 291.79 232.189 291.12 232.849 289.78H237.379C236.899 291.38 235.979 292.7 234.619 293.74C233.259 294.76 231.589 295.27 229.609 295.27C228.009 295.27 226.569 294.92 225.289 294.22C224.029 293.5 223.039 292.49 222.319 291.19C221.619 289.89 221.269 288.39 221.269 286.69C221.269 284.97 221.619 283.46 222.319 282.16C223.019 280.86 223.999 279.86 225.259 279.16C226.519 278.46 227.969 278.11 229.609 278.11C231.189 278.11 232.599 278.45 233.839 279.13C235.099 279.81 236.069 280.78 236.749 282.04C237.449 283.28 237.799 284.71 237.799 286.33ZM233.449 285.13C233.429 284.05 233.039 283.19 232.279 282.55C231.519 281.89 230.589 281.56 229.489 281.56C228.449 281.56 227.569 281.88 226.849 282.52C226.149 283.14 225.719 284.01 225.559 285.13H233.449ZM53.69 321.83H50.78V335H46.52V321.83H44.63V318.38H46.52V317.54C46.52 315.5 47.1 314 48.26 313.04C49.42 312.08 51.17 311.63 53.51 311.69V315.23C52.49 315.21 51.78 315.38 51.38 315.74C50.98 316.1 50.78 316.75 50.78 317.69V318.38H53.69V321.83ZM63.7918 335.27C62.1918 335.27 60.7518 334.92 59.4718 334.22C58.1918 333.5 57.1818 332.49 56.4418 331.19C55.7218 329.89 55.3618 328.39 55.3618 326.69C55.3618 324.99 55.7318 323.49 56.4718 322.19C57.2318 320.89 58.2618 319.89 59.5618 319.19C60.8618 318.47 62.3118 318.11 63.9118 318.11C65.5118 318.11 66.9618 318.47 68.2618 319.19C69.5618 319.89 70.5818 320.89 71.3218 322.19C72.0818 323.49 72.4618 324.99 72.4618 326.69C72.4618 328.39 72.0718 329.89 71.2918 331.19C70.5318 332.49 69.4918 333.5 68.1718 334.22C66.8718 334.92 65.4118 335.27 63.7918 335.27ZM63.7918 331.61C64.5518 331.61 65.2618 331.43 65.9218 331.07C66.6018 330.69 67.1418 330.13 67.5418 329.39C67.9418 328.65 68.1418 327.75 68.1418 326.69C68.1418 325.11 67.7218 323.9 66.8818 323.06C66.0618 322.2 65.0518 321.77 63.8518 321.77C62.6518 321.77 61.6418 322.2 60.8218 323.06C60.0218 323.9 59.6218 325.11 59.6218 326.69C59.6218 328.27 60.0118 329.49 60.7918 330.35C61.5918 331.19 62.5918 331.61 63.7918 331.61ZM82.9227 335.27C81.3227 335.27 79.8827 334.92 78.6027 334.22C77.3227 333.5 76.3127 332.49 75.5727 331.19C74.8527 329.89 74.4927 328.39 74.4927 326.69C74.4927 324.99 74.8627 323.49 75.6027 322.19C76.3627 320.89 77.3927 319.89 78.6927 319.19C79.9927 318.47 81.4427 318.11 83.0427 318.11C84.6427 318.11 86.0927 318.47 87.3927 319.19C88.6927 319.89 89.7127 320.89 90.4527 322.19C91.2127 323.49 91.5927 324.99 91.5927 326.69C91.5927 328.39 91.2027 329.89 90.4227 331.19C89.6627 332.49 88.6227 333.5 87.3027 334.22C86.0027 334.92 84.5427 335.27 82.9227 335.27ZM82.9227 331.61C83.6827 331.61 84.3927 331.43 85.0527 331.07C85.7327 330.69 86.2727 330.13 86.6727 329.39C87.0727 328.65 87.2727 327.75 87.2727 326.69C87.2727 325.11 86.8527 323.9 86.0127 323.06C85.1927 322.2 84.1827 321.77 82.9827 321.77C81.7827 321.77 80.7727 322.2 79.9527 323.06C79.1527 323.9 78.7527 325.11 78.7527 326.69C78.7527 328.27 79.1427 329.49 79.9227 330.35C80.7227 331.19 81.7227 331.61 82.9227 331.61ZM93.5935 326.63C93.5935 324.95 93.9235 323.46 94.5835 322.16C95.2635 320.86 96.1835 319.86 97.3435 319.16C98.5035 318.46 99.7935 318.11 101.214 318.11C102.294 318.11 103.324 318.35 104.304 318.83C105.284 319.29 106.064 319.91 106.644 320.69V312.8H110.904V335H106.644V332.54C106.124 333.36 105.394 334.02 104.454 334.52C103.514 335.02 102.424 335.27 101.184 335.27C99.7835 335.27 98.5035 334.91 97.3435 334.19C96.1835 333.47 95.2635 332.46 94.5835 331.16C93.9235 329.84 93.5935 328.33 93.5935 326.63ZM106.674 326.69C106.674 325.67 106.474 324.8 106.074 324.08C105.674 323.34 105.134 322.78 104.454 322.4C103.774 322 103.044 321.8 102.264 321.8C101.484 321.8 100.764 321.99 100.104 322.37C99.4435 322.75 98.9035 323.31 98.4835 324.05C98.0835 324.77 97.8835 325.63 97.8835 326.63C97.8835 327.63 98.0835 328.51 98.4835 329.27C98.9035 330.01 99.4435 330.58 100.104 330.98C100.784 331.38 101.504 331.58 102.264 331.58C103.044 331.58 103.774 331.39 104.454 331.01C105.134 330.61 105.674 330.05 106.074 329.33C106.474 328.59 106.674 327.71 106.674 326.69Z" fill="#212244"/>
<circle cx="169" cy="125" r="76" fill="#FBEDE4"/>
<g clip-path="url(#clip0_3119_4197)">
<path d="M228.156 93.2543C228.668 88.097 229.99 82.7672 225.776 78.5729C221.564 74.3751 213.531 74.376 210.405 79.1703C207.276 83.9673 200.41 90.1636 197.5 90.3854C194.588 90.6104 187.497 91.8898 187.497 91.8898L190.154 112.932C190.154 112.932 198.724 107.516 203.97 108.08C209.216 108.644 217.606 112.629 221.023 112.074C224.444 111.515 227.302 109.427 229.286 105.382C231.27 101.338 227.601 98.8487 228.156 93.2543Z" fill="#CB3E1F"/>
<path opacity="0.2" d="M224.71 86.1153C223.742 89.2881 225.829 90.6905 227.639 92.0207C227.84 92.1681 228.04 92.3205 228.239 92.4778C228.73 88.0817 229.573 83.609 226.876 79.8621C226.379 82.089 225.386 83.8995 224.71 86.1153Z" fill="#2D0C09"/>
<path opacity="0.2" d="M229.286 105.383C229.671 104.598 229.841 103.872 229.873 103.17C229.361 103.796 228.761 104.312 228.113 104.688C224.013 107.066 219.109 105.534 215.154 103.48C212.396 102.046 210.397 103.035 207.626 103.448C205.354 103.787 203.422 102.942 201.567 101.208C199.022 98.8278 196.487 94.7926 196.331 90.5034C193.033 90.891 187.497 91.8898 187.497 91.8898L190.154 112.932C190.154 112.932 198.724 107.516 203.97 108.08C209.216 108.644 217.606 112.629 221.023 112.074C224.444 111.515 227.303 109.427 229.286 105.383Z" fill="#2D0C09"/>
<path opacity="0.3" d="M223.125 83.1614C223.356 81.6771 222.387 80.8498 221.53 80.3054C220.192 79.4599 215.324 81.2476 215.312 83.5446C215.294 86.3988 218.907 86.3235 220.35 86.9877C221.142 87.3495 221.174 88.6703 221.791 89.2067C222.097 89.4709 222.919 89.5292 223.183 89.1368C223.998 87.9277 222.891 84.6676 223.125 83.1614Z" fill="white"/>
<path opacity="0.3" d="M224.212 102.701C221.78 99.5103 219.998 95.2163 216.704 94.2335C215.481 93.87 214.557 95.2889 213.47 95.725C211.51 96.5104 209.618 97.0071 207.578 97.2726C206.836 97.3688 205.076 97.041 204.475 97.833C203.918 98.5676 204.038 100.023 204.586 100.714C205.286 101.599 208.41 101.764 209.511 102.121C210.703 102.511 212.39 102.67 213.486 103.521C215.728 105.268 218.016 106.775 220.611 107.071C222.664 107.304 225.867 104.882 224.212 102.701Z" fill="white"/>
<path d="M200.294 109.651C199.939 111.048 199.773 112.874 198.879 113.957C198.204 114.77 197.335 114.78 196.534 114.862C195.107 115.008 193.922 117.294 192.596 117.868C190.408 118.821 188.083 118.74 185.944 119.493C183.555 120.344 182.422 124.26 180.465 126.048C179.669 126.768 178.965 126.188 178.185 126.703C176.038 128.111 174.097 129.953 172.209 131.892C170.814 133.317 169.839 135.349 168.513 136.849C167.684 137.786 166.75 138.409 166.03 139.53C164.566 141.811 163.956 144.671 161.938 146.437C160.386 147.802 158.724 148.837 156.924 149.519C155.303 150.136 153.621 150.348 152.169 151.588C149.711 153.679 148.255 157.953 145.671 159.654C144.567 160.374 141.782 160.845 140.544 160.277C139.905 159.984 139.481 158.776 138.781 158.9C137.047 159.215 135.09 161.56 133.448 162.405C131.879 163.201 130.452 162.584 128.891 162.86C127.233 163.163 125.757 164.609 124.011 164.588C122.725 164.577 121.973 163.412 120.792 163.115C119.288 162.736 118.317 164.388 116.987 164.772C116.004 165.049 113.776 165.135 112.875 164.729C111.545 164.112 109.216 162.709 108.407 161.122C107.57 159.469 107.448 157.254 106.353 155.927C105.609 155.028 103.858 155.207 102.883 154.622C101.63 153.874 100.126 151.843 99.0461 150.597C97.4206 148.723 96.8423 145.245 95.3585 143.106C92.5848 139.092 91.3514 135.587 89.552 130.674C88.7556 128.497 87.7164 126.308 87.2512 123.957C86.7055 121.167 87.1624 117.69 87.5584 114.889C87.89 112.538 86.762 109.955 87.0936 107.604C87.4331 105.215 87.603 102.805 88.0882 100.41C88.3994 98.8557 88.9698 97.3878 89.2527 95.8442C89.56 94.1541 89.9684 92.3017 90.7369 90.8606C91.5982 89.2519 93.0537 87.8487 94.5498 87.5186C95.3505 87.3399 96.3209 87.6161 96.8992 86.6084C97.4775 85.5847 96.4825 84.1329 97.2347 83.2227C98.1406 82.1286 99.3577 82.6325 100.029 80.9641C101.355 77.6818 100.328 72.5574 103.757 71.3439C104.869 70.9536 106.171 71.1162 106.972 72.3948C107.659 73.4889 107.606 77.0532 109.288 76.5712C110.247 76.3003 112.236 74.9897 112.972 74.1553C114.205 72.7632 114.82 70.5638 116.037 69.1882C116.939 68.1698 121.221 67.0053 122.373 67.1354C123.562 67.2708 124.904 68.197 126.101 67.8557C127.209 67.5363 127.969 65.835 128.839 65.0011C130.484 63.4249 135.07 63.1919 136.816 63.9827C138.276 64.6598 139.412 66.8209 140.839 67.249C143.427 68.0183 146.169 66.6476 148.611 68.6897C150.75 70.4716 152.343 73.6515 154.288 75.9373C154.603 76.3164 154.927 76.663 155.267 76.9775C155.623 77.308 155.999 77.6003 156.387 77.8711C157.458 78.624 158.631 79.1929 159.739 79.8428C160.107 80.054 160.467 80.271 160.814 80.5093C162.448 81.6306 163.754 82.481 165.541 83.1038C167.587 83.8081 169.621 82.7029 171.732 83.678C174.473 84.9294 177.093 87.6322 180.122 87.6593C181.27 87.67 183.947 87.2856 184.873 86.4405C185.73 85.6604 186.143 84.5663 187.161 84.095C189.636 82.9519 194.161 84.1979 196.324 85.8823C197.246 86.6026 197.29 88.0923 196.995 89.3976C196.845 90.0694 196.611 90.6922 196.356 91.1363C195.818 92.0843 194.808 92.4149 194.44 93.4333C194.436 93.4386 194.436 93.4493 194.432 93.4551C194.343 93.7041 194.294 93.9915 194.302 94.3487C194.302 94.4298 194.302 94.5113 194.31 94.5924C194.423 95.9792 194.844 96.4884 195.402 97.566C195.895 98.5247 197.234 99.3752 197.82 100.307C199.005 102.186 200.938 107.127 200.294 109.651Z" fill="#DF7032"/>
<path opacity="0.2" d="M200.294 109.65C199.939 111.048 199.773 112.874 198.879 113.957C198.204 114.769 197.334 114.78 196.534 114.862C195.107 115.008 193.922 117.294 192.596 117.868C190.408 118.821 188.083 118.74 185.944 119.493C183.555 120.343 182.422 124.26 180.465 126.047C179.669 126.768 178.965 126.188 178.185 126.703C176.038 128.111 174.097 129.953 172.209 131.892C170.814 133.317 169.839 135.348 168.513 136.849C167.684 137.786 166.75 138.409 166.03 139.53C164.566 141.81 163.956 144.67 161.938 146.436C160.385 147.801 158.723 148.836 156.924 149.519C155.303 150.136 153.621 150.347 152.169 151.588C149.711 153.679 148.255 157.953 145.671 159.653C144.567 160.374 141.781 160.845 140.544 160.276C139.905 159.984 139.481 158.776 138.781 158.9C137.046 159.214 135.089 161.56 133.448 162.405C131.879 163.201 130.451 162.583 128.891 162.86C127.233 163.163 125.757 164.609 124.01 164.588C122.725 164.577 121.973 163.412 120.792 163.114C119.288 162.735 118.317 164.387 116.987 164.772C116.004 165.048 113.776 165.135 112.875 164.729C111.545 164.111 109.215 162.709 108.407 161.121C107.57 159.469 107.448 157.254 106.353 155.927C105.609 155.028 103.858 155.206 102.883 154.621C101.629 153.874 100.125 151.842 99.046 150.597C97.4205 148.723 96.8422 145.245 95.3584 143.105C92.5847 139.092 91.3513 135.587 89.5519 130.674C88.7555 128.496 87.7163 126.308 87.2511 123.957C86.7054 121.167 87.1623 117.69 87.5584 114.889C87.8899 112.538 86.7619 109.954 87.0935 107.603C87.0975 107.587 87.0975 107.576 87.1014 107.566C86.7496 110.052 91.347 117.169 92.2771 119.439C93.4294 122.256 95.3342 127.689 97.9097 128.599C98.7507 128.897 101.011 128.615 101.751 128.583C103.748 128.485 105.099 128.22 106.518 125.69C108.402 122.337 106.324 120.235 107.679 117.543C109.324 114.271 112.175 114.558 111.56 109.293C111.302 107.088 110.347 106.466 110.849 103.974C111.14 102.538 112.131 101.748 112.515 100.415C112.794 99.4394 112.495 98.1667 112.762 97.3216C113.429 95.2091 113.32 95.6533 114.864 94.5213C115.459 94.0825 115.96 94.7271 116.538 94.0228C116.995 93.4646 116.664 92.0457 116.991 91.3254C119.838 85.0146 125.79 81.3474 129.963 76.8302C136.784 69.4472 147.002 70.2272 154.288 75.9365C154.83 76.3589 155.356 76.8141 155.865 77.2908C156.059 77.4748 156.233 77.6699 156.387 77.8704C157.333 79.0674 157.713 80.3838 159.391 80.0101C159.525 79.9829 159.638 79.9232 159.739 79.8421C160.107 80.0533 160.467 80.2702 160.814 80.5086C162.448 81.6298 163.754 82.4803 165.541 83.1031C167.587 83.8074 169.621 82.7021 171.732 83.6773C174.473 84.9287 177.093 87.6314 180.122 87.6586C181.27 87.6693 183.947 87.2848 184.873 86.4397C185.73 85.6597 186.143 84.5656 187.162 84.0943C189.636 82.9512 194.161 84.1972 196.324 85.8816C197.246 86.6019 197.291 88.0916 196.995 89.3969C196.122 90.8269 194.852 92.0297 194.44 93.4325C194.436 93.4379 194.436 93.4486 194.432 93.4544C194.351 93.7413 194.302 94.0393 194.302 94.348C194.302 94.4291 194.302 94.5106 194.31 94.5917C194.423 95.9785 194.844 96.4877 195.402 97.5653C195.895 98.524 197.234 99.3744 197.82 100.306C199.004 102.186 200.938 107.126 200.294 109.65Z" fill="#2D0C09"/>
<path opacity="0.2" d="M198.877 113.956C199.775 112.871 199.938 111.048 200.295 109.649C200.693 108.09 200.105 105.606 199.317 103.492C199.319 104.05 199.3 104.601 199.236 105.133C199.261 105.665 199.145 106.189 198.932 106.649C198.451 108.316 197.486 109.726 195.788 110.632C195.783 110.635 195.777 110.637 195.771 110.64C191.249 115.397 184.909 114.596 180.63 119.8C178.165 122.797 175.319 124.612 172.348 126.12C171.119 127.767 169.649 128.837 168.138 130.166C167.151 131.034 167.084 131.375 166.706 132.695C166.454 133.573 166.018 134.312 165.466 134.885C164.875 135.499 164.174 135.924 163.461 136.296C162.747 138.325 161.446 139.937 159.997 141.213C159.978 141.24 159.963 141.269 159.944 141.296C159.61 141.778 159.113 142.16 158.591 142.327C158.569 142.343 158.547 142.361 158.525 142.376C157.15 143.355 155.661 143.943 154.269 144.853C152.339 146.115 150.922 148.442 149.133 149.999C146.187 152.566 143.599 152.344 140.228 152.484C136.582 152.637 132.877 155.187 129.358 156.409C123.18 158.553 116.407 159.809 111.074 154.142C108.629 151.545 106.796 148.014 104.224 145.639C101.367 143.001 97.9264 141.239 95.8736 137.287C93.8577 133.407 92.6596 128.798 91.1901 124.535C89.7266 120.288 89.245 115.326 87.5481 111.233C87.4334 110.973 87.318 110.713 87.2036 110.453C87.4251 111.947 87.7612 113.459 87.5597 114.888C87.163 117.687 86.7048 121.168 87.2511 123.953C87.7164 126.306 88.7572 128.496 89.5533 130.669C91.353 135.588 92.5854 139.091 95.3598 143.102C96.8443 145.246 97.4202 148.719 99.0477 150.597C100.125 151.841 101.632 153.872 102.882 154.62C103.859 155.204 105.608 155.027 106.353 155.927C107.447 157.253 107.57 159.466 108.408 161.119C109.214 162.709 111.545 164.112 112.876 164.726C113.778 165.135 116.004 165.049 116.988 164.769C118.316 164.387 119.288 162.733 120.793 163.115C121.972 163.413 122.726 164.574 124.012 164.587C125.757 164.608 127.233 163.161 128.89 162.861C130.451 162.58 131.88 163.203 133.447 162.401C135.088 161.56 137.044 159.212 138.781 158.898C139.48 158.772 139.903 159.981 140.543 160.274C141.781 160.841 144.569 160.373 145.67 159.65C148.254 157.954 149.711 153.68 152.168 151.587C153.621 150.349 155.301 150.133 156.925 149.517C158.724 148.835 160.386 147.8 161.94 146.436C163.955 144.667 164.568 141.807 166.029 139.531C166.75 138.407 167.683 137.782 168.512 136.846C169.839 135.346 170.814 133.317 172.207 131.888C174.096 129.953 176.036 128.108 178.183 126.699C178.965 126.185 179.67 126.768 180.464 126.045C182.423 124.258 183.554 120.339 185.943 119.493C188.084 118.736 190.408 118.82 192.594 117.869C193.923 117.292 195.106 115.005 196.532 114.861C197.334 114.781 198.203 114.771 198.877 113.956Z" fill="#2D0C09"/>
<path opacity="0.3" d="M187.163 84.0929C186.142 84.5643 185.731 85.6584 184.874 86.4402C183.946 87.2862 181.269 87.6715 180.123 87.6608C177.092 87.6287 174.473 84.93 171.733 83.676C169.622 82.7039 167.586 83.8092 165.54 83.1004C163.755 82.4812 162.449 81.6294 160.813 80.5068C159.034 79.2964 156.92 78.5137 155.268 76.9745C152.849 74.7181 151.096 70.7573 148.611 68.6876C146.168 66.6473 143.427 68.0185 140.839 67.2491C139.41 66.8201 138.277 64.6573 136.814 63.9842C135.071 63.189 130.486 63.4229 128.837 65.003C127.968 65.8356 127.207 67.536 126.102 67.8532C124.905 68.1976 123.561 67.2714 122.374 67.1369C121.219 67.0059 116.937 68.1713 116.037 69.1883C114.821 70.5618 114.205 72.7611 112.974 74.1519C112.234 74.9872 110.246 76.2983 109.289 76.5718C107.604 77.0543 107.661 73.4895 106.972 72.3967C106.17 71.1151 104.869 70.9511 103.755 71.3436C100.33 72.5566 101.353 77.6797 100.029 80.9634C99.357 82.6313 98.1392 82.1261 97.233 83.2216C96.4805 84.1312 97.4788 85.5844 96.8982 86.6055C96.3219 87.6172 95.3522 87.3374 94.5498 87.5151C93.053 87.8457 91.5958 89.2525 90.7362 90.8621C89.9674 92.3014 89.5607 94.1542 89.2534 95.8435C89.1646 96.3291 89.0439 96.8057 88.9152 97.2806C91.1831 96.6146 94.0862 94.2344 95.3173 93.8143C96.7801 93.3105 97.8519 93.6513 99.0078 92.0684C100.223 90.4104 99.9007 87.7918 101.212 86.2469C102.99 84.1557 105.363 85.2975 104.809 88.5852C104.671 89.3995 103.433 90.5672 103.151 91.5731C102.165 92.938 101.259 94.5017 100.445 96.3055C99.4414 98.5244 97.2061 100.974 97.3631 103.812C97.6417 108.771 103.933 104.985 105.774 103.986C108.573 102.466 110.964 100.499 113.461 98.3061C114.96 96.9902 116.676 96.1625 118.225 94.9668C121.297 92.5941 123.623 89.7163 127.422 89.9809C131.56 90.2647 135.383 92.6494 139.422 93.4958C147.891 95.2742 156.694 97.453 165.211 98.4135C166.446 98.5503 167.696 98.597 168.945 98.5552C173.787 98.3761 178.654 96.8343 182.922 94.0785C183.306 93.8312 183.674 93.5581 184.036 93.2721C186.32 91.4296 188.222 88.8614 190.773 87.1801C192.137 86.2794 193.496 86.201 193.792 84.5148C191.576 83.6604 188.876 83.3026 187.163 84.0929Z" fill="white"/>
<path opacity="0.3" d="M186.392 103.327C185.54 101.261 180.971 99.8235 179.337 99.3343C175.606 98.2224 172.319 100.137 168.95 101.935C162.727 105.254 157.115 109.24 151.484 114.035C149.517 115.711 147.181 116.703 145.134 118.205C142.035 120.478 139.244 123.41 135.922 125.307C132.731 127.13 129.242 128.535 125.904 129.775C123.18 130.787 119.348 132.049 116.666 130.356C113.895 128.607 113.028 125.788 111.461 122.592C110.784 121.199 109.661 120.221 108.765 119.087C106.667 116.439 104.646 113.253 102.042 111.474C100.703 110.561 94.99 110.592 94.9342 113.589C94.8986 115.508 100.321 117.412 101.618 118.441C106.711 122.484 110.809 128.422 115.91 132.439C121.662 136.969 127.722 137.512 134.02 134.416C138.438 132.245 141.606 128.519 145.64 125.536C147.971 123.813 149.886 121.759 152.068 119.685C154.554 117.321 156.722 116.905 159.513 115.932C163.049 114.7 165.616 112.187 168.21 108.924C170.485 106.06 172.299 103.615 175.644 104.777C178.473 105.76 181.759 108.417 184.666 106.478C186.405 105.319 186.777 104.259 186.392 103.327Z" fill="white"/>
<path d="M164.346 108.673C166.194 108.579 163.256 105.416 162.565 105.096C159.665 103.769 158.405 106.358 156.284 108.165C155.585 108.761 154.645 108.514 154.001 109.242C153.123 110.235 152.752 111.857 153.28 113.302C154.271 116.008 161.342 115.359 162.832 113.149C163.424 112.272 163.712 110.948 163.991 109.855C164.143 109.26 164.143 109.367 164.187 108.673C164.194 108.534 164.084 108.248 164.188 108.25C164.306 108.251 164.227 108.68 164.346 108.673Z" fill="#DF7032"/>
<path opacity="0.2" d="M154.835 114.286C155.078 108.431 161.608 104.265 164.938 108.076C164.81 107.12 163.075 105.332 162.564 105.096C159.664 103.769 158.405 106.358 156.284 108.165C155.585 108.761 154.645 108.514 154.001 109.242C153.122 110.235 152.751 111.857 153.28 113.302C153.513 113.939 154.085 114.388 154.839 114.676C154.832 114.548 154.829 114.419 154.835 114.286Z" fill="#2D0C09"/>
<path d="M141.404 110.974C141.459 111.281 140.908 109.124 140.721 108.678C140.013 106.983 139.053 105.925 138.09 104.498C136.11 101.56 130.998 96.7064 127.943 98.712C127.002 99.3308 126.945 101.381 126.971 102.515C126.995 103.646 127.704 106.075 128.399 106.852C129.024 107.554 130.475 108.507 130.467 109.925C130.453 112.563 125.41 110.777 125.888 114.619C125.934 115.01 126.159 116.098 126.383 116.404C126.667 116.791 127.08 116.964 127.453 117.177C128.543 117.807 129.73 117.602 130.863 117.892C133.988 118.688 135.819 120.546 139.081 118.404C140.323 117.589 140.999 114.618 141.39 113.091C141.533 112.541 141.28 110.255 141.404 110.974Z" fill="#CB3E1F"/>
<path opacity="0.2" d="M136.708 118.349C134.905 117.749 132.946 117.316 131.215 116.395C129.349 115.401 129.682 112.295 131.201 111.153C131.253 111.114 131.765 110.668 132.171 110.31C131.814 109.684 131.391 108.602 131.192 108.228C130.236 106.432 129.314 104.605 128.594 102.612C128.169 101.436 127.864 100.158 127.724 98.9036C126.995 99.6769 126.947 101.478 126.971 102.516C126.996 103.647 127.704 106.076 128.399 106.853C129.025 107.554 130.476 108.508 130.467 109.926C130.453 112.564 125.41 110.778 125.888 114.62C125.935 115.011 126.16 116.099 126.383 116.405C126.667 116.792 127.08 116.965 127.454 117.178C128.544 117.808 129.73 117.603 130.864 117.893C133.713 118.619 135.49 120.218 138.255 118.871C137.767 118.724 137.257 118.531 136.708 118.349Z" fill="#2D0C09"/>
<path d="M163.056 128.825C162.214 127.677 160.976 127.296 159.842 126.927C157.85 126.277 154.296 126.747 152.934 129.142C151.574 131.531 151.307 135.483 148.906 136.638C147.134 137.492 145.939 135.805 144.295 135.235C142.779 134.709 140.722 134.981 139.236 135.603C138.227 136.026 136.663 136.77 135.995 137.942C135.564 138.7 135.329 139.629 134.841 140.388C134.306 141.222 133.352 142.854 134.251 143.94C136.43 146.578 139.011 142.833 141.27 144.184C143.75 145.67 139.608 148.439 140.986 149.434C142.595 150.598 145.643 149.801 147.065 148.396C148.26 147.215 148.688 145.125 149.558 143.595C151.238 140.645 153.248 137.859 155.113 135.095C155.589 134.388 156.196 133.785 156.893 133.504C158.26 132.958 159.226 134.293 160.492 134.307C163.002 134.332 165.212 131.757 163.056 128.825Z" fill="#DF7032"/>
<path opacity="0.3" d="M151.287 133.413C151.963 132.326 152.712 131.322 153.586 130.467C155.396 128.698 157.418 128.104 159.574 128.966C161.091 129.572 162.45 130.538 163.92 131.172C163.916 130.451 163.665 129.654 163.056 128.825C162.214 127.677 160.976 127.296 159.842 126.927C157.85 126.277 154.296 126.747 152.934 129.141C152.245 130.353 151.835 131.966 151.287 133.413Z" fill="white"/>
<path opacity="0.3" d="M136.597 138.966C136.926 138.487 137.212 138.084 137.319 137.981C138.367 136.974 139.655 136.571 140.932 136.594C143.203 136.637 145.188 138.054 146.668 140.229C147.081 140.155 147.498 140.097 147.937 140.033C147.939 140.032 147.941 140.033 147.943 140.033C148.15 139.586 148.342 139.16 148.516 138.791C148.981 137.806 149.444 136.815 149.932 135.851C149.637 136.175 149.303 136.448 148.906 136.639C147.134 137.493 145.939 135.806 144.295 135.236C142.779 134.71 140.722 134.982 139.236 135.604C138.227 136.027 136.663 136.771 135.995 137.943C135.724 138.42 135.529 138.965 135.302 139.493C135.719 139.271 136.152 139.092 136.597 138.966Z" fill="white"/>
<path d="M126.437 139.155C127.015 137.201 123.984 133.258 122.872 132.634C119.581 130.789 109.993 127.499 108.067 133.494C107.857 134.148 108.298 136.219 108.429 136.632C109.146 138.951 110.776 139.835 112.389 140.572C112.868 140.791 113.514 140.794 113.901 141.268C115.847 143.617 113.699 148.112 116.573 149.429C117.406 149.809 119.121 149.094 119.806 148.36C120.899 147.19 120.928 145.293 122.045 144.147C123.23 142.933 125.092 143.66 126.103 142.328C126.616 141.65 126.198 139.962 126.437 139.155Z" fill="#CB3E1F"/>
<path opacity="0.2" d="M126.103 142.329C126.616 141.65 126.198 139.963 126.437 139.156C126.557 138.75 126.516 138.258 126.375 137.729C125.271 137.412 124.099 137.406 123.109 137.973C121.802 138.72 121.581 141.47 120.682 142.93C119.776 144.401 117.485 144.543 117.038 142.309C116.458 139.415 115.486 137.877 113.644 136.305C112.002 134.903 110.525 133.509 109.251 131.538C108.739 132.037 108.33 132.677 108.068 133.494C107.858 134.149 108.298 136.22 108.429 136.632C109.146 138.952 110.777 139.836 112.389 140.572C112.868 140.791 113.515 140.794 113.901 141.268C115.847 143.617 113.7 148.112 116.573 149.429C117.407 149.809 119.121 149.095 119.807 148.361C120.899 147.19 120.928 145.294 122.046 144.148C123.23 142.933 125.093 143.66 126.103 142.329Z" fill="#2D0C09"/>
<path d="M124.264 121.594C123.312 122.152 122.965 121.109 121.612 121.014C120.354 120.927 117.749 122.649 118.744 124.795C119.738 126.948 124.801 126.611 125.765 124.616C126.301 123.509 125.696 120.754 124.264 121.594Z" fill="#CB3E1F"/>
<path d="M150.592 102.936C149.817 102.162 149.346 102.178 148.163 101.894C146.068 101.392 145.109 103.909 146.62 105.86C148.191 107.887 153.729 106.063 150.592 102.936Z" fill="#CB3E1F"/>
<path d="M145.624 94.5855C146.417 91.9562 146.463 88.9126 145.344 86.4442C144.49 84.5616 142.545 82.585 141.071 81.6544C140.5 81.2935 139.905 81.3349 139.368 80.8748C138.525 80.1419 138.392 78.0985 137.812 77.0427C136.372 74.4326 132.551 76.8618 131.239 78.5876C128.315 82.4322 131.949 85.0686 134.333 87.4033C135.158 88.2119 136.333 89.2517 136.734 90.6296C137.245 92.3883 135.95 94.5908 136.31 95.9335C136.37 96.1589 138.729 99.2443 138.995 99.5504C140.783 101.602 141.281 100.919 143.16 99.0042C144.232 97.9128 145.094 96.3416 145.624 94.5855Z" fill="#DF7032"/>
<path opacity="0.2" d="M145.624 94.5855C145.672 94.4282 145.716 94.2687 145.758 94.1088C143.975 97.4455 140.611 96.6512 139.511 92.9287C139.058 91.3967 139.165 89.4771 138.616 88.0279C137.981 86.3529 136.361 84.9986 135.314 83.819C133.98 82.3168 131.955 81.4348 130.427 79.9932C129.217 83.0955 132.251 85.3644 134.332 87.4029C135.158 88.2115 136.333 89.2512 136.733 90.6291C137.244 92.3879 135.949 94.5904 136.31 95.9331C136.37 96.1585 138.729 99.2439 138.995 99.55C140.783 101.601 141.281 100.919 143.16 99.0038C144.232 97.9128 145.094 96.3416 145.624 94.5855Z" fill="#2D0C09"/>
<path d="M107.179 78.9909C107.454 79.1695 107.765 79.4047 108.117 79.705C109.523 80.9024 112.863 85.9734 113.014 88.0507C113.074 88.8606 112.79 89.5912 112.561 90.2469C111.065 94.4991 107.861 91.7959 106.083 94.9214C104.619 97.4932 104.39 101.051 101.313 99.1085C98.7105 97.4643 94.722 92.2899 98.339 88.8236C100.129 87.1085 102.201 88.3661 103.918 86.4269C106.045 84.0244 103.579 76.6561 107.179 78.9909Z" fill="#DF7032"/>
<path opacity="0.2" d="M103.28 88.8347C104.482 87.7807 107.122 87.6725 107.092 85.8941C107.077 84.988 106.549 83.9745 106.418 83.0626C106.217 81.6539 106.331 80.3932 106.72 79.0608C106.749 78.9597 106.786 78.8732 106.82 78.7819C103.75 77.175 105.97 84.1099 103.918 86.4278C102.201 88.367 100.13 87.1094 98.3393 88.8245C94.7223 92.2903 98.7108 97.4647 101.313 99.1094C102.988 100.167 103.819 99.5932 104.464 98.4372C101.095 97.9926 100.511 91.2639 103.28 88.8347Z" fill="#2D0C09"/>
<path d="M96.0382 98.2465C98.1392 97.9351 94.5088 97.6001 93.9179 98.2679C92.0557 100.372 93.7327 101.725 93.8208 104.028C93.9003 106.12 92.6147 107.948 95.441 108.449C99.7583 109.221 99.9742 101.313 97.7781 98.0536C97.236 97.2491 94.9501 98.4078 96.0382 98.2465Z" fill="#CB3E1F"/>
<path d="M118.235 114.581C118.322 114.758 118.631 115.177 118.612 114.967C118.559 114.336 118.294 113.771 118.117 113.182C117.796 112.122 117.301 111.443 116.678 110.541C115.445 108.755 113.518 106.968 112.028 105.576C108.316 102.119 99.625 102.16 97.6543 108.474C97.3956 109.3 97.075 109.816 97.071 110.756C97.0567 113.358 99.6509 115.236 101.277 115.801C103.659 116.623 106.133 116.134 108.547 116.302C111.14 116.48 113.392 118.287 115.998 118.583C116.561 118.647 118.147 118.878 118.216 117.759C118.277 116.784 118.244 115.603 118.173 114.623C118.147 114.304 117.92 113.38 117.987 113.691C118.054 113.993 118.104 114.317 118.235 114.581Z" fill="#CB3E1F"/>
<path opacity="0.2" d="M118.216 117.759C118.277 116.784 118.243 115.603 118.172 114.622C118.165 114.528 118.139 114.381 118.109 114.228C118.142 114.352 118.181 114.472 118.236 114.581C118.323 114.757 118.631 115.176 118.612 114.967C118.559 114.336 118.294 113.771 118.118 113.182C118.051 112.964 117.976 112.765 117.896 112.574C116 113.476 113.752 112.885 111.942 111.927C110.788 111.316 109.953 110.059 108.862 109.408C107.518 108.607 106.177 110.769 104.757 111.214C102.756 111.84 100.173 111.987 98.4115 110.329C98.0391 109.978 97.7192 109.537 97.4565 109.042C97.2563 109.581 97.0744 110.049 97.071 110.755C97.0567 113.358 99.6509 115.236 101.277 115.801C103.659 116.623 106.133 116.133 108.547 116.301C111.14 116.479 113.392 118.287 115.998 118.583C116.561 118.646 118.146 118.877 118.216 117.759Z" fill="#2D0C09"/>
<path d="M166.611 89.0418C166.246 89.0819 166.211 88.1718 165.889 87.9343C164.921 87.2051 159.724 85.9662 158.806 87.9432C158.389 88.8409 158.524 89.9403 158.158 90.9004C157.843 91.7267 155.782 91.4795 155.997 92.3201C157.089 96.5611 161.983 94.527 164.462 94.3564C165.398 94.2936 166.245 95.0157 167.177 94.8955C167.967 94.7934 169.885 94.687 170.286 93.4868C170.946 91.5058 167.875 88.909 166.611 89.0418Z" fill="#DF7032"/>
<path d="M182.888 112.217C183.342 109.083 180.262 107.815 178.865 107.896C177.861 107.954 176.207 108.243 175.376 109.132C174.527 110.042 174.69 111.562 173.965 112.591C172.659 114.446 168.516 115.099 169.625 119.238C170.962 124.214 176.698 121.902 178.548 118.653C178.938 117.966 179.037 116.898 179.572 116.293C180.593 115.139 182.479 117.614 183.496 115.827C184.113 114.744 182.733 113.277 182.888 112.217Z" fill="#CB3E1F"/>
<path opacity="0.2" d="M183.496 115.827C184.001 114.941 183.17 113.798 182.935 112.831C181.675 113.544 180.374 113.509 179.007 113.063C178.443 112.879 177.921 112.738 177.351 112.651C177.325 112.647 177.3 112.647 177.276 112.649C177.25 112.677 177.225 112.702 177.203 112.723C177.195 112.738 177.189 112.752 177.181 112.77C177.039 113.055 176.884 113.346 176.718 113.639C176.631 114.822 176.067 115.945 175.049 116.174C174.257 117.231 173.406 118.201 172.617 118.928C171.734 119.742 170.738 120.089 169.859 119.923C171.527 123.977 176.791 121.741 178.549 118.653C178.939 117.966 179.038 116.898 179.573 116.293C180.593 115.14 182.479 117.615 183.496 115.827Z" fill="#2D0C09"/>
<path opacity="0.3" d="M113.576 76.8025C116.037 75.5881 116.849 72.4332 118.952 70.9635C121.174 69.4092 122.524 73.3353 124.577 73.1388C126.094 72.9936 125.924 71.7249 126.972 71.0865C128.565 70.1171 129.346 70.3167 131.129 70.2436C132.921 70.1706 134.386 68.8381 135.896 68.6666C138.329 68.39 141.825 70.0146 143.997 71.2878C146.518 72.7664 147.398 74.4517 149.126 76.8867C150.701 79.1075 160.382 84.5121 157.555 88.8221C155.862 87.5904 154.657 86.8914 153.415 84.8863C152.294 83.0776 151.788 81.2698 150.357 79.7899C147.587 76.9268 144.482 76.1998 141.21 74.8531C138.059 73.5563 135.318 75.1832 132.037 74.7061C128.879 74.2468 127.744 76.1779 124.94 77.8997C121.827 79.8104 119.728 79.7498 116.313 79.4496C116.032 79.4251 108.084 80.3414 108.804 79.2491C110.014 77.4106 111.709 77.5861 113.305 76.925C113.397 76.8867 113.488 76.8457 113.576 76.8025Z" fill="white"/>
<path d="M156.548 81.5247C151.383 80.6204 147.632 71.4523 142.413 69.4387C138.435 67.904 133.274 67.9303 129.449 70.1809C130.594 70.969 132.396 69.8766 133.695 69.8129C135.33 69.7332 136.966 70.0914 138.605 70.2054C142.52 70.478 145.231 71.8533 148.084 75.6417C150.154 78.389 152.869 81.7747 155.737 82.8527C158.483 83.8849 161.487 83.8965 164.26 84.6423C162.885 83.7522 161.427 82.7463 159.915 82.1863C158.62 81.7061 157.185 82.0549 156.548 81.5247Z" fill="white"/>
<path d="M159.009 98.617C156.655 97.1287 148.94 81.6917 149.424 91.2928C149.524 93.2623 150.296 96.0658 149.1 97.7439C147.957 99.349 144.588 98.0972 145.261 100.603C146.008 103.39 148.569 100.92 149.609 99.9891C151.435 98.3546 151.994 97.1461 154.363 97.7648C156.356 98.2856 157.869 100.076 159.798 101.005C162.273 102.198 163.738 101.437 166.152 100.623C163.81 99.4256 160.588 99.6474 159.009 98.617Z" fill="white"/>
<path opacity="0.3" d="M128.181 88.6106C127.139 86.0673 119.429 83.9927 117.757 86.585C116.512 88.5153 118.636 89.6428 118.151 91.3806C117.693 93.0196 115.272 93.4495 114.284 93.9395C112.859 94.6465 107.518 97.0655 107.891 100.049C108.244 102.871 116.299 101.023 118.406 103.145C119.6 104.347 118.676 105.642 120.498 105.384C122.79 105.059 122.716 101.205 123.114 99.1036C123.992 94.467 125.511 92.8093 129.2 93.9453C130.809 94.4411 134.39 96.2493 133.197 91.7023C132.544 89.2156 130.011 88.5736 128.352 88.3242C128.265 87.9918 128.457 87.9473 128.181 88.6106Z" fill="white"/>
<path d="M91.66 107.349C94.0646 113.524 97.1662 115.005 101.821 116.966C104.144 117.945 105.981 118.851 108.484 118.986C110.155 119.076 112.512 118.492 113.957 119.702C111.093 119.495 108.248 119.429 105.355 119.563C102.831 119.679 100.982 118.324 98.5273 117.381C95.1719 116.094 91.0996 112.566 91.66 107.349Z" fill="white"/>
<path d="M135.166 138.815C137.37 132.723 143.935 132.645 147.809 136.012C146.52 137.966 144.836 136.284 143.302 136.194C141.514 136.09 134.419 138.533 133.764 141.388C134.116 139.855 135.182 138.153 135.166 138.815Z" fill="white"/>
<path d="M181.874 111.232C182.476 108.814 180.127 107.321 178.637 107.447C175.781 107.689 173.658 111.546 171.326 113.31C171.122 113.465 171.192 113.934 171.441 113.921C175.218 113.736 178.17 105.445 181.48 111.362C181.593 111.566 181.823 111.434 181.874 111.232Z" fill="white"/>
<path d="M186.73 88.9109C186.743 88.8881 186.714 88.857 186.7 88.8792C185.145 91.4198 183.13 92.5723 180.875 93.6513C180.78 93.6971 180.779 93.9257 180.899 93.9096C183.321 93.584 185.285 91.4136 186.73 88.9109Z" fill="white"/>
<path d="M175.819 90.9173C174.806 90.5284 173.74 90.3827 172.701 90.1658C172.532 90.1306 172.451 90.4674 172.626 90.5155C173.668 90.8037 174.716 91.1695 175.779 91.2826C175.938 91.2991 175.967 90.9739 175.819 90.9173Z" fill="white"/>
<path d="M138.122 106.604C135.821 102.715 132.958 100.382 129.383 99.1798C129.241 99.1317 129.183 99.4083 129.321 99.4729C132.554 100.976 135.524 103.611 137.93 106.85C138.052 107.015 138.226 106.781 138.122 106.604Z" fill="white"/>
<path d="M160.851 106.465C159.97 106.978 158.993 107.382 158.283 108.277C158.17 108.42 158.28 108.665 158.425 108.621C159.375 108.334 160.174 107.473 160.983 106.783C161.132 106.656 161.01 106.372 160.851 106.465Z" fill="white"/>
<path d="M110.754 89.1412C112.224 86.1654 110.66 82.1574 108.712 80.3875C108.545 80.236 108.336 80.5759 108.488 80.7603C110.354 83.0154 110.421 85.8892 110.396 89.004C110.395 89.2651 110.651 89.3497 110.754 89.1412Z" fill="white"/>
<path d="M121.876 71.4571C118.521 70.9765 115.288 73.2391 113.581 77.0983C113.501 77.2792 113.687 77.4966 113.801 77.3353C115.999 74.1996 118.688 72.4488 121.872 71.9735C122.116 71.9369 122.126 71.4932 121.876 71.4571Z" fill="white"/>
<path d="M122.512 136.853C121.464 134.703 119.917 133.257 118.14 132.326C116.68 131.562 114.203 130.586 112.777 131.861C112.75 131.885 112.756 131.931 112.784 131.947C114.189 132.754 115.918 132.445 117.408 133.156C119.218 134.02 120.695 135.561 122.133 137.227C122.322 137.444 122.67 137.178 122.512 136.853Z" fill="white"/>
<path opacity="0.3" d="M201.2 92.6186C201.515 92.5852 201.841 92.5424 202.181 92.3905C204.523 91.3405 207.72 88.1232 209.425 85.7612C211.147 83.3774 213.942 82.1613 210.911 85.771C209.576 87.3605 208.902 87.9459 208.151 89.931C207.7 91.1213 207.753 92.1539 206.996 93.4209C205.224 96.3896 201.307 96.669 199.823 93.0578C200.264 92.6983 200.72 92.6694 201.2 92.6186Z" fill="white"/>
<path d="M224.32 83.1119C224.151 80.9438 221.421 79.8247 220.092 79.5298C218.282 79.128 216.021 79.3311 214.726 81.2672C214.584 81.4788 214.71 81.8035 214.925 81.747C216.709 81.2774 218.323 80.5 220.173 80.9767C220.997 81.1892 221.772 81.5781 222.513 82.1056C223.079 82.5083 223.585 83.1511 224.234 83.2251C224.276 83.23 224.325 83.1703 224.32 83.1119Z" fill="white"/>
<path d="M209.29 86.2242C209.333 86.16 209.267 86.0647 209.22 86.1261C206.41 89.7965 203.035 91.5998 199.343 93.0187C199.068 93.1243 199.094 93.7613 199.406 93.7186C203.37 93.1737 206.707 90.0985 209.29 86.2242Z" fill="white"/>
<path d="M198.149 6.90455C195.418 3.20479 193.082 -1.45899 188.026 0.436994C182.97 2.32763 178.051 10.8373 178.967 17.083C179.883 23.3341 179.336 34.4004 177.685 37.6181C176.035 40.8412 172.448 49.1343 172.448 49.1343L186.494 59.2041C186.494 59.2041 188.545 46.8107 192.09 41.5994C195.635 36.3881 203.124 29.9424 204.888 25.9829C206.653 22.0176 207.171 17.7116 205.998 13.1342C204.826 8.55686 201.11 10.9184 198.149 6.90455Z" fill="#E85123"/>
<path opacity="0.2" d="M191.825 6.1833C193.105 9.15113 195.21 7.79952 197.103 6.69695C197.313 6.57489 197.526 6.4555 197.741 6.34145C195.446 3.13039 193.323 -0.501648 189.461 0.0605547C190.47 1.95075 190.931 4.11091 191.825 6.1833Z" fill="#4A170E"/>
<path opacity="0.2" d="M205.998 13.1342C205.771 12.2459 205.446 11.6213 205.051 11.1584C205.107 12.0837 205.045 13.0348 204.87 13.9512C203.763 19.7505 199.856 24.0067 196.222 26.9366C193.688 28.981 193.047 31.7029 191.595 34.8921C190.404 37.5058 188.722 39.0342 186.562 39.9372C183.6 41.1757 179.666 41.39 177.039 38.9291C175.249 42.6596 172.449 49.1343 172.449 49.1343L186.495 59.204C186.495 59.204 188.545 46.8102 192.09 41.5993C195.635 36.3885 203.124 29.9423 204.889 25.9829C206.653 22.0176 207.171 17.7111 205.998 13.1342Z" fill="#4A170E"/>
<path opacity="0.3" d="M189.111 6.05402C188.377 4.90022 187.295 5.4201 186.449 5.99433C185.131 6.89332 183.205 13.1444 184.553 14.5637C186.227 16.3296 188.395 12.4565 189.67 11.3352C190.369 10.7178 191.168 11.4925 191.862 11.1673C192.205 11.0047 192.743 10.1708 192.673 9.65042C192.458 8.04757 189.857 7.22431 189.111 6.05402Z" fill="white"/>
<path opacity="0.3" d="M201.308 16.866C197.936 17.4888 194.311 16.747 191.714 19.6338C190.751 20.7061 191.022 22.5535 190.613 23.9728C189.877 26.5295 189.012 28.8371 187.919 31.1607C187.522 32.0058 186.251 33.6688 186.35 34.7901C186.442 35.8303 187.376 36.5939 188.118 36.437C189.069 36.2366 191.08 33.03 191.965 32.082C192.924 31.0583 194.051 29.3681 195.224 28.7288C197.628 27.4235 199.919 25.9227 201.682 23.3554C203.077 21.324 203.609 16.449 201.308 16.866Z" fill="white"/>
<path d="M180.638 44.2372C179.662 44.1668 179.1 44.3022 178.214 43.5707C176.913 42.498 177.727 40.7918 177.429 39.2914C177.112 37.6988 175.806 35.2936 174.308 36.1062C171.989 37.3682 168.483 41.3985 167.642 44.7134C167.295 46.0837 167.689 47.1889 167.626 48.5757C167.557 50.0761 166.145 53.1473 165.437 54.3555C163.562 57.546 160.366 58.6673 157.948 60.8016C156.082 62.4428 155.488 65.2761 153.816 67.0095C152.358 68.521 151.056 69.3821 149.391 70.4277C147.588 71.5708 145.831 73.3309 143.912 74.1381C141.099 75.3191 137.688 74.7502 134.945 76.1152C132.245 77.453 131.376 81.1964 129.338 83.4657C128.209 84.7171 126.239 84.5923 124.946 85.7301C123.41 87.0897 120.74 92.0894 120.663 94.8033C120.623 96.2333 121.16 98.0807 120.671 99.4457C120.141 100.925 118.772 101.78 117.965 102.956C117.181 104.099 115.247 109.348 115.296 110.924C115.362 113.053 116.283 115.051 116.35 117.207C116.39 118.502 115.946 121.411 115.522 122.592C114.775 124.672 112.706 122.429 111.64 122.489C110.392 122.554 109.498 123.832 109.049 125.251C107.667 129.623 111.317 131.676 112.445 135.088C113.017 136.821 111.974 137.802 112.066 139.432C112.142 140.787 113.611 140.619 113.858 141.859C114.102 143.089 113.343 143.944 112.957 144.903C112.236 146.691 112.174 149.095 112.597 150.991C112.976 152.687 113.82 154.252 114.63 155.612C115.368 156.858 115.883 158.358 116.609 159.642C117.726 161.619 119.045 163.277 120.246 165.097C121.43 166.89 123.646 167.274 124.833 169.067C126.242 171.202 128.015 173.818 129.994 174.945C131.667 175.893 133.597 176.131 135.367 176.618C139.372 177.723 142.194 178.563 146.26 178.081C148.434 177.821 150.837 179.338 152.941 178.763C154.335 178.384 156.456 178.032 157.663 177.166C158.607 176.488 159.572 174.527 160.56 174.289C162.012 173.942 163.394 175.167 164.882 175.291C166.315 175.41 168.57 173.801 169.747 172.767C170.541 172.062 171.853 169.652 172.29 168.439C172.878 166.798 172.496 164.756 173.643 163.396C174.541 162.329 175.688 162.242 176.483 160.888C177.564 159.052 177.614 156.603 178.451 154.664C179.241 152.838 180.483 151.706 180.97 149.556C181.479 147.303 181.29 143.792 182.169 141.761C182.522 140.944 183.494 141.236 184.059 140.738C185.152 139.774 186.582 136.534 186.83 134.925C187.411 131.15 185.78 126.99 186.049 123.106C186.208 120.809 187.11 118.897 187.741 116.8C188.44 114.477 188.846 112.082 188.993 109.601C189.182 106.384 187.87 103.984 187.421 101.043C187.199 99.5909 187.402 98.2206 187.357 96.7688C187.284 94.4451 186.683 92.17 186.693 89.8192C186.707 86.634 186.807 83.4492 187.289 80.3126C187.465 79.1694 188.241 78.7796 188.3 77.4957C188.446 74.327 186.825 70.7302 187.789 67.6804C188.652 64.9504 190.125 62.5399 190.902 59.642C191.375 57.8815 190.75 55.2273 191.539 53.6293C191.981 52.7303 192.507 51.8037 192.439 50.5907C192.349 48.9762 191.372 47.6874 190.765 46.4521C189.672 44.226 185.571 43.2508 183.734 43.3538C182.827 43.4032 181.504 44.3022 180.638 44.2372Z" fill="#FC8838"/>
<path opacity="0.2" d="M192.439 50.591C192.349 48.9766 191.372 47.6878 190.765 46.4525C189.672 44.2264 185.571 43.2512 183.734 43.3541C182.827 43.4027 181.504 44.3021 180.638 44.2371C179.661 44.1667 179.1 44.3021 178.214 43.5711C176.913 42.4984 177.727 40.7922 177.428 39.2918C177.279 38.5393 176.906 37.6083 176.399 36.9182C175.113 37.9246 173.725 39.5016 173.659 41.6257C173.595 43.7034 174.77 44.7779 176.113 45.1441C178.617 45.8266 181.857 45.3882 183.653 48.3035C185.962 52.0513 183.913 57.7919 182.32 61.3281C181.144 63.9369 180.849 65.1353 180.813 68.4283C180.779 71.5097 181.429 74.6254 181.311 77.6627C181.12 82.5729 179.578 87.3806 179.111 92.3727C178.856 95.1057 179.388 95.0946 180.105 97.028C181.617 101.102 178.913 101.077 177.28 104.326C175.652 107.565 176.65 111.61 177.067 114.953C177.419 117.764 177.298 120.604 177.591 123.429C177.947 126.861 177.902 126.616 175.748 126.671C173.563 126.726 173.308 126.008 171.694 128.248C170.694 129.636 167.836 133.446 168.372 135.194C168.987 137.196 172.209 137.177 169.513 140.478C167.906 142.447 164.8 142.064 162.929 143.136C161.848 143.756 160.575 145.382 160.085 146.852C158.937 150.292 160.871 150.743 161.709 153.672C163.367 159.469 158.262 154.263 155.933 154.114C153.771 153.976 149.494 154.589 149.467 158.492C148.319 158.759 146.627 161.959 145.606 163.063C144.728 164.013 144.153 164.941 143.126 165.786C142.002 166.711 139.73 168.665 138.545 169.092C136.405 169.863 134.684 168.101 132.73 167.284C128.64 165.573 124.336 166.567 120.228 165.07C120.234 165.079 120.24 165.087 120.246 165.097C121.43 166.89 123.646 167.274 124.833 169.067C126.242 171.202 128.015 173.818 129.994 174.945C131.667 175.893 133.597 176.131 135.367 176.618C139.372 177.723 142.194 178.563 146.26 178.081C148.434 177.821 150.836 179.338 152.941 178.763C154.334 178.384 156.456 178.032 157.663 177.165C158.606 176.488 159.572 174.527 160.56 174.289C162.012 173.942 163.394 175.167 164.882 175.291C166.314 175.41 168.569 173.802 169.747 172.767C170.54 172.063 171.852 169.652 172.289 168.439C172.877 166.798 172.496 164.756 173.643 163.396C174.541 162.329 175.688 162.243 176.482 160.888C177.564 159.052 177.613 156.604 178.451 154.664C179.241 152.839 180.483 151.707 180.969 149.556C181.478 147.303 181.29 143.793 182.168 141.762C182.522 140.944 183.494 141.236 184.058 140.738C185.152 139.774 186.582 136.535 186.83 134.926C187.41 131.15 185.78 126.99 186.049 123.106C186.208 120.809 187.11 118.897 187.74 116.801C188.439 114.477 188.846 112.083 188.992 109.602C189.182 106.384 187.869 103.985 187.421 101.043C187.199 99.5913 187.401 98.221 187.356 96.7692C187.283 94.4455 186.683 92.1704 186.693 89.8196C186.707 86.6344 186.807 83.4496 187.289 80.3129C187.465 79.1698 188.241 78.78 188.3 77.4961C188.445 74.3274 186.825 70.7305 187.788 67.6807C188.652 64.9508 190.125 62.5403 190.902 59.6424C191.375 57.8819 190.75 55.2277 191.538 53.6297C191.981 52.7307 192.507 51.8045 192.439 50.591Z" fill="#4A170E"/>
<path opacity="0.2" d="M192.439 50.5911C192.349 48.9766 191.372 47.6879 190.765 46.4525C190.089 45.076 188.263 44.1788 186.533 43.7181C186.864 44.0576 187.177 44.4158 187.452 44.8091C187.781 45.1085 188.02 45.5518 188.16 46.0592C188.85 47.5894 189.091 49.4743 188.586 51.8282C188.585 51.8362 188.582 51.8433 188.581 51.8514C188.619 59.5534 184.265 65.7777 184.716 73.4966C184.976 77.9421 184.304 82.0682 183.375 86.139C183.594 88.4489 183.326 90.6607 183.185 93.0757C183.094 94.6518 183.254 94.9316 183.801 96.1402C184.165 96.9443 184.334 97.8593 184.335 98.7948C184.335 99.7963 184.157 100.799 183.94 101.783C184.701 103.781 184.855 106.146 184.721 108.462C184.725 108.498 184.733 108.533 184.738 108.569C184.818 109.218 184.739 109.978 184.518 110.633C184.514 110.666 184.51 110.7 184.506 110.734C184.242 112.789 183.677 114.726 183.362 116.758C182.925 119.574 183.431 122.5 183.255 125.348C182.965 130.041 181.249 132.646 179.268 136.302C177.126 140.257 176.363 145.743 174.929 150.219C172.412 158.075 169.007 166.017 162.397 168.197C159.366 169.196 156.161 168.976 153.184 170.246C149.877 171.657 146.731 174.222 143.142 173.977C139.618 173.736 136.164 172.183 132.748 171.129C129.345 170.079 126.122 167.551 122.668 166.842C122.444 166.804 122.22 166.767 121.997 166.729C123.014 167.409 124.112 167.979 124.832 169.067C126.241 171.201 128.015 173.818 129.993 174.944C131.667 175.892 133.596 176.131 135.366 176.618C139.371 177.723 142.193 178.563 146.259 178.081C148.433 177.82 150.836 179.337 152.941 178.763C154.334 178.384 156.455 178.032 157.663 177.165C158.606 176.488 159.571 174.527 160.56 174.289C162.011 173.942 163.393 175.166 164.882 175.291C166.314 175.41 168.569 173.801 169.746 172.767C170.54 172.062 171.852 169.652 172.289 168.439C172.877 166.798 172.496 164.756 173.643 163.396C174.541 162.329 175.688 162.242 176.482 160.888C177.563 159.052 177.613 156.603 178.451 154.664C179.241 152.838 180.483 151.706 180.969 149.556C181.478 147.303 181.29 143.792 182.168 141.761C182.521 140.944 183.494 141.236 184.058 140.738C185.151 139.774 186.582 136.534 186.829 134.925C187.41 131.15 185.78 126.99 186.049 123.106C186.208 120.809 187.11 118.897 187.74 116.8C188.439 114.477 188.845 112.082 188.992 109.601C189.181 106.384 187.869 103.984 187.42 101.043C187.199 99.5909 187.401 98.2206 187.356 96.7687C187.283 94.4451 186.682 92.17 186.693 89.8192C186.706 86.634 186.806 83.4492 187.289 80.3125C187.464 79.1694 188.24 78.7796 188.3 77.4957C188.445 74.327 186.824 70.7301 187.788 67.6803C188.651 64.9504 190.125 62.5399 190.901 59.642C191.375 57.8815 190.749 55.2273 191.538 53.6293C191.981 52.7308 192.507 51.8046 192.439 50.5911Z" fill="#4A170E"/>
<path opacity="0.3" d="M167.642 44.7142C167.295 46.0845 167.689 47.1898 167.626 48.5766C167.557 50.077 166.146 53.1481 165.437 54.3563C163.562 57.5469 160.366 58.6681 157.948 60.8025C156.082 62.4436 155.488 65.2769 153.816 67.0103C152.358 68.5218 151.056 69.3829 149.391 70.4285C147.588 71.5716 145.831 73.3317 143.912 74.139C141.099 75.3199 137.688 74.751 134.945 76.116C132.245 77.4538 131.376 81.1968 129.338 83.4665C128.209 84.7179 126.239 84.5932 124.946 85.7309C123.41 87.0905 120.74 92.0902 120.663 94.8041C120.623 96.2341 121.16 98.0811 120.671 99.4465C120.141 100.926 118.772 101.781 117.965 102.957C117.181 104.1 115.247 109.348 115.296 110.924C115.362 113.053 116.283 115.052 116.35 117.208C116.391 118.503 115.946 121.412 115.523 122.592C114.776 124.672 112.706 122.43 111.64 122.489C110.392 122.554 109.499 123.833 109.049 125.252C107.667 129.623 111.317 131.676 112.445 135.088C113.018 136.822 111.974 137.802 112.066 139.433C112.142 140.787 113.611 140.619 113.858 141.859C114.102 143.089 113.343 143.945 112.957 144.903C112.236 146.691 112.174 149.096 112.597 150.992C112.976 152.687 113.821 154.253 114.63 155.612C114.862 156.004 115.069 156.424 115.271 156.851C116.266 154.041 116.639 149.508 117.145 147.947C117.744 146.089 118.601 145.163 118.374 142.97C118.14 140.667 116.397 139.405 116.288 137.07C116.142 133.907 118.269 132.093 119.87 134.692C120.267 135.337 120.198 137.363 120.618 138.278C120.821 140.158 121.188 142.075 121.755 144.042C122.45 146.463 122.527 150.331 124.298 151.902C127.395 154.643 129.013 145.661 129.55 143.099C130.367 139.204 130.67 135.467 130.905 131.48C131.047 129.086 131.609 126.762 131.851 124.389C132.332 119.682 132.057 115.457 134.54 111.595C137.241 107.386 140.989 104.797 143.961 101.037C150.196 93.1558 156.872 85.1661 162.654 76.7321C163.491 75.5079 164.284 74.2133 165.024 72.8644C167.882 67.6264 169.952 61.5268 170.939 55.3194C171.028 54.7617 171.093 54.2035 171.145 53.6457C171.457 50.0979 171.105 46.5117 171.675 42.7795C171.979 40.7832 172.764 39.2962 171.95 37.95C170.089 39.7756 168.225 42.4155 167.642 44.7142Z" fill="white"/>
<path opacity="0.3" d="M178.522 57.3072C176.78 56.9451 173.135 60.9041 171.846 62.335C168.905 65.6066 168.023 70.2597 167.021 74.9288C165.169 83.5525 164.086 91.9375 163.468 100.837C163.253 103.947 162.408 107.029 162.042 110.116C161.486 114.791 161.507 119.542 160.593 124.222C159.715 128.718 158.409 133.273 157.096 137.569C156.026 141.074 154.424 145.905 151.783 147.709C149.054 149.573 146.859 148.765 144.013 148.467C142.777 148.332 141.512 148.922 140.294 149.177C137.447 149.778 134.329 149.968 131.685 151.636C130.325 152.495 126.846 158.566 128.581 160.459C129.692 161.672 134.135 157.095 135.537 156.351C141.042 153.431 147.055 152.728 152.549 149.784C158.745 146.465 162.775 140.379 164.804 131.813C166.228 125.804 165.968 120.168 166.678 114.067C167.089 110.544 167.049 107.258 167.161 103.676C167.288 99.5958 168.369 97.0454 169.504 93.4935C170.942 88.9937 171.031 84.7366 170.693 79.9918C170.396 75.8278 170.063 72.4096 172.798 69.5781C175.11 67.1836 178.69 65.3304 179.326 61.0631C179.705 58.5136 179.307 57.4707 178.522 57.3072Z" fill="white"/>
<path d="M168.179 83.9317C169.255 81.9168 165.589 83.092 164.977 83.6283C162.417 85.8869 163.175 88.8066 162.942 92.1598C162.866 93.2646 162.145 94.1097 162.18 95.2363C162.228 96.7746 162.959 98.1614 164.135 98.4866C166.339 99.0934 170.285 91.2065 169.893 88.2761C169.738 87.1116 169.133 85.9956 168.659 85.0316C168.4 84.5059 168.464 84.571 168.081 84.1001C168.003 84.0079 167.767 83.9486 167.832 83.8399C167.905 83.7152 168.11 84.0618 168.179 83.9317Z" fill="#FC8838"/>
<path opacity="0.2" d="M165.668 97.4419C162.361 93.5996 163.9 84.1325 168.188 82.9386C167.546 82.4883 165.429 83.2318 164.977 83.6283C162.417 85.8869 163.175 88.8066 162.942 92.1597C162.866 93.265 162.145 94.1096 162.18 95.2367C162.228 96.775 162.959 98.1618 164.135 98.487C164.654 98.6295 165.269 98.2985 165.901 97.6762C165.821 97.6054 165.743 97.5296 165.668 97.4419Z" fill="#4A170E"/>
<path d="M155.489 109.64C155.704 109.77 154.094 109.033 153.717 108.957C152.283 108.67 151.071 109.038 149.639 109.185C146.693 109.483 140.698 111.926 140.012 116.389C139.801 117.765 140.976 119.081 141.661 119.748C142.343 120.414 144.211 121.151 145.095 120.891C145.892 120.658 147.343 119.705 148.175 120.582C149.724 122.213 145.581 126.459 148.142 128.306C148.4 128.496 149.181 128.924 149.498 128.875C149.9 128.81 150.255 128.48 150.61 128.214C151.649 127.445 152.255 126.064 153.12 125.04C155.502 122.218 157.72 121.416 158.454 116.649C158.733 114.835 157.394 112.3 156.731 110.951C156.493 110.463 154.99 109.331 155.489 109.64Z" fill="#E85123"/>
<path opacity="0.2" d="M156.967 119.129C155.509 120.672 154.054 122.482 152.45 123.75C150.721 125.118 149.092 122.863 149.348 120.556C149.357 120.477 149.407 119.662 149.445 119.012C148.856 119.007 147.959 118.792 147.617 118.774C145.971 118.687 144.328 118.545 142.711 118.088C141.756 117.818 140.816 117.358 139.99 116.738C140 117.984 141.034 119.138 141.661 119.748C142.343 120.414 144.211 121.151 145.095 120.891C145.891 120.658 147.343 119.705 148.175 120.582C149.723 122.213 145.581 126.459 148.141 128.306C148.4 128.496 149.18 128.924 149.498 128.875C149.9 128.81 150.255 128.48 150.61 128.215C151.649 127.445 152.254 126.064 153.12 125.041C155.293 122.467 157.324 121.564 158.222 117.811C157.837 118.238 157.41 118.66 156.967 119.129Z" fill="#4A170E"/>
<path d="M179.282 97.6361C178.089 97.8254 177.107 98.9035 176.194 99.8786C174.591 101.59 172.693 105.642 173.272 108.551C173.849 111.454 176.018 114.157 175.23 117.408C174.649 119.807 172.922 120.04 171.579 121.432C170.34 122.716 169.241 125.062 168.698 127.017C168.331 128.344 167.811 130.456 168.095 131.881C168.278 132.802 168.682 133.62 168.832 134.6C168.997 135.678 169.375 137.688 170.567 137.401C173.458 136.707 172.828 131.681 175.009 130.115C177.404 128.398 176.503 134.481 177.933 133.63C179.605 132.639 181.002 128.923 181.043 126.556C181.078 124.568 180.107 122.835 179.736 120.977C179.023 117.391 178.61 113.556 178.12 109.889C177.995 108.951 178.01 107.939 178.272 107.029C178.786 105.247 180.165 105.041 180.948 103.708C182.499 101.065 182.333 97.1487 179.282 97.6361Z" fill="#FC8838"/>
<path opacity="0.3" d="M174.784 112.91C174.556 111.529 174.422 110.122 174.453 108.672C174.517 105.672 175.404 103.166 177.234 101.41C178.52 100.175 179.922 99.328 181.197 98.1586C180.769 97.7207 180.145 97.4984 179.282 97.6365C178.09 97.8258 177.107 98.9039 176.195 99.879C174.592 101.591 172.693 105.643 173.272 108.551C173.564 110.023 174.266 111.444 174.784 112.91Z" fill="white"/>
<path opacity="0.3" d="M169.067 131.87C168.986 131.229 168.922 130.679 168.927 130.503C168.975 128.776 169.525 127.165 170.322 125.826C171.737 123.447 173.789 122.212 175.979 121.977C176.188 121.493 176.409 121.017 176.64 120.511C176.641 120.509 176.642 120.507 176.643 120.506C176.506 120.013 176.373 119.549 176.261 119.138C175.965 118.043 175.663 116.946 175.393 115.839C175.404 116.35 175.36 116.871 175.23 117.408C174.649 119.807 172.922 120.04 171.579 121.432C170.34 122.716 169.241 125.062 168.698 127.017C168.331 128.344 167.811 130.456 168.095 131.881C168.21 132.461 168.413 133 168.585 133.564C168.71 132.987 168.869 132.418 169.067 131.87Z" fill="white"/>
<path d="M162.958 142.747C162.158 140.938 157.976 141.734 156.926 142.531C153.822 144.887 146.01 153.029 148.369 158.738C148.627 159.361 150.119 160.163 150.443 160.276C152.251 160.937 153.771 159.751 155.193 158.494C155.616 158.12 156.013 157.438 156.529 157.319C159.107 156.696 160.445 161.723 162.982 159.486C163.717 158.836 164.345 156.582 164.331 155.407C164.31 153.532 163.208 152.341 163.216 150.456C163.224 148.457 164.794 146.929 164.626 145.044C164.54 144.085 163.288 143.495 162.958 142.747Z" fill="#E85123"/>
<path opacity="0.2" d="M164.626 145.044C164.54 144.086 163.288 143.495 162.958 142.747C162.792 142.372 162.476 142.114 162.078 141.94C161.215 142.915 160.494 144.153 160.222 145.548C159.863 147.39 161.351 149.308 161.662 151.154C161.975 153.014 160.657 155.528 159.064 154.634C157.002 153.476 155.498 153.564 153.442 154.552C151.609 155.432 149.883 156.144 147.94 156.286C147.921 157.135 148.048 157.959 148.369 158.738C148.627 159.36 150.119 160.162 150.443 160.276C152.251 160.936 153.771 159.751 155.193 158.494C155.616 158.12 156.013 157.438 156.53 157.318C159.108 156.695 160.446 161.722 162.982 159.485C163.717 158.835 164.345 156.582 164.331 155.406C164.31 153.532 163.208 152.34 163.216 150.455C163.224 148.457 164.793 146.929 164.626 145.044Z" fill="#4A170E"/>
<path d="M151.263 134.297C151.01 135.646 150.182 135.375 149.297 136.751C148.476 138.03 147.897 141.843 149.773 142.103C151.652 142.368 154.553 136.8 153.966 134.557C153.64 133.311 151.644 132.266 151.263 134.297Z" fill="#E85123"/>
<path d="M156.371 94.9872C155.44 95.3338 155.161 95.843 154.268 96.9211C152.689 98.8331 153.588 101.39 155.665 100.984C157.823 100.561 160.138 93.579 156.371 94.9872Z" fill="#E85123"/>
<path d="M148.401 95.1356C147.335 92.6859 145.567 90.7734 143.424 90.4477C141.791 90.1987 139.433 91.0491 137.981 92.0403C137.418 92.4248 137.078 93.0806 136.478 93.3675C135.529 93.8116 134.242 92.701 133.264 92.6685C130.842 92.5959 129.936 98.1301 130.151 100.577C130.629 106.028 134.411 103.793 137.248 102.698C138.231 102.319 139.564 101.71 140.622 102.13C141.973 102.665 142.48 105.385 143.493 105.826C143.663 105.9 146.929 105.291 147.272 105.196C149.578 104.559 149.479 103.613 149.5 100.451C149.512 98.6478 149.113 96.7718 148.401 95.1356Z" fill="#FC8838"/>
<path opacity="0.2" d="M148.401 95.1356C148.337 94.989 148.27 94.8442 148.202 94.7017C149.079 98.6335 146.551 101.71 143.68 100.596C142.499 100.137 141.432 98.8482 140.24 98.5426C138.862 98.1898 137.071 99.0763 135.734 99.4634C134.031 99.9566 132.271 101.561 130.484 102.297C131.574 105.478 134.771 103.654 137.249 102.698C138.231 102.319 139.564 101.71 140.623 102.13C141.973 102.665 142.481 105.385 143.494 105.826C143.664 105.9 146.929 105.291 147.273 105.196C149.578 104.559 149.48 103.613 149.5 100.451C149.512 98.6478 149.113 96.7718 148.401 95.1356Z" fill="#4A170E"/>
<path d="M115.658 126.308C115.932 126.126 116.261 125.941 116.654 125.751C118.221 124.996 123.259 124.562 124.578 125.674C125.092 126.107 125.35 126.855 125.596 127.499C127.19 131.686 123.633 133.425 124.389 137.222C125.011 140.348 126.97 142.769 123.94 144.838C121.376 146.588 115.88 147.645 116.049 141.691C116.133 138.745 118.144 137.32 118.05 134.314C117.935 130.59 112.076 128.691 115.658 126.308Z" fill="#FC8838"/>
<path opacity="0.2" d="M119.081 136.464C119.194 134.546 120.747 131.684 119.678 130.626C119.134 130.088 118.213 130.026 117.595 129.606C116.64 128.957 115.966 128.064 115.418 126.837C115.376 126.744 115.348 126.652 115.315 126.559C112.487 128.828 117.939 130.722 118.05 134.315C118.143 137.32 116.133 138.745 116.049 141.691C115.88 147.644 121.376 146.588 123.94 144.839C125.589 143.713 125.759 142.481 125.472 141.09C123.148 144.386 118.819 140.884 119.081 136.464Z" fill="#4A170E"/>
<path d="M120.201 149.897C121.304 147.481 118.883 151.121 118.916 152.156C119.017 155.417 120.843 154.469 122.256 155.785C123.54 156.982 123.831 159.463 125.857 156.776C128.956 152.676 124.422 147.606 121.153 147.936C120.346 148.018 119.63 151.149 120.201 149.897Z" fill="#E85123"/>
<path d="M143.433 136.388C143.59 136.404 144.026 136.334 143.891 136.225C143.486 135.895 142.99 135.83 142.535 135.657C141.713 135.348 141.009 135.456 140.094 135.564C138.285 135.775 136.05 136.723 134.317 137.449C130.004 139.264 124.707 148.494 127.226 154.447C127.556 155.227 127.664 155.882 128.216 156.462C129.743 158.071 132.44 156.473 133.769 155.097C135.713 153.077 136.938 150.157 138.516 147.703C140.208 145.065 142.654 143.787 144.424 141.209C144.806 140.651 145.914 139.112 145.296 138.354C144.758 137.693 144.04 137.005 143.418 136.48C143.215 136.312 142.53 135.987 142.754 136.106C142.975 136.22 143.196 136.366 143.433 136.388Z" fill="#E85123"/>
<path opacity="0.2" d="M145.296 138.354C144.758 137.693 144.04 137.005 143.418 136.48C143.358 136.431 143.255 136.367 143.147 136.306C143.24 136.347 143.335 136.38 143.433 136.388C143.59 136.404 144.026 136.334 143.891 136.226C143.486 135.895 142.99 135.83 142.535 135.657C142.366 135.593 142.202 135.551 142.04 135.519C141.411 138.08 139.686 140.099 138.013 141.429C136.945 142.278 135.692 142.393 134.64 143.15C133.345 144.082 133.8 146.827 133.193 148.602C132.337 151.105 130.842 153.932 128.785 154.782C128.35 154.961 127.894 155.03 127.441 155.005C127.637 155.547 127.801 156.026 128.216 156.462C129.743 158.071 132.44 156.473 133.769 155.098C135.713 153.077 136.938 150.158 138.516 147.704C140.208 145.066 142.654 143.788 144.424 141.209C144.807 140.651 145.914 139.113 145.296 138.354Z" fill="#4A170E"/>
<path d="M157.979 69.5121C157.779 69.9238 157.22 69.4039 156.884 69.599C155.86 70.1786 151.947 74.9239 152.552 77.1068C152.827 78.098 153.558 78.629 153.9 79.6037C154.195 80.4435 152.788 82.4744 153.415 82.7618C156.587 84.2025 158.383 77.7728 159.8 75.0428C160.336 74.0138 161.28 73.5585 161.781 72.4969C162.204 71.5979 163.316 69.5015 162.852 68.3423C162.088 66.4298 158.675 68.0928 157.979 69.5121Z" fill="#FC8838"/>
<path d="M181.623 66.4623C180.052 64.0625 177.417 66.5492 176.61 68.0768C176.029 69.1762 175.187 71.1047 175.204 72.5294C175.221 73.9866 176.217 74.7448 176.381 76.1423C176.675 78.661 174.524 83.4496 177.646 84.8092C181.402 86.4396 183.55 78.9484 182.765 74.9991C182.598 74.1652 182.028 73.4065 181.999 72.4697C181.943 70.6819 184.559 70.1999 184.126 68.0278C183.865 66.7113 182.154 67.2749 181.623 66.4623Z" fill="#E85123"/>
<path opacity="0.2" d="M184.126 68.0277C183.912 66.9505 182.729 67.1314 182.014 66.7875C181.664 68.5592 180.846 69.9157 179.746 71.0904C179.292 71.5751 178.889 72.042 178.489 72.5913C178.471 72.6167 178.456 72.6434 178.442 72.6706C178.442 72.7151 178.442 72.7565 178.441 72.7926C178.445 72.8104 178.449 72.8247 178.454 72.8452C178.537 73.1699 178.613 73.513 178.684 73.868C179.329 74.6842 179.647 75.9689 179.159 77.1873C179.298 78.6735 179.349 80.1699 179.295 81.4493C179.236 82.8833 178.83 84.1507 178.194 84.9798C181.607 85.6957 183.511 78.751 182.764 74.9987C182.598 74.1647 182.028 73.4061 181.999 72.4692C181.943 70.6819 184.558 70.1999 184.126 68.0277Z" fill="#4A170E"/>
<path opacity="0.3" d="M118.283 118.192C119.073 114.842 117.709 112.05 118.129 108.923C118.572 105.617 121.716 106.591 122.857 104.297C123.7 102.601 122.847 102.004 123.112 100.503C123.515 98.2232 124.111 97.518 125.16 95.5842C126.214 93.6409 126.325 91.2745 127.148 89.5701C128.475 86.8237 131.574 84.1151 133.655 82.5951C136.072 80.8297 137.605 80.9299 140.1 80.5909C142.375 80.2817 151.493 73.3375 152.305 78.9707C150.542 80.01 149.392 80.8573 147.448 80.9455C145.695 81.0252 144.318 80.4541 142.568 81.0644C139.182 82.245 136.852 85.0881 134.054 87.7298C131.359 90.2735 130.641 94.1729 128.351 97.3554C126.146 100.419 126.59 102.804 125.89 106.828C125.112 111.295 123.79 113.481 121.523 116.914C121.336 117.196 117.011 126.176 116.806 124.745C116.463 122.337 117.604 120.65 118.19 118.555C118.224 118.433 118.255 118.312 118.283 118.192Z" fill="white"/>
<path d="M147.381 75.569C143.685 80.4853 135.978 78.8451 131.594 83.1396C128.252 86.4134 125.108 91.8956 124.094 97.3256C125.26 96.5954 125.719 94.0179 126.477 92.603C127.43 90.8224 128.644 89.3086 129.715 87.6425C132.273 83.663 134.745 81.6334 138.728 80.9308C141.616 80.4212 145.277 79.6184 147.669 77.2404C149.959 74.9644 151.805 71.7899 153.944 69.3094C152.577 70.22 151.091 71.1484 149.834 72.4069C148.757 73.4845 148.084 75.2184 147.381 75.569Z" fill="white"/>
<path d="M158.976 83.4269C156.656 85.0097 142.822 83.7294 148.785 89.0948C150.008 90.1952 152.135 91.0941 152.394 93.388C152.641 95.5815 149.839 98.3836 151.73 99.2056C153.833 100.12 153.943 95.8956 154.03 94.2237C154.184 91.2888 153.812 89.9573 155.628 87.8274C157.156 86.0352 159.139 85.5287 160.868 84.055C163.087 82.1635 163.536 80.1459 164.533 77.0898C162.392 78.837 160.551 82.3858 158.976 83.4269Z" fill="white"/>
<path opacity="0.3" d="M134.195 109.952C132.056 109.499 126.111 116.395 126.617 119.753C126.994 122.254 128.96 120.694 129.688 122.272C130.375 123.76 129.147 126.588 128.831 127.934C128.376 129.876 126.533 137.015 128.522 138.447C130.404 139.801 134.244 130.138 136.787 129.205C138.228 128.676 138.426 130.448 139.389 128.36C140.602 125.733 138.281 123.452 137.285 121.744C135.086 117.975 135.038 115.351 137.967 112.14C139.245 110.739 142.504 108.053 139.09 106.533C137.223 105.702 135.293 107.991 134.13 109.596C133.881 109.485 133.972 109.254 134.195 109.952Z" fill="white"/>
<path d="M122.892 160.108C128.009 161.341 130.783 158.963 134.79 155.234C136.789 153.373 138.449 151.982 140.062 149.413C141.138 147.7 142.236 144.845 143.835 144.056C141.959 146.962 140.178 149.935 138.486 153.081C137.009 155.825 135.077 156.953 133.018 158.977C130.204 161.742 125.629 163.895 122.892 160.108Z" fill="white"/>
<path d="M168.102 133.293C165.856 127.229 169.829 120.228 174.189 118.186C174.552 120.748 172.529 121.502 171.537 123.071C170.381 124.901 167.479 133.912 168.762 136.354C168.073 135.042 167.72 132.871 168.102 133.293Z" fill="white"/>
<path d="M180.421 66.9337C179.363 64.8145 177.044 66.3889 176.205 68.0443C174.6 71.2171 175.576 75.8274 175.189 79.3779C175.155 79.6884 175.475 79.9009 175.621 79.6296C177.824 75.516 174.738 67.3133 180.257 67.4304C180.446 67.4344 180.509 67.1101 180.421 66.9337Z" fill="white"/>
<path d="M170.22 48.1231C170.215 48.0955 170.179 48.1066 170.184 48.1347C170.731 51.3382 170.177 54.1773 169.434 57.2262C169.402 57.3554 169.537 57.4957 169.6 57.3598C170.891 54.5956 170.813 51.1858 170.22 48.1231Z" fill="white"/>
<path d="M164.724 60.908C163.874 61.7433 163.136 62.7822 162.371 63.7502C162.247 63.907 162.397 64.1988 162.532 64.0438C163.34 63.1163 164.197 62.2302 164.915 61.1735C165.022 61.0163 164.848 60.786 164.724 60.908Z" fill="white"/>
<path d="M150.901 110.441C147.197 110.496 144.066 112.1 141.169 115.15C141.053 115.272 141.181 115.503 141.303 115.396C144.169 112.892 147.543 111.36 150.928 110.794C151.101 110.765 151.069 110.438 150.901 110.441Z" fill="white"/>
<path d="M164.735 86.2811C164.499 87.5284 164.139 88.811 164.233 90.1113C164.248 90.318 164.459 90.3519 164.523 90.171C164.935 88.9892 164.916 87.6153 165.004 86.3359C165.02 86.0998 164.778 86.0557 164.735 86.2811Z" fill="white"/>
<path d="M123.838 128.736C122.981 125.357 119.658 124.559 117.421 125.539C117.23 125.622 117.302 126.053 117.504 126.004C119.978 125.408 121.714 127.097 123.538 129.03C123.691 129.192 123.898 128.973 123.838 128.736Z" fill="white"/>
<path d="M120.211 106.128C117.873 109.387 117.228 114.197 118.461 118.368C118.519 118.563 118.762 118.499 118.736 118.28C118.231 114.031 118.844 110.111 120.513 106.449C120.641 106.167 120.385 105.885 120.211 106.128Z" fill="white"/>
<path d="M159.196 145.495C157.286 145.288 155.485 146.041 153.847 147.354C152.503 148.432 150.41 150.458 150.289 152.749C150.287 152.792 150.317 152.814 150.344 152.794C151.681 151.8 152.557 149.778 153.889 148.636C155.506 147.248 157.321 146.627 159.184 146.124C159.428 146.059 159.485 145.526 159.196 145.495Z" fill="white"/>
<path opacity="0.3" d="M181.268 35.0668C181.442 34.7122 181.616 34.3411 181.734 33.8885C182.549 30.7648 182.607 25.4092 182.257 22.1562C181.904 18.8735 182.898 15.1683 183.173 20.589C183.293 22.9759 183.226 24.0487 183.938 26.0596C184.364 27.2655 185.006 27.842 185.291 29.419C185.958 33.1138 183.724 37.4337 180.684 36.7944C180.743 36.1062 181.004 35.6059 181.268 35.0668Z" fill="white"/>
<path d="M189.814 4.75772C188.43 3.6097 186.098 5.81619 185.111 7.04261C183.765 8.71407 182.501 11.2333 182.851 13.7899C182.889 14.0697 183.158 14.1347 183.255 13.8732C184.071 11.6953 184.6 9.50971 186.014 7.84315C186.644 7.10052 187.348 6.51738 188.113 6.05497C188.697 5.70214 189.386 5.56048 189.827 4.91809C189.856 4.87666 189.851 4.78845 189.814 4.75772Z" fill="white"/>
<path d="M182.448 22.5829C182.436 22.4983 182.34 22.5094 182.347 22.5968C182.793 27.8205 181.791 32.4999 180.367 37.2786C180.261 37.6341 180.653 37.9972 180.819 37.6403C182.925 33.1084 183.153 27.6904 182.448 22.5829Z" fill="white"/>
<path d="M255 115.672L249.501 167.115C248.458 175.007 236.38 178.999 220.198 178.999C216.583 178.999 213.118 178.734 209.924 178.247C206.434 177.721 203.26 176.925 200.551 175.934C194.631 173.756 190.911 170.615 190.911 167.115L185.412 115.672H255V115.672Z" fill="#C3EFF8"/>
<path opacity="0.3" d="M209.923 115.672V178.247C206.434 177.721 203.259 176.925 200.551 175.934V115.672H209.923Z" fill="white"/>
<path opacity="0.2" d="M248.388 115.672C250.169 118.505 249.572 123.363 248.837 126.504C247.618 131.716 246.086 136.94 244.51 141.972C241.602 151.259 238.175 160.09 232.279 166.588C227.242 172.137 221.244 175.851 214.95 178.032C214.318 178.251 213.68 178.449 213.041 178.642C215.332 178.875 217.729 179 220.199 179C236.381 179 248.459 175.008 249.502 167.116L254.998 115.673H248.388V115.672Z" fill="#4A0E3A"/>
<path opacity="0.2" d="M195.194 173.309C196.636 169.444 196.212 163.573 195.862 159.815C195.202 152.732 193.779 145.435 191.634 138.891C190.435 135.233 189.077 131.284 189.503 127.184C189.927 123.106 192.2 120.331 194.878 118.658C199.107 116.018 203.655 115.651 208.252 115.838C212.016 115.993 215.674 116.006 219.38 115.672H185.413L190.91 167.115C190.91 169.386 192.477 171.506 195.194 173.309Z" fill="#4A0E3A"/>
<path d="M185.409 115.667C185.409 109.102 200.987 103.777 220.205 103.777C239.421 103.777 255 109.102 255 115.667C255 122.237 239.422 127.562 220.205 127.562C200.987 127.562 185.409 122.237 185.409 115.667Z" fill="#A1D2DE"/>
<path d="M220.2 115.672C207.355 115.672 196.268 118.077 190.24 121.614C196.269 125.151 207.358 127.557 220.2 127.557C233.041 127.557 244.143 125.151 250.172 121.614C244.144 118.077 233.044 115.672 220.2 115.672Z" fill="#FF1D00"/>
<path d="M220.205 105.943C229.367 105.943 237.963 107.157 244.409 109.359C251.507 111.785 253.382 114.545 253.382 115.667C253.382 116.789 251.507 119.552 244.409 121.979C237.964 124.182 229.368 125.395 220.205 125.395C211.041 125.395 202.446 124.182 196.001 121.979C188.903 119.552 187.027 116.789 187.027 115.667C187.027 114.546 188.903 111.785 196.001 109.359C202.446 107.157 211.042 105.943 220.205 105.943ZM220.205 103.777C200.988 103.777 185.409 109.102 185.409 115.667C185.409 122.237 200.987 127.562 220.205 127.562C239.421 127.562 255 122.237 255 115.667C254.999 109.102 239.421 103.777 220.205 103.777Z" fill="#EBF0F2"/>
</g>
<defs>
<linearGradient id="paint0_linear_3119_4197" x1="170" y1="153" x2="170" y2="383" gradientUnits="userSpaceOnUse">
<stop offset="0.00839934" stop-color="#F3F3F3" stop-opacity="0"/>
<stop offset="1" stop-color="#F3F3F3"/>
</linearGradient>
<clipPath id="clip0_3119_4197">
<rect width="168" height="179" fill="white" transform="translate(87)"/>
</clipPath>
</defs>
</svg>
