<svg width="149" height="189" viewBox="0 0 149 189" fill="none" xmlns="http://www.w3.org/2000/svg">
<circle cx="75.9419" cy="115.355" r="73.0581" fill="#FBEDE4"/>
<g clip-path="url(#clip0_3119_4426)">
<path fill-rule="evenodd" clip-rule="evenodd" d="M57.6638 77.6458L73.4753 52.1387L73.891 71.0979L62.1115 94.6219L57.6638 77.6458Z" fill="#F2815F"/>
<path fill-rule="evenodd" clip-rule="evenodd" d="M61.8186 91.7557L75.8706 74.8749L71.712 109.077L66.1784 112.009L61.8186 91.7557Z" fill="#F2815F"/>
<path fill-rule="evenodd" clip-rule="evenodd" d="M73.1017 45.6786C64.8506 48.9373 60.7563 72.5599 61.7723 80.99C63.1426 92.1285 65.6668 98.2483 67.3909 102.807C73.1942 118.214 74.241 152.822 59.6944 167.265H20.1189V152.501C21.535 150.802 22.628 149.013 23.0281 147.07C23.2591 145.938 24.2132 142.372 25.4602 137.828C27.5844 130.056 30.5399 119.408 32.11 113.074C36.9587 93.4746 36.7433 88.5482 42.1154 80.4243C45.8403 74.7637 53.5217 43.0166 58.3548 39.4823C60.3869 38.0293 74.9641 28.4513 78.2427 30.1804C80.8752 31.5414 83.9077 41.4096 73.1017 45.6786Z" fill="#F69876"/>
<path fill-rule="evenodd" clip-rule="evenodd" d="M51.5053 167.265H0L21.0116 132.795L25.4602 137.828L51.5053 167.265Z" fill="#E62F39"/>
<path fill-rule="evenodd" clip-rule="evenodd" d="M140.222 117.813V104.284V7.963C140.222 5.22918 137.971 2.99255 135.221 2.99255H79.5059C76.7554 2.99255 74.5051 5.22918 74.5051 7.963V104.284V117.813V128.973C74.5051 131.839 76.7554 134.184 79.5059 134.184H135.221C137.971 134.184 140.222 131.839 140.222 128.973V117.813Z" fill="white"/>
<path fill-rule="evenodd" clip-rule="evenodd" d="M135.221 0H79.5058C75.0993 0 71.4943 3.58358 71.4943 7.96294V129.214C71.4943 133.593 75.0993 137.177 79.5058 137.177H135.221C137.199 137.177 139.015 136.454 140.417 135.262H140.417V135.262C142.137 133.799 143.232 131.627 143.232 129.214V7.96294C143.232 3.58358 139.627 0 135.221 0ZM140.221 117.813V128.974C140.221 131.839 137.971 134.184 135.221 134.184H79.5058C76.7553 134.184 74.505 131.839 74.505 128.974V117.813V7.96294C74.505 7.92022 74.5055 7.87797 74.5069 7.83571C74.5079 7.79299 74.5098 7.75073 74.5116 7.70848C74.514 7.66623 74.5168 7.62444 74.5197 7.58219C74.523 7.5404 74.5268 7.49862 74.531 7.45684C74.5353 7.41505 74.5405 7.37374 74.5457 7.33242C74.5508 7.29111 74.5565 7.25026 74.5631 7.20895C74.5693 7.1681 74.5764 7.12726 74.5839 7.08641C74.5915 7.04557 74.599 7.00519 74.6075 6.96482C74.616 6.92444 74.6245 6.88453 74.634 6.84416C74.6434 6.80425 74.6534 6.76435 74.6633 6.72491C74.6737 6.68547 74.6845 6.64604 74.6959 6.6066C74.7072 6.56763 74.719 6.52819 74.7313 6.4897C74.7436 6.45073 74.7563 6.41223 74.7696 6.37373C74.7828 6.33524 74.796 6.29721 74.8102 6.25918C74.8243 6.22115 74.8385 6.18312 74.8536 6.14556C74.8687 6.10801 74.8839 6.07092 74.8999 6.03336C74.9155 5.99627 74.932 5.95965 74.9486 5.92303C74.9656 5.88641 74.9826 5.85026 75.0001 5.81364C75.0175 5.77749 75.036 5.74134 75.0544 5.70613C75.0912 5.63476 75.13 5.56434 75.1701 5.49486C75.2103 5.42537 75.2523 5.35683 75.2958 5.28969C75.3392 5.22256 75.3841 5.15636 75.4308 5.09157C75.454 5.05918 75.4776 5.02678 75.5017 4.99485C75.5258 4.96293 75.5503 4.93147 75.5749 4.90002C75.6491 4.80612 75.727 4.71504 75.8078 4.62631C75.8347 4.59673 75.8621 4.56762 75.8895 4.53898C75.9722 4.4526 76.0586 4.36903 76.1474 4.28875C76.266 4.18171 76.3897 4.07983 76.5182 3.98405C76.5503 3.96011 76.5829 3.93664 76.6155 3.91316C76.7463 3.82067 76.8819 3.73382 77.0213 3.654C77.1261 3.59391 77.2329 3.53757 77.3425 3.48546C77.4152 3.45025 77.4889 3.41738 77.564 3.38546C77.6013 3.36997 77.6386 3.35447 77.6769 3.33945C77.7147 3.32443 77.7525 3.31034 77.7912 3.29626C77.8294 3.28217 77.8677 3.26903 77.9064 3.25588C78.0222 3.21691 78.1403 3.1817 78.2598 3.15119C78.2994 3.14086 78.3396 3.13147 78.3802 3.12208C78.461 3.10377 78.5418 3.08687 78.6239 3.07231C78.665 3.0648 78.7061 3.05823 78.7472 3.05212C78.7883 3.04555 78.8299 3.03992 78.8715 3.03475C78.913 3.02959 78.9546 3.02489 78.9966 3.02067C79.0387 3.01644 79.0807 3.01269 79.1227 3.00987C79.1653 3.00658 79.2073 3.00424 79.2498 3.00189C79.2923 3.00001 79.3348 2.9986 79.3778 2.99719C79.4203 2.99626 79.4633 2.99579 79.5063 2.99579H135.221C135.264 2.99579 135.307 2.99626 135.35 2.99719C135.392 2.9986 135.435 3.00001 135.477 3.00189C135.52 3.00377 135.562 3.00658 135.604 3.00987C135.646 3.01316 135.688 3.01644 135.73 3.02067C135.772 3.02489 135.814 3.02959 135.856 3.03475C135.897 3.03992 135.939 3.04555 135.98 3.05212C136.021 3.05823 136.062 3.06527 136.103 3.07231C136.144 3.07935 136.185 3.08734 136.225 3.09532C136.266 3.10377 136.306 3.11222 136.347 3.12161C136.387 3.131 136.427 3.14039 136.467 3.15072C136.507 3.16105 136.547 3.17184 136.586 3.18264C136.626 3.19391 136.665 3.20565 136.704 3.21785C136.744 3.23006 136.782 3.24227 136.821 3.25541C136.86 3.26856 136.898 3.2817 136.936 3.29579C136.975 3.30987 137.012 3.32396 137.051 3.33898C137.088 3.354 137.126 3.36903 137.163 3.38499C137.201 3.40048 137.238 3.41691 137.275 3.43335C137.312 3.45025 137.348 3.46668 137.385 3.48452C137.421 3.50189 137.458 3.51973 137.494 3.53804C137.53 3.55635 137.565 3.57513 137.601 3.59438C137.636 3.61363 137.671 3.63335 137.706 3.65307C137.741 3.67325 137.776 3.69344 137.81 3.7141C137.845 3.73476 137.879 3.75588 137.913 3.77748C137.947 3.79908 137.98 3.82114 138.013 3.84321C138.046 3.86574 138.079 3.88828 138.112 3.91128C138.145 3.93429 138.178 3.95776 138.21 3.98218C138.242 4.00612 138.274 4.03053 138.305 4.05495C138.337 4.07936 138.368 4.10471 138.399 4.12959C138.429 4.15495 138.46 4.1803 138.491 4.20659C138.521 4.23288 138.551 4.25917 138.581 4.28593C138.61 4.31269 138.64 4.33945 138.668 4.36715C138.698 4.39438 138.726 4.42208 138.754 4.45072L138.838 4.53617C138.866 4.56481 138.893 4.59391 138.92 4.62349C138.947 4.65307 138.974 4.68265 139 4.71269C139.026 4.74274 139.052 4.77326 139.078 4.80377C139.103 4.83429 139.129 4.86528 139.153 4.89673C139.179 4.92819 139.203 4.95964 139.227 4.99157C139.251 5.02349 139.274 5.05589 139.298 5.08828C139.321 5.12068 139.344 5.15354 139.367 5.18641C139.389 5.21927 139.411 5.2526 139.433 5.28641C139.455 5.31974 139.476 5.35401 139.497 5.38781C139.518 5.42162 139.539 5.45636 139.559 5.4911C139.579 5.52584 139.598 5.56059 139.618 5.5958C139.637 5.63101 139.656 5.66669 139.675 5.70237C139.693 5.73805 139.711 5.77373 139.729 5.80988C139.746 5.84603 139.764 5.88265 139.78 5.91927C139.797 5.95589 139.813 5.99251 139.829 6.0296C139.845 6.06669 139.86 6.10425 139.875 6.14181C139.89 6.17937 139.905 6.2174 139.919 6.25542C139.933 6.29345 139.947 6.33148 139.959 6.36998C139.973 6.40848 139.985 6.44697 139.998 6.48594C140.01 6.52444 140.022 6.56388 140.033 6.60284C140.044 6.64228 140.055 6.68172 140.066 6.72115C140.076 6.76059 140.085 6.8005 140.095 6.8404C140.104 6.88031 140.113 6.92021 140.121 6.96106C140.13 7.00144 140.137 7.04181 140.145 7.08266C140.153 7.1235 140.159 7.16435 140.166 7.20519C140.172 7.24604 140.178 7.28735 140.183 7.32867C140.188 7.36998 140.194 7.4113 140.198 7.45308C140.202 7.49486 140.206 7.53618 140.209 7.57843C140.213 7.62069 140.215 7.66247 140.217 7.70472C140.219 7.74698 140.221 7.78923 140.222 7.83195C140.223 7.87421 140.224 7.91693 140.224 7.95919V117.813H140.221Z" fill="#1B0C47"/>
<path fill-rule="evenodd" clip-rule="evenodd" d="M80.2488 7.27491V8.49276H80.5195C80.5549 8.49276 80.5714 8.51764 80.5714 8.57351V8.60215C80.5714 8.65801 80.5549 8.6829 80.5195 8.6829H79.6914C79.656 8.6829 79.6414 8.65801 79.6414 8.60215V8.57351C79.6414 8.51717 79.656 8.49276 79.6914 8.49276H80.0159V7.46083L79.6848 7.51247C79.6456 7.51247 79.6329 7.42374 79.6329 7.3782C79.6329 7.35144 79.6475 7.33688 79.6763 7.33078L80.1756 7.22937C80.2072 7.22937 80.2488 7.2505 80.2488 7.27491Z" fill="#1B0C47"/>
<path fill-rule="evenodd" clip-rule="evenodd" d="M81.5846 7.28461V8.16959H81.6971C81.732 8.16959 81.7467 8.19447 81.7467 8.25034V8.27945C81.7467 8.33532 81.732 8.35973 81.6971 8.35973H81.5846V8.6325C81.5846 8.66771 81.5577 8.68602 81.4954 8.68602H81.4415C81.3792 8.68602 81.3522 8.66771 81.3522 8.6325V8.35973H80.7594C80.7301 8.35973 80.6971 8.26255 80.6971 8.21701C80.6971 8.20668 80.6971 8.1987 80.7013 8.19447L81.3565 7.26395C81.3754 7.23907 81.4084 7.23109 81.4519 7.23109H81.4954C81.5577 7.23062 81.5846 7.24987 81.5846 7.28461ZM80.9484 8.16959H81.3541V7.59259L81.3456 7.59071L80.9484 8.16959Z" fill="#1B0C47"/>
<path fill-rule="evenodd" clip-rule="evenodd" d="M82.1094 7.65032V7.81183C82.1094 7.84704 82.0783 7.86535 82.0074 7.86535H81.9597C81.8888 7.86535 81.8577 7.84657 81.8577 7.81183V7.65032C81.8577 7.61511 81.8888 7.5968 81.9597 7.5968H82.0074C82.0783 7.5968 82.1094 7.61558 82.1094 7.65032ZM82.1094 8.47145V8.63249C82.1094 8.6677 82.0783 8.68601 82.0074 8.68601H81.9597C81.8888 8.68601 81.8577 8.6677 81.8577 8.63249V8.47145C81.8577 8.43624 81.8888 8.41793 81.9597 8.41793H82.0074C82.0783 8.41793 82.1094 8.43624 82.1094 8.47145Z" fill="#1B0C47"/>
<path fill-rule="evenodd" clip-rule="evenodd" d="M83.1084 7.3156V7.35269C83.1084 7.40245 83.0938 7.42499 83.0565 7.42499H82.62L82.595 7.79306H82.6805C82.9445 7.79306 83.192 7.89447 83.192 8.23954C83.192 8.59494 82.92 8.69635 82.6781 8.69635C82.4453 8.69635 82.2809 8.62593 82.2809 8.56208C82.2809 8.52311 82.3371 8.43203 82.3706 8.43203C82.4042 8.43203 82.5015 8.50668 82.6762 8.50668C82.8302 8.50668 82.9549 8.41795 82.9549 8.24189C82.9549 8.07663 82.851 7.9832 82.6304 7.9832H82.4325C82.3787 7.9832 82.3664 7.96067 82.3664 7.9109L82.4018 7.3048C82.4061 7.25503 82.4268 7.23438 82.4788 7.23438H83.057C83.0938 7.23484 83.1084 7.25973 83.1084 7.3156Z" fill="#1B0C47"/>
<path fill-rule="evenodd" clip-rule="evenodd" d="M84.3422 7.95873C84.3422 8.45263 84.1344 8.69677 83.8576 8.69677C83.5831 8.69677 83.3772 8.45263 83.3772 7.95873C83.3772 7.46437 83.5831 7.2207 83.8576 7.2207C84.1344 7.2207 84.3422 7.46437 84.3422 7.95873ZM83.6124 7.95873C83.6124 8.34512 83.723 8.50662 83.8581 8.50662C83.9931 8.50662 84.1056 8.34512 84.1056 7.95873C84.1056 7.57188 83.9931 7.41084 83.8581 7.41084C83.7225 7.41084 83.6124 7.57235 83.6124 7.95873Z" fill="#1B0C47"/>
<path fill-rule="evenodd" clip-rule="evenodd" d="M80.4694 121.739C80.4694 121.78 80.4156 121.879 80.382 121.879C80.3528 121.879 80.2819 121.813 80.1284 121.813C79.9702 121.813 79.8936 121.89 79.8936 121.995C79.8936 122.13 80.0122 122.169 80.1497 122.223C80.3282 122.293 80.5365 122.376 80.5365 122.657C80.5365 122.944 80.3282 123.081 80.0708 123.081C79.7963 123.081 79.6154 122.977 79.6154 122.916C79.6154 122.87 79.6801 122.773 79.7132 122.773C79.7444 122.773 79.8544 122.874 80.0481 122.874C80.1752 122.874 80.2871 122.808 80.2871 122.673C80.2871 122.527 80.1289 122.479 79.9687 122.413C79.8062 122.345 79.6423 122.264 79.6423 122.003C79.6423 121.747 79.8544 121.604 80.1189 121.604C80.28 121.604 80.4694 121.666 80.4694 121.739Z" fill="#1B0C47"/>
<path fill-rule="evenodd" clip-rule="evenodd" d="M81.7325 121.644C81.7325 121.654 81.7264 121.669 81.7136 121.685L81.2436 122.316L81.7991 123.002C81.8114 123.021 81.8157 123.031 81.8157 123.041C81.8157 123.062 81.7868 123.071 81.7136 123.071H81.6475C81.5951 123.071 81.5497 123.067 81.5266 123.038L81.0212 122.388L81.0127 122.39V123.017C81.0127 123.052 80.9834 123.071 80.9125 123.071H80.871C80.8001 123.071 80.7689 123.052 80.7689 123.017V121.669C80.7689 121.634 80.8001 121.616 80.871 121.616H80.9125C80.9834 121.616 81.0127 121.634 81.0127 121.669V122.269H81.0212L81.468 121.648C81.4869 121.621 81.5327 121.615 81.5847 121.615H81.6409C81.7032 121.615 81.7325 121.627 81.7325 121.644Z" fill="#1B0C47"/>
<path fill-rule="evenodd" clip-rule="evenodd" d="M82.2053 121.669V123.017C82.2053 123.052 82.1761 123.07 82.1052 123.07H82.0636C81.9928 123.07 81.9616 123.051 81.9616 123.017V121.669C81.9616 121.633 81.9928 121.615 82.0636 121.615H82.1052C82.1761 121.615 82.2053 121.633 82.2053 121.669Z" fill="#1B0C47"/>
<path fill-rule="evenodd" clip-rule="evenodd" d="M83.5185 122.045C83.5185 122.431 83.1708 122.483 83.0608 122.483H82.784V123.016C82.784 123.052 82.7528 123.07 82.6819 123.07H82.6427C82.5719 123.07 82.5407 123.051 82.5407 123.016V121.689C82.5407 121.639 82.5615 121.619 82.6116 121.619H83.04C83.2228 121.619 83.5185 121.675 83.5185 122.045ZM82.784 121.826V122.275H83.0485C83.1297 122.275 83.2691 122.238 83.2691 122.045C83.2691 121.865 83.1359 121.826 83.032 121.826H82.784Z" fill="#1B0C47"/>
<path fill-rule="evenodd" clip-rule="evenodd" d="M131.844 121.669V123.017C131.844 123.052 131.815 123.07 131.744 123.07H131.686C131.636 123.07 131.604 123.06 131.584 123.029L130.972 122.109L130.922 122.02V123.017C130.922 123.052 130.891 123.07 130.82 123.07H130.787C130.717 123.07 130.685 123.051 130.685 123.017V121.669C130.685 121.633 130.716 121.615 130.787 121.615H130.85C130.902 121.615 130.935 121.625 130.96 121.661L131.548 122.552L131.606 122.653V121.669C131.606 121.633 131.637 121.615 131.708 121.615H131.744C131.815 121.615 131.844 121.633 131.844 121.669Z" fill="#1B0C47"/>
<path fill-rule="evenodd" clip-rule="evenodd" d="M133.054 121.7V121.745C133.054 121.801 133.039 121.826 133.003 121.826H132.433V122.223H132.943C132.978 122.223 132.993 122.246 132.993 122.303V122.349C132.993 122.405 132.978 122.429 132.943 122.429H132.433V122.859H133.005C133.041 122.859 133.055 122.884 133.055 122.94V122.985C133.055 123.041 133.041 123.066 133.005 123.066H132.26C132.21 123.066 132.19 123.046 132.19 122.996V121.689C132.19 121.639 132.21 121.619 132.26 121.619H133.003C133.039 121.619 133.054 121.644 133.054 121.7Z" fill="#1B0C47"/>
<path fill-rule="evenodd" clip-rule="evenodd" d="M134.354 121.652C134.354 121.663 134.346 121.679 134.335 121.696L133.93 122.308L134.375 122.99C134.385 123.006 134.391 123.021 134.391 123.033C134.391 123.058 134.36 123.07 134.281 123.07H134.227C134.175 123.07 134.139 123.064 134.121 123.035L133.783 122.52L133.44 123.037C133.421 123.066 133.382 123.07 133.336 123.07H133.29C133.213 123.07 133.18 123.057 133.18 123.032C133.18 123.022 133.186 123.008 133.199 122.989L133.648 122.311L133.247 121.695C133.236 121.678 133.23 121.664 133.23 121.651C133.23 121.629 133.261 121.614 133.341 121.614H133.395C133.447 121.614 133.482 121.62 133.501 121.649L133.792 122.098L134.094 121.647C134.113 121.621 134.152 121.615 134.2 121.615H134.241C134.321 121.615 134.354 121.627 134.354 121.652Z" fill="#1B0C47"/>
<path fill-rule="evenodd" clip-rule="evenodd" d="M135.532 121.7V121.745C135.532 121.801 135.517 121.826 135.482 121.826H135.116V123.017C135.116 123.052 135.087 123.07 135.014 123.07H134.974C134.903 123.07 134.872 123.052 134.872 123.017V121.826H134.502C134.466 121.826 134.452 121.801 134.452 121.745V121.7C134.452 121.644 134.467 121.619 134.502 121.619H135.481C135.518 121.619 135.532 121.644 135.532 121.7Z" fill="#1B0C47"/>
<path d="M126.254 7.27844H125.754V8.69676H126.254V7.27844Z" fill="#1B0C47"/>
<path d="M127.127 6.92395H126.628V8.6972H127.127V6.92395Z" fill="#1B0C47"/>
<path d="M128.002 6.56909H127.502V8.6968H128.002V6.56909Z" fill="#1B0C47"/>
<path d="M128.876 6.2146H128.376V8.69677H128.876V6.2146Z" fill="#1B0C47"/>
<path d="M134.418 7.2489H130.957V8.6968H134.418V7.2489Z" fill="#1B0C47"/>
<path d="M135.12 7.2489H134.79V8.6968H135.12V7.2489Z" fill="#1B0C47"/>
<path d="M102.184 123.632C102.843 123.632 103.378 123.101 103.378 122.446C103.378 121.79 102.843 121.259 102.184 121.259C101.524 121.259 100.99 121.79 100.99 122.446C100.99 123.101 101.524 123.632 102.184 123.632Z" fill="#E62F39"/>
<path d="M107.612 123.632C108.271 123.632 108.806 123.101 108.806 122.446C108.806 121.79 108.271 121.259 107.612 121.259C106.952 121.259 106.418 121.79 106.418 122.446C106.418 123.101 106.952 123.632 107.612 123.632Z" fill="#FFCA59"/>
<path fill-rule="evenodd" clip-rule="evenodd" d="M114.017 122.446C114.017 123.101 113.482 123.632 112.823 123.632C112.163 123.632 111.629 123.1 111.629 122.446C111.629 121.79 112.163 121.259 112.823 121.259C113.482 121.259 114.017 121.791 114.017 122.446Z" fill="#FFCA59"/>
<path fill-rule="evenodd" clip-rule="evenodd" d="M53.9785 119.894C57.4413 114.201 68.2464 107.802 74.5414 101.543C80.1038 96.0121 81.3546 89.2609 84.3914 83.0403C86.6974 78.3168 97.3305 61.8317 105.58 67.2289C112.249 71.5923 103.863 87.4069 101.753 91.1408C97.3031 99.0178 90.3218 107.267 89.0847 109.851C84.0702 120.322 80.0387 150.149 63.845 161.933C58.4843 165.834 60.7757 162.35 57.0786 154.273C56.4201 152.834 57.2415 133.729 54.542 127.222C54.1278 126.224 53.5841 120.543 53.9785 119.894Z" fill="#F69876"/>
<path fill-rule="evenodd" clip-rule="evenodd" d="M108.466 71.5726L104.879 80.79C104.466 81.8519 102.936 82.036 101.995 81.3867L94.2347 76.0364C93.2938 75.3871 92.8843 74.0303 93.6343 73.1693L99.8585 66.026C101.903 63.6791 109.677 68.4603 108.466 71.5726Z" fill="#FFC0AF"/>
<g filter="url(#filter0_d_3119_4426)">
<path d="M130.354 23.7549H86.7863C84.9826 23.7549 83.5205 25.2144 83.5205 27.0148V39.9857C83.5205 41.7861 84.9826 43.2456 86.7863 43.2456H122.901L126.625 46.642V43.2456H130.354C132.157 43.2456 133.62 41.7861 133.62 39.9857V27.0148C133.62 25.2144 132.157 23.7549 130.354 23.7549Z" fill="white"/>
<path d="M128.254 38.8136C131.158 35.9154 131.158 31.2166 128.254 28.3185C125.351 25.4204 120.644 25.4204 117.74 28.3185C114.837 31.2166 114.837 35.9154 117.74 38.8136C120.644 41.7117 125.351 41.7117 128.254 38.8136Z" fill="#686BEA"/>
<path d="M126.998 37.2774C126.848 37.2556 126.711 37.234 126.586 37.213C126.134 37.0183 125.76 36.8727 125.236 36.813C124.236 36.6988 122.92 37.2411 121.691 37.5836C120.461 37.9261 120.061 38.0973 119.203 38.1829C118.709 38.2323 118.3 38.374 118.003 38.5152L118.003 38.5145L117.979 38.5243C117.977 38.5255 117.83 38.5883 117.645 38.7153C118.997 40.1157 120.895 40.9871 122.998 40.9871C125.505 40.9871 127.721 39.7488 129.068 37.8516C128.317 37.5927 127.557 37.3584 126.998 37.2774Z" fill="#F94A3D"/>
<path d="M126.915 29.198C127.01 29.2967 127.315 29.7829 127.188 30.4909C126.855 32.3417 127.359 31.7515 127.113 32.7888C126.707 34.4961 125.467 34.4125 125.379 33.9184C125.291 33.4243 125.493 31.7652 125.666 31.5667C125.84 31.3682 126.915 29.198 126.915 29.198Z" fill="#1E1735"/>
<path d="M126.289 32.4261C126.289 32.4261 126.23 33.6919 126.27 34.2663C126.396 36.087 126.8 37.2915 126.789 37.663C126.769 38.366 126.39 38.5719 126.096 38.7668C125.206 39.3579 123.381 39.5424 122.806 38.8665C122.605 38.631 122.56 38.4017 122.515 38.191C122.471 37.9803 122.164 36.5779 122.232 36.3855C122.3 36.193 123.975 33.3186 124.376 33.0922C124.776 32.8657 126.289 32.4261 126.289 32.4261Z" fill="#EC7D40"/>
<path d="M121.814 27.9141C120.912 28.2261 120.261 29.0168 120.117 29.959C120.035 30.4922 119.969 31.1296 120.049 31.4707C120.238 32.2853 120.105 32.5694 120.158 33.0496C120.211 33.5298 120.47 34.2459 120.69 34.8839C120.91 35.5219 121.296 36.3794 121.878 36.7615C122.459 37.1436 122.887 37.0444 123.094 37.016C124.049 36.8849 125.564 35.5209 125.73 35.1225C125.897 34.7241 125.888 33.6532 125.894 33.3592C125.899 33.0653 125.915 32.0307 126.015 31.5123C126.116 30.9939 126.27 28.9859 124.679 28.2069C124.34 28.0407 122.724 27.6091 121.858 27.8989C121.843 27.904 121.828 27.909 121.814 27.9141Z" fill="#F79556"/>
<path d="M121.556 32.3174C121.553 32.3622 121.41 32.4872 121.006 32.4594C120.826 32.447 120.65 32.3899 120.656 32.3004C120.662 32.2148 120.788 32.0653 120.944 32.0503C121.216 32.0241 121.563 32.2279 121.556 32.3174Z" fill="#E6E6E6"/>
<path d="M120.799 32.2591C120.79 32.4027 120.9 32.5263 121.043 32.5351C121.187 32.544 121.311 32.4348 121.32 32.2912C121.329 32.1477 121.219 32.0241 121.076 32.0153C120.932 32.0064 120.808 32.1156 120.799 32.2591Z" fill="#1E1735"/>
<path d="M124.234 32.2462C124.234 32.2944 124.088 32.4383 123.653 32.4353C123.459 32.434 123.266 32.3844 123.267 32.2878C123.267 32.1955 123.392 32.0267 123.559 32.0001C123.849 31.9538 124.235 32.1496 124.234 32.2462Z" fill="#E6E6E6"/>
<path d="M123.969 32.198C123.988 32.3437 123.884 32.4769 123.738 32.4955C123.592 32.5142 123.459 32.4113 123.44 32.2656C123.422 32.1198 123.525 31.9867 123.671 31.968C123.817 31.9493 123.95 32.0523 123.969 32.198Z" fill="#1E1735"/>
<path d="M123.468 35.2255C123.49 35.1952 123.472 35.153 123.435 35.1475C123.277 35.1238 122.891 35.0746 122.447 35.0807C122.143 35.0849 121.854 35.1382 121.734 35.1632C121.702 35.1698 121.685 35.2041 121.699 35.2334C121.77 35.3849 122.007 35.7835 122.549 35.7706C123.036 35.759 123.357 35.381 123.468 35.2255Z" fill="#D66730"/>
<path d="M121.718 31.5226C121.638 31.5463 121.564 31.5542 121.493 31.559C121.422 31.5631 121.353 31.5615 121.286 31.5561C121.253 31.5533 121.221 31.5489 121.189 31.5421C121.157 31.5355 121.125 31.526 121.094 31.5159C121.032 31.4949 120.97 31.4723 120.908 31.4625C120.892 31.4599 120.876 31.4573 120.861 31.4554C120.846 31.4532 120.831 31.4518 120.816 31.4504C120.786 31.4479 120.756 31.446 120.728 31.4474L120.718 31.4475L120.708 31.4482L120.698 31.449C120.694 31.4492 120.691 31.4493 120.687 31.4501L120.64 31.458C120.608 31.4641 120.577 31.4706 120.546 31.4795C120.483 31.4965 120.422 31.5195 120.362 31.5481C120.332 31.5628 120.303 31.5785 120.274 31.5966C120.246 31.614 120.218 31.6341 120.193 31.6551L120.166 31.6352C120.201 31.5701 120.248 31.5146 120.301 31.4629C120.354 31.4115 120.414 31.3662 120.477 31.3269C120.509 31.307 120.543 31.2896 120.577 31.2726L120.628 31.2492C120.632 31.2472 120.638 31.2455 120.643 31.2436L120.658 31.2382L120.673 31.2328L120.688 31.2285C120.769 31.2057 120.846 31.1985 120.922 31.1952L121.036 31.1908C121.073 31.1895 121.111 31.1881 121.148 31.189C121.185 31.1899 121.222 31.1933 121.258 31.2002C121.294 31.207 121.329 31.2173 121.363 31.2302C121.431 31.2563 121.496 31.2893 121.558 31.3314C121.589 31.3527 121.619 31.3755 121.648 31.4017C121.677 31.4279 121.704 31.456 121.729 31.4909L121.718 31.5226Z" fill="#1E1735"/>
<path d="M122.849 31.4279C122.863 31.4086 122.878 31.3908 122.893 31.3744C122.909 31.3576 122.925 31.3424 122.941 31.3272C122.973 31.2974 123.007 31.2705 123.042 31.2455C123.077 31.2203 123.113 31.1985 123.15 31.1775C123.187 31.1576 123.224 31.1381 123.263 31.122C123.283 31.1138 123.302 31.1061 123.322 31.099C123.342 31.0921 123.362 31.0864 123.382 31.0811C123.403 31.0759 123.423 31.0711 123.444 31.0676C123.465 31.0641 123.486 31.0614 123.507 31.0588C123.549 31.0538 123.592 31.0524 123.634 31.0494C123.656 31.0475 123.677 31.0473 123.699 31.0462C123.72 31.0452 123.741 31.0437 123.762 31.0421C123.784 31.0408 123.805 31.0404 123.827 31.0397C123.848 31.0392 123.869 31.0377 123.891 31.0382L123.956 31.04L123.988 31.041L124.021 31.0441L124.087 31.0511C124.097 31.0521 124.109 31.0545 124.119 31.0562C124.13 31.0581 124.141 31.0598 124.152 31.0619C124.196 31.0716 124.239 31.082 124.28 31.0969C124.291 31.1004 124.301 31.1042 124.312 31.1084L124.342 31.1208C124.362 31.1301 124.383 31.1387 124.402 31.1492C124.441 31.1692 124.478 31.1915 124.512 31.217C124.547 31.242 124.58 31.2688 124.61 31.2972C124.641 31.3259 124.67 31.3552 124.697 31.3859L124.676 31.4119C124.641 31.3922 124.606 31.3726 124.57 31.3555C124.535 31.3377 124.499 31.3222 124.462 31.3092C124.445 31.3025 124.426 31.2971 124.408 31.2911C124.39 31.286 124.372 31.2807 124.353 31.2769C124.335 31.2724 124.317 31.2696 124.299 31.2664L124.271 31.2629C124.262 31.2615 124.253 31.2607 124.243 31.2601C124.17 31.2535 124.097 31.2562 124.023 31.2665L123.995 31.2693L123.967 31.2741L123.912 31.2834C123.893 31.2862 123.875 31.2911 123.856 31.2948C123.838 31.2989 123.819 31.3025 123.801 31.3071C123.763 31.317 123.727 31.3273 123.69 31.3405L123.636 31.3607C123.618 31.3671 123.6 31.3741 123.582 31.3815C123.564 31.3884 123.546 31.3949 123.527 31.4008C123.509 31.4066 123.491 31.4129 123.472 31.4179C123.454 31.4231 123.435 31.4273 123.416 31.4315C123.397 31.4358 123.378 31.4395 123.359 31.4426C123.32 31.4483 123.281 31.4549 123.242 31.4587C123.202 31.4635 123.162 31.4663 123.121 31.4686C123.08 31.4702 123.038 31.4714 122.995 31.47C122.952 31.4686 122.908 31.4662 122.862 31.4587L122.849 31.4279Z" fill="#1E1735"/>
<path d="M121.862 28.846C121.642 29.1107 121.606 29.2405 121.325 29.325C120.262 29.6449 120.144 30.202 120.076 30.556C119.978 31.0708 120.272 32.5013 120.151 32.4828C120.03 32.4644 119.868 32.2729 119.897 31.6834C119.92 31.2034 119.523 31.0085 119.504 30.7013C119.486 30.3942 119.538 29.3275 119.774 28.8556C120.009 28.3838 120.368 27.7852 120.882 27.585C121.395 27.3849 121.219 27.2789 121.724 27.1247C122.311 26.9452 122.632 27.0588 122.684 27.2963C122.745 27.5746 122.122 28.5347 121.862 28.846Z" fill="#1E1735"/>
<path d="M124.378 32.3365C124.359 32.3132 124.338 32.2906 124.316 32.2698C124.294 32.2487 124.271 32.2287 124.247 32.2102C124.2 32.1731 124.15 32.141 124.097 32.1165C124.084 32.1099 124.07 32.1048 124.057 32.099C124.044 32.0942 124.031 32.0885 124.017 32.0847C123.99 32.0754 123.962 32.0694 123.935 32.0641C123.88 32.0543 123.825 32.0524 123.77 32.0579C123.716 32.0632 123.663 32.0806 123.612 32.1022C123.561 32.1234 123.512 32.1431 123.463 32.1637C123.414 32.1846 123.366 32.2089 123.319 32.2388C123.295 32.2534 123.272 32.2701 123.248 32.2883C123.224 32.3065 123.201 32.3265 123.177 32.3494L123.158 32.343C123.155 32.3075 123.161 32.2723 123.171 32.2385C123.181 32.2047 123.196 32.1722 123.215 32.1421C123.252 32.0814 123.304 32.029 123.363 31.9891C123.423 31.9488 123.49 31.9233 123.558 31.911C123.626 31.898 123.697 31.8951 123.767 31.8975C123.836 31.9001 123.905 31.9127 123.97 31.9355C124.035 31.9591 124.095 31.9911 124.149 32.0308C124.176 32.0503 124.201 32.0719 124.225 32.0943C124.249 32.1168 124.271 32.1404 124.291 32.1654C124.332 32.2154 124.368 32.2683 124.395 32.3265L124.378 32.3365Z" fill="#1E1735"/>
<path d="M120.532 32.386C120.532 32.3688 120.534 32.3526 120.538 32.3366C120.541 32.3205 120.545 32.3049 120.551 32.2894C120.561 32.2585 120.576 32.229 120.594 32.2011C120.629 32.1454 120.676 32.096 120.733 32.0577C120.789 32.0194 120.855 31.9946 120.923 31.9866C120.956 31.9821 120.99 31.9816 121.023 31.9819C121.057 31.9825 121.089 31.9854 121.121 31.9889C121.249 32.0034 121.372 32.0476 121.475 32.1196C121.526 32.1557 121.572 32.1983 121.611 32.2463C121.63 32.2703 121.647 32.2956 121.662 32.3215C121.677 32.3478 121.69 32.3748 121.701 32.4024L121.684 32.4121C121.614 32.3198 121.525 32.2487 121.425 32.2068C121.376 32.1852 121.324 32.1705 121.271 32.1611C121.219 32.1515 121.166 32.1474 121.114 32.1492C121.088 32.15 121.062 32.1535 121.038 32.1588C121.013 32.1649 120.989 32.1716 120.966 32.1804C120.943 32.1888 120.921 32.1973 120.898 32.2061C120.876 32.2149 120.854 32.2234 120.831 32.2327C120.787 32.2513 120.741 32.2735 120.695 32.3005C120.649 32.3273 120.602 32.3588 120.55 32.3946L120.532 32.386Z" fill="#1E1735"/>
<path d="M125.605 33.5464C125.636 33.5778 125.713 33.7181 125.844 33.7492C125.974 33.7803 126.169 33.8411 126.433 33.4655C126.696 33.09 126.813 32.244 126.777 32.017C126.777 32.017 126.727 31.4698 126.416 31.4839C126.104 31.4981 125.621 32.8101 125.621 32.8101L125.605 33.5464Z" fill="#F79556"/>
<path d="M121.718 29.1185C121.868 29.3744 122.181 29.4421 122.635 29.3458C123.09 29.2495 123.378 29.2627 123.685 29.4625C124.209 29.8047 124.054 30.1782 124.862 30.9298C125.205 31.2494 125.394 31.4899 125.443 32.1517C125.478 32.6335 125.434 32.7207 125.458 32.9431C125.479 33.1402 125.828 33.2874 125.948 32.9103C126.068 32.5332 126.058 32.36 126.267 31.8853C126.372 31.6464 126.439 31.4917 126.732 31.4526C126.985 31.4186 127.233 30.5786 127.169 29.901C127.09 29.0688 126.893 28.7437 126.223 28.2304C125.554 27.7172 125.568 27.8352 125.115 27.4149C124.662 26.9947 123.274 26.6395 122.651 27.2794C121.413 28.5495 121.718 29.1185 121.718 29.1185Z" fill="#1E1735"/>
<path d="M123.698 35.0725C123.666 35.0995 123.632 35.1236 123.597 35.1469C123.562 35.1699 123.526 35.191 123.49 35.2116C123.417 35.2519 123.34 35.2872 123.262 35.3181C123.184 35.3485 123.103 35.3741 123.021 35.3951C122.939 35.4152 122.856 35.4317 122.772 35.442C122.751 35.4454 122.73 35.4473 122.709 35.4496C122.687 35.4518 122.666 35.455 122.645 35.4564L122.581 35.462C122.56 35.4634 122.539 35.4641 122.518 35.4652L122.485 35.4662L122.454 35.4658C122.432 35.4653 122.411 35.4647 122.39 35.4635C122.368 35.4616 122.347 35.4593 122.326 35.4568L122.294 35.4527L122.263 35.4471L122.2 35.4346C122.18 35.4298 122.159 35.4244 122.138 35.4188C122.097 35.4084 122.057 35.3946 122.017 35.3802C121.997 35.3734 121.977 35.3653 121.958 35.3567C121.938 35.3483 121.919 35.3396 121.9 35.3307C121.881 35.3219 121.862 35.3112 121.843 35.301C121.825 35.2907 121.806 35.2798 121.788 35.2683L121.793 35.2533C121.836 35.2538 121.878 35.258 121.919 35.2614C121.94 35.2628 121.96 35.2644 121.981 35.2664C121.991 35.2673 122.001 35.2684 122.011 35.2694C122.021 35.2704 122.032 35.2708 122.042 35.2718C122.062 35.2734 122.082 35.275 122.102 35.2771L122.117 35.2786L122.133 35.2797L122.163 35.2819C122.183 35.2833 122.203 35.2858 122.223 35.2869L122.283 35.291L122.313 35.2934L122.342 35.2951C122.362 35.2965 122.382 35.298 122.402 35.3C122.422 35.3012 122.442 35.3027 122.461 35.3044L122.491 35.3073L122.521 35.3094C122.601 35.3169 122.681 35.3199 122.761 35.3166C122.841 35.3137 122.921 35.3049 123 35.2925C123.08 35.2807 123.159 35.2645 123.237 35.2433C123.316 35.2227 123.393 35.1969 123.469 35.1669C123.506 35.1518 123.544 35.1356 123.581 35.1178C123.618 35.1002 123.654 35.0812 123.689 35.0598L123.698 35.0725Z" fill="#913B1D"/>
<path d="M106.091 38.4653C106.091 38.8571 105.773 39.1746 105.38 39.1746C104.988 39.1746 104.67 38.857 104.67 38.4653C104.67 38.0736 104.988 37.756 105.38 37.756C105.773 37.7561 106.091 38.0736 106.091 38.4653Z" fill="#E2E3FF"/>
<path d="M109.038 38.4653C109.038 38.8571 108.72 39.1746 108.327 39.1746C107.935 39.1746 107.617 38.857 107.617 38.4653C107.617 38.0736 107.935 37.756 108.327 37.756C108.72 37.7561 109.038 38.0736 109.038 38.4653Z" fill="#E2E3FF"/>
<path d="M111.985 38.4653C111.985 38.8571 111.666 39.1746 111.274 39.1746C110.882 39.1746 110.563 38.857 110.563 38.4653C110.563 38.0736 110.882 37.756 111.274 37.756C111.666 37.7561 111.985 38.0736 111.985 38.4653Z" fill="#E2E3FF"/>
<path d="M111.271 35.7788H87.4576C87.0634 35.7788 86.7438 35.4599 86.7438 35.0663C86.7438 34.6729 87.0634 34.3539 87.4576 34.3539H111.271C111.665 34.3539 111.985 34.6728 111.985 35.0663C111.985 35.4599 111.665 35.7788 111.271 35.7788Z" fill="#E2E3FF"/>
<path d="M101.89 39.1821H87.4576C87.0634 39.1821 86.7438 38.8631 86.7438 38.4696C86.7438 38.0761 87.0634 37.7572 87.4576 37.7572H101.89C102.285 37.7572 102.604 38.0762 102.604 38.4696C102.604 38.8632 102.285 39.1821 101.89 39.1821Z" fill="#E2E3FF"/>
<path d="M89.449 27.9496L90.1596 29.3869L91.7485 29.6173L90.5987 30.736L90.8701 32.3157L89.449 31.5699L88.0277 32.3157L88.2992 30.736L87.1494 29.6173L88.7383 29.3869L89.449 27.9496Z" fill="#F94A3D"/>
<path d="M94.4066 27.9496L95.1171 29.3869L96.7061 29.6173L95.5564 30.736L95.8278 32.3157L94.4066 31.5699L92.9853 32.3157L93.2568 30.736L92.107 29.6173L93.696 29.3869L94.4066 27.9496Z" fill="#F94A3D"/>
<path d="M99.3643 27.9496L100.075 29.3869L101.664 29.6173L100.514 30.736L100.785 32.3157L99.3643 31.5699L97.943 32.3157L98.2144 30.736L97.0646 29.6173L98.6536 29.3869L99.3643 27.9496Z" fill="#F94A3D"/>
<path d="M104.322 27.9496L105.032 29.3869L106.621 29.6173L105.472 30.736L105.743 32.3157L104.322 31.5699L102.901 32.3157L103.172 30.736L102.022 29.6173L103.611 29.3869L104.322 27.9496Z" fill="#F94A3D"/>
<path d="M109.28 27.9496L109.99 29.3869L111.579 29.6173L110.429 30.736L110.701 32.3157L109.28 31.5699L107.858 32.3157L108.13 30.736L106.98 29.6173L108.569 29.3869L109.28 27.9496Z" fill="#F94A3D"/>
</g>
<g filter="url(#filter1_d_3119_4426)">
<path d="M83.7331 50.8367H110.727C111.844 50.8367 112.75 51.7409 112.75 52.8564V60.893C112.75 62.0084 111.844 62.9127 110.727 62.9127H88.3504L86.0432 65.0171V62.9127H83.7331C82.6156 62.9127 81.7097 62.0085 81.7097 60.893V52.8564C81.7097 51.7409 82.6156 50.8367 83.7331 50.8367Z" fill="white"/>
<path d="M106.455 60.331C106.698 60.331 106.895 60.1343 106.895 59.8916C106.895 59.6489 106.698 59.4521 106.455 59.4521C106.212 59.4521 106.015 59.6489 106.015 59.8916C106.015 60.1343 106.212 60.331 106.455 60.331Z" fill="#E2E3FF"/>
<path d="M108.281 60.331C108.524 60.331 108.721 60.1343 108.721 59.8916C108.721 59.6489 108.524 59.4521 108.281 59.4521C108.037 59.4521 107.84 59.6489 107.84 59.8916C107.84 60.1343 108.037 60.331 108.281 60.331Z" fill="#E2E3FF"/>
<path d="M110.107 60.331C110.35 60.331 110.547 60.1343 110.547 59.8916C110.547 59.6489 110.35 59.4521 110.107 59.4521C109.863 59.4521 109.666 59.6489 109.666 59.8916C109.666 60.1343 109.863 60.331 110.107 60.331Z" fill="#E2E3FF"/>
<path d="M110.104 58.227H95.3502C95.1059 58.227 94.908 58.0294 94.908 57.7856C94.908 57.5418 95.106 57.3442 95.3502 57.3442H110.104C110.349 57.3442 110.547 57.5419 110.547 57.7856C110.547 58.0294 110.349 58.227 110.104 58.227Z" fill="#E2E3FF"/>
<path d="M104.293 60.3357H95.3502C95.1059 60.3357 94.908 60.1381 94.908 59.8943C94.908 59.6505 95.106 59.4529 95.3502 59.4529H104.293C104.537 59.4529 104.735 59.6505 104.735 59.8943C104.735 60.1381 104.537 60.3357 104.293 60.3357Z" fill="#E2E3FF"/>
<path d="M96.584 53.3762L97.0243 54.2667L98.0088 54.4095L97.2964 55.1026L97.4646 56.0814L96.584 55.6192L95.7035 56.0814L95.8717 55.1026L95.1592 54.4095L96.1437 54.2667L96.584 53.3762Z" fill="#ED1C24"/>
<path d="M99.6557 53.3762L100.096 54.2667L101.08 54.4095L100.368 55.1026L100.536 56.0814L99.6557 55.6192L98.7752 56.0814L98.9433 55.1026L98.2309 54.4095L99.2154 54.2667L99.6557 53.3762Z" fill="#ED1C24"/>
<path d="M102.727 53.3762L103.168 54.2667L104.152 54.4095L103.44 55.1026L103.608 56.0814L102.727 55.6192L101.847 56.0814L102.015 55.1026L101.303 54.4095L102.287 54.2667L102.727 53.3762Z" fill="#ED1C24"/>
<path d="M105.799 53.3762L106.239 54.2667L107.224 54.4095L106.511 55.1026L106.68 56.0814L105.799 55.6192L104.918 56.0814L105.087 55.1026L104.374 54.4095L105.359 54.2667L105.799 53.3762Z" fill="#FFBCBF"/>
<path d="M108.871 53.3762L109.311 54.2667L110.295 54.4095L109.583 55.1026L109.751 56.0814L108.871 55.6192L107.99 56.0814L108.158 55.1026L107.446 54.4095L108.43 54.2667L108.871 53.3762Z" fill="#FFBCBF"/>
<path d="M88.6358 61.4384C91.1712 61.4384 93.2266 59.3868 93.2266 56.856C93.2266 54.3252 91.1712 52.2736 88.6358 52.2736C86.1004 52.2736 84.045 54.3252 84.045 56.856C84.045 59.3868 86.1004 61.4384 88.6358 61.4384Z" fill="#686BEA"/>
<path d="M91.9449 60.032C91.6782 59.8481 91.4237 59.787 91.4237 59.787C91.4231 59.7878 91.4223 59.7889 91.4217 59.7898C91.2675 59.7214 90.9897 59.642 90.4178 59.5014C89.206 59.2033 88.9736 58.848 88.1941 58.826C87.7053 58.8122 87.4866 58.8758 86.6578 59.1179C86.1448 59.2678 85.5311 59.434 84.9343 59.5666C85.7699 60.7016 87.1165 61.4385 88.6358 61.4385C89.9359 61.4385 91.1096 60.8989 91.9449 60.032Z" fill="#ED1C24"/>
<path d="M90.7304 55.6896C90.633 55.0678 90.4895 54.1508 89.7656 53.5847C89.4586 53.3447 88.6833 52.918 88.1083 53.0488C88.0321 53.0662 87.994 53.1224 87.8881 53.1442C87.7106 53.1809 87.5955 53.0821 87.1672 53.331C86.0992 53.9515 86.2099 54.7338 85.9489 55.246C85.5679 55.9938 85.1641 56.2601 84.9572 56.7623C84.8577 57.0037 84.7686 57.2844 84.7302 57.5998C85.7171 58.5282 87.4473 59.3166 90.3547 58.5105C90.4868 58.2028 90.5674 57.9187 90.6256 57.7134C90.6739 57.5433 90.8934 56.7311 90.7304 55.6896Z" fill="#1E1735"/>
<path d="M88.8694 57.1839C88.8819 57.2588 88.8444 58.3326 88.8569 58.907C88.8694 59.4813 88.5117 59.9372 87.8988 60.0495C87.2859 60.1619 86.8049 59.8484 86.7304 59.5188C86.6884 59.3325 86.8462 57.8707 86.6836 56.9218C86.521 55.9729 86.743 55.8605 86.8305 55.8605C86.9181 55.8604 88.8694 57.1839 88.8694 57.1839Z" fill="#EC7D40"/>
<path d="M89.8612 54.3121C90.179 54.9212 90.1436 55.9748 90.0947 56.1999C90.0459 56.425 90.0155 56.3941 90.0498 56.5207C90.0842 56.6473 90.0371 57.0085 89.8585 57.4432C89.6799 57.878 89.2818 58.4468 89.0952 58.559C88.9086 58.6713 88.698 58.7342 88.4294 58.6911C88.1609 58.648 87.5544 58.2812 87.2086 57.7147C86.9371 57.2699 86.7371 56.9044 86.7337 56.6162C86.7304 56.328 86.5109 55.4039 86.7998 54.8759C87.0886 54.3478 87.3083 53.9281 88.0662 53.7283C88.2645 53.676 89.279 53.1964 89.8612 54.3121Z" fill="#F79556"/>
<path d="M89.5135 55.9137C89.5337 55.8663 89.5653 55.8274 89.6014 55.794C89.6373 55.7602 89.6789 55.7327 89.7238 55.7111C89.8144 55.6667 89.9211 55.6697 90.0183 55.6825C90.0428 55.686 90.0673 55.6887 90.0911 55.6952L90.1268 55.7037C90.1393 55.7073 90.1522 55.7119 90.1645 55.7161C90.2136 55.7362 90.2553 55.7659 90.291 55.7985C90.3619 55.865 90.4094 55.9449 90.4583 56.0173L90.4466 56.0296C90.4091 56.0012 90.3781 55.9692 90.3443 55.9409C90.3109 55.9125 90.2761 55.8866 90.24 55.8664C90.2045 55.8455 90.1674 55.8302 90.1309 55.8239L90.1037 55.82L90.0732 55.8182C90.053 55.8161 90.0327 55.8177 90.0126 55.8181C89.9926 55.8184 89.9726 55.8227 89.953 55.8255C89.9334 55.8308 89.9141 55.8344 89.8952 55.8411C89.8572 55.852 89.82 55.8632 89.7807 55.8711L89.6592 55.8985C89.6171 55.9083 89.5737 55.9184 89.5242 55.9269L89.5135 55.9137Z" fill="#1E1735"/>
<path d="M87.6495 55.5668C87.7424 55.5018 87.8492 55.4566 87.962 55.4257C88.0753 55.3958 88.1971 55.3885 88.3182 55.4055C88.3487 55.4088 88.3785 55.4161 88.4094 55.4205C88.4396 55.4272 88.4697 55.4351 88.5002 55.4431C88.56 55.4617 88.616 55.4926 88.6631 55.5336C88.7567 55.6157 88.8276 55.7246 88.8407 55.8515L88.8226 55.8639C88.7108 55.809 88.6248 55.7578 88.5372 55.7137C88.4939 55.6915 88.4533 55.6679 88.4121 55.642C88.3911 55.6299 88.3701 55.6171 88.3483 55.6054C88.3259 55.5955 88.3035 55.5843 88.2797 55.577C88.2324 55.5622 88.1834 55.5492 88.1326 55.5438C88.0821 55.5358 88.03 55.533 87.9775 55.5344C87.8718 55.5345 87.7646 55.5544 87.6593 55.5864L87.6495 55.5668Z" fill="#1E1735"/>
<path d="M88.021 56.1449C88.0214 56.174 88.1098 56.2601 88.3719 56.2567C88.4884 56.2552 88.6045 56.2246 88.6037 56.1665C88.603 56.1109 88.5271 56.0097 88.4268 55.9943C88.2517 55.9676 88.0203 56.0868 88.021 56.1449Z" fill="#E6E6E6"/>
<path d="M88.2512 56.0485C88.3156 55.8968 88.5883 55.9567 88.5282 56.1627C88.468 56.3689 88.1478 56.2922 88.2512 56.0485Z" fill="#1E1735"/>
<path d="M89.5468 56.313C89.5471 56.3414 89.6208 56.4257 89.8388 56.4229C89.9356 56.4217 89.9821 56.3733 89.9814 56.3165C89.9806 56.2621 89.9674 56.1818 89.8839 56.1666C89.7383 56.1401 89.546 56.2562 89.5468 56.313Z" fill="#E6E6E6"/>
<path d="M89.7136 56.271C89.7678 56.1432 89.9975 56.1936 89.9469 56.3672C89.8962 56.541 89.6264 56.4763 89.7136 56.271Z" fill="#1E1735"/>
<path d="M88.5925 56.1996C88.5867 56.1598 88.5753 56.1235 88.5571 56.0985C88.5386 56.0733 88.5165 56.0631 88.4904 56.0582C88.4773 56.0555 88.4627 56.0551 88.4477 56.0549C88.4402 56.0548 88.4324 56.0554 88.4245 56.056C88.4166 56.0565 88.4078 56.0575 88.3995 56.0582C88.3653 56.0619 88.3303 56.067 88.2949 56.0728C88.2239 56.0847 88.1512 56.0977 88.0769 56.1087C88.0022 56.1194 87.9266 56.1292 87.8452 56.1292C87.8753 56.1013 87.9083 56.0791 87.9419 56.0584C87.9757 56.038 88.0107 56.0202 88.0466 56.0045C88.1184 55.9731 88.1939 55.9499 88.2733 55.9375C88.3131 55.9313 88.3539 55.9281 88.3959 55.9293C88.4065 55.9297 88.4168 55.9304 88.4278 55.9314C88.4391 55.9326 88.4502 55.9341 88.4616 55.9365C88.4844 55.9408 88.5073 55.9484 88.5297 55.9596C88.5517 55.9713 88.5731 55.9874 88.5889 56.0082C88.6052 56.0285 88.6148 56.0528 88.619 56.0759C88.6228 56.0993 88.6216 56.1218 88.6168 56.1426C88.612 56.1633 88.6039 56.1827 88.5925 56.1996Z" fill="#1E1735"/>
<path d="M90.0204 56.361C90.0124 56.327 90.0004 56.297 89.9836 56.2778C89.9752 56.2683 89.9664 56.2619 89.9572 56.2579C89.948 56.2541 89.9388 56.2516 89.9281 56.2507C89.9177 56.2493 89.906 56.2497 89.8938 56.2504C89.8878 56.2506 89.8814 56.2513 89.8751 56.2521C89.8686 56.2528 89.8613 56.2539 89.8543 56.2548C89.8261 56.2589 89.797 56.2641 89.7673 56.2697C89.708 56.2809 89.647 56.293 89.5839 56.3021C89.5206 56.3111 89.4561 56.3188 89.3854 56.3162C89.4095 56.2898 89.4365 56.2689 89.4642 56.2494C89.492 56.2302 89.5211 56.2135 89.5511 56.1986C89.611 56.1689 89.6749 56.1472 89.7426 56.1349C89.7765 56.1289 89.8114 56.1255 89.8476 56.126C89.8568 56.1262 89.8657 56.1268 89.8753 56.1275C89.8851 56.1285 89.8949 56.1295 89.9049 56.1315C89.9248 56.1352 89.9451 56.1416 89.965 56.1513C89.9846 56.1615 90.0039 56.1756 90.018 56.194C90.0327 56.212 90.0413 56.2336 90.0449 56.2539C90.0483 56.2744 90.047 56.2941 90.0426 56.312C90.0382 56.3299 90.0308 56.3466 90.0204 56.361Z" fill="#1E1735"/>
<path d="M87.9738 53.4824C87.9738 53.4824 87.9942 53.4889 88.0141 53.4992C88.1404 53.5648 88.2564 53.8042 88.2845 54.1015C88.2984 54.2481 88.2925 54.3555 88.268 54.4924C88.1519 55.1413 87.3501 55.1518 87.0938 55.7734C86.8775 56.2981 86.6905 56.0079 86.633 55.7937C86.3852 54.8702 86.312 54.1487 87.6196 53.5132C87.7022 53.4731 87.8819 53.4532 87.9738 53.4824Z" fill="#1E1735"/>
<path d="M88.1652 53.4936C88.2984 53.4393 89.1275 53.1661 89.9517 54.0734C90.4125 54.5806 90.3394 55.2922 90.316 55.5619C90.2977 55.7725 90.1546 55.9022 90.1299 55.9032C90.0852 55.905 90.4043 55.1356 88.8249 54.6482C88.3765 54.5098 88.2221 54.2048 88.1865 54.1674C88.0646 54.0395 87.895 53.782 87.9871 53.618C88.0248 53.5509 88.0932 53.523 88.1652 53.4936Z" fill="#1E1735"/>
<path d="M88.2713 57.7895C88.26 57.7715 88.2717 57.7481 88.2929 57.7462C88.3838 57.7382 88.6047 57.7237 88.8567 57.7425C89.0293 57.7554 89.192 57.7957 89.2594 57.814C89.2772 57.8189 89.2854 57.8389 89.2767 57.8551C89.2314 57.9388 89.0827 58.1571 88.775 58.1311C88.4984 58.1076 88.3293 57.8816 88.2713 57.7895Z" fill="#D65B5B"/>
<path d="M86.8745 56.0072C86.8291 55.9229 86.7093 55.7949 86.5063 55.9002C86.3439 55.9845 86.3246 56.2247 86.3708 56.5123C86.417 56.7999 86.6127 57.137 86.7774 57.1844C86.942 57.2319 86.9427 57.1211 86.975 56.9776C87.0074 56.8341 86.9892 56.2205 86.8745 56.0072Z" fill="#F79556"/>
<path d="M90.7551 56.7514C90.754 56.7887 90.7535 56.826 90.7518 56.8633C90.7476 56.9379 90.7436 57.0125 90.7363 57.0867C90.7236 57.2354 90.7043 57.3835 90.6777 57.5299C90.665 57.6032 90.65 57.676 90.633 57.7479L90.6198 57.8018L90.6056 57.8573L90.5772 57.9674C90.5395 58.1137 90.4971 58.2578 90.4504 58.4001C90.4384 58.4355 90.4261 58.4708 90.4135 58.506C90.4985 58.4807 90.5845 58.4541 90.6715 58.4259C90.72 58.2949 90.7628 58.1623 90.8014 58.0293C90.8124 57.9921 90.823 57.955 90.8332 57.9179L90.8486 57.8624L90.8638 57.8051C90.8836 57.7284 90.9009 57.6515 90.9158 57.5744C90.9452 57.4199 90.9664 57.2643 90.9805 57.1082C91.0082 56.7959 91.0035 56.4811 90.971 56.1697L90.9559 56.0533C90.9509 56.0145 90.9462 55.9757 90.9391 55.9371C90.9262 55.86 90.9129 55.7822 90.8975 55.7076C90.8679 55.5568 90.8349 55.405 90.7955 55.2544C90.7154 54.9537 90.6075 54.6552 90.4444 54.3865C90.3645 54.2516 90.2681 54.1265 90.162 54.0127C90.0565 53.8977 89.9326 53.802 89.8051 53.717L89.8876 53.7973C89.9012 53.8106 89.9152 53.8236 89.9285 53.8372L89.9662 53.8802C89.9912 53.9089 90.0174 53.9363 90.0415 53.9655L90.1101 54.0559C90.1974 54.1789 90.2778 54.306 90.3389 54.4431C90.4679 54.7135 90.5488 55.0034 90.6083 55.2978C90.6378 55.4454 90.6618 55.5944 90.6852 55.745C90.6975 55.8208 90.706 55.8947 90.7165 55.9687C90.7222 56.0057 90.7255 56.0429 90.7291 56.0801L90.74 56.1917C90.7496 56.3408 90.7592 56.4901 90.7565 56.6395C90.7566 56.6767 90.7567 56.714 90.7551 56.7514Z" fill="#1E1735"/>
<path d="M87.6404 53.1268C87.5511 53.1266 87.4619 53.1444 87.377 53.1706C87.2917 53.1968 87.2105 53.2326 87.1309 53.2708L87.0138 53.3324C86.9747 53.353 86.9349 53.3726 86.8981 53.3976L86.7859 53.4697C86.7668 53.4811 86.7491 53.4949 86.7315 53.5086L86.6784 53.5497C86.6053 53.6018 86.5427 53.6669 86.4762 53.7279C86.3515 53.8587 86.2436 54.0075 86.1589 54.1676C86.1383 54.2079 86.1162 54.2477 86.099 54.2891C86.0812 54.3303 86.0612 54.3712 86.046 54.4128C86.0129 54.4959 85.984 54.5797 85.9561 54.6621C85.9 54.8268 85.8506 54.9893 85.7765 55.1274C85.7719 55.1362 85.7678 55.1449 85.7629 55.1538L85.7468 55.181L85.7148 55.2355C85.694 55.2722 85.6715 55.3077 85.6488 55.3431L85.6151 55.3964L85.5797 55.4487C85.5561 55.4835 85.5326 55.5185 85.5073 55.5522C85.4096 55.6896 85.3031 55.8208 85.1922 55.9528C85.0824 56.0853 84.9673 56.2206 84.8653 56.3718C84.8155 56.4483 84.7676 56.5274 84.7285 56.6116C84.7188 56.6324 84.7079 56.6536 84.6992 56.6741L84.673 56.7355C84.6556 56.7765 84.6398 56.8183 84.6239 56.8599C84.5652 57.0184 84.5165 57.1815 84.4827 57.3479C84.5399 57.4108 84.6002 57.4736 84.6638 57.536C84.6711 57.4973 84.679 57.4588 84.6878 57.4205C84.7264 57.2583 84.7775 57.099 84.8401 56.9436C84.8562 56.9048 84.8724 56.8662 84.8893 56.8277L84.915 56.7701C84.9236 56.7509 84.9329 56.7339 84.9418 56.7155C84.9768 56.6432 85.0201 56.5745 85.0657 56.5067C85.1589 56.3717 85.2684 56.2425 85.3806 56.1093C85.4918 55.9756 85.6031 55.8372 85.7051 55.6916C85.731 55.6555 85.7552 55.6182 85.7796 55.581L85.816 55.5251L85.8508 55.4681C85.8741 55.4302 85.8972 55.3923 85.9186 55.3533L85.9512 55.2952L85.9674 55.2661C85.9727 55.2559 85.9777 55.2449 85.9828 55.2344C86.0672 55.0639 86.1137 54.8915 86.1623 54.7269C86.2108 54.5621 86.2613 54.4029 86.3315 54.2532C86.4011 54.1035 86.4897 53.964 86.5954 53.836C86.6524 53.7758 86.706 53.7116 86.7704 53.6576L86.8169 53.6152C86.8322 53.6009 86.8477 53.5866 86.8649 53.5744L86.9653 53.4971C86.9979 53.4699 87.034 53.4475 87.0696 53.4242L87.1764 53.3539C87.249 53.3095 87.3238 53.2688 87.4008 53.234C87.478 53.1997 87.5585 53.1737 87.6426 53.1636C87.6846 53.1578 87.7275 53.1567 87.7711 53.1555C87.8146 53.1545 87.859 53.1513 87.9011 53.1404C87.8142 53.1488 87.73 53.1264 87.6404 53.1268Z" fill="#1E1735"/>
<path d="M88.0664 55.1238C88.0664 55.1238 89.1726 55.7582 90.1609 55.3691C90.8736 55.0886 90.0272 53.8348 89.0982 53.6058C88.7527 53.5207 88.1008 53.6633 88.2187 53.9575C88.4626 54.5655 88.0664 55.1238 88.0664 55.1238Z" fill="#1E1735"/>
</g>
</g>
<defs>
<filter id="filter0_d_3119_4426" x="79.5205" y="23.7549" width="58.099" height="30.8871" filterUnits="userSpaceOnUse" color-interpolation-filters="sRGB">
<feFlood flood-opacity="0" result="BackgroundImageFix"/>
<feColorMatrix in="SourceAlpha" type="matrix" values="0 0 0 0 0 0 0 0 0 0 0 0 0 0 0 0 0 0 127 0" result="hardAlpha"/>
<feOffset dy="4"/>
<feGaussianBlur stdDeviation="2"/>
<feComposite in2="hardAlpha" operator="out"/>
<feColorMatrix type="matrix" values="0 0 0 0 0 0 0 0 0 0 0 0 0 0 0 0 0 0 0.07 0"/>
<feBlend mode="normal" in2="BackgroundImageFix" result="effect1_dropShadow_3119_4426"/>
<feBlend mode="normal" in="SourceGraphic" in2="effect1_dropShadow_3119_4426" result="shape"/>
</filter>
<filter id="filter1_d_3119_4426" x="77.7097" y="50.8367" width="39.0405" height="22.1804" filterUnits="userSpaceOnUse" color-interpolation-filters="sRGB">
<feFlood flood-opacity="0" result="BackgroundImageFix"/>
<feColorMatrix in="SourceAlpha" type="matrix" values="0 0 0 0 0 0 0 0 0 0 0 0 0 0 0 0 0 0 127 0" result="hardAlpha"/>
<feOffset dy="4"/>
<feGaussianBlur stdDeviation="2"/>
<feComposite in2="hardAlpha" operator="out"/>
<feColorMatrix type="matrix" values="0 0 0 0 0 0 0 0 0 0 0 0 0 0 0 0 0 0 0.07 0"/>
<feBlend mode="normal" in2="BackgroundImageFix" result="effect1_dropShadow_3119_4426"/>
<feBlend mode="normal" in="SourceGraphic" in2="effect1_dropShadow_3119_4426" result="shape"/>
</filter>
<clipPath id="clip0_3119_4426">
<rect width="143.232" height="167.265" fill="white"/>
</clipPath>
</defs>
</svg>
