<svg width="340" height="369" viewBox="0 0 340 369" fill="none" xmlns="http://www.w3.org/2000/svg">
<rect x="2" y="141" width="336" height="226" rx="18" stroke="url(#paint0_linear_3119_4422)" stroke-width="4"/>
<path d="M74.06 220.06L68.21 241H63.26L59.33 226.09L55.22 241L50.3 241.03L44.66 220.06H49.16L52.85 236.32L57.11 220.06H61.79L65.81 236.23L69.53 220.06H74.06ZM92.2524 232.33C92.2524 232.93 92.2124 233.47 92.1324 233.95H79.9824C80.0824 235.15 80.5024 236.09 81.2424 236.77C81.9824 237.45 82.8924 237.79 83.9724 237.79C85.5324 237.79 86.6424 237.12 87.3024 235.78H91.8324C91.3524 237.38 90.4324 238.7 89.0724 239.74C87.7124 240.76 86.0424 241.27 84.0624 241.27C82.4624 241.27 81.0224 240.92 79.7424 240.22C78.4824 239.5 77.4924 238.49 76.7724 237.19C76.0724 235.89 75.7224 234.39 75.7224 232.69C75.7224 230.97 76.0724 229.46 76.7724 228.16C77.4724 226.86 78.4524 225.86 79.7124 225.16C80.9724 224.46 82.4224 224.11 84.0624 224.11C85.6424 224.11 87.0524 224.45 88.2924 225.13C89.5524 225.81 90.5224 226.78 91.2024 228.04C91.9024 229.28 92.2524 230.71 92.2524 232.33ZM87.9024 231.13C87.8824 230.05 87.4924 229.19 86.7324 228.55C85.9724 227.89 85.0424 227.56 83.9424 227.56C82.9024 227.56 82.0224 227.88 81.3024 228.52C80.6024 229.14 80.1724 230.01 80.0124 231.13H87.9024ZM111.826 224.14C113.086 224.14 114.206 224.42 115.186 224.98C116.166 225.52 116.926 226.33 117.466 227.41C118.026 228.47 118.306 229.75 118.306 231.25V241H114.106V231.82C114.106 230.5 113.776 229.49 113.116 228.79C112.456 228.07 111.556 227.71 110.416 227.71C109.256 227.71 108.336 228.07 107.656 228.79C106.996 229.49 106.666 230.5 106.666 231.82V241H102.466V218.8H106.666V226.45C107.206 225.73 107.926 225.17 108.826 224.77C109.726 224.35 110.726 224.14 111.826 224.14ZM121.22 232.63C121.22 230.95 121.55 229.46 122.21 228.16C122.89 226.86 123.8 225.86 124.94 225.16C126.1 224.46 127.39 224.11 128.81 224.11C130.05 224.11 131.13 224.36 132.05 224.86C132.99 225.36 133.74 225.99 134.3 226.75V224.38H138.53V241H134.3V238.57C133.76 239.35 133.01 240 132.05 240.52C131.11 241.02 130.02 241.27 128.78 241.27C127.38 241.27 126.1 240.91 124.94 240.19C123.8 239.47 122.89 238.46 122.21 237.16C121.55 235.84 121.22 234.33 121.22 232.63ZM134.3 232.69C134.3 231.67 134.1 230.8 133.7 230.08C133.3 229.34 132.76 228.78 132.08 228.4C131.4 228 130.67 227.8 129.89 227.8C129.11 227.8 128.39 227.99 127.73 228.37C127.07 228.75 126.53 229.31 126.11 230.05C125.71 230.77 125.51 231.63 125.51 232.63C125.51 233.63 125.71 234.51 126.11 235.27C126.53 236.01 127.07 236.58 127.73 236.98C128.41 237.38 129.13 237.58 129.89 237.58C130.67 237.58 131.4 237.39 132.08 237.01C132.76 236.61 133.3 236.05 133.7 235.33C134.1 234.59 134.3 233.71 134.3 232.69ZM149.563 237.13L153.763 224.38H158.233L152.083 241H146.983L140.863 224.38H145.363L149.563 237.13ZM176.041 232.33C176.041 232.93 176.001 233.47 175.921 233.95H163.771C163.871 235.15 164.291 236.09 165.031 236.77C165.771 237.45 166.681 237.79 167.761 237.79C169.321 237.79 170.431 237.12 171.091 235.78H175.621C175.141 237.38 174.221 238.7 172.861 239.74C171.501 240.76 169.831 241.27 167.851 241.27C166.251 241.27 164.811 240.92 163.531 240.22C162.271 239.5 161.281 238.49 160.561 237.19C159.861 235.89 159.511 234.39 159.511 232.69C159.511 230.97 159.861 229.46 160.561 228.16C161.261 226.86 162.241 225.86 163.501 225.16C164.761 224.46 166.211 224.11 167.851 224.11C169.431 224.11 170.841 224.45 172.081 225.13C173.341 225.81 174.311 226.78 174.991 228.04C175.691 229.28 176.041 230.71 176.041 232.33ZM171.691 231.13C171.671 230.05 171.281 229.19 170.521 228.55C169.761 227.89 168.831 227.56 167.731 227.56C166.691 227.56 165.811 227.88 165.091 228.52C164.391 229.14 163.961 230.01 163.801 231.13H171.691ZM45.41 276.74V273.44L55.22 259.4H60.11V273.08H62.75V276.74H60.11V281H55.91V276.74H45.41ZM56.18 263.9L50.03 273.08H56.18V263.9ZM65.424 269.78C65.424 266.32 66.044 263.61 67.284 261.65C68.544 259.69 70.624 258.71 73.524 258.71C76.424 258.71 78.494 259.69 79.734 261.65C80.994 263.61 81.624 266.32 81.624 269.78C81.624 273.26 80.994 275.99 79.734 277.97C78.494 279.95 76.424 280.94 73.524 280.94C70.624 280.94 68.544 279.95 67.284 277.97C66.044 275.99 65.424 273.26 65.424 269.78ZM77.484 269.78C77.484 268.3 77.384 267.06 77.184 266.06C77.004 265.04 76.624 264.21 76.044 263.57C75.484 262.93 74.644 262.61 73.524 262.61C72.404 262.61 71.554 262.93 70.974 263.57C70.414 264.21 70.034 265.04 69.834 266.06C69.654 267.06 69.564 268.3 69.564 269.78C69.564 271.3 69.654 272.58 69.834 273.62C70.014 274.64 70.394 275.47 70.974 276.11C71.554 276.73 72.404 277.04 73.524 277.04C74.644 277.04 75.494 276.73 76.074 276.11C76.654 275.47 77.034 274.64 77.214 273.62C77.394 272.58 77.484 271.3 77.484 269.78ZM84.8185 269.78C84.8185 266.32 85.4385 263.61 86.6785 261.65C87.9385 259.69 90.0185 258.71 92.9185 258.71C95.8185 258.71 97.8885 259.69 99.1285 261.65C100.389 263.61 101.019 266.32 101.019 269.78C101.019 273.26 100.389 275.99 99.1285 277.97C97.8885 279.95 95.8185 280.94 92.9185 280.94C90.0185 280.94 87.9385 279.95 86.6785 277.97C85.4385 275.99 84.8185 273.26 84.8185 269.78ZM96.8785 269.78C96.8785 268.3 96.7785 267.06 96.5785 266.06C96.3985 265.04 96.0185 264.21 95.4385 263.57C94.8785 262.93 94.0385 262.61 92.9185 262.61C91.7985 262.61 90.9485 262.93 90.3685 263.57C89.8085 264.21 89.4285 265.04 89.2285 266.06C89.0485 267.06 88.9585 268.3 88.9585 269.78C88.9585 271.3 89.0485 272.58 89.2285 273.62C89.4085 274.64 89.7885 275.47 90.3685 276.11C90.9485 276.73 91.7985 277.04 92.9185 277.04C94.0385 277.04 94.8885 276.73 95.4685 276.11C96.0485 275.47 96.4285 274.64 96.6085 273.62C96.7885 272.58 96.8785 271.3 96.8785 269.78ZM120.383 272.15H114.713V277.97H110.753V272.15H105.083V268.49H110.753V262.67H114.713V268.49H120.383V272.15ZM142.856 281L138.236 272.84H136.256V281H132.056V260.06H139.916C141.536 260.06 142.916 260.35 144.056 260.93C145.196 261.49 146.046 262.26 146.606 263.24C147.186 264.2 147.476 265.28 147.476 266.48C147.476 267.86 147.076 269.11 146.276 270.23C145.476 271.33 144.286 272.09 142.706 272.51L147.716 281H142.856ZM136.256 269.69H139.766C140.906 269.69 141.756 269.42 142.316 268.88C142.876 268.32 143.156 267.55 143.156 266.57C143.156 265.61 142.876 264.87 142.316 264.35C141.756 263.81 140.906 263.54 139.766 263.54H136.256V269.69ZM166.725 272.33C166.725 272.93 166.685 273.47 166.605 273.95H154.455C154.555 275.15 154.975 276.09 155.715 276.77C156.455 277.45 157.365 277.79 158.445 277.79C160.005 277.79 161.115 277.12 161.775 275.78H166.305C165.825 277.38 164.905 278.7 163.545 279.74C162.185 280.76 160.515 281.27 158.535 281.27C156.935 281.27 155.495 280.92 154.215 280.22C152.955 279.5 151.965 278.49 151.245 277.19C150.545 275.89 150.195 274.39 150.195 272.69C150.195 270.97 150.545 269.46 151.245 268.16C151.945 266.86 152.925 265.86 154.185 265.16C155.445 264.46 156.895 264.11 158.535 264.11C160.115 264.11 161.525 264.45 162.765 265.13C164.025 265.81 164.995 266.78 165.675 268.04C166.375 269.28 166.725 270.71 166.725 272.33ZM162.375 271.13C162.355 270.05 161.965 269.19 161.205 268.55C160.445 267.89 159.515 267.56 158.415 267.56C157.375 267.56 156.495 267.88 155.775 268.52C155.075 269.14 154.645 270.01 154.485 271.13H162.375ZM176.721 277.13L180.921 264.38H185.391L179.241 281H174.141L168.021 264.38H172.521L176.721 277.13ZM189.88 262.4C189.14 262.4 188.52 262.17 188.02 261.71C187.54 261.23 187.3 260.64 187.3 259.94C187.3 259.24 187.54 258.66 188.02 258.2C188.52 257.72 189.14 257.48 189.88 257.48C190.62 257.48 191.23 257.72 191.71 258.2C192.21 258.66 192.46 259.24 192.46 259.94C192.46 260.64 192.21 261.23 191.71 261.71C191.23 262.17 190.62 262.4 189.88 262.4ZM191.95 264.38V281H187.75V264.38H191.95ZM211.549 272.33C211.549 272.93 211.509 273.47 211.429 273.95H199.279C199.379 275.15 199.799 276.09 200.539 276.77C201.279 277.45 202.189 277.79 203.269 277.79C204.829 277.79 205.939 277.12 206.599 275.78H211.129C210.649 277.38 209.729 278.7 208.369 279.74C207.009 280.76 205.339 281.27 203.359 281.27C201.759 281.27 200.319 280.92 199.039 280.22C197.779 279.5 196.789 278.49 196.069 277.19C195.369 275.89 195.019 274.39 195.019 272.69C195.019 270.97 195.369 269.46 196.069 268.16C196.769 266.86 197.749 265.86 199.009 265.16C200.269 264.46 201.719 264.11 203.359 264.11C204.939 264.11 206.349 264.45 207.589 265.13C208.849 265.81 209.819 266.78 210.499 268.04C211.199 269.28 211.549 270.71 211.549 272.33ZM207.199 271.13C207.179 270.05 206.789 269.19 206.029 268.55C205.269 267.89 204.339 267.56 203.239 267.56C202.199 267.56 201.319 267.88 200.599 268.52C199.899 269.14 199.469 270.01 199.309 271.13H207.199ZM237.655 264.38L232.795 281H228.265L225.235 269.39L222.205 281H217.645L212.755 264.38H217.015L219.955 277.04L223.135 264.38H227.575L230.695 277.01L233.635 264.38H237.655ZM55.79 321.21C53.83 321.21 52.03 320.75 50.39 319.83C48.75 318.91 47.45 317.64 46.49 316.02C45.53 314.38 45.05 312.53 45.05 310.47C45.05 308.43 45.53 306.6 46.49 304.98C47.45 303.34 48.75 302.06 50.39 301.14C52.03 300.22 53.83 299.76 55.79 299.76C57.77 299.76 59.57 300.22 61.19 301.14C62.83 302.06 64.12 303.34 65.06 304.98C66.02 306.6 66.5 308.43 66.5 310.47C66.5 312.53 66.02 314.38 65.06 316.02C64.12 317.64 62.83 318.91 61.19 319.83C59.55 320.75 57.75 321.21 55.79 321.21ZM55.79 317.46C57.05 317.46 58.16 317.18 59.12 316.62C60.08 316.04 60.83 315.22 61.37 314.16C61.91 313.1 62.18 311.87 62.18 310.47C62.18 309.07 61.91 307.85 61.37 306.81C60.83 305.75 60.08 304.94 59.12 304.38C58.16 303.82 57.05 303.54 55.79 303.54C54.53 303.54 53.41 303.82 52.43 304.38C51.47 304.94 50.72 305.75 50.18 306.81C49.64 307.85 49.37 309.07 49.37 310.47C49.37 311.87 49.64 313.1 50.18 314.16C50.72 315.22 51.47 316.04 52.43 316.62C53.41 317.18 54.53 317.46 55.79 317.46ZM78.8347 304.14C80.8147 304.14 82.4147 304.77 83.6347 306.03C84.8547 307.27 85.4647 309.01 85.4647 311.25V321H81.2647V311.82C81.2647 310.5 80.9347 309.49 80.2747 308.79C79.6147 308.07 78.7147 307.71 77.5747 307.71C76.4147 307.71 75.4947 308.07 74.8147 308.79C74.1547 309.49 73.8247 310.5 73.8247 311.82V321H69.6247V304.38H73.8247V306.45C74.3847 305.73 75.0947 305.17 75.9547 304.77C76.8347 304.35 77.7947 304.14 78.8347 304.14ZM103.987 321.27C102.387 321.27 100.947 320.92 99.6671 320.22C98.3871 319.5 97.3771 318.49 96.6371 317.19C95.9171 315.89 95.5571 314.39 95.5571 312.69C95.5571 310.99 95.9271 309.49 96.6671 308.19C97.4271 306.89 98.4571 305.89 99.7571 305.19C101.057 304.47 102.507 304.11 104.107 304.11C105.707 304.11 107.157 304.47 108.457 305.19C109.757 305.89 110.777 306.89 111.517 308.19C112.277 309.49 112.657 310.99 112.657 312.69C112.657 314.39 112.267 315.89 111.487 317.19C110.727 318.49 109.687 319.5 108.367 320.22C107.067 320.92 105.607 321.27 103.987 321.27ZM103.987 317.61C104.747 317.61 105.457 317.43 106.117 317.07C106.797 316.69 107.337 316.13 107.737 315.39C108.137 314.65 108.337 313.75 108.337 312.69C108.337 311.11 107.917 309.9 107.077 309.06C106.257 308.2 105.247 307.77 104.047 307.77C102.847 307.77 101.837 308.2 101.017 309.06C100.217 309.9 99.8171 311.11 99.8171 312.69C99.8171 314.27 100.207 315.49 100.987 316.35C101.787 317.19 102.787 317.61 103.987 317.61ZM131.428 304.38V321H127.198V318.9C126.658 319.62 125.948 320.19 125.068 320.61C124.208 321.01 123.268 321.21 122.248 321.21C120.948 321.21 119.798 320.94 118.798 320.4C117.798 319.84 117.008 319.03 116.428 317.97C115.868 316.89 115.588 315.61 115.588 314.13V304.38H119.788V313.53C119.788 314.85 120.118 315.87 120.778 316.59C121.438 317.29 122.338 317.64 123.478 317.64C124.638 317.64 125.548 317.29 126.208 316.59C126.868 315.87 127.198 314.85 127.198 313.53V304.38H131.428ZM139.772 306.96C140.312 306.08 141.012 305.39 141.872 304.89C142.752 304.39 143.752 304.14 144.872 304.14V308.55H143.762C142.442 308.55 141.442 308.86 140.762 309.48C140.102 310.1 139.772 311.18 139.772 312.72V321H135.572V304.38H139.772V306.96ZM153.769 312.63C153.769 310.95 154.099 309.46 154.759 308.16C155.439 306.86 156.349 305.86 157.489 305.16C158.649 304.46 159.939 304.11 161.359 304.11C162.599 304.11 163.679 304.36 164.599 304.86C165.539 305.36 166.289 305.99 166.849 306.75V304.38H171.079V321H166.849V318.57C166.309 319.35 165.559 320 164.599 320.52C163.659 321.02 162.569 321.27 161.329 321.27C159.929 321.27 158.649 320.91 157.489 320.19C156.349 319.47 155.439 318.46 154.759 317.16C154.099 315.84 153.769 314.33 153.769 312.63ZM166.849 312.69C166.849 311.67 166.649 310.8 166.249 310.08C165.849 309.34 165.309 308.78 164.629 308.4C163.949 308 163.219 307.8 162.439 307.8C161.659 307.8 160.939 307.99 160.279 308.37C159.619 308.75 159.079 309.31 158.659 310.05C158.259 310.77 158.059 311.63 158.059 312.63C158.059 313.63 158.259 314.51 158.659 315.27C159.079 316.01 159.619 316.58 160.279 316.98C160.959 317.38 161.679 317.58 162.439 317.58C163.219 317.58 163.949 317.39 164.629 317.01C165.309 316.61 165.849 316.05 166.249 315.33C166.649 314.59 166.849 313.71 166.849 312.69ZM179.381 306.78C179.921 306.02 180.661 305.39 181.601 304.89C182.561 304.37 183.651 304.11 184.871 304.11C186.291 304.11 187.571 304.46 188.711 305.16C189.871 305.86 190.781 306.86 191.441 308.16C192.121 309.44 192.461 310.93 192.461 312.63C192.461 314.33 192.121 315.84 191.441 317.16C190.781 318.46 189.871 319.47 188.711 320.19C187.571 320.91 186.291 321.27 184.871 321.27C183.651 321.27 182.571 321.02 181.631 320.52C180.711 320.02 179.961 319.39 179.381 318.63V328.92H175.181V304.38H179.381V306.78ZM188.171 312.63C188.171 311.63 187.961 310.77 187.541 310.05C187.141 309.31 186.601 308.75 185.921 308.37C185.261 307.99 184.541 307.8 183.761 307.8C183.001 307.8 182.281 308 181.601 308.4C180.941 308.78 180.401 309.34 179.981 310.08C179.581 310.82 179.381 311.69 179.381 312.69C179.381 313.69 179.581 314.56 179.981 315.3C180.401 316.04 180.941 316.61 181.601 317.01C182.281 317.39 183.001 317.58 183.761 317.58C184.541 317.58 185.261 317.38 185.921 316.98C186.601 316.58 187.141 316.01 187.541 315.27C187.961 314.53 188.171 313.65 188.171 312.63ZM199.713 306.78C200.253 306.02 200.993 305.39 201.933 304.89C202.893 304.37 203.983 304.11 205.203 304.11C206.623 304.11 207.903 304.46 209.043 305.16C210.203 305.86 211.113 306.86 211.773 308.16C212.453 309.44 212.793 310.93 212.793 312.63C212.793 314.33 212.453 315.84 211.773 317.16C211.113 318.46 210.203 319.47 209.043 320.19C207.903 320.91 206.623 321.27 205.203 321.27C203.983 321.27 202.903 321.02 201.963 320.52C201.043 320.02 200.293 319.39 199.713 318.63V328.92H195.513V304.38H199.713V306.78ZM208.503 312.63C208.503 311.63 208.293 310.77 207.873 310.05C207.473 309.31 206.933 308.75 206.253 308.37C205.593 307.99 204.873 307.8 204.093 307.8C203.333 307.8 202.613 308 201.933 308.4C201.273 308.78 200.733 309.34 200.313 310.08C199.913 310.82 199.713 311.69 199.713 312.69C199.713 313.69 199.913 314.56 200.313 315.3C200.733 316.04 201.273 316.61 201.933 317.01C202.613 317.39 203.333 317.58 204.093 317.58C204.873 317.58 205.593 317.38 206.253 316.98C206.933 316.58 207.473 316.01 207.873 315.27C208.293 314.53 208.503 313.65 208.503 312.63Z" fill="#212244"/>
<circle cx="165.942" cy="115.355" r="73.0581" fill="#FBEDE4"/>
<g clip-path="url(#clip0_3119_4422)">
<path fill-rule="evenodd" clip-rule="evenodd" d="M147.664 77.6458L163.475 52.1387L163.891 71.0979L152.111 94.6219L147.664 77.6458Z" fill="#F2815F"/>
<path fill-rule="evenodd" clip-rule="evenodd" d="M151.819 91.7557L165.871 74.8749L161.712 109.077L156.178 112.009L151.819 91.7557Z" fill="#F2815F"/>
<path fill-rule="evenodd" clip-rule="evenodd" d="M163.102 45.6786C154.851 48.9373 150.756 72.5599 151.772 80.99C153.143 92.1285 155.667 98.2483 157.391 102.807C163.194 118.214 164.241 152.822 149.694 167.265H110.119V152.501C111.535 150.802 112.628 149.013 113.028 147.07C113.259 145.938 114.213 142.372 115.46 137.828C117.584 130.056 120.54 119.408 122.11 113.074C126.959 93.4746 126.743 88.5482 132.115 80.4243C135.84 74.7637 143.522 43.0166 148.355 39.4823C150.387 38.0293 164.964 28.4513 168.243 30.1804C170.875 31.5414 173.908 41.4096 163.102 45.6786Z" fill="#F69876"/>
<path fill-rule="evenodd" clip-rule="evenodd" d="M141.505 167.265H90L111.012 132.795L115.46 137.828L141.505 167.265Z" fill="#E62F39"/>
<path fill-rule="evenodd" clip-rule="evenodd" d="M230.222 117.813V104.284V7.963C230.222 5.22918 227.971 2.99255 225.221 2.99255H169.506C166.755 2.99255 164.505 5.22918 164.505 7.963V104.284V117.813V128.973C164.505 131.839 166.755 134.184 169.506 134.184H225.221C227.971 134.184 230.222 131.839 230.222 128.973V117.813Z" fill="white"/>
<path fill-rule="evenodd" clip-rule="evenodd" d="M225.221 0H169.506C165.099 0 161.494 3.58358 161.494 7.96294V129.214C161.494 133.593 165.099 137.177 169.506 137.177H225.221C227.199 137.177 229.015 136.454 230.417 135.262H230.417V135.262C232.137 133.799 233.232 131.627 233.232 129.214V7.96294C233.232 3.58358 229.627 0 225.221 0ZM230.221 117.813V128.974C230.221 131.839 227.971 134.184 225.221 134.184H169.506C166.755 134.184 164.505 131.839 164.505 128.974V117.813V7.96294C164.505 7.92022 164.506 7.87797 164.507 7.83571C164.508 7.79299 164.51 7.75073 164.512 7.70848C164.514 7.66623 164.517 7.62444 164.52 7.58219C164.523 7.5404 164.527 7.49862 164.531 7.45684C164.535 7.41505 164.54 7.37374 164.546 7.33242C164.551 7.29111 164.557 7.25026 164.563 7.20895C164.569 7.1681 164.576 7.12726 164.584 7.08641C164.591 7.04557 164.599 7.00519 164.608 6.96482C164.616 6.92444 164.625 6.88453 164.634 6.84416C164.643 6.80425 164.653 6.76435 164.663 6.72491C164.674 6.68547 164.685 6.64604 164.696 6.6066C164.707 6.56763 164.719 6.52819 164.731 6.4897C164.744 6.45073 164.756 6.41223 164.77 6.37373C164.783 6.33524 164.796 6.29721 164.81 6.25918C164.824 6.22115 164.839 6.18312 164.854 6.14556C164.869 6.10801 164.884 6.07092 164.9 6.03336C164.916 5.99627 164.932 5.95965 164.949 5.92303C164.966 5.88641 164.983 5.85026 165 5.81364C165.018 5.77749 165.036 5.74134 165.054 5.70613C165.091 5.63476 165.13 5.56434 165.17 5.49486C165.21 5.42537 165.252 5.35683 165.296 5.28969C165.339 5.22256 165.384 5.15636 165.431 5.09157C165.454 5.05918 165.478 5.02678 165.502 4.99485C165.526 4.96293 165.55 4.93147 165.575 4.90002C165.649 4.80612 165.727 4.71504 165.808 4.62631C165.835 4.59673 165.862 4.56762 165.889 4.53898C165.972 4.4526 166.059 4.36903 166.147 4.28875C166.266 4.18171 166.39 4.07983 166.518 3.98405C166.55 3.96011 166.583 3.93664 166.616 3.91316C166.746 3.82067 166.882 3.73382 167.021 3.654C167.126 3.59391 167.233 3.53757 167.342 3.48546C167.415 3.45025 167.489 3.41738 167.564 3.38546C167.601 3.36997 167.639 3.35447 167.677 3.33945C167.715 3.32443 167.752 3.31034 167.791 3.29626C167.829 3.28217 167.868 3.26903 167.906 3.25588C168.022 3.21691 168.14 3.1817 168.26 3.15119C168.299 3.14086 168.34 3.13147 168.38 3.12208C168.461 3.10377 168.542 3.08687 168.624 3.07231C168.665 3.0648 168.706 3.05823 168.747 3.05212C168.788 3.04555 168.83 3.03992 168.871 3.03475C168.913 3.02959 168.955 3.02489 168.997 3.02067C169.039 3.01644 169.081 3.01269 169.123 3.00987C169.165 3.00658 169.207 3.00424 169.25 3.00189C169.292 3.00001 169.335 2.9986 169.378 2.99719C169.42 2.99626 169.463 2.99579 169.506 2.99579H225.221C225.264 2.99579 225.307 2.99626 225.35 2.99719C225.392 2.9986 225.435 3.00001 225.477 3.00189C225.52 3.00377 225.562 3.00658 225.604 3.00987C225.646 3.01316 225.688 3.01644 225.73 3.02067C225.772 3.02489 225.814 3.02959 225.856 3.03475C225.897 3.03992 225.939 3.04555 225.98 3.05212C226.021 3.05823 226.062 3.06527 226.103 3.07231C226.144 3.07935 226.185 3.08734 226.225 3.09532C226.266 3.10377 226.306 3.11222 226.347 3.12161C226.387 3.131 226.427 3.14039 226.467 3.15072C226.507 3.16105 226.547 3.17184 226.586 3.18264C226.626 3.19391 226.665 3.20565 226.704 3.21785C226.744 3.23006 226.782 3.24227 226.821 3.25541C226.86 3.26856 226.898 3.2817 226.936 3.29579C226.975 3.30987 227.012 3.32396 227.051 3.33898C227.088 3.354 227.126 3.36903 227.163 3.38499C227.201 3.40048 227.238 3.41691 227.275 3.43335C227.312 3.45025 227.348 3.46668 227.385 3.48452C227.421 3.50189 227.458 3.51973 227.494 3.53804C227.53 3.55635 227.565 3.57513 227.601 3.59438C227.636 3.61363 227.671 3.63335 227.706 3.65307C227.741 3.67325 227.776 3.69344 227.81 3.7141C227.845 3.73476 227.879 3.75588 227.913 3.77748C227.947 3.79908 227.98 3.82114 228.013 3.84321C228.046 3.86574 228.079 3.88828 228.112 3.91128C228.145 3.93429 228.178 3.95776 228.21 3.98218C228.242 4.00612 228.274 4.03053 228.305 4.05495C228.337 4.07936 228.368 4.10471 228.399 4.12959C228.429 4.15495 228.46 4.1803 228.491 4.20659C228.521 4.23288 228.551 4.25917 228.581 4.28593C228.61 4.31269 228.64 4.33945 228.668 4.36715C228.698 4.39438 228.726 4.42208 228.754 4.45072L228.838 4.53617C228.866 4.56481 228.893 4.59391 228.92 4.62349C228.947 4.65307 228.974 4.68265 229 4.71269C229.026 4.74274 229.052 4.77326 229.078 4.80377C229.103 4.83429 229.129 4.86528 229.153 4.89673C229.179 4.92819 229.203 4.95964 229.227 4.99157C229.251 5.02349 229.274 5.05589 229.298 5.08828C229.321 5.12068 229.344 5.15354 229.367 5.18641C229.389 5.21927 229.411 5.2526 229.433 5.28641C229.455 5.31974 229.476 5.35401 229.497 5.38781C229.518 5.42162 229.539 5.45636 229.559 5.4911C229.579 5.52584 229.598 5.56059 229.618 5.5958C229.637 5.63101 229.656 5.66669 229.675 5.70237C229.693 5.73805 229.711 5.77373 229.729 5.80988C229.746 5.84603 229.764 5.88265 229.78 5.91927C229.797 5.95589 229.813 5.99251 229.829 6.0296C229.845 6.06669 229.86 6.10425 229.875 6.14181C229.89 6.17937 229.905 6.2174 229.919 6.25542C229.933 6.29345 229.947 6.33148 229.959 6.36998C229.973 6.40848 229.985 6.44697 229.998 6.48594C230.01 6.52444 230.022 6.56388 230.033 6.60284C230.044 6.64228 230.055 6.68172 230.066 6.72115C230.076 6.76059 230.085 6.8005 230.095 6.8404C230.104 6.88031 230.113 6.92021 230.121 6.96106C230.13 7.00144 230.137 7.04181 230.145 7.08266C230.153 7.1235 230.159 7.16435 230.166 7.20519C230.172 7.24604 230.178 7.28735 230.183 7.32867C230.188 7.36998 230.194 7.4113 230.198 7.45308C230.202 7.49486 230.206 7.53618 230.209 7.57843C230.213 7.62069 230.215 7.66247 230.217 7.70472C230.219 7.74698 230.221 7.78923 230.222 7.83195C230.223 7.87421 230.224 7.91693 230.224 7.95919V117.813H230.221Z" fill="#1B0C47"/>
<path fill-rule="evenodd" clip-rule="evenodd" d="M170.249 7.27491V8.49276H170.519C170.555 8.49276 170.571 8.51764 170.571 8.57351V8.60215C170.571 8.65801 170.555 8.6829 170.519 8.6829H169.691C169.656 8.6829 169.641 8.65801 169.641 8.60215V8.57351C169.641 8.51717 169.656 8.49276 169.691 8.49276H170.016V7.46083L169.685 7.51247C169.646 7.51247 169.633 7.42374 169.633 7.3782C169.633 7.35144 169.648 7.33688 169.676 7.33078L170.176 7.22937C170.207 7.22937 170.249 7.2505 170.249 7.27491Z" fill="#1B0C47"/>
<path fill-rule="evenodd" clip-rule="evenodd" d="M171.585 7.28461V8.16959H171.697C171.732 8.16959 171.747 8.19447 171.747 8.25034V8.27945C171.747 8.33532 171.732 8.35973 171.697 8.35973H171.585V8.6325C171.585 8.66771 171.558 8.68602 171.495 8.68602H171.442C171.379 8.68602 171.352 8.66771 171.352 8.6325V8.35973H170.759C170.73 8.35973 170.697 8.26255 170.697 8.21701C170.697 8.20668 170.697 8.1987 170.701 8.19447L171.356 7.26395C171.375 7.23907 171.408 7.23109 171.452 7.23109H171.495C171.558 7.23062 171.585 7.24987 171.585 7.28461ZM170.948 8.16959H171.354V7.59259L171.346 7.59071L170.948 8.16959Z" fill="#1B0C47"/>
<path fill-rule="evenodd" clip-rule="evenodd" d="M172.109 7.65032V7.81183C172.109 7.84704 172.078 7.86535 172.007 7.86535H171.96C171.889 7.86535 171.858 7.84657 171.858 7.81183V7.65032C171.858 7.61511 171.889 7.5968 171.96 7.5968H172.007C172.078 7.5968 172.109 7.61558 172.109 7.65032ZM172.109 8.47145V8.63249C172.109 8.6677 172.078 8.68601 172.007 8.68601H171.96C171.889 8.68601 171.858 8.6677 171.858 8.63249V8.47145C171.858 8.43624 171.889 8.41793 171.96 8.41793H172.007C172.078 8.41793 172.109 8.43624 172.109 8.47145Z" fill="#1B0C47"/>
<path fill-rule="evenodd" clip-rule="evenodd" d="M173.108 7.3156V7.35269C173.108 7.40245 173.094 7.42499 173.056 7.42499H172.62L172.595 7.79306H172.68C172.945 7.79306 173.192 7.89447 173.192 8.23954C173.192 8.59494 172.92 8.69635 172.678 8.69635C172.445 8.69635 172.281 8.62593 172.281 8.56208C172.281 8.52311 172.337 8.43203 172.371 8.43203C172.404 8.43203 172.501 8.50668 172.676 8.50668C172.83 8.50668 172.955 8.41795 172.955 8.24189C172.955 8.07663 172.851 7.9832 172.63 7.9832H172.433C172.379 7.9832 172.366 7.96067 172.366 7.9109L172.402 7.3048C172.406 7.25503 172.427 7.23438 172.479 7.23438H173.057C173.094 7.23484 173.108 7.25973 173.108 7.3156Z" fill="#1B0C47"/>
<path fill-rule="evenodd" clip-rule="evenodd" d="M174.342 7.95873C174.342 8.45263 174.134 8.69677 173.858 8.69677C173.583 8.69677 173.377 8.45263 173.377 7.95873C173.377 7.46437 173.583 7.2207 173.858 7.2207C174.134 7.2207 174.342 7.46437 174.342 7.95873ZM173.612 7.95873C173.612 8.34512 173.723 8.50662 173.858 8.50662C173.993 8.50662 174.106 8.34512 174.106 7.95873C174.106 7.57188 173.993 7.41084 173.858 7.41084C173.722 7.41084 173.612 7.57235 173.612 7.95873Z" fill="#1B0C47"/>
<path fill-rule="evenodd" clip-rule="evenodd" d="M170.469 121.739C170.469 121.78 170.416 121.879 170.382 121.879C170.353 121.879 170.282 121.813 170.128 121.813C169.97 121.813 169.894 121.89 169.894 121.995C169.894 122.13 170.012 122.169 170.15 122.223C170.328 122.293 170.537 122.376 170.537 122.657C170.537 122.944 170.328 123.081 170.071 123.081C169.796 123.081 169.615 122.977 169.615 122.916C169.615 122.87 169.68 122.773 169.713 122.773C169.744 122.773 169.854 122.874 170.048 122.874C170.175 122.874 170.287 122.808 170.287 122.673C170.287 122.527 170.129 122.479 169.969 122.413C169.806 122.345 169.642 122.264 169.642 122.003C169.642 121.747 169.854 121.604 170.119 121.604C170.28 121.604 170.469 121.666 170.469 121.739Z" fill="#1B0C47"/>
<path fill-rule="evenodd" clip-rule="evenodd" d="M171.733 121.644C171.733 121.654 171.726 121.669 171.714 121.685L171.244 122.316L171.799 123.002C171.811 123.021 171.816 123.031 171.816 123.041C171.816 123.062 171.787 123.071 171.714 123.071H171.647C171.595 123.071 171.55 123.067 171.527 123.038L171.021 122.388L171.013 122.39V123.017C171.013 123.052 170.983 123.071 170.913 123.071H170.871C170.8 123.071 170.769 123.052 170.769 123.017V121.669C170.769 121.634 170.8 121.616 170.871 121.616H170.913C170.983 121.616 171.013 121.634 171.013 121.669V122.269H171.021L171.468 121.648C171.487 121.621 171.533 121.615 171.585 121.615H171.641C171.703 121.615 171.733 121.627 171.733 121.644Z" fill="#1B0C47"/>
<path fill-rule="evenodd" clip-rule="evenodd" d="M172.205 121.669V123.017C172.205 123.052 172.176 123.07 172.105 123.07H172.064C171.993 123.07 171.962 123.051 171.962 123.017V121.669C171.962 121.633 171.993 121.615 172.064 121.615H172.105C172.176 121.615 172.205 121.633 172.205 121.669Z" fill="#1B0C47"/>
<path fill-rule="evenodd" clip-rule="evenodd" d="M173.518 122.045C173.518 122.431 173.171 122.483 173.061 122.483H172.784V123.016C172.784 123.052 172.753 123.07 172.682 123.07H172.643C172.572 123.07 172.541 123.051 172.541 123.016V121.689C172.541 121.639 172.561 121.619 172.612 121.619H173.04C173.223 121.619 173.518 121.675 173.518 122.045ZM172.784 121.826V122.275H173.048C173.13 122.275 173.269 122.238 173.269 122.045C173.269 121.865 173.136 121.826 173.032 121.826H172.784Z" fill="#1B0C47"/>
<path fill-rule="evenodd" clip-rule="evenodd" d="M221.844 121.669V123.017C221.844 123.052 221.815 123.07 221.744 123.07H221.686C221.636 123.07 221.604 123.06 221.584 123.029L220.972 122.109L220.922 122.02V123.017C220.922 123.052 220.891 123.07 220.82 123.07H220.787C220.717 123.07 220.685 123.051 220.685 123.017V121.669C220.685 121.633 220.716 121.615 220.787 121.615H220.85C220.902 121.615 220.935 121.625 220.96 121.661L221.548 122.552L221.606 122.653V121.669C221.606 121.633 221.637 121.615 221.708 121.615H221.744C221.815 121.615 221.844 121.633 221.844 121.669Z" fill="#1B0C47"/>
<path fill-rule="evenodd" clip-rule="evenodd" d="M223.054 121.7V121.745C223.054 121.801 223.039 121.826 223.003 121.826H222.433V122.223H222.943C222.978 122.223 222.993 122.246 222.993 122.303V122.349C222.993 122.405 222.978 122.429 222.943 122.429H222.433V122.859H223.005C223.041 122.859 223.055 122.884 223.055 122.94V122.985C223.055 123.041 223.041 123.066 223.005 123.066H222.26C222.21 123.066 222.19 123.046 222.19 122.996V121.689C222.19 121.639 222.21 121.619 222.26 121.619H223.003C223.039 121.619 223.054 121.644 223.054 121.7Z" fill="#1B0C47"/>
<path fill-rule="evenodd" clip-rule="evenodd" d="M224.354 121.652C224.354 121.663 224.346 121.679 224.335 121.696L223.93 122.308L224.375 122.99C224.385 123.006 224.391 123.021 224.391 123.033C224.391 123.058 224.36 123.07 224.281 123.07H224.227C224.175 123.07 224.139 123.064 224.121 123.035L223.783 122.52L223.44 123.037C223.421 123.066 223.382 123.07 223.336 123.07H223.29C223.213 123.07 223.18 123.057 223.18 123.032C223.18 123.022 223.186 123.008 223.199 122.989L223.648 122.311L223.247 121.695C223.236 121.678 223.23 121.664 223.23 121.651C223.23 121.629 223.261 121.614 223.341 121.614H223.395C223.447 121.614 223.482 121.62 223.501 121.649L223.792 122.098L224.094 121.647C224.113 121.621 224.152 121.615 224.2 121.615H224.241C224.321 121.615 224.354 121.627 224.354 121.652Z" fill="#1B0C47"/>
<path fill-rule="evenodd" clip-rule="evenodd" d="M225.532 121.7V121.745C225.532 121.801 225.517 121.826 225.482 121.826H225.116V123.017C225.116 123.052 225.087 123.07 225.014 123.07H224.974C224.903 123.07 224.872 123.052 224.872 123.017V121.826H224.502C224.466 121.826 224.452 121.801 224.452 121.745V121.7C224.452 121.644 224.467 121.619 224.502 121.619H225.481C225.518 121.619 225.532 121.644 225.532 121.7Z" fill="#1B0C47"/>
<path d="M216.254 7.27844H215.754V8.69676H216.254V7.27844Z" fill="#1B0C47"/>
<path d="M217.127 6.92395H216.628V8.6972H217.127V6.92395Z" fill="#1B0C47"/>
<path d="M218.002 6.56909H217.502V8.6968H218.002V6.56909Z" fill="#1B0C47"/>
<path d="M218.876 6.2146H218.376V8.69677H218.876V6.2146Z" fill="#1B0C47"/>
<path d="M224.418 7.2489H220.957V8.6968H224.418V7.2489Z" fill="#1B0C47"/>
<path d="M225.12 7.2489H224.79V8.6968H225.12V7.2489Z" fill="#1B0C47"/>
<path d="M192.184 123.632C192.843 123.632 193.378 123.101 193.378 122.446C193.378 121.79 192.843 121.259 192.184 121.259C191.524 121.259 190.99 121.79 190.99 122.446C190.99 123.101 191.524 123.632 192.184 123.632Z" fill="#E62F39"/>
<path d="M197.612 123.632C198.271 123.632 198.806 123.101 198.806 122.446C198.806 121.79 198.271 121.259 197.612 121.259C196.952 121.259 196.418 121.79 196.418 122.446C196.418 123.101 196.952 123.632 197.612 123.632Z" fill="#FFCA59"/>
<path fill-rule="evenodd" clip-rule="evenodd" d="M204.017 122.446C204.017 123.101 203.482 123.632 202.823 123.632C202.163 123.632 201.629 123.1 201.629 122.446C201.629 121.79 202.163 121.259 202.823 121.259C203.482 121.259 204.017 121.791 204.017 122.446Z" fill="#FFCA59"/>
<path fill-rule="evenodd" clip-rule="evenodd" d="M143.979 119.894C147.441 114.201 158.246 107.802 164.541 101.543C170.104 96.0121 171.355 89.2609 174.391 83.0403C176.697 78.3168 187.331 61.8317 195.58 67.2289C202.249 71.5923 193.863 87.4069 191.753 91.1408C187.303 99.0178 180.322 107.267 179.085 109.851C174.07 120.322 170.039 150.149 153.845 161.933C148.484 165.834 150.776 162.35 147.079 154.273C146.42 152.834 147.242 133.729 144.542 127.222C144.128 126.224 143.584 120.543 143.979 119.894Z" fill="#F69876"/>
<path fill-rule="evenodd" clip-rule="evenodd" d="M198.466 71.5726L194.879 80.79C194.466 81.8519 192.936 82.036 191.995 81.3867L184.235 76.0364C183.294 75.3871 182.884 74.0303 183.634 73.1693L189.859 66.026C191.903 63.6791 199.677 68.4603 198.466 71.5726Z" fill="#FFC0AF"/>
<g filter="url(#filter0_d_3119_4422)">
<path d="M220.354 23.7549H176.786C174.983 23.7549 173.521 25.2144 173.521 27.0148V39.9857C173.521 41.7861 174.983 43.2456 176.786 43.2456H212.901L216.625 46.642V43.2456H220.354C222.157 43.2456 223.62 41.7861 223.62 39.9857V27.0148C223.62 25.2144 222.157 23.7549 220.354 23.7549Z" fill="white"/>
<path d="M218.254 38.8136C221.158 35.9154 221.158 31.2166 218.254 28.3185C215.351 25.4204 210.644 25.4204 207.74 28.3185C204.837 31.2166 204.837 35.9154 207.74 38.8136C210.644 41.7117 215.351 41.7117 218.254 38.8136Z" fill="#686BEA"/>
<path d="M216.998 37.2774C216.848 37.2556 216.711 37.234 216.586 37.213C216.134 37.0183 215.76 36.8727 215.236 36.813C214.236 36.6988 212.92 37.2411 211.691 37.5836C210.461 37.9261 210.061 38.0973 209.203 38.1829C208.709 38.2323 208.3 38.374 208.003 38.5152L208.003 38.5145L207.979 38.5243C207.977 38.5255 207.83 38.5883 207.645 38.7153C208.997 40.1157 210.895 40.9871 212.998 40.9871C215.505 40.9871 217.721 39.7488 219.068 37.8516C218.317 37.5927 217.557 37.3584 216.998 37.2774Z" fill="#F94A3D"/>
<path d="M216.915 29.198C217.01 29.2967 217.315 29.7829 217.188 30.4909C216.855 32.3417 217.359 31.7515 217.113 32.7888C216.707 34.4961 215.467 34.4125 215.379 33.9184C215.291 33.4243 215.493 31.7652 215.666 31.5667C215.84 31.3682 216.915 29.198 216.915 29.198Z" fill="#1E1735"/>
<path d="M216.289 32.4261C216.289 32.4261 216.23 33.6919 216.27 34.2663C216.396 36.087 216.8 37.2915 216.789 37.663C216.769 38.366 216.39 38.5719 216.096 38.7668C215.206 39.3579 213.381 39.5424 212.806 38.8665C212.605 38.631 212.56 38.4017 212.515 38.191C212.471 37.9803 212.164 36.5779 212.232 36.3855C212.3 36.193 213.975 33.3186 214.376 33.0922C214.776 32.8657 216.289 32.4261 216.289 32.4261Z" fill="#EC7D40"/>
<path d="M211.814 27.9141C210.912 28.2261 210.261 29.0168 210.117 29.959C210.035 30.4922 209.969 31.1296 210.049 31.4707C210.238 32.2853 210.105 32.5694 210.158 33.0496C210.211 33.5298 210.47 34.2459 210.69 34.8839C210.91 35.5219 211.296 36.3794 211.878 36.7615C212.459 37.1436 212.887 37.0444 213.094 37.016C214.049 36.8849 215.564 35.5209 215.73 35.1225C215.897 34.7241 215.888 33.6532 215.894 33.3592C215.899 33.0653 215.915 32.0307 216.015 31.5123C216.116 30.9939 216.27 28.9859 214.679 28.2069C214.34 28.0407 212.724 27.6091 211.858 27.8989C211.843 27.904 211.828 27.909 211.814 27.9141Z" fill="#F79556"/>
<path d="M211.556 32.3174C211.553 32.3622 211.41 32.4872 211.006 32.4594C210.826 32.447 210.65 32.3899 210.656 32.3004C210.662 32.2148 210.788 32.0653 210.944 32.0503C211.216 32.0241 211.563 32.2279 211.556 32.3174Z" fill="#E6E6E6"/>
<path d="M210.799 32.2591C210.79 32.4027 210.9 32.5263 211.043 32.5351C211.187 32.544 211.311 32.4348 211.32 32.2912C211.329 32.1477 211.219 32.0241 211.076 32.0153C210.932 32.0064 210.808 32.1156 210.799 32.2591Z" fill="#1E1735"/>
<path d="M214.234 32.2462C214.234 32.2944 214.088 32.4383 213.653 32.4353C213.459 32.434 213.266 32.3844 213.267 32.2878C213.267 32.1955 213.392 32.0267 213.559 32.0001C213.849 31.9538 214.235 32.1496 214.234 32.2462Z" fill="#E6E6E6"/>
<path d="M213.969 32.198C213.988 32.3437 213.884 32.4769 213.738 32.4955C213.592 32.5142 213.459 32.4113 213.44 32.2656C213.422 32.1198 213.525 31.9867 213.671 31.968C213.817 31.9493 213.95 32.0523 213.969 32.198Z" fill="#1E1735"/>
<path d="M213.468 35.2255C213.49 35.1952 213.472 35.153 213.435 35.1475C213.277 35.1238 212.891 35.0746 212.447 35.0807C212.143 35.0849 211.854 35.1382 211.734 35.1632C211.702 35.1698 211.685 35.2041 211.699 35.2334C211.77 35.3849 212.007 35.7835 212.549 35.7706C213.036 35.759 213.357 35.381 213.468 35.2255Z" fill="#D66730"/>
<path d="M211.718 31.5226C211.638 31.5463 211.564 31.5542 211.493 31.559C211.422 31.5631 211.353 31.5615 211.286 31.5561C211.253 31.5533 211.221 31.5489 211.189 31.5421C211.157 31.5355 211.125 31.526 211.094 31.5159C211.032 31.4949 210.97 31.4723 210.908 31.4625C210.892 31.4599 210.876 31.4573 210.861 31.4554C210.846 31.4532 210.831 31.4518 210.816 31.4504C210.786 31.4479 210.756 31.446 210.728 31.4474L210.718 31.4475L210.708 31.4482L210.698 31.449C210.694 31.4492 210.691 31.4493 210.687 31.4501L210.64 31.458C210.608 31.4641 210.577 31.4706 210.546 31.4795C210.483 31.4965 210.422 31.5195 210.362 31.5481C210.332 31.5628 210.303 31.5785 210.274 31.5966C210.246 31.614 210.218 31.6341 210.193 31.6551L210.166 31.6352C210.201 31.5701 210.248 31.5146 210.301 31.4629C210.354 31.4115 210.414 31.3662 210.477 31.3269C210.509 31.307 210.543 31.2896 210.577 31.2726L210.628 31.2492C210.632 31.2472 210.638 31.2455 210.643 31.2436L210.658 31.2382L210.673 31.2328L210.688 31.2285C210.769 31.2057 210.846 31.1985 210.922 31.1952L211.036 31.1908C211.073 31.1895 211.111 31.1881 211.148 31.189C211.185 31.1899 211.222 31.1933 211.258 31.2002C211.294 31.207 211.329 31.2173 211.363 31.2302C211.431 31.2563 211.496 31.2893 211.558 31.3314C211.589 31.3527 211.619 31.3755 211.648 31.4017C211.677 31.4279 211.704 31.456 211.729 31.4909L211.718 31.5226Z" fill="#1E1735"/>
<path d="M212.849 31.4279C212.863 31.4086 212.878 31.3908 212.893 31.3744C212.909 31.3576 212.925 31.3424 212.941 31.3272C212.973 31.2974 213.007 31.2705 213.042 31.2455C213.077 31.2203 213.113 31.1985 213.15 31.1775C213.187 31.1576 213.224 31.1381 213.263 31.122C213.283 31.1138 213.302 31.1061 213.322 31.099C213.342 31.0921 213.362 31.0864 213.382 31.0811C213.403 31.0759 213.423 31.0711 213.444 31.0676C213.465 31.0641 213.486 31.0614 213.507 31.0588C213.549 31.0538 213.592 31.0524 213.634 31.0494C213.656 31.0475 213.677 31.0473 213.699 31.0462C213.72 31.0452 213.741 31.0437 213.762 31.0421C213.784 31.0408 213.805 31.0404 213.827 31.0397C213.848 31.0392 213.869 31.0377 213.891 31.0382L213.956 31.04L213.988 31.041L214.021 31.0441L214.087 31.0511C214.097 31.0521 214.109 31.0545 214.119 31.0562C214.13 31.0581 214.141 31.0598 214.152 31.0619C214.196 31.0716 214.239 31.082 214.28 31.0969C214.291 31.1004 214.301 31.1042 214.312 31.1084L214.342 31.1208C214.362 31.1301 214.383 31.1387 214.402 31.1492C214.441 31.1692 214.478 31.1915 214.512 31.217C214.547 31.242 214.58 31.2688 214.61 31.2972C214.641 31.3259 214.67 31.3552 214.697 31.3859L214.676 31.4119C214.641 31.3922 214.606 31.3726 214.57 31.3555C214.535 31.3377 214.499 31.3222 214.462 31.3092C214.445 31.3025 214.426 31.2971 214.408 31.2911C214.39 31.286 214.372 31.2807 214.353 31.2769C214.335 31.2724 214.317 31.2696 214.299 31.2664L214.271 31.2629C214.262 31.2615 214.253 31.2607 214.243 31.2601C214.17 31.2535 214.097 31.2562 214.023 31.2665L213.995 31.2693L213.967 31.2741L213.912 31.2834C213.893 31.2862 213.875 31.2911 213.856 31.2948C213.838 31.2989 213.819 31.3025 213.801 31.3071C213.763 31.317 213.727 31.3273 213.69 31.3405L213.636 31.3607C213.618 31.3671 213.6 31.3741 213.582 31.3815C213.564 31.3884 213.546 31.3949 213.527 31.4008C213.509 31.4066 213.491 31.4129 213.472 31.4179C213.454 31.4231 213.435 31.4273 213.416 31.4315C213.397 31.4358 213.378 31.4395 213.359 31.4426C213.32 31.4483 213.281 31.4549 213.242 31.4587C213.202 31.4635 213.162 31.4663 213.121 31.4686C213.08 31.4702 213.038 31.4714 212.995 31.47C212.952 31.4686 212.908 31.4662 212.862 31.4587L212.849 31.4279Z" fill="#1E1735"/>
<path d="M211.862 28.846C211.642 29.1107 211.606 29.2405 211.325 29.325C210.262 29.6449 210.144 30.202 210.076 30.556C209.978 31.0708 210.272 32.5013 210.151 32.4828C210.03 32.4644 209.868 32.2729 209.897 31.6834C209.92 31.2034 209.523 31.0085 209.504 30.7013C209.486 30.3942 209.538 29.3275 209.774 28.8556C210.009 28.3838 210.368 27.7852 210.882 27.585C211.395 27.3849 211.219 27.2789 211.724 27.1247C212.311 26.9452 212.632 27.0588 212.684 27.2963C212.745 27.5746 212.122 28.5347 211.862 28.846Z" fill="#1E1735"/>
<path d="M214.378 32.3365C214.359 32.3132 214.338 32.2906 214.316 32.2698C214.294 32.2487 214.271 32.2287 214.247 32.2102C214.2 32.1731 214.15 32.141 214.097 32.1165C214.084 32.1099 214.07 32.1048 214.057 32.099C214.044 32.0942 214.031 32.0885 214.017 32.0847C213.99 32.0754 213.962 32.0694 213.935 32.0641C213.88 32.0543 213.825 32.0524 213.77 32.0579C213.716 32.0632 213.663 32.0806 213.612 32.1022C213.561 32.1234 213.512 32.1431 213.463 32.1637C213.414 32.1846 213.366 32.2089 213.319 32.2388C213.295 32.2534 213.272 32.2701 213.248 32.2883C213.224 32.3065 213.201 32.3265 213.177 32.3494L213.158 32.343C213.155 32.3075 213.161 32.2723 213.171 32.2385C213.181 32.2047 213.196 32.1722 213.215 32.1421C213.252 32.0814 213.304 32.029 213.363 31.9891C213.423 31.9488 213.49 31.9233 213.558 31.911C213.626 31.898 213.697 31.8951 213.767 31.8975C213.836 31.9001 213.905 31.9127 213.97 31.9355C214.035 31.9591 214.095 31.9911 214.149 32.0308C214.176 32.0503 214.201 32.0719 214.225 32.0943C214.249 32.1168 214.271 32.1404 214.291 32.1654C214.332 32.2154 214.368 32.2683 214.395 32.3265L214.378 32.3365Z" fill="#1E1735"/>
<path d="M210.532 32.386C210.532 32.3688 210.534 32.3526 210.538 32.3366C210.541 32.3205 210.545 32.3049 210.551 32.2894C210.561 32.2585 210.576 32.229 210.594 32.2011C210.629 32.1454 210.676 32.096 210.733 32.0577C210.789 32.0194 210.855 31.9946 210.923 31.9866C210.956 31.9821 210.99 31.9816 211.023 31.9819C211.057 31.9825 211.089 31.9854 211.121 31.9889C211.249 32.0034 211.372 32.0476 211.475 32.1196C211.526 32.1557 211.572 32.1983 211.611 32.2463C211.63 32.2703 211.647 32.2956 211.662 32.3215C211.677 32.3478 211.69 32.3748 211.701 32.4024L211.684 32.4121C211.614 32.3198 211.525 32.2487 211.425 32.2068C211.376 32.1852 211.324 32.1705 211.271 32.1611C211.219 32.1515 211.166 32.1474 211.114 32.1492C211.088 32.15 211.062 32.1535 211.038 32.1588C211.013 32.1649 210.989 32.1716 210.966 32.1804C210.943 32.1888 210.921 32.1973 210.898 32.2061C210.876 32.2149 210.854 32.2234 210.831 32.2327C210.787 32.2513 210.741 32.2735 210.695 32.3005C210.649 32.3273 210.602 32.3588 210.55 32.3946L210.532 32.386Z" fill="#1E1735"/>
<path d="M215.605 33.5464C215.636 33.5778 215.713 33.7181 215.844 33.7492C215.974 33.7803 216.169 33.8411 216.433 33.4655C216.696 33.09 216.813 32.244 216.777 32.017C216.777 32.017 216.727 31.4698 216.416 31.4839C216.104 31.4981 215.621 32.8101 215.621 32.8101L215.605 33.5464Z" fill="#F79556"/>
<path d="M211.718 29.1185C211.868 29.3744 212.181 29.4421 212.635 29.3458C213.09 29.2495 213.378 29.2627 213.685 29.4625C214.209 29.8047 214.054 30.1782 214.862 30.9298C215.205 31.2494 215.394 31.4899 215.443 32.1517C215.478 32.6335 215.434 32.7207 215.458 32.9431C215.479 33.1402 215.828 33.2874 215.948 32.9103C216.068 32.5332 216.058 32.36 216.267 31.8853C216.372 31.6464 216.439 31.4917 216.732 31.4526C216.985 31.4186 217.233 30.5786 217.169 29.901C217.09 29.0688 216.893 28.7437 216.223 28.2304C215.554 27.7172 215.568 27.8352 215.115 27.4149C214.662 26.9947 213.274 26.6395 212.651 27.2794C211.413 28.5495 211.718 29.1185 211.718 29.1185Z" fill="#1E1735"/>
<path d="M213.698 35.0725C213.666 35.0995 213.632 35.1236 213.597 35.1469C213.562 35.1699 213.526 35.191 213.49 35.2116C213.417 35.2519 213.34 35.2872 213.262 35.3181C213.184 35.3485 213.103 35.3741 213.021 35.3951C212.939 35.4152 212.856 35.4317 212.772 35.442C212.751 35.4454 212.73 35.4473 212.709 35.4496C212.687 35.4518 212.666 35.455 212.645 35.4564L212.581 35.462C212.56 35.4634 212.539 35.4641 212.518 35.4652L212.485 35.4662L212.454 35.4658C212.432 35.4653 212.411 35.4647 212.39 35.4635C212.368 35.4616 212.347 35.4593 212.326 35.4568L212.294 35.4527L212.263 35.4471L212.2 35.4346C212.18 35.4298 212.159 35.4244 212.138 35.4188C212.097 35.4084 212.057 35.3946 212.017 35.3802C211.997 35.3734 211.977 35.3653 211.958 35.3567C211.938 35.3483 211.919 35.3396 211.9 35.3307C211.881 35.3219 211.862 35.3112 211.843 35.301C211.825 35.2907 211.806 35.2798 211.788 35.2683L211.793 35.2533C211.836 35.2538 211.878 35.258 211.919 35.2614C211.94 35.2628 211.96 35.2644 211.981 35.2664C211.991 35.2673 212.001 35.2684 212.011 35.2694C212.021 35.2704 212.032 35.2708 212.042 35.2718C212.062 35.2734 212.082 35.275 212.102 35.2771L212.117 35.2786L212.133 35.2797L212.163 35.2819C212.183 35.2833 212.203 35.2858 212.223 35.2869L212.283 35.291L212.313 35.2934L212.342 35.2951C212.362 35.2965 212.382 35.298 212.402 35.3C212.422 35.3012 212.442 35.3027 212.461 35.3044L212.491 35.3073L212.521 35.3094C212.601 35.3169 212.681 35.3199 212.761 35.3166C212.841 35.3137 212.921 35.3049 213 35.2925C213.08 35.2807 213.159 35.2645 213.237 35.2433C213.316 35.2227 213.393 35.1969 213.469 35.1669C213.506 35.1518 213.544 35.1356 213.581 35.1178C213.618 35.1002 213.654 35.0812 213.689 35.0598L213.698 35.0725Z" fill="#913B1D"/>
<path d="M196.091 38.4653C196.091 38.8571 195.773 39.1746 195.38 39.1746C194.988 39.1746 194.67 38.857 194.67 38.4653C194.67 38.0736 194.988 37.756 195.38 37.756C195.773 37.7561 196.091 38.0736 196.091 38.4653Z" fill="#E2E3FF"/>
<path d="M199.038 38.4653C199.038 38.8571 198.72 39.1746 198.327 39.1746C197.935 39.1746 197.617 38.857 197.617 38.4653C197.617 38.0736 197.935 37.756 198.327 37.756C198.72 37.7561 199.038 38.0736 199.038 38.4653Z" fill="#E2E3FF"/>
<path d="M201.985 38.4653C201.985 38.8571 201.666 39.1746 201.274 39.1746C200.882 39.1746 200.563 38.857 200.563 38.4653C200.563 38.0736 200.882 37.756 201.274 37.756C201.666 37.7561 201.985 38.0736 201.985 38.4653Z" fill="#E2E3FF"/>
<path d="M201.271 35.7788H177.458C177.063 35.7788 176.744 35.4599 176.744 35.0663C176.744 34.6729 177.063 34.3539 177.458 34.3539H201.271C201.665 34.3539 201.985 34.6728 201.985 35.0663C201.985 35.4599 201.665 35.7788 201.271 35.7788Z" fill="#E2E3FF"/>
<path d="M191.89 39.1821H177.458C177.063 39.1821 176.744 38.8631 176.744 38.4696C176.744 38.0761 177.063 37.7572 177.458 37.7572H191.89C192.285 37.7572 192.604 38.0762 192.604 38.4696C192.604 38.8632 192.285 39.1821 191.89 39.1821Z" fill="#E2E3FF"/>
<path d="M179.449 27.9496L180.16 29.3869L181.748 29.6173L180.599 30.736L180.87 32.3157L179.449 31.5699L178.028 32.3157L178.299 30.736L177.149 29.6173L178.738 29.3869L179.449 27.9496Z" fill="#F94A3D"/>
<path d="M184.407 27.9496L185.117 29.3869L186.706 29.6173L185.556 30.736L185.828 32.3157L184.407 31.5699L182.985 32.3157L183.257 30.736L182.107 29.6173L183.696 29.3869L184.407 27.9496Z" fill="#F94A3D"/>
<path d="M189.364 27.9496L190.075 29.3869L191.664 29.6173L190.514 30.736L190.785 32.3157L189.364 31.5699L187.943 32.3157L188.214 30.736L187.065 29.6173L188.654 29.3869L189.364 27.9496Z" fill="#F94A3D"/>
<path d="M194.322 27.9496L195.032 29.3869L196.621 29.6173L195.472 30.736L195.743 32.3157L194.322 31.5699L192.901 32.3157L193.172 30.736L192.022 29.6173L193.611 29.3869L194.322 27.9496Z" fill="#F94A3D"/>
<path d="M199.28 27.9496L199.99 29.3869L201.579 29.6173L200.429 30.736L200.701 32.3157L199.28 31.5699L197.858 32.3157L198.13 30.736L196.98 29.6173L198.569 29.3869L199.28 27.9496Z" fill="#F94A3D"/>
</g>
<g filter="url(#filter1_d_3119_4422)">
<path d="M173.733 50.8367H200.727C201.844 50.8367 202.75 51.7409 202.75 52.8564V60.893C202.75 62.0084 201.844 62.9127 200.727 62.9127H178.35L176.043 65.0171V62.9127H173.733C172.616 62.9127 171.71 62.0085 171.71 60.893V52.8564C171.71 51.7409 172.616 50.8367 173.733 50.8367Z" fill="white"/>
<path d="M196.455 60.331C196.698 60.331 196.895 60.1343 196.895 59.8916C196.895 59.6489 196.698 59.4521 196.455 59.4521C196.212 59.4521 196.015 59.6489 196.015 59.8916C196.015 60.1343 196.212 60.331 196.455 60.331Z" fill="#E2E3FF"/>
<path d="M198.281 60.331C198.524 60.331 198.721 60.1343 198.721 59.8916C198.721 59.6489 198.524 59.4521 198.281 59.4521C198.037 59.4521 197.84 59.6489 197.84 59.8916C197.84 60.1343 198.037 60.331 198.281 60.331Z" fill="#E2E3FF"/>
<path d="M200.107 60.331C200.35 60.331 200.547 60.1343 200.547 59.8916C200.547 59.6489 200.35 59.4521 200.107 59.4521C199.863 59.4521 199.666 59.6489 199.666 59.8916C199.666 60.1343 199.863 60.331 200.107 60.331Z" fill="#E2E3FF"/>
<path d="M200.104 58.227H185.35C185.106 58.227 184.908 58.0294 184.908 57.7856C184.908 57.5418 185.106 57.3442 185.35 57.3442H200.104C200.349 57.3442 200.547 57.5419 200.547 57.7856C200.547 58.0294 200.349 58.227 200.104 58.227Z" fill="#E2E3FF"/>
<path d="M194.293 60.3357H185.35C185.106 60.3357 184.908 60.1381 184.908 59.8943C184.908 59.6505 185.106 59.4529 185.35 59.4529H194.293C194.537 59.4529 194.735 59.6505 194.735 59.8943C194.735 60.1381 194.537 60.3357 194.293 60.3357Z" fill="#E2E3FF"/>
<path d="M186.584 53.3762L187.024 54.2667L188.009 54.4095L187.296 55.1026L187.465 56.0814L186.584 55.6192L185.703 56.0814L185.872 55.1026L185.159 54.4095L186.144 54.2667L186.584 53.3762Z" fill="#ED1C24"/>
<path d="M189.656 53.3762L190.096 54.2667L191.08 54.4095L190.368 55.1026L190.536 56.0814L189.656 55.6192L188.775 56.0814L188.943 55.1026L188.231 54.4095L189.215 54.2667L189.656 53.3762Z" fill="#ED1C24"/>
<path d="M192.727 53.3762L193.168 54.2667L194.152 54.4095L193.44 55.1026L193.608 56.0814L192.727 55.6192L191.847 56.0814L192.015 55.1026L191.303 54.4095L192.287 54.2667L192.727 53.3762Z" fill="#ED1C24"/>
<path d="M195.799 53.3762L196.239 54.2667L197.224 54.4095L196.511 55.1026L196.68 56.0814L195.799 55.6192L194.918 56.0814L195.087 55.1026L194.374 54.4095L195.359 54.2667L195.799 53.3762Z" fill="#FFBCBF"/>
<path d="M198.871 53.3762L199.311 54.2667L200.295 54.4095L199.583 55.1026L199.751 56.0814L198.871 55.6192L197.99 56.0814L198.158 55.1026L197.446 54.4095L198.43 54.2667L198.871 53.3762Z" fill="#FFBCBF"/>
<path d="M178.636 61.4384C181.171 61.4384 183.227 59.3868 183.227 56.856C183.227 54.3252 181.171 52.2736 178.636 52.2736C176.1 52.2736 174.045 54.3252 174.045 56.856C174.045 59.3868 176.1 61.4384 178.636 61.4384Z" fill="#686BEA"/>
<path d="M181.945 60.032C181.678 59.8481 181.424 59.787 181.424 59.787C181.423 59.7878 181.422 59.7889 181.422 59.7898C181.267 59.7214 180.99 59.642 180.418 59.5014C179.206 59.2033 178.974 58.848 178.194 58.826C177.705 58.8122 177.487 58.8758 176.658 59.1179C176.145 59.2678 175.531 59.434 174.934 59.5666C175.77 60.7016 177.117 61.4385 178.636 61.4385C179.936 61.4385 181.11 60.8989 181.945 60.032Z" fill="#ED1C24"/>
<path d="M180.73 55.6896C180.633 55.0678 180.49 54.1508 179.766 53.5847C179.459 53.3447 178.683 52.918 178.108 53.0488C178.032 53.0662 177.994 53.1224 177.888 53.1442C177.711 53.1809 177.596 53.0821 177.167 53.331C176.099 53.9515 176.21 54.7338 175.949 55.246C175.568 55.9938 175.164 56.2601 174.957 56.7623C174.858 57.0037 174.769 57.2844 174.73 57.5998C175.717 58.5282 177.447 59.3166 180.355 58.5105C180.487 58.2028 180.567 57.9187 180.626 57.7134C180.674 57.5433 180.893 56.7311 180.73 55.6896Z" fill="#1E1735"/>
<path d="M178.869 57.1839C178.882 57.2588 178.844 58.3326 178.857 58.907C178.869 59.4813 178.512 59.9372 177.899 60.0495C177.286 60.1619 176.805 59.8484 176.73 59.5188C176.688 59.3325 176.846 57.8707 176.684 56.9218C176.521 55.9729 176.743 55.8605 176.831 55.8605C176.918 55.8604 178.869 57.1839 178.869 57.1839Z" fill="#EC7D40"/>
<path d="M179.861 54.3121C180.179 54.9212 180.144 55.9748 180.095 56.1999C180.046 56.425 180.015 56.3941 180.05 56.5207C180.084 56.6473 180.037 57.0085 179.858 57.4432C179.68 57.878 179.282 58.4468 179.095 58.559C178.909 58.6713 178.698 58.7342 178.429 58.6911C178.161 58.648 177.554 58.2812 177.209 57.7147C176.937 57.2699 176.737 56.9044 176.734 56.6162C176.73 56.328 176.511 55.4039 176.8 54.8759C177.089 54.3478 177.308 53.9281 178.066 53.7283C178.264 53.676 179.279 53.1964 179.861 54.3121Z" fill="#F79556"/>
<path d="M179.514 55.9137C179.534 55.8663 179.565 55.8274 179.601 55.794C179.637 55.7602 179.679 55.7327 179.724 55.7111C179.814 55.6667 179.921 55.6697 180.018 55.6825C180.043 55.686 180.067 55.6887 180.091 55.6952L180.127 55.7037C180.139 55.7073 180.152 55.7119 180.165 55.7161C180.214 55.7362 180.255 55.7659 180.291 55.7985C180.362 55.865 180.409 55.9449 180.458 56.0173L180.447 56.0296C180.409 56.0012 180.378 55.9692 180.344 55.9409C180.311 55.9125 180.276 55.8866 180.24 55.8664C180.204 55.8455 180.167 55.8302 180.131 55.8239L180.104 55.82L180.073 55.8182C180.053 55.8161 180.033 55.8177 180.013 55.8181C179.993 55.8184 179.973 55.8227 179.953 55.8255C179.933 55.8308 179.914 55.8344 179.895 55.8411C179.857 55.852 179.82 55.8632 179.781 55.8711L179.659 55.8985C179.617 55.9083 179.574 55.9184 179.524 55.9269L179.514 55.9137Z" fill="#1E1735"/>
<path d="M177.649 55.5668C177.742 55.5018 177.849 55.4566 177.962 55.4257C178.075 55.3958 178.197 55.3885 178.318 55.4055C178.349 55.4088 178.379 55.4161 178.409 55.4205C178.44 55.4272 178.47 55.4351 178.5 55.4431C178.56 55.4617 178.616 55.4926 178.663 55.5336C178.757 55.6157 178.828 55.7246 178.841 55.8515L178.823 55.8639C178.711 55.809 178.625 55.7578 178.537 55.7137C178.494 55.6915 178.453 55.6679 178.412 55.642C178.391 55.6299 178.37 55.6171 178.348 55.6054C178.326 55.5955 178.303 55.5843 178.28 55.577C178.232 55.5622 178.183 55.5492 178.133 55.5438C178.082 55.5358 178.03 55.533 177.978 55.5344C177.872 55.5345 177.765 55.5544 177.659 55.5864L177.649 55.5668Z" fill="#1E1735"/>
<path d="M178.021 56.1449C178.021 56.174 178.11 56.2601 178.372 56.2567C178.488 56.2552 178.605 56.2246 178.604 56.1665C178.603 56.1109 178.527 56.0097 178.427 55.9943C178.252 55.9676 178.02 56.0868 178.021 56.1449Z" fill="#E6E6E6"/>
<path d="M178.251 56.0485C178.316 55.8968 178.588 55.9567 178.528 56.1627C178.468 56.3689 178.148 56.2922 178.251 56.0485Z" fill="#1E1735"/>
<path d="M179.547 56.313C179.547 56.3414 179.621 56.4257 179.839 56.4229C179.936 56.4217 179.982 56.3733 179.981 56.3165C179.981 56.2621 179.967 56.1818 179.884 56.1666C179.738 56.1401 179.546 56.2562 179.547 56.313Z" fill="#E6E6E6"/>
<path d="M179.714 56.271C179.768 56.1432 179.998 56.1936 179.947 56.3672C179.896 56.541 179.626 56.4763 179.714 56.271Z" fill="#1E1735"/>
<path d="M178.593 56.1996C178.587 56.1598 178.575 56.1235 178.557 56.0985C178.539 56.0733 178.516 56.0631 178.49 56.0582C178.477 56.0555 178.463 56.0551 178.448 56.0549C178.44 56.0548 178.432 56.0554 178.425 56.056C178.417 56.0565 178.408 56.0575 178.399 56.0582C178.365 56.0619 178.33 56.067 178.295 56.0728C178.224 56.0847 178.151 56.0977 178.077 56.1087C178.002 56.1194 177.927 56.1292 177.845 56.1292C177.875 56.1013 177.908 56.0791 177.942 56.0584C177.976 56.038 178.011 56.0202 178.047 56.0045C178.118 55.9731 178.194 55.9499 178.273 55.9375C178.313 55.9313 178.354 55.9281 178.396 55.9293C178.407 55.9297 178.417 55.9304 178.428 55.9314C178.439 55.9326 178.45 55.9341 178.462 55.9365C178.484 55.9408 178.507 55.9484 178.53 55.9596C178.552 55.9713 178.573 55.9874 178.589 56.0082C178.605 56.0285 178.615 56.0528 178.619 56.0759C178.623 56.0993 178.622 56.1218 178.617 56.1426C178.612 56.1633 178.604 56.1827 178.593 56.1996Z" fill="#1E1735"/>
<path d="M180.02 56.361C180.012 56.327 180 56.297 179.984 56.2778C179.975 56.2683 179.966 56.2619 179.957 56.2579C179.948 56.2541 179.939 56.2516 179.928 56.2507C179.918 56.2493 179.906 56.2497 179.894 56.2504C179.888 56.2506 179.881 56.2513 179.875 56.2521C179.869 56.2528 179.861 56.2539 179.854 56.2548C179.826 56.2589 179.797 56.2641 179.767 56.2697C179.708 56.2809 179.647 56.293 179.584 56.3021C179.521 56.3111 179.456 56.3188 179.385 56.3162C179.409 56.2898 179.437 56.2689 179.464 56.2494C179.492 56.2302 179.521 56.2135 179.551 56.1986C179.611 56.1689 179.675 56.1472 179.743 56.1349C179.776 56.1289 179.811 56.1255 179.848 56.126C179.857 56.1262 179.866 56.1268 179.875 56.1275C179.885 56.1285 179.895 56.1295 179.905 56.1315C179.925 56.1352 179.945 56.1416 179.965 56.1513C179.985 56.1615 180.004 56.1756 180.018 56.194C180.033 56.212 180.041 56.2336 180.045 56.2539C180.048 56.2744 180.047 56.2941 180.043 56.312C180.038 56.3299 180.031 56.3466 180.02 56.361Z" fill="#1E1735"/>
<path d="M177.974 53.4824C177.974 53.4824 177.994 53.4889 178.014 53.4992C178.14 53.5648 178.256 53.8042 178.284 54.1015C178.298 54.2481 178.293 54.3555 178.268 54.4924C178.152 55.1413 177.35 55.1518 177.094 55.7734C176.878 56.2981 176.691 56.0079 176.633 55.7937C176.385 54.8702 176.312 54.1487 177.62 53.5132C177.702 53.4731 177.882 53.4532 177.974 53.4824Z" fill="#1E1735"/>
<path d="M178.165 53.4936C178.298 53.4393 179.127 53.1661 179.952 54.0734C180.413 54.5806 180.339 55.2922 180.316 55.5619C180.298 55.7725 180.155 55.9022 180.13 55.9032C180.085 55.905 180.404 55.1356 178.825 54.6482C178.376 54.5098 178.222 54.2048 178.187 54.1674C178.065 54.0395 177.895 53.782 177.987 53.618C178.025 53.5509 178.093 53.523 178.165 53.4936Z" fill="#1E1735"/>
<path d="M178.271 57.7895C178.26 57.7715 178.272 57.7481 178.293 57.7462C178.384 57.7382 178.605 57.7237 178.857 57.7425C179.029 57.7554 179.192 57.7957 179.259 57.814C179.277 57.8189 179.285 57.8389 179.277 57.8551C179.231 57.9388 179.083 58.1571 178.775 58.1311C178.498 58.1076 178.329 57.8816 178.271 57.7895Z" fill="#D65B5B"/>
<path d="M176.874 56.0072C176.829 55.9229 176.709 55.7949 176.506 55.9002C176.344 55.9845 176.325 56.2247 176.371 56.5123C176.417 56.7999 176.613 57.137 176.777 57.1844C176.942 57.2319 176.943 57.1211 176.975 56.9776C177.007 56.8341 176.989 56.2205 176.874 56.0072Z" fill="#F79556"/>
<path d="M180.755 56.7514C180.754 56.7887 180.753 56.826 180.752 56.8633C180.748 56.9379 180.744 57.0125 180.736 57.0867C180.724 57.2354 180.704 57.3835 180.678 57.5299C180.665 57.6032 180.65 57.676 180.633 57.7479L180.62 57.8018L180.606 57.8573L180.577 57.9674C180.539 58.1137 180.497 58.2578 180.45 58.4001C180.438 58.4355 180.426 58.4708 180.414 58.506C180.499 58.4807 180.585 58.4541 180.671 58.4259C180.72 58.2949 180.763 58.1623 180.801 58.0293C180.812 57.9921 180.823 57.955 180.833 57.9179L180.849 57.8624L180.864 57.8051C180.884 57.7284 180.901 57.6515 180.916 57.5744C180.945 57.4199 180.966 57.2643 180.98 57.1082C181.008 56.7959 181.003 56.4811 180.971 56.1697L180.956 56.0533C180.951 56.0145 180.946 55.9757 180.939 55.9371C180.926 55.86 180.913 55.7822 180.897 55.7076C180.868 55.5568 180.835 55.405 180.795 55.2544C180.715 54.9537 180.608 54.6552 180.444 54.3865C180.365 54.2516 180.268 54.1265 180.162 54.0127C180.057 53.8977 179.933 53.802 179.805 53.717L179.888 53.7973C179.901 53.8106 179.915 53.8236 179.929 53.8372L179.966 53.8802C179.991 53.9089 180.017 53.9363 180.041 53.9655L180.11 54.0559C180.197 54.1789 180.278 54.306 180.339 54.4431C180.468 54.7135 180.549 55.0034 180.608 55.2978C180.638 55.4454 180.662 55.5944 180.685 55.745C180.698 55.8208 180.706 55.8947 180.717 55.9687C180.722 56.0057 180.726 56.0429 180.729 56.0801L180.74 56.1917C180.75 56.3408 180.759 56.4901 180.757 56.6395C180.757 56.6767 180.757 56.714 180.755 56.7514Z" fill="#1E1735"/>
<path d="M177.64 53.1268C177.551 53.1266 177.462 53.1444 177.377 53.1706C177.292 53.1968 177.211 53.2326 177.131 53.2708L177.014 53.3324C176.975 53.353 176.935 53.3726 176.898 53.3976L176.786 53.4697C176.767 53.4811 176.749 53.4949 176.732 53.5086L176.678 53.5497C176.605 53.6018 176.543 53.6669 176.476 53.7279C176.351 53.8587 176.244 54.0075 176.159 54.1676C176.138 54.2079 176.116 54.2477 176.099 54.2891C176.081 54.3303 176.061 54.3712 176.046 54.4128C176.013 54.4959 175.984 54.5797 175.956 54.6621C175.9 54.8268 175.851 54.9893 175.776 55.1274C175.772 55.1362 175.768 55.1449 175.763 55.1538L175.747 55.181L175.715 55.2355C175.694 55.2722 175.672 55.3077 175.649 55.3431L175.615 55.3964L175.58 55.4487C175.556 55.4835 175.533 55.5185 175.507 55.5522C175.41 55.6896 175.303 55.8208 175.192 55.9528C175.082 56.0853 174.967 56.2206 174.865 56.3718C174.816 56.4483 174.768 56.5274 174.728 56.6116C174.719 56.6324 174.708 56.6536 174.699 56.6741L174.673 56.7355C174.656 56.7765 174.64 56.8183 174.624 56.8599C174.565 57.0184 174.516 57.1815 174.483 57.3479C174.54 57.4108 174.6 57.4736 174.664 57.536C174.671 57.4973 174.679 57.4588 174.688 57.4205C174.726 57.2583 174.778 57.099 174.84 56.9436C174.856 56.9048 174.872 56.8662 174.889 56.8277L174.915 56.7701C174.924 56.7509 174.933 56.7339 174.942 56.7155C174.977 56.6432 175.02 56.5745 175.066 56.5067C175.159 56.3717 175.268 56.2425 175.381 56.1093C175.492 55.9756 175.603 55.8372 175.705 55.6916C175.731 55.6555 175.755 55.6182 175.78 55.581L175.816 55.5251L175.851 55.4681C175.874 55.4302 175.897 55.3923 175.919 55.3533L175.951 55.2952L175.967 55.2661C175.973 55.2559 175.978 55.2449 175.983 55.2344C176.067 55.0639 176.114 54.8915 176.162 54.7269C176.211 54.5621 176.261 54.4029 176.332 54.2532C176.401 54.1035 176.49 53.964 176.595 53.836C176.652 53.7758 176.706 53.7116 176.77 53.6576L176.817 53.6152C176.832 53.6009 176.848 53.5866 176.865 53.5744L176.965 53.4971C176.998 53.4699 177.034 53.4475 177.07 53.4242L177.176 53.3539C177.249 53.3095 177.324 53.2688 177.401 53.234C177.478 53.1997 177.559 53.1737 177.643 53.1636C177.685 53.1578 177.727 53.1567 177.771 53.1555C177.815 53.1545 177.859 53.1513 177.901 53.1404C177.814 53.1488 177.73 53.1264 177.64 53.1268Z" fill="#1E1735"/>
<path d="M178.066 55.1238C178.066 55.1238 179.173 55.7582 180.161 55.3691C180.874 55.0886 180.027 53.8348 179.098 53.6058C178.753 53.5207 178.101 53.6633 178.219 53.9575C178.463 54.5655 178.066 55.1238 178.066 55.1238Z" fill="#1E1735"/>
</g>
</g>
<defs>
<filter id="filter0_d_3119_4422" x="169.521" y="23.7549" width="58.099" height="30.8871" filterUnits="userSpaceOnUse" color-interpolation-filters="sRGB">
<feFlood flood-opacity="0" result="BackgroundImageFix"/>
<feColorMatrix in="SourceAlpha" type="matrix" values="0 0 0 0 0 0 0 0 0 0 0 0 0 0 0 0 0 0 127 0" result="hardAlpha"/>
<feOffset dy="4"/>
<feGaussianBlur stdDeviation="2"/>
<feComposite in2="hardAlpha" operator="out"/>
<feColorMatrix type="matrix" values="0 0 0 0 0 0 0 0 0 0 0 0 0 0 0 0 0 0 0.07 0"/>
<feBlend mode="normal" in2="BackgroundImageFix" result="effect1_dropShadow_3119_4422"/>
<feBlend mode="normal" in="SourceGraphic" in2="effect1_dropShadow_3119_4422" result="shape"/>
</filter>
<filter id="filter1_d_3119_4422" x="167.71" y="50.8367" width="39.0405" height="22.1804" filterUnits="userSpaceOnUse" color-interpolation-filters="sRGB">
<feFlood flood-opacity="0" result="BackgroundImageFix"/>
<feColorMatrix in="SourceAlpha" type="matrix" values="0 0 0 0 0 0 0 0 0 0 0 0 0 0 0 0 0 0 127 0" result="hardAlpha"/>
<feOffset dy="4"/>
<feGaussianBlur stdDeviation="2"/>
<feComposite in2="hardAlpha" operator="out"/>
<feColorMatrix type="matrix" values="0 0 0 0 0 0 0 0 0 0 0 0 0 0 0 0 0 0 0.07 0"/>
<feBlend mode="normal" in2="BackgroundImageFix" result="effect1_dropShadow_3119_4422"/>
<feBlend mode="normal" in="SourceGraphic" in2="effect1_dropShadow_3119_4422" result="shape"/>
</filter>
<linearGradient id="paint0_linear_3119_4422" x1="170" y1="139" x2="170" y2="369" gradientUnits="userSpaceOnUse">
<stop offset="0.00839934" stop-color="#F3F3F3" stop-opacity="0"/>
<stop offset="1" stop-color="#F3F3F3"/>
</linearGradient>
<clipPath id="clip0_3119_4422">
<rect width="143.232" height="167.265" fill="white" transform="translate(90)"/>
</clipPath>
</defs>
</svg>
